<svg width="569" height="539" viewBox="0 0 569 539" fill="none" xmlns="http://www.w3.org/2000/svg">
<path d="M358.493 98.0039C457.628 98.0039 537.993 178.369 537.993 277.504C537.993 376.639 457.628 457.004 358.493 457.004C259.358 457.004 178.993 376.639 178.993 277.504C178.993 178.369 259.358 98.0039 358.493 98.0039Z" fill="white" stroke="black" stroke-width="6"/>
<path d="M448.999 242.041C481.953 242.041 511.681 245.606 533.08 251.312C543.801 254.17 552.261 257.522 557.97 261.12C563.829 264.814 566 268.241 566 271.037C566 273.834 563.829 277.26 557.97 280.953C552.261 284.552 543.801 287.904 533.08 290.763C511.681 296.468 481.953 300.033 448.999 300.034C416.045 300.034 386.316 296.468 364.918 290.763C354.197 287.904 345.736 284.552 340.027 280.953C334.168 277.26 331.997 273.834 331.997 271.037C331.997 268.241 334.168 264.814 340.027 261.12C345.736 257.522 354.197 254.17 364.918 251.312C386.316 245.606 416.045 242.041 448.999 242.041Z" fill="#FDE64B" stroke="black" stroke-width="6"/>
<ellipse cx="409.998" cy="219.044" rx="9" ry="15.998" fill="black"/>
<ellipse cx="480.999" cy="219.044" rx="9" ry="15.998" fill="black"/>
<path d="M370.997 160.051C341.997 155.85 336.497 119.056 336.497 119.056C336.497 119.056 321.997 134.055 291.996 134.055C248.996 134.055 235.363 113.683 241.496 95.0596C249.398 71.0627 289.496 77.5616 289.496 77.5616C289.496 77.5616 296.667 59.3089 306.496 53.0648C318.24 45.6049 341.997 50.0651 341.997 50.0651C341.997 50.0651 364.997 -8.60563 415.498 5.07085C451.998 14.9559 439.498 59.5639 439.498 59.5639C439.498 59.5639 516.008 78.5617 496.999 123.556C472.499 181.549 421.998 131.055 421.998 131.055C421.998 131.055 415.498 166.499 370.997 160.051Z" fill="black" stroke="black" stroke-width="6"/>
<path d="M256.016 109.746C256.016 96.4134 268.204 86.3981 281.25 87.5044" stroke="white" stroke-width="6" stroke-linecap="round"/>
<path d="M301.266 83.3565C301.266 69.3702 320.497 57.0644 334.681 58.9861" stroke="white" stroke-width="6" stroke-linecap="round"/>
<path d="M355.452 56.8036C355.452 38.9051 373.633 19.6175 391.876 19.5292" stroke="white" stroke-width="6" stroke-linecap="round"/>
<path d="M251.496 467.512L276.496 438.016L305.997 450.515L279.996 482.011C279.996 482.011 291.713 482.011 300.497 487.01C332.997 505.508 330.682 530.662 298.997 535.004C267.312 539.346 225.996 516.006 230.496 487.01C232.488 474.175 251.496 467.512 251.496 467.512Z" fill="#FDE64B"/>
<path d="M298.997 535.004C267.312 539.346 225.996 516.006 230.496 487.01C232.488 474.175 251.496 467.512 251.496 467.512L276.496 438.016L305.997 450.515L279.996 482.011M298.997 535.004C330.682 530.662 332.997 505.508 300.497 487.01C291.713 482.011 279.996 482.011 279.996 482.011M298.997 535.004C298.997 535.004 307.997 530.004 305.997 522.005C303.176 510.727 283.496 502.508 283.496 502.508M267.496 482.011H279.996" stroke="black" stroke-width="6" stroke-linecap="round"/>
<path d="M442.498 496.009L412.998 449.515L442.498 436.516L462.999 472.512C467.665 467.137 479.298 459.401 491.499 454.392C505.445 448.668 520.131 446.508 526 455.514C547.5 488.51 475.499 534.004 448.499 524.505C436.168 520.167 442.498 496.009 442.498 496.009Z" fill="#FDE64B"/>
<path d="M491.499 454.392C505.445 448.668 520.131 446.508 526 455.514C547.5 488.51 475.499 534.004 448.499 524.505C436.168 520.167 442.498 496.009 442.498 496.009L412.998 449.515L442.498 436.516L462.999 472.512C467.665 467.137 479.298 459.401 491.499 454.392ZM491.499 454.392C491.499 454.392 510.215 451.742 513.499 461.013C517.57 472.503 496.499 493.009 496.499 493.009" stroke="black" stroke-width="6" stroke-linecap="round"/>
<path d="M175.423 374.279C141.332 346.478 226.671 299.057 226.671 299.057L244.066 332.21C244.066 332.21 209.513 402.08 175.423 374.279Z" fill="white"/>
<path d="M226.671 299.057C226.671 299.057 141.332 346.478 175.423 374.279C209.513 402.08 244.066 332.21 244.066 332.21" stroke="black" stroke-width="6" stroke-linecap="round"/>
<circle cx="57.3397" cy="522.018" r="13.986" fill="black"/>
<circle cx="57.3401" cy="522.018" r="6.99346" fill="white"/>
<circle cx="17.4763" cy="481.462" r="13.986" fill="black"/>
<circle cx="17.4767" cy="481.462" r="6.99346" fill="white"/>
<rect x="-0.0469592" y="4.24235" width="99.6727" height="159.105" rx="13" transform="matrix(0.699242 0.714885 -0.714895 0.699232 121.052 341.383)" fill="#FDE64B" stroke="black" stroke-width="6"/>
<path d="M67.8301 486.356L148.994 409.52" stroke="black" stroke-width="6" stroke-linecap="round"/>
<path d="M42.9932 459.86L124.158 383.023" stroke="black" stroke-width="6" stroke-linecap="round"/>
<path d="M166.495 392.522L180.995 378.024" stroke="black" stroke-width="6" stroke-linecap="round"/>
<path d="M151.995 378.024L167.495 362.026" stroke="black" stroke-width="6" stroke-linecap="round"/>
</svg>
