<svg width="500" height="550" viewBox="0 0 500 550" fill="none" xmlns="http://www.w3.org/2000/svg">
<g clip-path="url(#clip0_223_398)">
<rect width="500" height="550" rx="8" fill="#FDE64B"/>
<rect x="69" y="156" width="341" height="358" fill="white" stroke="black" stroke-width="8"/>
<path d="M178.534 231.981C178.693 231.438 179.018 231.166 179.509 231.166C179.615 231.166 179.688 231.172 179.728 231.186C180.231 230.96 180.755 230.781 181.299 230.649C181.843 230.503 182.399 230.43 182.97 230.43C183.354 230.43 183.725 230.47 184.083 230.549C184.441 230.615 184.793 230.748 185.138 230.947V230.927C185.509 231.113 185.84 231.351 186.132 231.643C186.424 231.935 186.676 232.26 186.888 232.618C187.1 232.976 187.259 233.354 187.365 233.751C187.485 234.149 187.544 234.547 187.544 234.945C187.544 235.727 187.332 236.443 186.908 237.093C186.47 237.769 185.927 238.313 185.277 238.724C184.64 239.122 183.891 239.354 183.029 239.42C182.87 239.433 182.704 239.446 182.532 239.46C182.373 239.46 182.22 239.46 182.075 239.46C181.796 239.46 181.524 239.453 181.259 239.44C180.994 239.413 180.742 239.387 180.503 239.36C180.503 239.864 180.503 240.414 180.503 241.011C180.503 241.608 180.51 242.145 180.523 242.622C180.51 242.967 180.397 243.219 180.185 243.378C179.986 243.537 179.767 243.617 179.529 243.617C179.303 243.617 179.091 243.537 178.892 243.378C178.707 243.232 178.594 243.007 178.554 242.702V238.923L178.514 238.903C178.077 238.651 177.858 238.352 177.858 238.008C177.858 237.849 177.911 237.696 178.017 237.55C178.123 237.404 178.296 237.298 178.534 237.232V231.981ZM184.203 232.498C183.818 232.286 183.401 232.18 182.95 232.18C182.525 232.18 182.101 232.246 181.677 232.379C181.266 232.498 180.875 232.651 180.503 232.836V237.59C181.007 237.696 181.504 237.749 181.995 237.749C182.512 237.749 183.023 237.676 183.527 237.53C184.044 237.371 184.468 237.119 184.799 236.775C185.065 236.509 185.25 236.211 185.356 235.88C185.476 235.548 185.535 235.21 185.535 234.865C185.535 234.361 185.423 233.904 185.197 233.493C184.985 233.069 184.654 232.737 184.203 232.498ZM195.719 242.065C195.798 242.264 195.811 242.456 195.758 242.642C195.719 242.814 195.626 242.954 195.48 243.06C195.347 243.179 195.175 243.245 194.963 243.259C194.751 243.285 194.525 243.239 194.287 243.119C194.18 243.013 194.074 242.907 193.968 242.801C193.875 242.682 193.796 242.569 193.73 242.463C193.252 242.821 192.801 243.046 192.377 243.139C191.966 243.245 191.515 243.298 191.025 243.298C190.667 243.298 190.315 243.259 189.971 243.179C189.639 243.113 189.301 242.967 188.956 242.741C188.452 242.383 188.094 241.959 187.882 241.469C187.67 240.978 187.564 240.461 187.564 239.917C187.564 239.36 187.643 238.836 187.803 238.346C187.975 237.842 188.207 237.378 188.499 236.954C188.79 236.516 189.122 236.118 189.493 235.76C189.878 235.402 190.289 235.084 190.726 234.806C190.819 234.752 190.945 234.693 191.104 234.627C191.277 234.56 191.469 234.501 191.681 234.448C191.893 234.381 192.112 234.335 192.337 234.308C192.563 234.269 192.782 234.249 192.994 234.249C193.405 234.249 193.769 234.302 194.088 234.408C194.419 234.501 194.658 234.739 194.804 235.124C194.804 235.522 194.804 235.853 194.804 236.118C194.804 236.383 194.797 236.609 194.784 236.794C194.784 236.967 194.784 237.113 194.784 237.232C194.784 237.351 194.784 237.464 194.784 237.57C194.784 238.034 194.797 238.518 194.824 239.022C194.85 239.513 194.896 239.997 194.963 240.474C194.989 240.62 195.049 240.792 195.142 240.991C195.248 241.19 195.354 241.369 195.46 241.528H195.44C195.533 241.674 195.606 241.793 195.659 241.886C195.725 241.979 195.745 242.039 195.719 242.065ZM193.033 240.653C192.927 240.189 192.861 239.712 192.835 239.221C192.808 238.717 192.795 238.22 192.795 237.729C192.795 237.385 192.801 237.073 192.815 236.794C192.828 236.516 192.835 236.244 192.835 235.979C192.609 236.006 192.377 236.065 192.138 236.158C191.913 236.251 191.754 236.317 191.661 236.357C191.303 236.516 190.978 236.741 190.687 237.033C190.408 237.325 190.176 237.65 189.99 238.008C189.805 238.366 189.666 238.744 189.573 239.141C189.493 239.526 189.487 239.904 189.553 240.275C189.593 240.567 189.692 240.812 189.851 241.011C190.024 241.197 190.222 241.343 190.448 241.449C190.673 241.541 190.912 241.588 191.164 241.588C191.429 241.588 191.681 241.548 191.92 241.469C192.211 241.296 192.583 241.024 193.033 240.653ZM203.736 234.527C203.935 234.156 204.24 233.97 204.651 233.97C204.916 233.97 205.135 234.063 205.307 234.249C205.493 234.434 205.585 234.693 205.585 235.024C205.373 235.846 205.108 236.662 204.79 237.471C204.485 238.266 204.14 239.055 203.756 239.838C203.384 240.607 202.987 241.369 202.562 242.125C202.151 242.881 201.734 243.63 201.309 244.372C201.097 244.744 200.885 245.108 200.673 245.466C200.474 245.824 200.268 246.196 200.056 246.58C199.91 246.766 199.751 246.898 199.579 246.978C199.42 247.057 199.267 247.097 199.121 247.097C198.869 247.097 198.657 247.024 198.485 246.878C198.313 246.733 198.226 246.507 198.226 246.202C198.226 246.162 198.226 246.116 198.226 246.063C198.226 246.023 198.233 245.977 198.246 245.924C198.472 245.499 198.704 245.082 198.942 244.671C199.194 244.26 199.433 243.849 199.658 243.438L200.872 241.27C200.341 240.845 199.871 240.414 199.459 239.977C199.048 239.539 198.677 239.082 198.346 238.604C198.027 238.114 197.742 237.59 197.49 237.033C197.252 236.463 197.04 235.846 196.854 235.183C196.854 234.428 197.166 234.05 197.789 234.05C198.001 234.05 198.193 234.109 198.366 234.229C198.551 234.348 198.684 234.54 198.763 234.806C199.029 235.853 199.413 236.755 199.917 237.51C200.421 238.266 201.031 238.962 201.747 239.599C202.171 238.777 202.542 237.968 202.861 237.172C203.179 236.364 203.464 235.482 203.716 234.527H203.736ZM221.91 242.065C221.99 242.264 222.003 242.456 221.95 242.642C221.91 242.814 221.817 242.954 221.671 243.06C221.539 243.179 221.366 243.245 221.154 243.259C220.942 243.285 220.717 243.239 220.478 243.119C220.372 243.013 220.266 242.907 220.16 242.801C220.067 242.682 219.987 242.569 219.921 242.463C219.444 242.821 218.993 243.046 218.569 243.139C218.157 243.245 217.707 243.298 217.216 243.298C216.858 243.298 216.507 243.259 216.162 243.179C215.83 243.113 215.492 242.967 215.148 242.741C214.644 242.383 214.286 241.959 214.074 241.469C213.861 240.978 213.755 240.461 213.755 239.917C213.755 239.36 213.835 238.836 213.994 238.346C214.166 237.842 214.398 237.378 214.69 236.954C214.982 236.516 215.313 236.118 215.685 235.76C216.069 235.402 216.48 235.084 216.918 234.806C217.011 234.752 217.136 234.693 217.296 234.627C217.468 234.56 217.66 234.501 217.872 234.448C218.085 234.381 218.303 234.335 218.529 234.308C218.754 234.269 218.973 234.249 219.185 234.249C219.596 234.249 219.961 234.302 220.279 234.408C220.611 234.501 220.849 234.739 220.995 235.124C220.995 235.522 220.995 235.853 220.995 236.118C220.995 236.383 220.988 236.609 220.975 236.794C220.975 236.967 220.975 237.113 220.975 237.232C220.975 237.351 220.975 237.464 220.975 237.57C220.975 238.034 220.988 238.518 221.015 239.022C221.041 239.513 221.088 239.997 221.154 240.474C221.181 240.62 221.24 240.792 221.333 240.991C221.439 241.19 221.545 241.369 221.651 241.528H221.632C221.724 241.674 221.797 241.793 221.85 241.886C221.917 241.979 221.936 242.039 221.91 242.065ZM219.225 240.653C219.119 240.189 219.053 239.712 219.026 239.221C218.999 238.717 218.986 238.22 218.986 237.729C218.986 237.385 218.993 237.073 219.006 236.794C219.019 236.516 219.026 236.244 219.026 235.979C218.801 236.006 218.569 236.065 218.33 236.158C218.104 236.251 217.945 236.317 217.853 236.357C217.495 236.516 217.17 236.741 216.878 237.033C216.599 237.325 216.367 237.65 216.182 238.008C215.996 238.366 215.857 238.744 215.764 239.141C215.685 239.526 215.678 239.904 215.744 240.275C215.784 240.567 215.883 240.812 216.043 241.011C216.215 241.197 216.414 241.343 216.639 241.449C216.865 241.541 217.103 241.588 217.355 241.588C217.62 241.588 217.872 241.548 218.111 241.469C218.403 241.296 218.774 241.024 219.225 240.653ZM223.239 241.528C223.053 241.144 223.046 240.825 223.219 240.573C223.404 240.308 223.67 240.176 224.014 240.176C224.24 240.176 224.485 240.262 224.75 240.434C225.029 240.806 225.36 241.117 225.745 241.369C226.129 241.621 226.534 241.707 226.958 241.628C227.157 241.588 227.329 241.515 227.475 241.409C227.634 241.29 227.747 241.157 227.813 241.011C227.893 240.865 227.933 240.706 227.933 240.534C227.933 240.361 227.886 240.202 227.793 240.056C227.674 239.871 227.541 239.725 227.396 239.619C227.263 239.513 227.117 239.433 226.958 239.38C226.812 239.327 226.666 239.287 226.52 239.261C226.388 239.234 226.262 239.201 226.143 239.161C225.944 239.108 225.745 239.055 225.546 239.002C225.347 238.936 225.155 238.856 224.969 238.764C224.783 238.671 224.604 238.558 224.432 238.425C224.26 238.28 224.094 238.101 223.935 237.888C223.789 237.69 223.676 237.477 223.597 237.252C223.517 237.013 223.477 236.794 223.477 236.596C223.477 236.317 223.53 236.032 223.636 235.74C223.743 235.449 223.882 235.183 224.054 234.945C224.24 234.693 224.452 234.481 224.691 234.308C224.943 234.123 225.208 233.997 225.486 233.93C226.043 233.785 226.62 233.765 227.217 233.871C227.827 233.977 228.37 234.162 228.848 234.428C229.033 234.56 229.172 234.699 229.265 234.845C229.358 234.991 229.404 235.13 229.404 235.263C229.404 235.422 229.358 235.568 229.265 235.701C229.186 235.82 229.073 235.919 228.927 235.999C228.795 236.078 228.635 236.118 228.45 236.118C228.277 236.118 228.092 236.065 227.893 235.959C227.734 235.88 227.508 235.807 227.217 235.74C226.938 235.661 226.66 235.634 226.381 235.661C226.103 235.674 225.871 235.76 225.685 235.919C225.499 236.078 225.427 236.344 225.466 236.715C225.546 236.861 225.639 236.987 225.745 237.093C225.864 237.186 225.99 237.265 226.123 237.331C226.269 237.398 226.421 237.457 226.58 237.51C226.739 237.55 226.892 237.59 227.038 237.63C227.449 237.749 227.827 237.888 228.171 238.048C228.516 238.193 228.814 238.379 229.066 238.604C229.318 238.83 229.511 239.102 229.643 239.42C229.789 239.738 229.862 240.123 229.862 240.573C229.862 240.931 229.782 241.283 229.623 241.628C229.464 241.959 229.252 242.257 228.987 242.523C228.735 242.788 228.443 243 228.112 243.159C227.78 243.318 227.449 243.398 227.117 243.398C226.375 243.398 225.652 243.232 224.949 242.901C224.246 242.569 223.683 242.112 223.259 241.528H223.239ZM244.745 234.527C244.944 234.156 245.249 233.97 245.66 233.97C245.926 233.97 246.144 234.063 246.317 234.249C246.502 234.434 246.595 234.693 246.595 235.024C246.383 235.846 246.118 236.662 245.8 237.471C245.495 238.266 245.15 239.055 244.765 239.838C244.394 240.607 243.996 241.369 243.572 242.125C243.161 242.881 242.743 243.63 242.319 244.372C242.107 244.744 241.895 245.108 241.682 245.466C241.484 245.824 241.278 246.196 241.066 246.58C240.92 246.766 240.761 246.898 240.589 246.978C240.429 247.057 240.277 247.097 240.131 247.097C239.879 247.097 239.667 247.024 239.495 246.878C239.322 246.733 239.236 246.507 239.236 246.202C239.236 246.162 239.236 246.116 239.236 246.063C239.236 246.023 239.243 245.977 239.256 245.924C239.481 245.499 239.713 245.082 239.952 244.671C240.204 244.26 240.443 243.849 240.668 243.438L241.881 241.27C241.351 240.845 240.88 240.414 240.469 239.977C240.058 239.539 239.687 239.082 239.355 238.604C239.037 238.114 238.752 237.59 238.5 237.033C238.261 236.463 238.049 235.846 237.864 235.183C237.864 234.428 238.175 234.05 238.799 234.05C239.011 234.05 239.203 234.109 239.375 234.229C239.561 234.348 239.694 234.54 239.773 234.806C240.038 235.853 240.423 236.755 240.927 237.51C241.431 238.266 242.041 238.962 242.757 239.599C243.181 238.777 243.552 237.968 243.87 237.172C244.189 236.364 244.474 235.482 244.726 234.527H244.745ZM251.656 234.328C252.213 234.328 252.704 234.448 253.128 234.686C253.566 234.925 253.93 235.243 254.222 235.641C254.527 236.025 254.752 236.47 254.898 236.973C255.057 237.464 255.137 237.968 255.137 238.485C255.137 238.71 255.124 238.923 255.097 239.122C255.071 239.307 255.037 239.499 254.998 239.698C254.852 240.242 254.633 240.752 254.341 241.23C254.063 241.707 253.731 242.125 253.347 242.483C252.962 242.828 252.531 243.099 252.054 243.298C251.59 243.497 251.099 243.597 250.582 243.597C250.038 243.597 249.541 243.477 249.09 243.239C248.653 243 248.282 242.695 247.977 242.324C247.672 241.939 247.433 241.515 247.261 241.051C247.101 240.573 247.022 240.096 247.022 239.619C247.022 238.956 247.141 238.313 247.38 237.69C247.632 237.053 247.963 236.49 248.374 235.999C248.799 235.495 249.289 235.091 249.846 234.786C250.416 234.481 251.02 234.328 251.656 234.328ZM249.09 238.604C249.011 238.909 248.971 239.248 248.971 239.619C248.971 239.99 249.024 240.341 249.13 240.673C249.236 240.991 249.409 241.263 249.647 241.488C249.899 241.714 250.231 241.827 250.642 241.827C251.04 241.827 251.391 241.714 251.696 241.488C252.014 241.25 252.279 240.965 252.492 240.633C252.717 240.288 252.889 239.924 253.009 239.539C253.128 239.141 253.188 238.783 253.188 238.465C253.188 238.173 253.155 237.888 253.088 237.61C253.022 237.318 252.916 237.06 252.77 236.834C252.637 236.609 252.472 236.43 252.273 236.297C252.074 236.151 251.848 236.078 251.596 236.078C251.278 236.078 250.98 236.165 250.701 236.337C250.423 236.496 250.171 236.702 249.946 236.954C249.734 237.192 249.555 237.464 249.409 237.769C249.263 238.061 249.157 238.339 249.09 238.604ZM264.829 241.528C265.001 241.767 265.087 241.986 265.087 242.185C265.087 242.423 264.995 242.622 264.809 242.781C264.637 242.927 264.424 243 264.172 243C263.867 243 263.602 242.887 263.377 242.662C263.165 242.436 262.986 242.171 262.84 241.866C262.508 242.171 262.117 242.436 261.666 242.662C261.216 242.887 260.758 243 260.294 243C259.936 243 259.578 242.94 259.22 242.821C258.875 242.688 258.55 242.516 258.245 242.304C257.954 242.078 257.695 241.82 257.47 241.528C257.258 241.236 257.092 240.925 256.972 240.593C256.866 240.249 256.793 239.871 256.754 239.46C256.727 239.049 256.714 238.618 256.714 238.167C256.714 237.875 256.714 237.59 256.714 237.312C256.714 237.033 256.721 236.761 256.734 236.496C256.747 236.271 256.754 236.052 256.754 235.84C256.767 235.628 256.774 235.429 256.774 235.243C256.84 234.951 256.959 234.739 257.132 234.607C257.317 234.474 257.529 234.408 257.768 234.408C257.967 234.408 258.159 234.474 258.345 234.607C258.544 234.726 258.676 234.918 258.743 235.183C258.743 235.488 258.743 235.787 258.743 236.078C258.743 236.37 258.736 236.662 258.723 236.954C258.709 237.259 258.696 237.557 258.683 237.849C258.683 238.14 258.683 238.452 258.683 238.783C258.683 239.499 258.822 240.083 259.101 240.534C259.379 240.985 259.757 241.21 260.234 241.21C260.619 241.21 260.977 241.064 261.308 240.772C261.64 240.467 261.958 240.123 262.263 239.738C262.184 239.102 262.144 238.452 262.144 237.789C262.144 237.404 262.144 237.013 262.144 236.615C262.157 236.218 262.197 235.86 262.263 235.541C262.343 235.21 262.455 234.945 262.601 234.746C262.76 234.534 262.992 234.428 263.297 234.428C263.536 234.428 263.748 234.507 263.934 234.666C264.133 234.825 264.232 235.064 264.232 235.382C264.232 235.661 264.212 235.979 264.172 236.337C264.146 236.562 264.126 236.801 264.113 237.053C264.1 237.305 264.093 237.564 264.093 237.829C264.093 238.187 264.1 238.551 264.113 238.923C264.139 239.281 264.179 239.625 264.232 239.957C264.298 240.288 264.378 240.593 264.471 240.872C264.564 241.137 264.683 241.356 264.829 241.528ZM281.212 241.528C281.384 241.767 281.47 241.986 281.47 242.185C281.47 242.423 281.377 242.622 281.192 242.781C281.019 242.927 280.807 243 280.555 243C280.25 243 279.985 242.887 279.76 242.662C279.548 242.436 279.369 242.171 279.223 241.866C278.891 242.171 278.5 242.436 278.049 242.662C277.598 242.887 277.141 243 276.677 243C276.319 243 275.961 242.94 275.603 242.821C275.258 242.688 274.933 242.516 274.628 242.304C274.336 242.078 274.078 241.82 273.853 241.528C273.64 241.236 273.475 240.925 273.355 240.593C273.249 240.249 273.176 239.871 273.136 239.46C273.11 239.049 273.097 238.618 273.097 238.167C273.097 237.875 273.097 237.59 273.097 237.312C273.097 237.033 273.103 236.761 273.117 236.496C273.13 236.271 273.136 236.052 273.136 235.84C273.15 235.628 273.156 235.429 273.156 235.243C273.223 234.951 273.342 234.739 273.514 234.607C273.7 234.474 273.912 234.408 274.151 234.408C274.35 234.408 274.542 234.474 274.728 234.607C274.927 234.726 275.059 234.918 275.125 235.183C275.125 235.488 275.125 235.787 275.125 236.078C275.125 236.37 275.119 236.662 275.106 236.954C275.092 237.259 275.079 237.557 275.066 237.849C275.066 238.14 275.066 238.452 275.066 238.783C275.066 239.499 275.205 240.083 275.483 240.534C275.762 240.985 276.14 241.21 276.617 241.21C277.002 241.21 277.36 241.064 277.691 240.772C278.023 240.467 278.341 240.123 278.646 239.738C278.566 239.102 278.527 238.452 278.527 237.789C278.527 237.404 278.527 237.013 278.527 236.615C278.54 236.218 278.58 235.86 278.646 235.541C278.725 235.21 278.838 234.945 278.984 234.746C279.143 234.534 279.375 234.428 279.68 234.428C279.919 234.428 280.131 234.507 280.317 234.666C280.516 234.825 280.615 235.064 280.615 235.382C280.615 235.661 280.595 235.979 280.555 236.337C280.529 236.562 280.509 236.801 280.496 237.053C280.482 237.305 280.476 237.564 280.476 237.829C280.476 238.187 280.482 238.551 280.496 238.923C280.522 239.281 280.562 239.625 280.615 239.957C280.681 240.288 280.761 240.593 280.854 240.872C280.946 241.137 281.066 241.356 281.212 241.528ZM282.758 241.528C282.573 241.144 282.566 240.825 282.738 240.573C282.924 240.308 283.189 240.176 283.534 240.176C283.759 240.176 284.005 240.262 284.27 240.434C284.548 240.806 284.88 241.117 285.264 241.369C285.649 241.621 286.053 241.707 286.478 241.628C286.676 241.588 286.849 241.515 286.995 241.409C287.154 241.29 287.267 241.157 287.333 241.011C287.412 240.865 287.452 240.706 287.452 240.534C287.452 240.361 287.406 240.202 287.313 240.056C287.194 239.871 287.061 239.725 286.915 239.619C286.783 239.513 286.637 239.433 286.478 239.38C286.332 239.327 286.186 239.287 286.04 239.261C285.907 239.234 285.781 239.201 285.662 239.161C285.463 239.108 285.264 239.055 285.065 239.002C284.867 238.936 284.674 238.856 284.489 238.764C284.303 238.671 284.124 238.558 283.952 238.425C283.779 238.28 283.613 238.101 283.454 237.888C283.309 237.69 283.196 237.477 283.116 237.252C283.037 237.013 282.997 236.794 282.997 236.596C282.997 236.317 283.05 236.032 283.156 235.74C283.262 235.449 283.401 235.183 283.574 234.945C283.759 234.693 283.971 234.481 284.21 234.308C284.462 234.123 284.727 233.997 285.006 233.93C285.563 233.785 286.139 233.765 286.736 233.871C287.346 233.977 287.89 234.162 288.367 234.428C288.553 234.56 288.692 234.699 288.785 234.845C288.878 234.991 288.924 235.13 288.924 235.263C288.924 235.422 288.878 235.568 288.785 235.701C288.705 235.82 288.592 235.919 288.447 235.999C288.314 236.078 288.155 236.118 287.969 236.118C287.797 236.118 287.611 236.065 287.412 235.959C287.253 235.88 287.028 235.807 286.736 235.74C286.458 235.661 286.179 235.634 285.901 235.661C285.622 235.674 285.39 235.76 285.205 235.919C285.019 236.078 284.946 236.344 284.986 236.715C285.065 236.861 285.158 236.987 285.264 237.093C285.384 237.186 285.51 237.265 285.642 237.331C285.788 237.398 285.941 237.457 286.1 237.51C286.259 237.55 286.411 237.59 286.557 237.63C286.968 237.749 287.346 237.888 287.691 238.048C288.036 238.193 288.334 238.379 288.586 238.604C288.838 238.83 289.03 239.102 289.163 239.42C289.309 239.738 289.381 240.123 289.381 240.573C289.381 240.931 289.302 241.283 289.143 241.628C288.984 241.959 288.771 242.257 288.506 242.523C288.254 242.788 287.963 243 287.631 243.159C287.3 243.318 286.968 243.398 286.637 243.398C285.894 243.398 285.171 243.232 284.469 242.901C283.766 242.569 283.202 242.112 282.778 241.528H282.758ZM297.71 240.554C297.922 240.474 298.115 240.441 298.287 240.454C298.473 240.467 298.625 240.514 298.744 240.593C298.877 240.673 298.976 240.779 299.043 240.912C299.122 241.031 299.162 241.164 299.162 241.309C299.162 241.455 299.116 241.601 299.023 241.747C298.93 241.88 298.784 242.006 298.585 242.125C298.028 242.456 297.425 242.741 296.775 242.98C296.139 243.206 295.496 243.318 294.846 243.318C294.462 243.318 294.07 243.259 293.673 243.139C293.275 243.033 292.904 242.861 292.559 242.622C292.002 242.211 291.564 241.674 291.246 241.011C290.941 240.335 290.789 239.645 290.789 238.943C290.789 238.253 290.921 237.59 291.186 236.954C291.465 236.317 291.902 235.8 292.499 235.402C292.976 235.071 293.494 234.806 294.051 234.607C294.607 234.408 295.184 234.308 295.781 234.308C296.099 234.308 296.411 234.341 296.716 234.408C297.007 234.474 297.279 234.593 297.531 234.766C297.783 234.925 298.002 235.124 298.188 235.362C298.373 235.588 298.519 235.84 298.625 236.118C298.731 236.397 298.784 236.675 298.784 236.954C298.784 237.139 298.764 237.318 298.725 237.491C298.685 237.663 298.612 237.829 298.506 237.988C298.307 238.306 298.035 238.585 297.69 238.823C297.346 239.049 296.968 239.248 296.557 239.42C296.146 239.592 295.721 239.738 295.284 239.857C294.846 239.977 294.435 240.083 294.051 240.176C293.639 240.282 293.374 240.348 293.255 240.375C293.149 240.401 293.083 240.414 293.056 240.414C293.242 240.799 293.507 241.104 293.852 241.329C294.196 241.555 294.621 241.648 295.125 241.608C295.549 241.581 295.986 241.462 296.437 241.25C296.901 241.024 297.326 240.792 297.71 240.554ZM294.051 236.556C293.613 236.781 293.288 237.086 293.076 237.471C292.864 237.842 292.744 238.26 292.718 238.724C292.718 238.724 292.725 238.724 292.738 238.724C292.764 238.71 292.824 238.691 292.917 238.664C293.023 238.638 293.175 238.598 293.374 238.545C293.573 238.478 293.858 238.392 294.23 238.286C294.362 238.246 294.561 238.193 294.826 238.127C295.091 238.048 295.357 237.961 295.622 237.869C295.9 237.762 296.152 237.643 296.378 237.51C296.616 237.378 296.775 237.232 296.855 237.073C296.881 236.688 296.795 236.423 296.596 236.277C296.397 236.131 296.159 236.059 295.88 236.059C295.575 236.059 295.251 236.118 294.906 236.238C294.561 236.344 294.276 236.45 294.051 236.556Z" fill="black"/>
<path d="M169.161 275.052C169.267 274.522 169.311 273.894 169.293 273.169C169.276 272.444 169.152 271.746 168.922 271.074C168.71 270.402 168.374 269.836 167.914 269.377C167.472 268.917 166.862 268.687 166.085 268.687C165.236 268.687 164.555 268.961 164.043 269.509C163.53 270.057 163.141 270.729 162.876 271.525C162.628 272.303 162.478 273.116 162.425 273.965C162.372 274.796 162.39 275.503 162.478 276.086C162.531 276.475 162.619 276.882 162.743 277.306C162.885 277.73 163.061 278.119 163.273 278.473C163.486 278.827 163.751 279.109 164.069 279.322C164.405 279.534 164.803 279.631 165.262 279.613C165.899 279.578 166.429 279.436 166.854 279.189C167.296 278.924 167.667 278.597 167.967 278.208C168.268 277.801 168.507 277.341 168.683 276.829C168.878 276.298 169.028 275.75 169.134 275.185L169.161 275.052ZM172.21 275.582C171.981 276.873 171.539 278.11 170.885 279.295C170.23 280.462 169.32 281.408 168.153 282.133C167.57 282.415 166.951 282.601 166.297 282.69C165.643 282.778 164.997 282.769 164.361 282.663C163.724 282.557 163.123 282.336 162.557 282C161.992 281.682 161.506 281.249 161.099 280.701C160.215 279.498 159.64 278.252 159.375 276.961C159.128 275.671 159.119 274.309 159.349 272.877C159.508 271.87 159.782 270.871 160.171 269.881C160.577 268.891 161.143 268.024 161.868 267.282C162.451 266.681 163.097 266.23 163.804 265.929C164.511 265.611 165.227 265.443 165.952 265.425C166.694 265.408 167.419 265.54 168.127 265.823C168.851 266.106 169.514 266.53 170.115 267.096C170.717 267.662 171.185 268.29 171.521 268.979C171.875 269.651 172.122 270.349 172.264 271.074C172.405 271.799 172.467 272.55 172.449 273.328C172.431 274.088 172.352 274.84 172.21 275.582ZM178.798 280.541C178.798 280.983 178.692 281.364 178.479 281.682C178.285 281.982 178.037 282.212 177.737 282.371C177.436 282.53 177.1 282.61 176.729 282.61C176.376 282.628 176.04 282.566 175.721 282.424C175.403 282.301 175.129 282.097 174.899 281.814C174.687 281.531 174.563 281.169 174.528 280.727C174.493 280.267 174.572 279.887 174.767 279.587C174.979 279.269 175.244 279.03 175.562 278.871C175.88 278.712 176.225 278.632 176.597 278.632C176.968 278.614 177.313 278.676 177.631 278.818C177.967 278.941 178.241 279.154 178.453 279.454C178.683 279.737 178.798 280.099 178.798 280.541ZM190.776 279.454C191.129 279.56 191.439 279.764 191.704 280.064C191.969 280.365 192.146 280.683 192.234 281.019C192.34 281.337 192.323 281.646 192.181 281.947C192.058 282.23 191.775 282.407 191.333 282.477C190.484 282.619 189.609 282.681 188.707 282.663C187.806 282.663 186.957 282.654 186.161 282.636C185.613 282.636 185.233 282.469 185.021 282.133C184.827 281.797 184.765 281.434 184.835 281.045C184.924 280.639 185.145 280.276 185.498 279.958C185.852 279.622 186.303 279.454 186.851 279.454V269.801C186.621 269.854 186.391 269.845 186.161 269.775C185.932 269.686 185.728 269.562 185.551 269.403C185.375 269.244 185.233 269.059 185.127 268.846C185.039 268.617 185.012 268.387 185.048 268.157C185.101 267.768 185.295 267.37 185.631 266.964C185.985 266.557 186.391 266.221 186.851 265.956C187.311 265.691 187.779 265.531 188.256 265.478C188.751 265.425 189.176 265.549 189.529 265.85C189.671 265.956 189.795 266.106 189.901 266.301C190.024 266.495 190.086 266.672 190.086 266.831C190.104 268.952 190.104 271.065 190.086 273.169C190.086 275.255 190.086 277.35 190.086 279.454H190.776ZM216.387 277.333C216.67 277.05 216.988 276.891 217.341 276.855C217.713 276.802 218.049 276.846 218.349 276.988C218.65 277.129 218.88 277.359 219.039 277.677C219.215 277.978 219.26 278.34 219.171 278.765C219.065 279.189 218.862 279.587 218.561 279.958C218.261 280.312 217.96 280.639 217.66 280.939C216.97 281.664 216.201 282.194 215.352 282.53C214.521 282.884 213.673 283.052 212.807 283.034C211.958 283.017 211.118 282.813 210.287 282.424C209.474 282.035 208.74 281.452 208.086 280.674C207.697 280.214 207.37 279.728 207.105 279.215C206.84 278.703 206.636 278.164 206.495 277.598C206.283 276.767 206.186 275.901 206.203 274.999C206.221 274.097 206.362 273.222 206.628 272.373C206.893 271.525 207.264 270.729 207.741 269.987C208.236 269.227 208.838 268.581 209.545 268.051C210.057 267.662 210.57 267.326 211.083 267.043C211.613 266.76 212.17 266.495 212.754 266.248C213.089 266.106 213.434 265.973 213.788 265.85C214.141 265.708 214.504 265.602 214.875 265.531C215.246 265.461 215.618 265.434 215.989 265.452C216.36 265.47 216.723 265.549 217.076 265.691C217.324 265.797 217.571 265.947 217.819 266.141C218.066 266.318 218.296 266.53 218.508 266.778C218.72 267.008 218.906 267.255 219.065 267.52C219.224 267.786 219.339 268.042 219.41 268.29C219.463 268.519 219.472 268.758 219.436 269.006C219.419 269.235 219.348 269.448 219.224 269.642C219.118 269.836 218.968 270.004 218.773 270.146C218.579 270.27 218.358 270.349 218.11 270.385C217.704 270.438 217.386 270.393 217.156 270.252C216.944 270.11 216.767 269.934 216.625 269.722C216.502 269.509 216.378 269.306 216.254 269.112C216.13 268.899 215.954 268.749 215.724 268.661C215.582 268.661 215.476 268.67 215.405 268.687C214.804 268.846 214.194 269.067 213.576 269.35C212.975 269.615 212.409 269.943 211.878 270.331C211.366 270.72 210.915 271.171 210.526 271.684C210.137 272.197 209.854 272.771 209.677 273.408C209.465 274.168 209.386 274.937 209.439 275.715C209.492 276.493 209.704 277.227 210.075 277.916C210.287 278.323 210.57 278.676 210.924 278.977C211.277 279.277 211.666 279.507 212.091 279.666C212.515 279.808 212.948 279.861 213.39 279.825C213.832 279.772 214.256 279.613 214.663 279.348C215.017 279.101 215.335 278.8 215.618 278.446C215.901 278.075 216.157 277.704 216.387 277.333ZM224.12 281.045C224.067 281.434 223.916 281.77 223.669 282.053C223.421 282.354 223.139 282.557 222.82 282.663C222.502 282.769 222.184 282.769 221.866 282.663C221.547 282.557 221.3 282.301 221.123 281.894C221.035 281.699 220.973 281.355 220.937 280.86C220.902 280.347 220.876 279.817 220.858 279.269C220.84 278.72 220.831 278.217 220.831 277.757C220.849 277.28 220.858 276.988 220.858 276.882V271.339C220.858 271.286 220.849 271.021 220.831 270.544C220.831 270.066 220.831 269.545 220.831 268.979C220.849 268.396 220.876 267.839 220.911 267.308C220.964 266.76 221.052 266.389 221.176 266.194C221.335 265.929 221.53 265.744 221.76 265.638C221.989 265.514 222.219 265.461 222.449 265.478C222.697 265.496 222.935 265.567 223.165 265.691C223.413 265.814 223.616 266 223.775 266.248C223.846 266.336 223.908 266.442 223.961 266.566C224.031 266.69 224.067 266.804 224.067 266.91C224.084 267.759 224.084 268.599 224.067 269.43C224.049 270.243 224.04 271.074 224.04 271.923C224.677 271.551 225.26 271.136 225.79 270.676C226.339 270.199 226.869 269.66 227.382 269.059C227.505 268.899 227.682 268.661 227.912 268.343C228.142 268.024 228.389 267.697 228.655 267.361C228.92 267.025 229.185 266.716 229.45 266.433C229.715 266.133 229.945 265.938 230.14 265.85C230.529 265.655 230.9 265.585 231.253 265.638C231.607 265.691 231.899 265.832 232.129 266.062C232.358 266.274 232.5 266.557 232.553 266.91C232.624 267.246 232.562 267.6 232.367 267.971C232.297 268.13 232.217 268.263 232.129 268.369C232.058 268.475 231.978 268.572 231.89 268.661C231.819 268.749 231.74 268.846 231.651 268.952C231.563 269.059 231.474 269.182 231.386 269.324C231.156 269.695 230.882 270.075 230.564 270.464C230.246 270.835 229.91 271.207 229.556 271.578C229.203 271.931 228.84 272.276 228.469 272.612C228.098 272.948 227.744 273.266 227.408 273.567C227.85 274.044 228.292 274.522 228.734 274.999C229.176 275.476 229.627 275.954 230.087 276.431C230.193 276.537 230.423 276.767 230.776 277.12C231.13 277.456 231.501 277.836 231.89 278.261C232.297 278.667 232.659 279.074 232.977 279.481C233.313 279.887 233.508 280.206 233.561 280.435C233.649 280.789 233.631 281.125 233.508 281.443C233.384 281.744 233.189 281.991 232.924 282.186C232.677 282.38 232.385 282.486 232.049 282.504C231.731 282.522 231.413 282.415 231.094 282.186C230.953 282.08 230.803 281.956 230.643 281.814C230.502 281.655 230.361 281.496 230.219 281.337C230.095 281.178 229.972 281.028 229.848 280.886C229.724 280.727 229.618 280.603 229.53 280.515C228.699 279.613 227.877 278.729 227.063 277.863C226.25 276.997 225.428 276.122 224.597 275.238C224.509 275.273 224.411 275.317 224.305 275.37C224.199 275.406 224.102 275.441 224.014 275.476C224.014 276.378 224.023 277.28 224.04 278.181C224.058 279.065 224.084 279.958 224.12 280.86V281.045ZM238.038 282.636C237.278 282.548 236.809 282.301 236.632 281.894C236.473 281.47 236.473 281.01 236.632 280.515V269.748C236.35 269.748 236.093 269.677 235.863 269.536C235.651 269.377 235.474 269.182 235.333 268.952C235.209 268.723 235.147 268.475 235.147 268.21C235.147 267.927 235.227 267.671 235.386 267.441C235.74 266.91 236.19 266.495 236.739 266.194C237.304 265.894 237.888 265.646 238.489 265.452C239.426 265.151 240.363 264.983 241.3 264.948C242.255 264.913 243.192 265.107 244.111 265.531C244.942 265.92 245.596 266.424 246.073 267.043C246.551 267.662 246.851 268.325 246.975 269.032C247.099 269.722 247.037 270.438 246.789 271.18C246.542 271.905 246.1 272.586 245.463 273.222C246.294 273.752 246.887 274.389 247.24 275.131C247.594 275.856 247.735 276.608 247.664 277.386C247.611 278.164 247.364 278.915 246.922 279.64C246.498 280.365 245.914 280.992 245.172 281.523C244.73 281.841 244.208 282.08 243.607 282.239C243.024 282.415 242.414 282.539 241.777 282.61C241.158 282.681 240.54 282.716 239.921 282.716C239.302 282.716 238.736 282.698 238.224 282.663L238.038 282.636ZM243.687 275.901C243.368 275.688 243.059 275.529 242.758 275.423C242.458 275.317 242.148 275.246 241.83 275.211C241.53 275.176 241.22 275.167 240.902 275.185C240.584 275.202 240.239 275.22 239.868 275.238V279.481C240.257 279.481 240.672 279.472 241.114 279.454C241.556 279.419 241.981 279.348 242.387 279.242C242.794 279.118 243.174 278.95 243.527 278.738C243.881 278.526 244.164 278.234 244.376 277.863C244.429 277.439 244.42 277.076 244.35 276.776C244.279 276.457 244.058 276.166 243.687 275.901ZM239.868 271.817C240.186 271.817 240.504 271.817 240.822 271.817C241.141 271.817 241.45 271.79 241.751 271.737C242.069 271.666 242.369 271.56 242.652 271.419C242.953 271.277 243.218 271.074 243.448 270.809C243.784 270.438 243.899 270.049 243.793 269.642C243.704 269.218 243.457 268.882 243.05 268.634C242.59 268.334 242.069 268.183 241.485 268.183C240.902 268.166 240.363 268.228 239.868 268.369V271.817ZM268.331 263.569C268.543 263.215 268.808 262.977 269.127 262.853C269.445 262.729 269.763 262.703 270.081 262.773C270.4 262.827 270.674 262.977 270.903 263.224C271.151 263.472 271.292 263.799 271.328 264.206C271.345 264.418 271.31 264.665 271.222 264.948C271.133 265.213 271.027 265.487 270.903 265.77C270.797 266.035 270.682 266.283 270.559 266.513C270.435 266.743 270.355 266.902 270.32 266.99C270.055 267.609 269.79 268.228 269.524 268.846C269.259 269.448 268.994 270.057 268.729 270.676C267.792 272.851 266.855 275.017 265.918 277.173C264.998 279.313 264.061 281.452 263.107 283.591C262.965 283.909 262.735 284.13 262.417 284.254C262.117 284.396 261.798 284.431 261.463 284.36C261.144 284.29 260.853 284.13 260.587 283.883C260.34 283.653 260.198 283.326 260.163 282.902C260.128 282.424 260.207 281.991 260.402 281.602C260.614 281.213 260.817 280.789 261.012 280.329C261.277 279.71 261.542 279.101 261.807 278.499C262.073 277.881 262.338 277.262 262.603 276.643C262.674 276.484 262.78 276.236 262.921 275.901C263.08 275.565 263.248 275.193 263.425 274.787C263.602 274.38 263.779 273.965 263.955 273.54C264.15 273.098 264.327 272.701 264.486 272.347C264.645 271.993 264.769 271.702 264.857 271.472C264.963 271.224 265.016 271.101 265.016 271.101C265.564 269.863 266.103 268.634 266.634 267.414C267.164 266.177 267.695 264.948 268.225 263.728L268.331 263.569ZM283.252 280.223C283.146 279.923 283.102 279.631 283.12 279.348C283.137 279.048 283.208 278.782 283.332 278.552C283.473 278.305 283.668 278.119 283.915 277.996C284.163 277.854 284.463 277.801 284.817 277.836C285.011 277.854 285.188 277.907 285.347 277.996C285.506 278.084 285.648 278.19 285.772 278.314C285.913 278.438 286.046 278.57 286.169 278.712C286.311 278.853 286.452 278.977 286.594 279.083C286.894 279.313 287.212 279.481 287.548 279.587C287.884 279.693 288.238 279.772 288.609 279.825C288.857 279.825 289.051 279.764 289.193 279.64C289.352 279.516 289.458 279.366 289.511 279.189C289.564 279.012 289.573 278.827 289.537 278.632C289.52 278.42 289.458 278.252 289.352 278.128C289.051 277.828 288.68 277.633 288.238 277.545C287.814 277.456 287.416 277.35 287.044 277.227C286.514 277.05 285.993 276.829 285.48 276.564C284.967 276.281 284.552 275.901 284.233 275.423C283.898 274.928 283.694 274.407 283.623 273.859C283.57 273.293 283.615 272.745 283.756 272.214C283.915 271.684 284.172 271.198 284.525 270.756C284.879 270.314 285.303 269.951 285.798 269.669C286.169 269.456 286.576 269.324 287.018 269.271C287.46 269.2 287.902 269.182 288.344 269.218C288.804 269.253 289.254 269.341 289.696 269.483C290.138 269.607 290.545 269.748 290.916 269.907C291.341 270.102 291.659 270.376 291.871 270.729C292.083 271.083 292.18 271.445 292.163 271.817C292.163 272.17 292.039 272.48 291.791 272.745C291.562 273.01 291.217 273.143 290.757 273.143C290.474 273.143 290.218 273.098 289.988 273.01C289.758 272.904 289.52 272.807 289.272 272.718C288.954 272.594 288.609 272.515 288.238 272.48C287.867 272.427 287.566 272.444 287.336 272.533C287.265 272.55 287.186 272.612 287.098 272.718C287.009 272.807 286.938 272.922 286.885 273.063C286.85 273.204 286.841 273.346 286.859 273.487C286.894 273.629 286.991 273.744 287.151 273.832C287.575 274.062 288.026 274.239 288.503 274.362C288.98 274.486 289.449 274.628 289.909 274.787C290.368 274.946 290.793 275.149 291.181 275.397C291.588 275.644 291.924 275.998 292.189 276.457C292.578 277.129 292.773 277.836 292.773 278.579C292.79 279.304 292.649 279.985 292.348 280.621C292.048 281.257 291.606 281.797 291.022 282.239C290.439 282.698 289.758 282.972 288.98 283.061C288.432 283.114 287.893 283.078 287.363 282.955C286.832 282.849 286.32 282.663 285.825 282.398C285.33 282.15 284.87 281.85 284.446 281.496C284.021 281.143 283.65 280.771 283.332 280.382L283.252 280.223ZM304.337 278.446C304.761 278.34 305.133 278.34 305.451 278.446C305.787 278.535 306.043 278.694 306.22 278.924C306.397 279.154 306.476 279.436 306.459 279.772C306.441 280.108 306.291 280.462 306.008 280.833C305.778 281.134 305.46 281.39 305.053 281.602C304.647 281.814 304.266 281.982 303.913 282.106C303.047 282.424 302.224 282.645 301.447 282.769C300.669 282.893 299.935 282.893 299.245 282.769C298.574 282.645 297.937 282.389 297.336 282C296.753 281.611 296.205 281.063 295.692 280.356C295.338 279.878 295.073 279.339 294.896 278.738C294.737 278.119 294.649 277.492 294.631 276.855C294.613 276.219 294.666 275.591 294.79 274.972C294.914 274.354 295.091 273.797 295.321 273.302C295.621 272.683 296.098 272.117 296.753 271.604C297.407 271.092 298.132 270.685 298.927 270.385C299.723 270.084 300.536 269.916 301.367 269.881C302.198 269.828 302.932 269.951 303.568 270.252C304.098 270.499 304.549 270.862 304.921 271.339C305.31 271.799 305.575 272.303 305.716 272.851C305.858 273.399 305.866 273.956 305.743 274.522C305.637 275.07 305.354 275.573 304.894 276.033C304.452 276.475 303.966 276.838 303.436 277.12C302.905 277.386 302.357 277.624 301.791 277.836C301.226 278.031 300.642 278.199 300.041 278.34C299.458 278.482 298.892 278.641 298.344 278.818C298.715 279.242 299.139 279.516 299.617 279.64C300.094 279.746 300.589 279.764 301.102 279.693C301.632 279.622 302.163 279.481 302.693 279.269C303.223 279.039 303.718 278.791 304.178 278.526L304.337 278.446ZM298.98 273.885C298.574 274.115 298.273 274.407 298.079 274.76C297.884 275.096 297.743 275.573 297.654 276.192C298.114 276.051 298.627 275.901 299.192 275.741C299.776 275.582 300.324 275.414 300.837 275.238C301.349 275.061 301.782 274.866 302.136 274.654C302.49 274.442 302.666 274.212 302.666 273.965C302.666 273.823 302.64 273.691 302.587 273.567C302.552 273.425 302.463 273.328 302.322 273.275C301.827 273.098 301.314 273.063 300.784 273.169C300.253 273.275 299.811 273.425 299.458 273.62L298.98 273.885ZM315.497 278.685C315.939 278.402 316.355 278.278 316.744 278.314C317.15 278.349 317.477 278.491 317.725 278.738C317.99 278.968 318.132 279.286 318.149 279.693C318.185 280.082 318.052 280.497 317.751 280.939C317.557 281.24 317.274 281.514 316.903 281.761C316.549 282.009 316.204 282.203 315.869 282.345C315.091 282.698 314.304 282.857 313.508 282.822C312.713 282.787 311.97 282.592 311.281 282.239C310.609 281.885 310.025 281.399 309.53 280.78C309.035 280.144 308.7 279.41 308.523 278.579C308.169 276.988 308.24 275.459 308.735 273.991C308.929 273.461 309.159 272.948 309.424 272.453C309.707 271.958 310.043 271.507 310.432 271.101C310.821 270.694 311.254 270.34 311.732 270.04C312.209 269.722 312.73 269.509 313.296 269.403C313.685 269.333 314.18 269.341 314.781 269.43C315.382 269.501 315.966 269.651 316.532 269.881C317.115 270.11 317.619 270.411 318.043 270.782C318.485 271.154 318.733 271.596 318.786 272.108C318.821 272.391 318.786 272.656 318.68 272.904C318.574 273.134 318.423 273.328 318.229 273.487C318.034 273.646 317.804 273.761 317.539 273.832C317.292 273.885 317.035 273.876 316.77 273.806C316.452 273.717 316.196 273.602 316.001 273.461C315.824 273.302 315.586 273.098 315.285 272.851C315.144 272.815 315.011 272.762 314.887 272.692C314.764 272.603 314.631 272.568 314.49 272.586L313.774 272.665C313.65 272.736 313.535 272.798 313.429 272.851C313.323 272.904 313.217 272.957 313.111 273.01C312.509 273.611 312.067 274.283 311.785 275.025C311.502 275.75 311.431 276.537 311.572 277.386C311.661 277.934 311.829 278.385 312.076 278.738C312.341 279.092 312.642 279.339 312.978 279.481C313.332 279.604 313.712 279.613 314.118 279.507C314.543 279.401 314.958 279.162 315.365 278.791L315.497 278.685Z" fill="black"/>
<path d="M200.149 422.305C200.414 422.398 200.613 422.531 200.746 422.703C200.892 422.875 200.958 423.048 200.945 423.22C200.931 423.419 200.845 423.598 200.686 423.757C200.54 423.903 200.315 424.009 200.01 424.075L197.086 424.095C197.086 425.673 197.086 427.258 197.086 428.849C197.099 430.427 197.106 432.005 197.106 433.583C197.093 433.927 196.98 434.179 196.768 434.338C196.569 434.497 196.35 434.577 196.112 434.577C195.886 434.577 195.674 434.497 195.475 434.338C195.29 434.192 195.177 433.967 195.137 433.662L195.117 424.095H192.154C191.822 424.029 191.577 423.91 191.418 423.737C191.272 423.565 191.206 423.373 191.219 423.16C191.232 422.948 191.325 422.756 191.497 422.584C191.67 422.411 191.941 422.325 192.313 422.325C193.705 422.325 194.872 422.325 195.813 422.325C196.755 422.325 197.524 422.325 198.12 422.325C198.717 422.312 199.168 422.305 199.473 422.305C199.791 422.305 200.017 422.305 200.149 422.305ZM208.515 433.244C208.595 433.443 208.608 433.636 208.555 433.821C208.515 433.994 208.423 434.133 208.277 434.239C208.144 434.358 207.972 434.425 207.76 434.438C207.547 434.464 207.322 434.418 207.083 434.299C206.977 434.192 206.871 434.086 206.765 433.98C206.672 433.861 206.593 433.748 206.526 433.642C206.049 434 205.598 434.226 205.174 434.318C204.763 434.425 204.312 434.478 203.822 434.478C203.464 434.478 203.112 434.438 202.767 434.358C202.436 434.292 202.098 434.146 201.753 433.921C201.249 433.563 200.891 433.138 200.679 432.648C200.467 432.157 200.361 431.64 200.361 431.096C200.361 430.539 200.44 430.016 200.599 429.525C200.772 429.021 201.004 428.557 201.296 428.133C201.587 427.695 201.919 427.297 202.29 426.939C202.675 426.581 203.086 426.263 203.523 425.985C203.616 425.932 203.742 425.872 203.901 425.806C204.073 425.739 204.266 425.68 204.478 425.627C204.69 425.56 204.909 425.514 205.134 425.487C205.36 425.448 205.578 425.428 205.791 425.428C206.202 425.428 206.566 425.481 206.885 425.587C207.216 425.68 207.455 425.918 207.601 426.303C207.601 426.701 207.601 427.032 207.601 427.297C207.601 427.563 207.594 427.788 207.581 427.974C207.581 428.146 207.581 428.292 207.581 428.411C207.581 428.531 207.581 428.643 207.581 428.749C207.581 429.213 207.594 429.697 207.62 430.201C207.647 430.692 207.693 431.176 207.76 431.653C207.786 431.799 207.846 431.971 207.939 432.17C208.045 432.369 208.151 432.548 208.257 432.707H208.237C208.33 432.853 208.403 432.973 208.456 433.065C208.522 433.158 208.542 433.218 208.515 433.244ZM205.83 431.832C205.724 431.368 205.658 430.891 205.631 430.4C205.605 429.896 205.592 429.399 205.592 428.908C205.592 428.564 205.598 428.252 205.612 427.974C205.625 427.695 205.631 427.423 205.631 427.158C205.406 427.185 205.174 427.244 204.935 427.337C204.71 427.43 204.551 427.496 204.458 427.536C204.1 427.695 203.775 427.921 203.483 428.212C203.205 428.504 202.973 428.829 202.787 429.187C202.602 429.545 202.462 429.923 202.37 430.321C202.29 430.705 202.283 431.083 202.35 431.454C202.389 431.746 202.489 431.991 202.648 432.19C202.82 432.376 203.019 432.522 203.245 432.628C203.47 432.721 203.709 432.767 203.961 432.767C204.226 432.767 204.478 432.727 204.717 432.648C205.008 432.475 205.38 432.204 205.83 431.832ZM210.267 426.184C210.334 425.905 210.453 425.7 210.625 425.567C210.811 425.421 211.017 425.348 211.242 425.348C211.441 425.348 211.633 425.408 211.819 425.527C212.004 425.647 212.137 425.819 212.217 426.044C212.508 425.859 212.827 425.72 213.171 425.627C213.516 425.534 213.861 425.487 214.206 425.487C214.736 425.487 215.227 425.6 215.677 425.826C216.141 426.051 216.539 426.356 216.871 426.741C217.215 427.125 217.481 427.576 217.666 428.093C217.865 428.61 217.965 429.154 217.965 429.724C217.965 430.36 217.859 430.944 217.646 431.474C217.448 432.005 217.143 432.462 216.731 432.847C216.32 433.231 215.817 433.536 215.22 433.762C214.623 433.974 213.927 434.08 213.131 434.08C212.972 434.08 212.82 434.08 212.674 434.08C212.528 434.08 212.382 434.066 212.236 434.04V438.058C212.223 438.389 212.11 438.634 211.898 438.794C211.699 438.953 211.481 439.032 211.242 439.032C211.017 439.032 210.804 438.959 210.606 438.813C210.42 438.668 210.307 438.442 210.267 438.137V426.184ZM212.236 428.61V432.27C212.541 432.336 212.84 432.369 213.131 432.369C213.967 432.369 214.663 432.144 215.22 431.693C215.777 431.242 216.055 430.619 216.055 429.823C216.055 429.518 216.009 429.213 215.916 428.908C215.836 428.59 215.717 428.305 215.558 428.053C215.399 427.801 215.207 427.596 214.981 427.437C214.769 427.278 214.537 427.198 214.285 427.198C213.874 427.198 213.509 427.337 213.191 427.616C212.873 427.881 212.601 428.159 212.376 428.451L212.236 428.61ZM227.863 427.297C227.532 427.244 227.28 427.138 227.108 426.979C226.949 426.82 226.869 426.634 226.869 426.422C226.869 426.21 226.955 426.011 227.128 425.826C227.313 425.64 227.585 425.547 227.943 425.547H228.858V422.504C228.924 422.226 229.044 422.02 229.216 421.887C229.402 421.742 229.607 421.669 229.833 421.669C230.045 421.669 230.244 421.735 230.429 421.868C230.615 421.987 230.741 422.179 230.807 422.444V425.547H232.557C232.849 425.627 233.061 425.746 233.194 425.905C233.34 426.064 233.413 426.237 233.413 426.422C233.413 426.847 233.108 427.138 232.498 427.297H230.807V430.957C230.807 431.368 230.807 431.779 230.807 432.19C230.82 432.601 230.827 433.012 230.827 433.423C230.827 433.755 230.721 434 230.509 434.159C230.297 434.318 230.078 434.398 229.852 434.398C229.627 434.398 229.415 434.325 229.216 434.179C229.03 434.033 228.918 433.808 228.878 433.503C228.878 432.999 228.871 432.482 228.858 431.952C228.858 431.408 228.858 430.871 228.858 430.341V427.297H227.863ZM238.103 425.507C238.66 425.507 239.151 425.627 239.575 425.865C240.013 426.104 240.377 426.422 240.669 426.82C240.974 427.205 241.2 427.649 241.345 428.153C241.505 428.643 241.584 429.147 241.584 429.664C241.584 429.89 241.571 430.102 241.544 430.301C241.518 430.486 241.485 430.679 241.445 430.878C241.299 431.421 241.08 431.932 240.789 432.409C240.51 432.886 240.179 433.304 239.794 433.662C239.41 434.007 238.979 434.279 238.501 434.478C238.037 434.676 237.547 434.776 237.029 434.776C236.486 434.776 235.989 434.657 235.538 434.418C235.1 434.179 234.729 433.874 234.424 433.503C234.119 433.118 233.88 432.694 233.708 432.23C233.549 431.753 233.469 431.275 233.469 430.798C233.469 430.135 233.589 429.492 233.827 428.869C234.079 428.232 234.411 427.669 234.822 427.178C235.246 426.674 235.737 426.27 236.293 425.965C236.864 425.66 237.467 425.507 238.103 425.507ZM235.538 429.784C235.458 430.089 235.418 430.427 235.418 430.798C235.418 431.169 235.471 431.521 235.577 431.852C235.684 432.17 235.856 432.442 236.095 432.668C236.347 432.893 236.678 433.006 237.089 433.006C237.487 433.006 237.838 432.893 238.143 432.668C238.461 432.429 238.727 432.144 238.939 431.812C239.164 431.468 239.337 431.103 239.456 430.718C239.575 430.321 239.635 429.963 239.635 429.644C239.635 429.353 239.602 429.068 239.535 428.789C239.469 428.497 239.363 428.239 239.217 428.013C239.085 427.788 238.919 427.609 238.72 427.476C238.521 427.331 238.296 427.258 238.044 427.258C237.726 427.258 237.427 427.344 237.149 427.516C236.87 427.675 236.618 427.881 236.393 428.133C236.181 428.371 236.002 428.643 235.856 428.948C235.71 429.24 235.604 429.518 235.538 429.784ZM249.114 432.707C248.928 432.323 248.921 432.005 249.094 431.753C249.279 431.487 249.545 431.355 249.889 431.355C250.115 431.355 250.36 431.441 250.625 431.613C250.904 431.985 251.235 432.296 251.62 432.548C252.004 432.8 252.409 432.886 252.833 432.807C253.032 432.767 253.204 432.694 253.35 432.588C253.509 432.469 253.622 432.336 253.688 432.19C253.768 432.044 253.808 431.885 253.808 431.713C253.808 431.541 253.761 431.381 253.668 431.236C253.549 431.05 253.416 430.904 253.271 430.798C253.138 430.692 252.992 430.612 252.833 430.559C252.687 430.506 252.541 430.466 252.395 430.44C252.263 430.413 252.137 430.38 252.018 430.341C251.819 430.287 251.62 430.234 251.421 430.181C251.222 430.115 251.03 430.036 250.844 429.943C250.658 429.85 250.479 429.737 250.307 429.605C250.135 429.459 249.969 429.28 249.81 429.068C249.664 428.869 249.551 428.657 249.472 428.431C249.392 428.192 249.352 427.974 249.352 427.775C249.352 427.496 249.405 427.211 249.511 426.92C249.618 426.628 249.757 426.363 249.929 426.124C250.115 425.872 250.327 425.66 250.566 425.487C250.818 425.302 251.083 425.176 251.361 425.11C251.918 424.964 252.495 424.944 253.092 425.05C253.702 425.156 254.245 425.342 254.723 425.607C254.908 425.739 255.047 425.879 255.14 426.025C255.233 426.17 255.279 426.31 255.279 426.442C255.279 426.601 255.233 426.747 255.14 426.88C255.061 426.999 254.948 427.099 254.802 427.178C254.67 427.258 254.51 427.297 254.325 427.297C254.152 427.297 253.967 427.244 253.768 427.138C253.609 427.059 253.383 426.986 253.092 426.92C252.813 426.84 252.535 426.813 252.256 426.84C251.978 426.853 251.746 426.939 251.56 427.099C251.374 427.258 251.302 427.523 251.341 427.894C251.421 428.04 251.514 428.166 251.62 428.272C251.739 428.365 251.865 428.444 251.998 428.511C252.144 428.577 252.296 428.637 252.455 428.69C252.614 428.729 252.767 428.769 252.913 428.809C253.324 428.928 253.702 429.068 254.046 429.227C254.391 429.373 254.689 429.558 254.941 429.784C255.193 430.009 255.386 430.281 255.518 430.599C255.664 430.917 255.737 431.302 255.737 431.753C255.737 432.111 255.657 432.462 255.498 432.807C255.339 433.138 255.127 433.437 254.862 433.702C254.61 433.967 254.318 434.179 253.987 434.338C253.655 434.497 253.324 434.577 252.992 434.577C252.25 434.577 251.527 434.411 250.824 434.08C250.121 433.748 249.558 433.291 249.134 432.707H249.114ZM257.834 427.297C257.503 427.244 257.251 427.138 257.078 426.979C256.919 426.82 256.84 426.634 256.84 426.422C256.84 426.21 256.926 426.011 257.098 425.826C257.284 425.64 257.556 425.547 257.914 425.547H258.829V422.504C258.895 422.226 259.014 422.02 259.187 421.887C259.372 421.742 259.578 421.669 259.803 421.669C260.015 421.669 260.214 421.735 260.4 421.868C260.586 421.987 260.712 422.179 260.778 422.444V425.547H262.528C262.82 425.627 263.032 425.746 263.165 425.905C263.31 426.064 263.383 426.237 263.383 426.422C263.383 426.847 263.078 427.138 262.468 427.297H260.778V430.957C260.778 431.368 260.778 431.779 260.778 432.19C260.791 432.601 260.798 433.012 260.798 433.423C260.798 433.755 260.692 434 260.479 434.159C260.267 434.318 260.049 434.398 259.823 434.398C259.598 434.398 259.386 434.325 259.187 434.179C259.001 434.033 258.888 433.808 258.849 433.503C258.849 432.999 258.842 432.482 258.829 431.952C258.829 431.408 258.829 430.871 258.829 430.341V427.297H257.834ZM271.34 433.244C271.419 433.443 271.432 433.636 271.379 433.821C271.34 433.994 271.247 434.133 271.101 434.239C270.968 434.358 270.796 434.425 270.584 434.438C270.372 434.464 270.146 434.418 269.908 434.299C269.802 434.192 269.695 434.086 269.589 433.98C269.497 433.861 269.417 433.748 269.351 433.642C268.873 434 268.423 434.226 267.998 434.318C267.587 434.425 267.136 434.478 266.646 434.478C266.288 434.478 265.936 434.438 265.592 434.358C265.26 434.292 264.922 434.146 264.577 433.921C264.073 433.563 263.715 433.138 263.503 432.648C263.291 432.157 263.185 431.64 263.185 431.096C263.185 430.539 263.265 430.016 263.424 429.525C263.596 429.021 263.828 428.557 264.12 428.133C264.411 427.695 264.743 427.297 265.114 426.939C265.499 426.581 265.91 426.263 266.347 425.985C266.44 425.932 266.566 425.872 266.725 425.806C266.898 425.739 267.09 425.68 267.302 425.627C267.514 425.56 267.733 425.514 267.958 425.487C268.184 425.448 268.403 425.428 268.615 425.428C269.026 425.428 269.39 425.481 269.709 425.587C270.04 425.68 270.279 425.918 270.425 426.303C270.425 426.701 270.425 427.032 270.425 427.297C270.425 427.563 270.418 427.788 270.405 427.974C270.405 428.146 270.405 428.292 270.405 428.411C270.405 428.531 270.405 428.643 270.405 428.749C270.405 429.213 270.418 429.697 270.445 430.201C270.471 430.692 270.518 431.176 270.584 431.653C270.61 431.799 270.67 431.971 270.763 432.17C270.869 432.369 270.975 432.548 271.081 432.707H271.061C271.154 432.853 271.227 432.973 271.28 433.065C271.346 433.158 271.366 433.218 271.34 433.244ZM268.655 431.832C268.549 431.368 268.482 430.891 268.456 430.4C268.429 429.896 268.416 429.399 268.416 428.908C268.416 428.564 268.423 428.252 268.436 427.974C268.449 427.695 268.456 427.423 268.456 427.158C268.23 427.185 267.998 427.244 267.76 427.337C267.534 427.43 267.375 427.496 267.282 427.536C266.924 427.695 266.599 427.921 266.308 428.212C266.029 428.504 265.797 428.829 265.611 429.187C265.426 429.545 265.287 429.923 265.194 430.321C265.114 430.705 265.108 431.083 265.174 431.454C265.214 431.746 265.313 431.991 265.472 432.19C265.645 432.376 265.844 432.522 266.069 432.628C266.294 432.721 266.533 432.767 266.785 432.767C267.05 432.767 267.302 432.727 267.541 432.648C267.832 432.475 268.204 432.204 268.655 431.832ZM273.168 427.377C272.916 427.231 272.737 427.092 272.631 426.959C272.539 426.813 272.492 426.661 272.492 426.502C272.492 426.276 272.578 426.084 272.751 425.925C272.936 425.766 273.175 425.686 273.467 425.686C273.666 425.686 273.891 425.739 274.143 425.845C274.408 425.952 274.627 426.078 274.799 426.223C275.21 425.892 275.621 425.627 276.032 425.428C276.457 425.229 276.901 425.129 277.365 425.129C277.498 425.129 277.697 425.163 277.962 425.229C278.24 425.295 278.505 425.401 278.757 425.547C279.023 425.68 279.255 425.859 279.453 426.084C279.652 426.296 279.752 426.548 279.752 426.84C279.752 427.079 279.659 427.278 279.473 427.437C279.301 427.583 279.089 427.655 278.837 427.655C278.651 427.655 278.499 427.616 278.379 427.536C278.26 427.457 278.141 427.364 278.021 427.258C277.929 427.165 277.816 427.079 277.683 426.999C277.564 426.906 277.451 426.86 277.345 426.86C277.199 426.86 277.027 426.913 276.828 427.019C276.629 427.125 276.43 427.251 276.231 427.397C276.032 427.543 275.834 427.708 275.635 427.894C275.449 428.066 275.29 428.219 275.157 428.352V433.563C275.144 433.894 275.031 434.139 274.819 434.299C274.62 434.458 274.408 434.537 274.183 434.537C273.944 434.537 273.732 434.458 273.546 434.299C273.361 434.153 273.248 433.927 273.208 433.622V427.397L273.168 427.377ZM281.916 427.297C281.585 427.244 281.333 427.138 281.16 426.979C281.001 426.82 280.922 426.634 280.922 426.422C280.922 426.21 281.008 426.011 281.18 425.826C281.366 425.64 281.638 425.547 281.996 425.547H282.911V422.504C282.977 422.226 283.096 422.02 283.269 421.887C283.454 421.742 283.66 421.669 283.885 421.669C284.097 421.669 284.296 421.735 284.482 421.868C284.668 421.987 284.794 422.179 284.86 422.444V425.547H286.61C286.902 425.627 287.114 425.746 287.247 425.905C287.392 426.064 287.465 426.237 287.465 426.422C287.465 426.847 287.16 427.138 286.55 427.297H284.86V430.957C284.86 431.368 284.86 431.779 284.86 432.19C284.873 432.601 284.88 433.012 284.88 433.423C284.88 433.755 284.774 434 284.562 434.159C284.349 434.318 284.131 434.398 283.905 434.398C283.68 434.398 283.468 434.325 283.269 434.179C283.083 434.033 282.97 433.808 282.931 433.503C282.931 432.999 282.924 432.482 282.911 431.952C282.911 431.408 282.911 430.871 282.911 430.341V427.297H281.916Z" fill="black"/>
<circle cx="239" cy="358.179" r="38" fill="#FAF8E7" stroke="black" stroke-width="4"/>
<path d="M237.261 356.773H246.305L232.067 381.179L235.959 362.875H228L230.115 349.315H238.848L237.261 356.773Z" fill="#030303"/>
<path d="M251.729 347.958H230.332L231.39 341.179H255.797L251.729 347.958Z" fill="#030303"/>
<rect x="247.674" y="411.917" width="34.7725" height="59.4459" rx="6" transform="rotate(-26 247.674 411.917)" fill="black" stroke="black" stroke-width="4"/>
<rect x="257.581" y="408.649" width="2" height="2" rx="1" transform="rotate(-26 257.581 408.649)" fill="white"/>
<rect x="261.176" y="406.896" width="12" height="2" rx="1" transform="rotate(-26 261.176 406.896)" fill="white"/>
<rect x="251.258" y="415.788" width="31.7229" height="52.8716" rx="4" transform="rotate(-26 251.258 415.788)" fill="white"/>
<path d="M459.501 382.442C544.277 382.443 613.001 451.167 613.001 535.942C613.001 620.718 544.277 689.442 459.501 689.442C374.725 689.442 306 620.718 306 535.942C306 451.167 374.725 382.442 459.501 382.442Z" fill="white" stroke="black" stroke-width="6"/>
<path d="M273.81 438.844C293.444 399.479 358.452 472.318 358.452 472.318L329.93 496.571C329.93 496.571 254.176 478.209 273.81 438.844Z" fill="white"/>
<path d="M358.452 472.318C358.452 472.318 293.444 399.479 273.81 438.844C254.176 478.209 329.93 496.571 329.93 496.571" stroke="black" stroke-width="6" stroke-linecap="round"/>
<path d="M460.204 433.455C437.591 430.179 433.302 401.49 433.302 401.49C433.302 401.49 421.996 413.185 398.604 413.185C365.075 413.185 354.444 397.3 359.226 382.779C365.388 364.068 396.654 369.135 396.654 369.135C396.654 369.135 402.245 354.903 409.91 350.034C419.067 344.217 437.591 347.695 437.591 347.695C437.591 347.695 455.525 301.948 494.902 312.612C523.363 320.319 513.616 355.102 513.616 355.102C513.616 355.102 573.274 369.915 558.452 404.999C539.348 450.217 499.971 410.846 499.971 410.846C499.971 410.846 494.902 438.482 460.204 433.455Z" fill="black" stroke="black" stroke-width="6"/>
<path d="M370.548 394.231C370.548 383.835 380.052 376.026 390.224 376.888" stroke="white" stroke-width="6" stroke-linecap="round"/>
<path d="M405.831 373.653C405.831 362.748 420.826 353.153 431.887 354.651" stroke="white" stroke-width="6" stroke-linecap="round"/>
<path d="M448.083 352.95C448.083 338.994 462.259 323.955 476.484 323.886" stroke="white" stroke-width="6" stroke-linecap="round"/>
</g>
<rect x="3" y="3" width="494" height="544" rx="5" stroke="black" stroke-width="6"/>
<defs>
<clipPath id="clip0_223_398">
<rect width="500" height="550" rx="8" fill="white"/>
</clipPath>
</defs>
</svg>
