<svg width="500" height="550" viewBox="0 0 500 550" fill="none" xmlns="http://www.w3.org/2000/svg">
<g clip-path="url(#clip0_447_85)">
<rect width="500" height="550" rx="8" fill="#FDE64B"/>
<rect x="2.82831" y="-0.0259027" width="114.264" height="189.523" rx="6" transform="matrix(0.713553 0.700601 0.700601 -0.713553 52.3683 348.382)" fill="black" stroke="black" stroke-width="4"/>
<rect width="2" height="2" rx="1" transform="matrix(0.713553 0.700601 0.700601 -0.713553 87.105 367.896)" fill="white"/>
<rect width="39.005" height="2" rx="1" transform="matrix(0.713553 0.700601 0.700601 -0.713553 89.9592 370.698)" fill="white"/>
<rect width="96.7613" height="161.269" rx="4" transform="matrix(0.713553 0.700601 0.700601 -0.713553 74.2763 342.598)" fill="white"/>
<path d="M153.055 433.838C153.055 433.838 146.804 445.406 137.678 446.117C128.924 446.799 121.445 437.186 121.445 437.186" stroke="black" stroke-width="4" stroke-linecap="round"/>
<path d="M166.351 449.747C166.351 449.747 155.741 469.384 140.248 470.591C125.387 471.749 112.692 455.43 112.692 455.43" stroke="black" stroke-width="4" stroke-linecap="round"/>
<path d="M173.719 204.884C173.719 204.884 178.708 192.719 187.708 191.044C196.34 189.438 204.796 198.204 204.796 198.204" stroke="black" stroke-width="4" stroke-linecap="round"/>
<path d="M158.811 190.475C158.811 190.475 167.28 169.824 182.557 166.981C197.212 164.254 211.566 179.135 211.566 179.135" stroke="black" stroke-width="4" stroke-linecap="round"/>
<path d="M551.504 -203.99C717.463 -203.99 852 -69.454 852.001 96.5049C852.001 262.464 717.463 397.001 551.504 397.001C385.546 397.001 251.009 262.464 251.009 96.5049C251.009 -69.4539 385.546 -203.99 551.504 -203.99Z" fill="white" stroke="black" stroke-width="6"/>
<path d="M581.877 2.54395C629.209 2.54398 671.954 7.6622 702.774 15.8799C718.207 19.9946 730.48 24.8429 738.823 30.1025C747.317 35.4569 750.945 40.7097 750.945 45.4229C750.945 50.1359 747.317 55.3889 738.823 60.7432C730.48 66.0028 718.207 70.8502 702.774 74.9648C671.954 83.1825 629.209 88.3007 581.877 88.3008C534.545 88.3008 491.799 83.1826 460.979 74.9648C445.546 70.8502 433.273 66.0028 424.93 60.7432C416.436 55.3889 412.808 50.1359 412.808 45.4229C412.808 40.7097 416.436 35.4569 424.93 30.1025C433.273 24.8429 445.546 19.9946 460.979 15.8799C491.799 7.66216 534.545 2.54395 581.877 2.54395Z" fill="#FDE64B" stroke="black" stroke-width="6"/>
<path d="M200.53 277.445C143.839 231.213 285.754 152.352 285.754 152.352L314.682 207.485C314.682 207.485 257.222 323.677 200.53 277.445Z" fill="white"/>
<path d="M285.754 152.352C285.754 152.352 143.839 231.213 200.53 277.445C257.222 323.677 314.682 207.485 314.682 207.485" stroke="black" stroke-width="6" stroke-linecap="round"/>
</g>
<rect x="3" y="3" width="494" height="544" rx="5" stroke="black" stroke-width="6"/>
<defs>
<clipPath id="clip0_447_85">
<rect width="500" height="550" rx="8" fill="white"/>
</clipPath>
</defs>
</svg>
