<svg width="500" height="550" viewBox="0 0 500 550" fill="none" xmlns="http://www.w3.org/2000/svg">
<g clip-path="url(#clip0_131_1199)">
<rect width="500" height="550" rx="8" fill="#FDE64B"/>
<rect x="2.76816" y="-0.580781" width="114.264" height="189.523" rx="6" transform="matrix(0.837235 0.546844 0.546844 -0.837235 69.7656 384.65)" fill="black" stroke="black" stroke-width="4"/>
<rect width="2" height="2" rx="1" transform="matrix(0.837235 0.546844 0.546844 -0.837235 107.304 397.395)" fill="white"/>
<rect width="39.005" height="2" rx="1" transform="matrix(0.837235 0.546844 0.546844 -0.837235 110.653 399.582)" fill="white"/>
<rect width="96.7613" height="161.269" rx="4" transform="matrix(0.837235 0.546844 0.546844 -0.837235 89.7573 375.107)" fill="white"/>
<path d="M184.918 449.102C184.918 449.102 181.061 461.672 172.252 464.161C163.802 466.549 154.582 458.592 154.582 458.592" stroke="black" stroke-width="4" stroke-linecap="round"/>
<path d="M201.08 462.09C201.08 462.09 194.533 483.428 179.578 487.654C165.234 491.708 149.581 478.199 149.581 478.199" stroke="black" stroke-width="4" stroke-linecap="round"/>
<path d="M160.222 220.547C160.222 220.547 162.725 207.639 171.221 204.23C179.37 200.96 189.382 207.895 189.382 207.895" stroke="black" stroke-width="4" stroke-linecap="round"/>
<path d="M142.775 209.345C142.775 209.345 147.023 187.433 161.445 181.646C175.279 176.095 192.276 187.867 192.276 187.867" stroke="black" stroke-width="4" stroke-linecap="round"/>
<path d="M551.504 -203.991C717.463 -203.991 852 -69.4545 852 96.5044C852 262.463 717.463 397 551.504 397C385.546 397 251.009 262.463 251.009 96.5044C251.009 -69.4544 385.546 -203.991 551.504 -203.991Z" fill="white" stroke="black" stroke-width="6"/>
<path d="M581.877 2.54297C629.209 2.543 671.954 7.66122 702.774 15.8789C718.207 19.9936 730.48 24.8419 738.823 30.1016C747.317 35.4559 750.945 40.7087 750.945 45.4219C750.945 50.135 747.317 55.3879 738.823 60.7422C730.48 66.0018 718.207 70.8492 702.774 74.9639C671.954 83.1816 629.209 88.2998 581.877 88.2998C534.545 88.2998 491.799 83.1816 460.979 74.9639C445.546 70.8492 433.273 66.0018 424.93 60.7422C416.436 55.3879 412.808 50.135 412.808 45.4219C412.808 40.7087 416.436 35.4559 424.93 30.1016C433.273 24.8419 445.546 19.9936 460.979 15.8789C491.799 7.66118 534.545 2.54297 581.877 2.54297Z" fill="#FDE64B" stroke="black" stroke-width="6"/>
<path d="M200.53 277.444C143.839 231.212 285.754 152.351 285.754 152.351L314.682 207.484C314.682 207.484 257.222 323.676 200.53 277.444Z" fill="white"/>
<path d="M285.754 152.351C285.754 152.351 143.839 231.212 200.53 277.444C257.222 323.676 314.682 207.484 314.682 207.484" stroke="black" stroke-width="6" stroke-linecap="round"/>
</g>
<rect x="3" y="3" width="494" height="544" rx="5" stroke="black" stroke-width="6"/>
<defs>
<clipPath id="clip0_131_1199">
<rect width="500" height="550" rx="8" fill="white"/>
</clipPath>
</defs>
</svg>
