<svg width="86" height="86" viewBox="0 0 86 86" fill="none" xmlns="http://www.w3.org/2000/svg">
<g clip-path="url(#clip0_94_693)">
<path d="M72.3209 34.8264C71.6704 33.0129 70.6689 31.3453 69.3737 29.919C68.0786 28.4927 66.515 27.3355 64.7725 26.5136C63.03 25.6917 61.1426 25.2211 59.2182 25.1289C57.2938 25.0366 55.37 25.3244 53.5569 25.9757L49.7944 27.3264L48.4438 23.564C47.1291 19.9021 44.4137 16.9123 40.8947 15.2525C37.3758 13.5927 33.3416 13.3988 29.6797 14.7134C26.0177 16.028 23.028 18.7435 21.3682 22.2624C19.7084 25.7814 19.5145 29.8155 20.8291 33.4775L32.0932 64.8546L63.4703 53.5904C65.2838 52.9399 66.9513 51.9384 68.3777 50.6432C69.804 49.3481 70.9612 47.7846 71.7831 46.042C72.605 44.2995 73.0755 42.4121 73.1678 40.4877C73.2601 38.5633 72.9723 36.6395 72.3209 34.8264Z" fill="#FF597D" stroke="#1E1E1E" stroke-width="4" stroke-linecap="round" stroke-linejoin="round"/>
</g>
<defs>
<clipPath id="clip0_94_693">
<rect width="64" height="64" fill="white" transform="translate(27.3027) rotate(25.2522)"/>
</clipPath>
</defs>
</svg>
