<svg width="24" height="24" viewBox="0 0 24 24" fill="none" xmlns="http://www.w3.org/2000/svg">
<path fill-rule="evenodd" clip-rule="evenodd" d="M10.6742 2.37295C11.0983 2.12862 11.5791 2 12.0686 2C12.558 2 13.0389 2.12863 13.463 2.37298L13.4651 2.37419L19.7406 5.96021C20.0824 6.15756 20.3776 6.42454 20.6076 6.74267C20.6657 6.80173 20.7174 6.86904 20.7608 6.9441C20.798 7.00846 20.8273 7.07523 20.8489 7.14329C21.0377 7.52603 21.1367 7.94776 21.1371 8.37618V15.5503C21.1366 16.0401 21.0073 16.5211 20.7622 16.9452C20.5171 17.3692 20.1648 17.7213 19.7406 17.9662L19.7368 17.9685L13.4651 21.5523L13.4633 21.5533C13.173 21.7206 12.8562 21.8336 12.5283 21.8884C12.3906 21.9597 12.2343 22 12.0686 22C11.9029 22 11.7466 21.9597 11.609 21.8884C11.281 21.8337 10.9642 21.7206 10.6739 21.5533L10.6721 21.5523L4.40037 17.9685L4.39651 17.9662C3.97234 17.7213 3.62002 17.3692 3.37491 16.9452C3.1298 16.5211 3.0005 16.0401 3 15.5503V8.37618C3.00044 7.94721 3.09967 7.52494 3.28898 7.14181C3.31052 7.07426 3.33962 7.00799 3.37658 6.9441C3.41976 6.86946 3.4711 6.80249 3.52883 6.74367C3.75893 6.4251 4.05434 6.15777 4.39651 5.96022L4.40036 5.95799L10.6742 2.37295ZM13.0686 19.4753L18.7406 16.2342L18.7421 16.2333C18.8619 16.1638 18.9614 16.0642 19.0307 15.9443C19.1002 15.8241 19.1369 15.6877 19.1371 15.5489L19.1371 9.0386L13.0686 12.549V19.4753ZM11.0686 12.5489V19.4754L5.39651 16.2342L5.39498 16.2333C5.27523 16.1638 5.17575 16.0642 5.10645 15.9443C5.03692 15.824 5.00022 15.6876 5 15.5487V9.03845L11.0686 12.5489ZM12.4689 4.10846L18.1016 7.32711L12.0687 10.8169L6.03568 7.32704L11.6682 4.10846L11.6721 4.10624C11.7926 4.03664 11.9294 4 12.0686 4C12.2078 4 12.3445 4.03664 12.4651 4.10624L12.4689 4.10846Z" fill="black"/>
</svg>
