<svg width="80" height="55" viewBox="0 0 80 55" fill="none" xmlns="http://www.w3.org/2000/svg">
<rect x="1" y="23" width="78" height="31" fill="#FDE64B" stroke="black" stroke-width="2"/>
<rect x="1" y="12" width="78" height="11" fill="white" stroke="black" stroke-width="2"/>
<path d="M64.5245 38.5905C64.576 38.3842 64.6585 38.2295 64.772 38.1264C64.8854 38.0232 65.0143 37.9717 65.1587 37.9717C65.2928 37.9717 65.4166 38.0181 65.53 38.1109C65.6538 38.2037 65.7414 38.3481 65.793 38.5441V38.6833C66.0302 38.477 66.2983 38.3275 66.5974 38.2347C66.9068 38.1315 67.2059 38.08 67.4946 38.08C67.8969 38.08 68.2681 38.1676 68.6085 38.343C68.9591 38.5183 69.2633 38.7555 69.5212 39.0546C69.779 39.3536 69.9801 39.7043 70.1245 40.1065C70.2689 40.4984 70.3411 40.9212 70.3411 41.375C70.3411 41.87 70.2585 42.3238 70.0935 42.7363C69.9388 43.1488 69.7068 43.5046 69.3974 43.8037C69.088 44.1028 68.7013 44.34 68.2372 44.5153C67.7834 44.6803 67.2523 44.7628 66.6438 44.7628C66.4994 44.7628 66.355 44.7577 66.2107 44.7474C66.0766 44.7371 65.9374 44.7216 65.793 44.701V47.965C65.7827 48.2022 65.7105 48.3776 65.5764 48.491C65.4527 48.6148 65.3134 48.6767 65.1587 48.6767C65.0143 48.6767 64.8803 48.6199 64.7565 48.5065C64.6328 48.4034 64.5554 48.2383 64.5245 48.0115V38.5905ZM65.9477 40.3385C65.9271 40.3695 65.9013 40.4004 65.8703 40.4313C65.8394 40.452 65.8136 40.4726 65.793 40.4932V43.417C65.9374 43.4479 66.0766 43.4737 66.2107 43.4943C66.355 43.515 66.4994 43.5253 66.6438 43.5253C66.9945 43.5253 67.3193 43.4789 67.6184 43.386C67.9175 43.2932 68.1753 43.1592 68.3919 42.9838C68.6188 42.8085 68.7941 42.5919 68.9178 42.3341C69.0416 42.0763 69.1035 41.7824 69.1035 41.4523C69.1035 41.2048 69.0622 40.9573 68.9797 40.7098C68.9075 40.452 68.7992 40.2199 68.6549 40.0137C68.5208 39.8074 68.3609 39.6424 68.1753 39.5186C67.9897 39.3846 67.7834 39.3175 67.5565 39.3175C67.3812 39.3175 67.2162 39.3485 67.0615 39.4104C66.9068 39.4722 66.7624 39.5547 66.6283 39.6579C66.4943 39.7507 66.3705 39.859 66.2571 39.9827C66.1436 40.0962 66.0405 40.2148 65.9477 40.3385Z" fill="black"/>
<path d="M63.0226 44.1751C63.0226 44.1854 63.0175 44.1906 63.0072 44.1906C63.069 44.335 63.0845 44.469 63.0536 44.5928C63.0226 44.7166 62.9608 44.8145 62.8679 44.8867C62.7854 44.9692 62.672 45.0208 62.5276 45.0414C62.3935 45.0621 62.244 45.0311 62.079 44.9486C61.9862 44.8558 61.8985 44.7578 61.816 44.6547C61.7335 44.5412 61.6613 44.4278 61.5994 44.3144C61.3932 44.4897 61.1714 44.6547 60.9342 44.8094C60.697 44.9538 60.4598 45.0311 60.2226 45.0414C59.8101 45.0621 59.4027 45.0672 59.0005 45.0569C58.5983 45.0466 58.2167 44.9125 57.8558 44.6547C57.5567 44.4381 57.3247 44.1803 57.1596 43.8812C57.005 43.5821 56.9018 43.2676 56.8503 42.9376C56.809 42.5972 56.8142 42.2517 56.8657 41.9011C56.9173 41.5504 57.005 41.2153 57.1287 40.8956C57.1803 40.7512 57.2473 40.612 57.3298 40.4779C57.4123 40.3438 57.4948 40.2046 57.5773 40.0602C57.6908 39.8539 57.8197 39.6632 57.9641 39.4878C58.1085 39.3022 58.2735 39.1423 58.4591 39.0083C58.5932 38.9155 58.7221 38.8226 58.8458 38.7298C58.9799 38.637 59.114 38.5493 59.248 38.4668C59.3409 38.405 59.4801 38.3431 59.6657 38.2812C59.8617 38.209 60.0679 38.1523 60.2845 38.111C60.5114 38.0595 60.7331 38.0337 60.9497 38.0337C61.1766 38.0337 61.3674 38.0646 61.5221 38.1265C61.6665 38.1059 61.8057 38.142 61.9398 38.2348C62.0841 38.3276 62.1924 38.4772 62.2646 38.6834C62.2646 39.3847 62.2595 40.0911 62.2492 40.8028C62.2388 41.5144 62.2852 42.2208 62.3884 42.9221C62.3987 43.0149 62.4348 43.1283 62.4967 43.2624C62.5689 43.3862 62.641 43.5099 62.7132 43.6337C62.7957 43.7574 62.8679 43.8709 62.9298 43.974C62.9917 44.0772 63.0226 44.1442 63.0226 44.1751ZM61.058 43.1077C61.0786 43.0974 61.0941 43.0871 61.1044 43.0768C61.1147 43.0665 61.1302 43.0562 61.1508 43.0458C61.0167 42.4271 60.9497 41.7877 60.9497 41.1276C60.96 40.4573 60.9703 39.8436 60.9806 39.2867C60.8878 39.2867 60.7847 39.297 60.6713 39.3177C60.5578 39.3383 60.4444 39.3692 60.3309 39.4105C60.2278 39.4414 60.1298 39.4724 60.037 39.5033C59.9545 39.5342 59.8926 39.56 59.8514 39.5807C59.542 39.725 59.279 39.9158 59.0624 40.153C58.8458 40.3799 58.6654 40.6377 58.521 40.9265C58.3869 41.205 58.2838 41.504 58.2116 41.8237C58.1394 42.1331 58.1033 42.4477 58.1033 42.7674C58.1239 42.8499 58.1497 42.9324 58.1806 43.0149C58.2116 43.0974 58.2374 43.1799 58.258 43.2624C58.3096 43.314 58.3611 43.3707 58.4127 43.4326C58.4746 43.4945 58.5364 43.5512 58.5983 43.6028C58.6911 43.644 58.784 43.6801 58.8768 43.711C58.9696 43.742 59.0624 43.7729 59.1552 43.8039C59.3305 43.8039 59.5007 43.809 59.6657 43.8193C59.8307 43.8296 59.9957 43.809 60.1608 43.7574C60.3154 43.6543 60.465 43.5512 60.6094 43.4481C60.7641 43.3449 60.9136 43.2315 61.058 43.1077Z" fill="black"/>
<path d="M54.1229 35.775C54.1745 35.5688 54.257 35.4141 54.3704 35.3109C54.4839 35.2078 54.6128 35.1562 54.7572 35.1562C54.8912 35.1562 55.015 35.2027 55.1284 35.2955C55.2522 35.3883 55.3399 35.5327 55.3914 35.7286C55.3914 37.2034 55.3811 38.6318 55.3605 40.0137C55.3399 41.3957 55.2883 42.824 55.2058 44.2988C55.2058 44.2988 55.211 44.3039 55.2213 44.3143H55.2058C55.1955 44.3658 55.1903 44.4122 55.1903 44.4535C55.1903 44.4844 55.1903 44.5205 55.1903 44.5618C55.1285 44.7268 55.0408 44.8505 54.9273 44.933C54.8242 45.0155 54.7108 45.0568 54.587 45.0568C54.4014 45.0568 54.2261 44.9743 54.061 44.8093C54.0404 44.768 54.0198 44.7319 53.9992 44.701C53.9785 44.6701 53.9579 44.6391 53.9373 44.6082H53.9218V44.5772C53.5506 43.9481 53.169 43.35 52.7771 42.7828C52.3852 42.2052 51.983 41.6432 51.5704 41.0966C51.1579 40.5397 50.7351 39.9931 50.3019 39.4568C49.8791 38.9102 49.4408 38.3533 48.987 37.7861C48.987 38.3327 48.987 38.8638 48.987 39.3795C48.987 39.8848 48.987 40.4004 48.987 40.9264C48.987 41.4421 48.987 41.9835 48.987 42.5507C48.9973 43.1179 49.0025 43.7316 49.0025 44.3916C48.9922 44.6288 48.92 44.8041 48.7859 44.9176C48.6622 45.0413 48.5229 45.1032 48.3682 45.1032C48.2238 45.1032 48.0898 45.0465 47.966 44.933C47.8423 44.8299 47.7649 44.6649 47.734 44.438C47.734 43.0458 47.7288 41.638 47.7185 40.2148C47.7185 38.7813 47.7185 37.3684 47.7185 35.9761C47.7598 35.7905 47.8371 35.6461 47.9506 35.543C48.064 35.4399 48.1929 35.3883 48.3373 35.3883C48.4817 35.3883 48.6364 35.445 48.8014 35.5585C49.2758 36.1257 49.7399 36.6826 50.1936 37.2292C50.6474 37.7655 51.0909 38.3069 51.524 38.8535C51.9675 39.4001 52.3955 39.9621 52.808 40.5397C53.2205 41.1069 53.6227 41.6999 54.0146 42.3187C54.0559 41.1842 54.0817 40.0962 54.092 39.0546C54.1126 38.013 54.1229 36.9198 54.1229 35.775Z" fill="black"/>
<path d="M36.7119 39.457C36.5572 39.3745 36.4438 39.2765 36.3716 39.1631C36.2994 39.0496 36.2633 38.9362 36.2633 38.8228C36.2633 38.6681 36.32 38.534 36.4335 38.4205C36.5469 38.2968 36.7016 38.2349 36.8976 38.2349C37.0419 38.2349 37.2224 38.2865 37.439 38.3896C37.6556 38.4927 37.8257 38.6062 37.9495 38.7299C38.2692 38.4618 38.5992 38.2401 38.9396 38.0647C39.2799 37.8894 39.6254 37.8018 39.976 37.8018C40.0791 37.8018 40.2287 37.8275 40.4246 37.8791C40.6206 37.9307 40.8114 38.008 40.997 38.1112C41.193 38.2143 41.3631 38.3484 41.5075 38.5134C41.6519 38.6784 41.7241 38.8692 41.7241 39.0857C41.7241 39.2611 41.6674 39.4054 41.5539 39.5189C41.4405 39.622 41.3012 39.6736 41.1362 39.6736C41.0228 39.6736 40.9197 39.6426 40.8268 39.5808C40.7443 39.5086 40.6567 39.4364 40.5639 39.3642C40.4814 39.2817 40.3885 39.2095 40.2854 39.1476C40.1926 39.0857 40.0843 39.0548 39.9605 39.0548C39.8162 39.0548 39.6563 39.1012 39.481 39.194C39.316 39.2765 39.1458 39.3797 38.9705 39.5034C38.8055 39.6272 38.6456 39.7612 38.4909 39.9056C38.3362 40.05 38.2022 40.1789 38.0887 40.2924V44.4073C38.0784 44.6445 38.0062 44.8198 37.8721 44.9332C37.7484 45.057 37.6092 45.1189 37.4545 45.1189C37.3101 45.1189 37.176 45.0622 37.0523 44.9487C36.9285 44.8456 36.8512 44.6806 36.8202 44.4537V40.2305C36.8202 40.2099 36.8151 40.1892 36.8047 40.1686C36.8047 40.1377 36.8047 40.1119 36.8047 40.0913C36.8047 40.0706 36.8047 40.05 36.8047 40.0294C36.8151 39.9984 36.8202 39.9727 36.8202 39.952V39.5034C36.779 39.4828 36.7429 39.4673 36.7119 39.457Z" fill="black"/>
<path d="M33.9477 43.0306C34.1642 42.9481 34.3499 42.9378 34.5046 42.9997C34.6593 43.0615 34.7676 43.1595 34.8294 43.2936C34.9016 43.4277 34.9119 43.5772 34.8604 43.7422C34.8191 43.9072 34.7005 44.0464 34.5046 44.1599C34.1642 44.3558 33.7981 44.5363 33.4062 44.7013C33.0143 44.8663 32.6173 44.9798 32.2151 45.0417C31.8129 45.1035 31.4158 45.0984 31.0239 45.0262C30.632 44.9643 30.2556 44.8096 29.8946 44.5621C29.4615 44.263 29.1315 43.8608 28.9046 43.3555C28.6777 42.8398 28.5591 42.3087 28.5488 41.7621C28.5385 41.2052 28.6364 40.6741 28.8427 40.1687C29.0593 39.6531 29.3944 39.2406 29.8482 38.9312C30.3226 38.6115 30.8383 38.3743 31.3952 38.2196C31.9521 38.0546 32.5141 38.0339 33.0814 38.1577C33.3598 38.2196 33.6125 38.3536 33.8394 38.5599C34.0663 38.7558 34.2467 38.9879 34.3808 39.256C34.5252 39.5139 34.6025 39.7923 34.6129 40.0914C34.6232 40.3802 34.551 40.6534 34.3963 40.9113C34.221 41.2 33.9683 41.4476 33.6383 41.6538C33.3083 41.8498 32.9473 42.0199 32.5554 42.1643C32.1738 42.2984 31.7871 42.4118 31.3952 42.5046C31.0136 42.5975 30.6784 42.6851 30.3897 42.7676C30.2659 42.7986 30.1473 42.8037 30.0339 42.7831C30.1886 43.1131 30.4154 43.3864 30.7145 43.603C31.0239 43.8092 31.4055 43.8969 31.8593 43.866C32.2202 43.8453 32.5812 43.7474 32.9421 43.572C33.3134 43.3864 33.6486 43.2059 33.9477 43.0306ZM30.9311 39.7356C30.5495 39.9315 30.2659 40.21 30.0803 40.5709C29.8946 40.9216 29.8018 41.2929 29.8018 41.6848C29.874 41.6332 29.9513 41.5919 30.0339 41.561C30.2195 41.5094 30.4051 41.4579 30.5908 41.4063C30.7867 41.3444 30.9827 41.2877 31.1786 41.2361C31.3024 41.2052 31.4674 41.1588 31.6736 41.0969C31.8902 41.035 32.1119 40.9628 32.3388 40.8803C32.5657 40.7978 32.772 40.705 32.9576 40.6019C33.1432 40.4884 33.267 40.3647 33.3289 40.2306C33.3495 39.8903 33.267 39.6582 33.0814 39.5345C32.8957 39.4107 32.674 39.3488 32.4162 39.3488C32.1583 39.3488 31.8902 39.3953 31.6118 39.4881C31.3333 39.5706 31.1064 39.6531 30.9311 39.7356Z" fill="black"/>
<path d="M22.0606 44.5927C21.8853 44.6958 21.7203 44.7422 21.5656 44.7319C21.4109 44.7113 21.2872 44.6546 21.1943 44.5618C21.1015 44.469 21.0448 44.3452 21.0242 44.1905C21.0139 44.0358 21.0603 43.8708 21.1634 43.6955L21.2098 43.6491V35.6049C21.2511 35.4089 21.3284 35.2594 21.4419 35.1562C21.5656 35.0531 21.6894 35.0015 21.8131 35.0015C21.9472 34.9912 22.0761 35.0325 22.1999 35.1253C22.3236 35.2181 22.4164 35.3625 22.4783 35.5585V39.2402C22.7052 39.0236 22.9476 38.8535 23.2054 38.7297C23.4426 38.5957 23.6643 38.5028 23.8706 38.4513C24.0872 38.3894 24.3295 38.343 24.5977 38.312C24.8658 38.2708 25.1185 38.2966 25.3557 38.3894C25.5929 38.4822 25.8249 38.5957 26.0518 38.7297C26.3509 38.905 26.5778 39.1474 26.7325 39.4568C26.8872 39.7662 26.9954 40.1014 27.0573 40.4623C27.1192 40.813 27.145 41.1739 27.1347 41.5452C27.1244 41.9062 27.0934 42.231 27.0419 42.5198C27.0212 42.6848 26.9748 42.8446 26.9026 42.9993C26.8304 43.1437 26.7531 43.2881 26.6706 43.4325C26.5262 43.7213 26.3302 43.9688 26.0827 44.175C25.8352 44.371 25.5568 44.5308 25.2474 44.6546C24.9483 44.768 24.6337 44.8454 24.3037 44.8866C23.984 44.9382 23.6798 44.9537 23.391 44.933C23.1538 44.9124 22.9269 44.8763 22.7104 44.8248C22.4938 44.7732 22.2824 44.6855 22.0761 44.5618C22.0761 44.5721 22.0709 44.5824 22.0606 44.5927ZM22.4783 41.1585V43.3242C22.5093 43.3448 22.566 43.3758 22.6485 43.417C22.6691 43.4376 22.6897 43.4531 22.7104 43.4634C22.731 43.4737 22.7516 43.4892 22.7722 43.5098C23.3085 43.7161 23.819 43.7522 24.3037 43.6181C24.7884 43.4841 25.2164 43.2004 25.5877 42.7673C25.6908 42.5198 25.763 42.2929 25.8043 42.0866C25.8558 41.8701 25.8816 41.6586 25.8816 41.4524C25.8816 41.2358 25.861 41.0192 25.8198 40.8027C25.7785 40.5861 25.7115 40.354 25.6186 40.1065C25.5671 40.055 25.5207 40.0034 25.4794 39.9518C25.4485 39.8899 25.4072 39.8332 25.3557 39.7817C25.3041 39.761 25.2525 39.7352 25.201 39.7043C25.1597 39.6734 25.1133 39.6476 25.0617 39.627C25.0102 39.6166 24.9535 39.6063 24.8916 39.596C24.8297 39.5857 24.773 39.5754 24.7214 39.5651C24.2264 39.6476 23.819 39.8178 23.4993 40.0756C23.1796 40.3231 22.8805 40.6428 22.6021 41.0347L22.4783 41.1585Z" fill="black"/>
<path d="M18.8545 44.3452C18.8442 44.5824 18.772 44.7577 18.638 44.8712C18.5142 44.9949 18.375 45.0568 18.2203 45.0568C18.0759 45.0568 17.9418 45.0001 17.8181 44.8867C17.6943 44.7835 17.617 44.6185 17.586 44.3916C17.5757 43.4222 17.5654 42.4321 17.5551 41.4215C17.5551 40.4108 17.5499 39.4207 17.5396 38.4513C17.5912 38.245 17.6737 38.0903 17.7871 37.9872C17.9006 37.8841 18.0295 37.8325 18.1739 37.8325C18.3079 37.8325 18.4317 37.8789 18.5451 37.9717C18.6689 38.0646 18.7566 38.2089 18.8081 38.4049C18.8184 39.3743 18.8236 40.3644 18.8236 41.3751C18.8339 42.3857 18.8442 43.3758 18.8545 44.3452ZM17.4313 35.9298C17.4313 35.7029 17.5035 35.5121 17.6479 35.3574C17.7923 35.1924 17.9676 35.1099 18.1739 35.1099C18.3801 35.1099 18.5555 35.1924 18.6998 35.3574C18.8545 35.5121 18.9319 35.7029 18.9319 35.9298C18.9319 36.1463 18.8545 36.3371 18.6998 36.5021C18.5555 36.6568 18.3801 36.7342 18.1739 36.7342C17.9676 36.7342 17.7923 36.6568 17.6479 36.5021C17.5035 36.3371 17.4313 36.1463 17.4313 35.9298Z" fill="black"/>
<path d="M11.6707 44.4225C11.6604 44.6597 11.5882 44.835 11.4541 44.9485C11.3304 45.0722 11.1912 45.1341 11.0365 45.1341C10.8921 45.1341 10.758 45.0774 10.6343 44.9639C10.5105 44.8608 10.4331 44.6958 10.4022 44.4689V40.617C10.1341 40.4932 10 40.3024 10 40.0446C10 39.9312 10.0309 39.8229 10.0928 39.7197C10.165 39.6063 10.2681 39.5238 10.4022 39.4722V39.3639C10.4022 39.2402 10.4022 39.0958 10.4022 38.9308C10.4125 38.7555 10.4177 38.5698 10.4177 38.3739C10.4177 38.0748 10.4022 37.786 10.3713 37.5076C10.3403 37.2291 10.2681 37.0074 10.1547 36.8424C10.0928 36.698 10.0619 36.5691 10.0619 36.4557C10.0619 36.1566 10.2217 35.9555 10.5414 35.8523C10.923 35.7905 11.3046 35.7544 11.6862 35.7441C12.0781 35.7234 12.4648 35.7131 12.8464 35.7131C13.2383 35.7028 13.6302 35.6925 14.0221 35.6822C14.414 35.6719 14.8007 35.6409 15.1823 35.5894C15.4298 35.5894 15.6155 35.6461 15.7392 35.7595C15.8733 35.873 15.9403 36.0173 15.9403 36.1927C15.9403 36.3371 15.8888 36.4711 15.7856 36.5949C15.6928 36.7083 15.5433 36.7908 15.337 36.8424C14.7079 36.9249 14.0788 36.9662 13.4497 36.9662C12.8206 36.9558 12.1915 36.9713 11.5624 37.0126C11.614 37.2291 11.6449 37.456 11.6552 37.6932C11.6759 37.9201 11.6862 38.147 11.6862 38.3739C11.6862 38.5492 11.681 38.7142 11.6707 38.8689C11.6707 39.0236 11.6707 39.1731 11.6707 39.3175V39.4722C12.2276 39.4722 12.8 39.4619 13.3878 39.4413C13.9757 39.4103 14.4862 39.3278 14.9193 39.1938C15.1565 39.1938 15.3422 39.2505 15.4762 39.3639C15.6103 39.4774 15.6773 39.6218 15.6773 39.7971C15.6773 40.0549 15.533 40.2509 15.2442 40.3849C14.9554 40.5087 14.6048 40.5964 14.1923 40.6479C13.7797 40.6995 13.3414 40.7253 12.8773 40.7253C12.4133 40.7253 12.011 40.7253 11.6707 40.7253V44.4225Z" fill="black"/>
<path d="M36.0312 1C38.9763 1 41.5655 2.16152 43.2285 3.92188L43.7119 4.43359L44.3574 4.15039C45.6244 3.59331 47.0703 3.2754 48.6104 3.27539C52.1924 3.27547 55.2316 4.98928 56.7393 7.39941L56.9893 7.7998L57.457 7.86133C61.9626 8.45595 65.1854 11.7254 65.1855 15.4297C65.1855 17.1133 64.5335 18.6849 63.3984 19.9707L63.1162 20.291L63.1523 20.7168C63.1676 20.8977 63.1748 21.0802 63.1748 21.2637C63.1748 25.3517 59.2271 28.9268 54.0088 28.9268C52.9763 28.9267 51.986 28.7837 51.0635 28.5215L50.4043 28.334L49.9922 28.8799C48.2586 31.1744 45.2942 32.7186 41.8906 32.7188C39.3712 32.7188 37.0882 31.8718 35.3691 30.498L35.0557 30.248L34.6562 30.2832C34.3343 30.3118 34.0074 30.3271 33.6768 30.3271C31.6473 30.3271 29.7832 29.7743 28.2754 28.8516L27.9365 28.6445L27.5469 28.7266C26.927 28.8571 26.2775 28.9267 25.6074 28.9268C21.0859 28.9268 17.6719 25.8265 17.6191 22.2832L17.6094 21.6025L16.9727 21.3623C15.1918 20.6894 14 19.0946 14 17.2969L14.0137 16.96C14.153 15.2897 15.3207 13.8398 17.0088 13.2168L17.7422 12.9463L17.6572 12.1699C17.6317 11.9373 17.6182 11.7014 17.6182 11.4629C17.6183 7.37502 21.5661 3.79998 26.7842 3.7998C27.2976 3.7998 27.8015 3.83552 28.291 3.90332L28.7705 3.96973L29.1201 3.63477C30.6825 2.13559 32.9464 1.13122 35.5146 1.01172L36.0312 1Z" fill="white" stroke="black" stroke-width="2"/>
<path d="M45.0003 20.9669C44.8555 20.9669 44.7152 20.9269 44.5794 20.8468C44.4436 20.7757 44.335 20.6823 44.2535 20.5667C44.1721 20.4511 44.1223 20.3222 44.1042 20.1799C44.0951 20.0377 44.1404 19.9043 44.2399 19.7798C44.2671 19.682 44.3214 19.5708 44.4029 19.4463C44.4844 19.3129 44.5703 19.184 44.6609 19.0595C44.7514 18.9261 44.8419 18.8061 44.9324 18.6994C45.023 18.5838 45.0863 18.4949 45.1225 18.4326C45.6385 17.7213 46.1816 17.0454 46.7519 16.4052C47.3313 15.7561 47.9242 15.1114 48.5307 14.4712C48.2682 14.4801 48.0102 14.489 47.7567 14.4978C47.5033 14.4978 47.2453 14.4978 46.9828 14.4978C46.6207 14.4978 46.2405 14.5112 45.8422 14.5379C45.4439 14.5645 45.0682 14.5245 44.7152 14.4178C44.516 14.3556 44.3712 14.2533 44.2807 14.111C44.1992 13.9688 44.163 13.8176 44.1721 13.6575C44.1902 13.4975 44.249 13.3463 44.3486 13.204C44.4572 13.0618 44.602 12.9595 44.7831 12.8973C44.8645 12.8706 44.9958 12.8572 45.1768 12.8572C45.3579 12.8484 45.5435 12.8484 45.7336 12.8572C45.9327 12.8572 46.1137 12.8617 46.2767 12.8706C46.4487 12.8795 46.5664 12.8839 46.6297 12.8839C47.0371 12.8839 47.4444 12.8795 47.8518 12.8706C48.2682 12.8617 48.6846 12.8528 49.101 12.8439C49.2367 12.8439 49.3725 12.8439 49.5083 12.8439C49.6441 12.835 49.7844 12.8306 49.9292 12.8306C50.065 12.8306 50.2144 12.8306 50.3773 12.8306C50.5493 12.8306 50.7077 12.8528 50.8526 12.8973C51.0064 12.9328 51.1377 12.9995 51.2463 13.0973C51.364 13.1951 51.4319 13.3374 51.45 13.5242C51.4681 13.6575 51.4591 13.7731 51.4228 13.8709C51.3866 13.9688 51.3323 14.0577 51.2599 14.1377C51.1965 14.2177 51.1196 14.2933 51.0291 14.3645C50.9386 14.4356 50.848 14.5112 50.7575 14.5912C50.5493 14.7691 50.3456 14.9513 50.1465 15.1381C49.9473 15.3159 49.7572 15.5027 49.5762 15.6983C49.0512 16.2585 48.5352 16.8365 48.0283 17.4323C47.5214 18.0191 47.0371 18.6238 46.5754 19.2463C46.8922 19.2552 47.2091 19.2685 47.5259 19.2863C47.8518 19.2952 48.1731 19.3041 48.4899 19.3129C48.7796 19.3218 49.0738 19.3263 49.3725 19.3263C49.6713 19.3174 49.9654 19.2863 50.2551 19.2329C50.4362 19.2062 50.6172 19.1707 50.7982 19.1262C50.9883 19.0818 51.1739 19.104 51.355 19.1929C51.4817 19.2552 51.5813 19.3396 51.6537 19.4463C51.7351 19.553 51.7849 19.6686 51.803 19.7931C51.8211 19.9176 51.8121 20.0421 51.7759 20.1666C51.7397 20.2822 51.6673 20.3889 51.5586 20.4867C51.4047 20.6201 51.2282 20.7046 51.0291 20.7401C50.839 20.7846 50.6534 20.8246 50.4724 20.8602C50.0198 20.9402 49.5626 20.9758 49.101 20.9669C48.6484 20.958 48.1912 20.9402 47.7296 20.9135C47.2769 20.8869 46.8198 20.8691 46.3582 20.8602C45.9055 20.8513 45.4529 20.8869 45.0003 20.9669Z" fill="black"/>
<path d="M36.6601 20.9669C36.5153 20.9669 36.375 20.9269 36.2392 20.8468C36.1034 20.7757 35.9948 20.6823 35.9133 20.5667C35.8318 20.4511 35.7821 20.3222 35.7639 20.1799C35.7549 20.0377 35.8002 19.9043 35.8997 19.7798C35.9269 19.682 35.9812 19.5708 36.0627 19.4463C36.1441 19.3129 36.2301 19.184 36.3207 19.0595C36.4112 18.9261 36.5017 18.8061 36.5922 18.6994C36.6827 18.5838 36.7461 18.4949 36.7823 18.4326C37.2983 17.7213 37.8414 17.0454 38.4117 16.4052C38.9911 15.7561 39.584 15.1114 40.1905 14.4712C39.928 14.4801 39.67 14.489 39.4165 14.4978C39.163 14.4978 38.9051 14.4978 38.6425 14.4978C38.2805 14.4978 37.9003 14.5112 37.502 14.5379C37.1037 14.5645 36.728 14.5245 36.375 14.4178C36.1758 14.3556 36.031 14.2533 35.9405 14.111C35.859 13.9688 35.8228 13.8176 35.8318 13.6575C35.8499 13.4975 35.9088 13.3463 36.0084 13.204C36.117 13.0618 36.2618 12.9595 36.4429 12.8973C36.5243 12.8706 36.6556 12.8572 36.8366 12.8572C37.0177 12.8484 37.2032 12.8484 37.3933 12.8572C37.5925 12.8572 37.7735 12.8617 37.9365 12.8706C38.1085 12.8795 38.2261 12.8839 38.2895 12.8839C38.6969 12.8839 39.1042 12.8795 39.5116 12.8706C39.928 12.8617 40.3444 12.8528 40.7608 12.8439C40.8965 12.8439 41.0323 12.8439 41.1681 12.8439C41.3039 12.835 41.4442 12.8306 41.589 12.8306C41.7248 12.8306 41.8742 12.8306 42.0371 12.8306C42.2091 12.8306 42.3675 12.8528 42.5124 12.8973C42.6662 12.9328 42.7975 12.9995 42.9061 13.0973C43.0238 13.1951 43.0917 13.3374 43.1098 13.5242C43.1279 13.6575 43.1188 13.7731 43.0826 13.8709C43.0464 13.9688 42.9921 14.0577 42.9197 14.1377C42.8563 14.2177 42.7794 14.2933 42.6889 14.3645C42.5983 14.4356 42.5078 14.5112 42.4173 14.5912C42.2091 14.7691 42.0054 14.9513 41.8063 15.1381C41.6071 15.3159 41.417 15.5027 41.236 15.6983C40.711 16.2585 40.195 16.8365 39.6881 17.4323C39.1811 18.0191 38.6969 18.6238 38.2352 19.2463C38.552 19.2552 38.8688 19.2685 39.1857 19.2863C39.5116 19.2952 39.8329 19.3041 40.1497 19.3129C40.4394 19.3218 40.7336 19.3263 41.0323 19.3263C41.331 19.3174 41.6252 19.2863 41.9149 19.2329C42.096 19.2062 42.277 19.1707 42.458 19.1262C42.6481 19.0818 42.8337 19.104 43.0147 19.1929C43.1415 19.2552 43.2411 19.3396 43.3135 19.4463C43.3949 19.553 43.4447 19.6686 43.4628 19.7931C43.4809 19.9176 43.4719 20.0421 43.4357 20.1666C43.3995 20.2822 43.327 20.3889 43.2184 20.4867C43.0645 20.6201 42.888 20.7046 42.6889 20.7401C42.4988 20.7846 42.3132 20.8246 42.1322 20.8602C41.6795 20.9402 41.2224 20.9758 40.7608 20.9669C40.3081 20.958 39.851 20.9402 39.3893 20.9135C38.9367 20.8869 38.4796 20.8691 38.0179 20.8602C37.5653 20.8513 37.1127 20.8869 36.6601 20.9669Z" fill="black"/>
<path d="M28.3199 20.9669C28.1751 20.9669 28.0348 20.9269 27.899 20.8468C27.7632 20.7757 27.6546 20.6823 27.5731 20.5667C27.4916 20.4511 27.4418 20.3222 27.4237 20.1799C27.4147 20.0377 27.4599 19.9043 27.5595 19.7798C27.5867 19.682 27.641 19.5708 27.7225 19.4463C27.8039 19.3129 27.8899 19.184 27.9804 19.0595C28.071 18.9261 28.1615 18.8061 28.252 18.6994C28.3425 18.5838 28.4059 18.4949 28.4421 18.4326C28.9581 17.7213 29.5012 17.0454 30.0715 16.4052C30.6508 15.7561 31.2438 15.1114 31.8503 14.4712C31.5877 14.4801 31.3298 14.489 31.0763 14.4978C30.8228 14.4978 30.5648 14.4978 30.3023 14.4978C29.9402 14.4978 29.5601 14.5112 29.1618 14.5379C28.7635 14.5645 28.3878 14.5245 28.0348 14.4178C27.8356 14.3556 27.6908 14.2533 27.6003 14.111C27.5188 13.9688 27.4826 13.8176 27.4916 13.6575C27.5097 13.4975 27.5686 13.3463 27.6681 13.204C27.7768 13.0618 27.9216 12.9595 28.1027 12.8973C28.1841 12.8706 28.3154 12.8572 28.4964 12.8572C28.6775 12.8484 28.863 12.8484 29.0531 12.8572C29.2523 12.8572 29.4333 12.8617 29.5963 12.8706C29.7683 12.8795 29.8859 12.8839 29.9493 12.8839C30.3566 12.8839 30.764 12.8795 31.1713 12.8706C31.5877 12.8617 32.0041 12.8528 32.4205 12.8439C32.5563 12.8439 32.6921 12.8439 32.8279 12.8439C32.9637 12.835 33.104 12.8306 33.2488 12.8306C33.3846 12.8306 33.534 12.8306 33.6969 12.8306C33.8689 12.8306 34.0273 12.8528 34.1721 12.8973C34.326 12.9328 34.4573 12.9995 34.5659 13.0973C34.6836 13.1951 34.7515 13.3374 34.7696 13.5242C34.7877 13.6575 34.7786 13.7731 34.7424 13.8709C34.7062 13.9688 34.6519 14.0577 34.5795 14.1377C34.5161 14.2177 34.4392 14.2933 34.3487 14.3645C34.2581 14.4356 34.1676 14.5112 34.0771 14.5912C33.8689 14.7691 33.6652 14.9513 33.4661 15.1381C33.2669 15.3159 33.0768 15.5027 32.8958 15.6983C32.3708 16.2585 31.8548 16.8365 31.3479 17.4323C30.8409 18.0191 30.3566 18.6238 29.895 19.2463C30.2118 19.2552 30.5286 19.2685 30.8455 19.2863C31.1713 19.2952 31.4927 19.3041 31.8095 19.3129C32.0992 19.3218 32.3934 19.3263 32.6921 19.3263C32.9908 19.3174 33.285 19.2863 33.5747 19.2329C33.7557 19.2062 33.9368 19.1707 34.1178 19.1262C34.3079 19.0818 34.4935 19.104 34.6745 19.1929C34.8013 19.2552 34.9008 19.3396 34.9733 19.4463C35.0547 19.553 35.1045 19.6686 35.1226 19.7931C35.1407 19.9176 35.1317 20.0421 35.0955 20.1666C35.0593 20.2822 34.9868 20.3889 34.8782 20.4867C34.7243 20.6201 34.5478 20.7046 34.3487 20.7401C34.1586 20.7846 33.973 20.8246 33.7919 20.8602C33.3393 20.9402 32.8822 20.9758 32.4205 20.9669C31.9679 20.958 31.5108 20.9402 31.0491 20.9135C30.5965 20.8869 30.1394 20.8691 29.6777 20.8602C29.2251 20.8513 28.7725 20.8869 28.3199 20.9669Z" fill="black"/>
</svg>
