<svg width="500" height="550" viewBox="0 0 500 550" fill="none" xmlns="http://www.w3.org/2000/svg">
<g clip-path="url(#clip0_419_43)">
<rect width="500" height="550" rx="8" fill="white"/>
<rect x="3" y="-3" width="146" height="213" rx="5" transform="matrix(1 0 0 -1 308.4 510.867)" fill="#FDE64B" stroke="black" stroke-width="6"/>
<path d="M388.7 539.868H390.333C392.137 539.868 393.6 538.406 393.6 536.601V520.268C393.6 518.464 392.137 517.001 390.333 517.001H377.267C375.463 517.001 374 518.464 374 520.268V536.601C374 538.406 375.463 539.868 377.267 539.868H378.9V596.502H388.7V539.868Z" fill="black"/>
<circle cx="4" cy="4" r="4" transform="matrix(1 0 0 -1 409 498)" fill="black"/>
<circle cx="4" cy="4" r="4" transform="matrix(1 0 0 -1 421 498)" fill="black"/>
<circle cx="4" cy="4" r="4" transform="matrix(1 0 0 -1 433 498)" fill="black"/>
<path d="M377.4 448.867L405.4 406.867H363.4L391.4 364.867" stroke="black" stroke-width="6" stroke-linecap="round" stroke-linejoin="round"/>
<rect x="53" y="83" width="230.717" height="380.082" rx="6" fill="black" stroke="black" stroke-width="4"/>
<path d="M173.7 517.867H175.333C177.137 517.867 178.6 516.405 178.6 514.6V498.267C178.6 496.463 177.137 495 175.333 495H162.267C160.463 495 159 496.463 159 498.267V514.6C159 516.405 160.463 517.867 162.267 517.867H163.9V574.501H173.7V517.867Z" fill="black"/>
<rect x="122" y="101.671" width="12" height="12" rx="6" fill="white"/>
<rect x="142" y="101.671" width="72" height="12" rx="6" fill="white"/>
<rect x="72.3379" y="123.677" width="192.042" height="320.069" rx="4" fill="white"/>
<rect x="164" y="488" width="10" height="8" fill="white" stroke="black" stroke-width="2"/>
<rect x="100" y="268" width="133" height="50" rx="5" stroke="black" stroke-width="6"/>
<rect x="106" y="274" width="18" height="38" fill="#FF4646"/>
<rect x="233" y="282" width="7" height="22" rx="2" fill="black"/>
<path d="M167.837 259.336C168.621 258.16 170.121 257.69 171.437 258.21C172.752 258.73 173.525 260.099 173.293 261.494L168.542 290H181C182.106 290 183.123 290.609 183.646 291.584C184.168 292.56 184.11 293.744 183.496 294.665L162.163 326.665C161.379 327.841 159.879 328.311 158.563 327.791C157.248 327.27 156.475 325.902 156.707 324.507L161.458 296H149C147.894 296 146.877 295.392 146.355 294.416C145.832 293.441 145.89 292.257 146.504 291.336L167.837 259.336Z" fill="white" stroke="black" stroke-width="4" stroke-linecap="round" stroke-linejoin="round"/>
</g>
<rect x="3" y="3" width="494" height="544" rx="5" stroke="black" stroke-width="6"/>
<defs>
<clipPath id="clip0_419_43">
<rect width="500" height="550" rx="8" fill="white"/>
</clipPath>
</defs>
</svg>
