<svg width="500" height="550" viewBox="0 0 500 550" fill="none" xmlns="http://www.w3.org/2000/svg">
<g clip-path="url(#clip0_416_2005)">
<rect width="500" height="550" rx="8" fill="white"/>
<rect x="3" y="-3" width="146" height="213" rx="5" transform="matrix(1 0 0 -1 308.4 510.867)" fill="#FDE64B" stroke="black" stroke-width="6"/>
<path d="M388.7 539.868H390.333C392.137 539.868 393.6 538.406 393.6 536.601V520.268C393.6 518.464 392.137 517.001 390.333 517.001H377.267C375.463 517.001 374 518.464 374 520.268V536.601C374 538.406 375.463 539.868 377.267 539.868H378.9V596.502H388.7V539.868Z" fill="black"/>
<circle cx="4" cy="4" r="4" transform="matrix(1 0 0 -1 409 498)" fill="black"/>
<circle cx="4" cy="4" r="4" transform="matrix(1 0 0 -1 421 498)" fill="black"/>
<circle cx="4" cy="4" r="4" transform="matrix(1 0 0 -1 433 498)" fill="black"/>
<path d="M377.4 448.867L405.4 406.867H363.4L391.4 364.867" stroke="black" stroke-width="6" stroke-linecap="round" stroke-linejoin="round"/>
<rect x="53" y="83" width="230.717" height="380.082" rx="6" fill="black" stroke="black" stroke-width="4"/>
<path d="M173.7 487.867H175.333C177.137 487.867 178.6 486.405 178.6 484.6V468.267C178.6 466.463 177.137 465 175.333 465H162.267C160.463 465 159 466.463 159 468.267V484.6C159 486.405 160.463 487.867 162.267 487.867H163.9V544.501H173.7V487.867Z" fill="black"/>
<rect x="122" y="101.671" width="12" height="12" rx="6" fill="white"/>
<rect x="142" y="101.671" width="72" height="12" rx="6" fill="white"/>
<rect x="72.3378" y="123.677" width="192.042" height="320.069" rx="4" fill="white"/>
<rect x="100" y="268" width="133" height="50" rx="5" stroke="black" stroke-width="6"/>
<rect x="106" y="274" width="18" height="38" fill="#70FF6E"/>
<rect x="233" y="282" width="7" height="22" rx="2" fill="black"/>
<path d="M159.667 325L181 293H149L170.333 261" fill="#030303"/>
<path d="M159.667 325L181 293H149L170.333 261L159.667 325Z" stroke="black" stroke-width="6" stroke-linecap="round" stroke-linejoin="round"/>
</g>
<rect x="3" y="3" width="494" height="544" rx="5" stroke="black" stroke-width="6"/>
<defs>
<clipPath id="clip0_416_2005">
<rect width="500" height="550" rx="8" fill="white"/>
</clipPath>
</defs>
</svg>
