<svg width="500" height="550" viewBox="0 0 500 550" fill="none" xmlns="http://www.w3.org/2000/svg">
<g clip-path="url(#clip0_428_555)">
<rect width="500" height="550" rx="8" fill="#EBEBE9"/>
<rect x="-16" y="203" width="371" height="248" fill="white" stroke="black" stroke-width="4"/>
<path d="M108.887 238.981C109.046 238.438 109.371 238.166 109.861 238.166C109.968 238.166 110.04 238.172 110.08 238.186C110.584 237.96 111.108 237.781 111.651 237.649C112.195 237.503 112.752 237.43 113.322 237.43C113.707 237.43 114.078 237.47 114.436 237.549C114.794 237.615 115.145 237.748 115.49 237.947V237.927C115.861 238.113 116.193 238.351 116.485 238.643C116.776 238.935 117.028 239.26 117.24 239.618C117.453 239.976 117.612 240.354 117.718 240.751C117.837 241.149 117.897 241.547 117.897 241.945C117.897 242.727 117.685 243.443 117.26 244.093C116.823 244.769 116.279 245.313 115.629 245.724C114.993 246.122 114.244 246.354 113.382 246.42C113.223 246.433 113.057 246.446 112.885 246.46C112.726 246.46 112.573 246.46 112.427 246.46C112.149 246.46 111.877 246.453 111.612 246.44C111.347 246.413 111.095 246.387 110.856 246.36C110.856 246.864 110.856 247.414 110.856 248.011C110.856 248.608 110.863 249.145 110.876 249.622C110.863 249.967 110.75 250.219 110.538 250.378C110.339 250.537 110.12 250.617 109.881 250.617C109.656 250.617 109.444 250.537 109.245 250.378C109.059 250.232 108.947 250.007 108.907 249.702V245.923L108.867 245.903C108.429 245.651 108.211 245.352 108.211 245.008C108.211 244.849 108.264 244.696 108.37 244.55C108.476 244.404 108.648 244.298 108.887 244.232V238.981ZM114.555 239.498C114.171 239.286 113.753 239.18 113.302 239.18C112.878 239.18 112.454 239.246 112.029 239.379C111.618 239.498 111.227 239.651 110.856 239.836V244.59C111.36 244.696 111.857 244.749 112.348 244.749C112.865 244.749 113.375 244.676 113.879 244.53C114.396 244.371 114.821 244.119 115.152 243.775C115.417 243.509 115.603 243.211 115.709 242.88C115.828 242.548 115.888 242.21 115.888 241.865C115.888 241.361 115.775 240.904 115.55 240.493C115.338 240.069 115.006 239.737 114.555 239.498ZM126.071 249.065C126.151 249.264 126.164 249.456 126.111 249.642C126.071 249.814 125.978 249.954 125.832 250.06C125.7 250.179 125.528 250.245 125.315 250.259C125.103 250.285 124.878 250.239 124.639 250.119C124.533 250.013 124.427 249.907 124.321 249.801C124.228 249.682 124.149 249.569 124.082 249.463C123.605 249.821 123.154 250.046 122.73 250.139C122.319 250.245 121.868 250.298 121.377 250.298C121.019 250.298 120.668 250.259 120.323 250.179C119.992 250.113 119.653 249.967 119.309 249.741C118.805 249.383 118.447 248.959 118.235 248.469C118.023 247.978 117.916 247.461 117.916 246.917C117.916 246.36 117.996 245.836 118.155 245.346C118.328 244.842 118.56 244.378 118.851 243.954C119.143 243.516 119.474 243.118 119.846 242.76C120.23 242.402 120.641 242.084 121.079 241.806C121.172 241.752 121.298 241.693 121.457 241.627C121.629 241.56 121.821 241.501 122.034 241.448C122.246 241.381 122.465 241.335 122.69 241.308C122.915 241.269 123.134 241.249 123.346 241.249C123.757 241.249 124.122 241.302 124.44 241.408C124.772 241.501 125.01 241.739 125.156 242.124C125.156 242.522 125.156 242.853 125.156 243.118C125.156 243.383 125.15 243.609 125.136 243.794C125.136 243.967 125.136 244.113 125.136 244.232C125.136 244.351 125.136 244.464 125.136 244.57C125.136 245.034 125.15 245.518 125.176 246.022C125.203 246.513 125.249 246.997 125.315 247.474C125.342 247.62 125.402 247.792 125.494 247.991C125.6 248.19 125.707 248.369 125.813 248.528H125.793C125.886 248.674 125.958 248.793 126.012 248.886C126.078 248.979 126.098 249.039 126.071 249.065ZM123.386 247.653C123.28 247.189 123.214 246.712 123.187 246.221C123.161 245.717 123.147 245.22 123.147 244.729C123.147 244.385 123.154 244.073 123.167 243.794C123.181 243.516 123.187 243.244 123.187 242.979C122.962 243.006 122.73 243.065 122.491 243.158C122.266 243.251 122.107 243.317 122.014 243.357C121.656 243.516 121.331 243.741 121.039 244.033C120.761 244.325 120.529 244.65 120.343 245.008C120.157 245.366 120.018 245.744 119.925 246.141C119.846 246.526 119.839 246.904 119.905 247.275C119.945 247.567 120.045 247.812 120.204 248.011C120.376 248.197 120.575 248.343 120.8 248.449C121.026 248.541 121.265 248.588 121.516 248.588C121.782 248.588 122.034 248.548 122.272 248.469C122.564 248.296 122.935 248.024 123.386 247.653ZM134.088 241.527C134.287 241.156 134.592 240.97 135.003 240.97C135.268 240.97 135.487 241.063 135.66 241.249C135.845 241.434 135.938 241.693 135.938 242.024C135.726 242.846 135.461 243.662 135.142 244.471C134.837 245.266 134.493 246.055 134.108 246.838C133.737 247.607 133.339 248.369 132.915 249.125C132.504 249.881 132.086 250.63 131.662 251.372C131.45 251.744 131.237 252.108 131.025 252.466C130.826 252.824 130.621 253.196 130.409 253.58C130.263 253.766 130.104 253.898 129.931 253.978C129.772 254.057 129.62 254.097 129.474 254.097C129.222 254.097 129.01 254.024 128.837 253.878C128.665 253.733 128.579 253.507 128.579 253.202C128.579 253.162 128.579 253.116 128.579 253.063C128.579 253.023 128.586 252.977 128.599 252.924C128.824 252.499 129.056 252.082 129.295 251.671C129.547 251.26 129.786 250.849 130.011 250.438L131.224 248.27C130.694 247.845 130.223 247.414 129.812 246.977C129.401 246.539 129.03 246.082 128.698 245.604C128.38 245.114 128.095 244.59 127.843 244.033C127.604 243.463 127.392 242.846 127.207 242.183C127.207 241.428 127.518 241.05 128.141 241.05C128.354 241.05 128.546 241.109 128.718 241.229C128.904 241.348 129.036 241.54 129.116 241.806C129.381 242.853 129.766 243.755 130.27 244.51C130.773 245.266 131.383 245.962 132.099 246.599C132.524 245.777 132.895 244.968 133.213 244.172C133.531 243.364 133.816 242.482 134.068 241.527H134.088ZM152.263 249.065C152.342 249.264 152.355 249.456 152.302 249.642C152.263 249.814 152.17 249.954 152.024 250.06C151.891 250.179 151.719 250.245 151.507 250.259C151.295 250.285 151.069 250.239 150.831 250.119C150.724 250.013 150.618 249.907 150.512 249.801C150.419 249.682 150.34 249.569 150.274 249.463C149.796 249.821 149.345 250.046 148.921 250.139C148.51 250.245 148.059 250.298 147.569 250.298C147.211 250.298 146.859 250.259 146.515 250.179C146.183 250.113 145.845 249.967 145.5 249.741C144.996 249.383 144.638 248.959 144.426 248.469C144.214 247.978 144.108 247.461 144.108 246.917C144.108 246.36 144.187 245.836 144.347 245.346C144.519 244.842 144.751 244.378 145.043 243.954C145.334 243.516 145.666 243.118 146.037 242.76C146.422 242.402 146.833 242.084 147.27 241.806C147.363 241.752 147.489 241.693 147.648 241.627C147.821 241.56 148.013 241.501 148.225 241.448C148.437 241.381 148.656 241.335 148.881 241.308C149.107 241.269 149.326 241.249 149.538 241.249C149.949 241.249 150.313 241.302 150.632 241.408C150.963 241.501 151.202 241.739 151.348 242.124C151.348 242.522 151.348 242.853 151.348 243.118C151.348 243.383 151.341 243.609 151.328 243.794C151.328 243.967 151.328 244.113 151.328 244.232C151.328 244.351 151.328 244.464 151.328 244.57C151.328 245.034 151.341 245.518 151.368 246.022C151.394 246.513 151.44 246.997 151.507 247.474C151.533 247.62 151.593 247.792 151.686 247.991C151.792 248.19 151.898 248.369 152.004 248.528H151.984C152.077 248.674 152.15 248.793 152.203 248.886C152.269 248.979 152.289 249.039 152.263 249.065ZM149.577 247.653C149.471 247.189 149.405 246.712 149.379 246.221C149.352 245.717 149.339 245.22 149.339 244.729C149.339 244.385 149.345 244.073 149.359 243.794C149.372 243.516 149.379 243.244 149.379 242.979C149.153 243.006 148.921 243.065 148.682 243.158C148.457 243.251 148.298 243.317 148.205 243.357C147.847 243.516 147.522 243.741 147.231 244.033C146.952 244.325 146.72 244.65 146.534 245.008C146.349 245.366 146.21 245.744 146.117 246.141C146.037 246.526 146.031 246.904 146.097 247.275C146.137 247.567 146.236 247.812 146.395 248.011C146.568 248.197 146.766 248.343 146.992 248.449C147.217 248.541 147.456 248.588 147.708 248.588C147.973 248.588 148.225 248.548 148.464 248.469C148.755 248.296 149.127 248.024 149.577 247.653ZM153.591 248.528C153.406 248.144 153.399 247.825 153.571 247.573C153.757 247.308 154.022 247.176 154.367 247.176C154.592 247.176 154.838 247.262 155.103 247.434C155.381 247.806 155.713 248.117 156.097 248.369C156.482 248.621 156.886 248.707 157.311 248.628C157.51 248.588 157.682 248.515 157.828 248.409C157.987 248.29 158.1 248.157 158.166 248.011C158.245 247.865 158.285 247.706 158.285 247.534C158.285 247.361 158.239 247.202 158.146 247.056C158.027 246.871 157.894 246.725 157.748 246.619C157.616 246.513 157.47 246.433 157.311 246.38C157.165 246.327 157.019 246.287 156.873 246.261C156.74 246.234 156.615 246.201 156.495 246.161C156.296 246.108 156.097 246.055 155.898 246.002C155.7 245.936 155.507 245.856 155.322 245.764C155.136 245.671 154.957 245.558 154.785 245.425C154.612 245.28 154.447 245.101 154.287 244.888C154.142 244.69 154.029 244.477 153.949 244.252C153.87 244.013 153.83 243.794 153.83 243.596C153.83 243.317 153.883 243.032 153.989 242.74C154.095 242.449 154.234 242.183 154.407 241.945C154.592 241.693 154.805 241.481 155.043 241.308C155.295 241.123 155.56 240.997 155.839 240.93C156.396 240.785 156.973 240.765 157.569 240.871C158.179 240.977 158.723 241.162 159.2 241.428C159.386 241.56 159.525 241.699 159.618 241.845C159.711 241.991 159.757 242.13 159.757 242.263C159.757 242.422 159.711 242.568 159.618 242.701C159.538 242.82 159.426 242.919 159.28 242.999C159.147 243.078 158.988 243.118 158.802 243.118C158.63 243.118 158.444 243.065 158.245 242.959C158.086 242.88 157.861 242.807 157.569 242.74C157.291 242.661 157.012 242.634 156.734 242.661C156.455 242.674 156.223 242.76 156.038 242.919C155.852 243.078 155.779 243.344 155.819 243.715C155.898 243.861 155.991 243.987 156.097 244.093C156.217 244.186 156.343 244.265 156.475 244.331C156.621 244.398 156.774 244.457 156.933 244.51C157.092 244.55 157.244 244.59 157.39 244.63C157.801 244.749 158.179 244.888 158.524 245.048C158.869 245.193 159.167 245.379 159.419 245.604C159.671 245.83 159.863 246.102 159.996 246.42C160.142 246.738 160.215 247.123 160.215 247.573C160.215 247.931 160.135 248.283 159.976 248.628C159.817 248.959 159.605 249.257 159.339 249.523C159.087 249.788 158.796 250 158.464 250.159C158.133 250.318 157.801 250.398 157.47 250.398C156.727 250.398 156.005 250.232 155.302 249.901C154.599 249.569 154.036 249.112 153.611 248.528H153.591ZM175.098 241.527C175.297 241.156 175.602 240.97 176.013 240.97C176.278 240.97 176.497 241.063 176.669 241.249C176.855 241.434 176.948 241.693 176.948 242.024C176.736 242.846 176.47 243.662 176.152 244.471C175.847 245.266 175.502 246.055 175.118 246.838C174.747 247.607 174.349 248.369 173.925 249.125C173.514 249.881 173.096 250.63 172.672 251.372C172.459 251.744 172.247 252.108 172.035 252.466C171.836 252.824 171.631 253.196 171.419 253.58C171.273 253.766 171.114 253.898 170.941 253.978C170.782 254.057 170.63 254.097 170.484 254.097C170.232 254.097 170.02 254.024 169.847 253.878C169.675 253.733 169.589 253.507 169.589 253.202C169.589 253.162 169.589 253.116 169.589 253.063C169.589 253.023 169.595 252.977 169.609 252.924C169.834 252.499 170.066 252.082 170.305 251.671C170.557 251.26 170.795 250.849 171.021 250.438L172.234 248.27C171.704 247.845 171.233 247.414 170.822 246.977C170.411 246.539 170.04 246.082 169.708 245.604C169.39 245.114 169.105 244.59 168.853 244.033C168.614 243.463 168.402 242.846 168.216 242.183C168.216 241.428 168.528 241.05 169.151 241.05C169.363 241.05 169.556 241.109 169.728 241.229C169.914 241.348 170.046 241.54 170.126 241.806C170.391 242.853 170.775 243.755 171.279 244.51C171.783 245.266 172.393 245.962 173.109 246.599C173.533 245.777 173.905 244.968 174.223 244.172C174.541 243.364 174.826 242.482 175.078 241.527H175.098ZM182.009 241.328C182.566 241.328 183.056 241.448 183.481 241.686C183.918 241.925 184.283 242.243 184.575 242.641C184.879 243.025 185.105 243.47 185.251 243.973C185.41 244.464 185.489 244.968 185.489 245.485C185.489 245.71 185.476 245.923 185.45 246.122C185.423 246.307 185.39 246.499 185.35 246.698C185.204 247.242 184.986 247.752 184.694 248.23C184.415 248.707 184.084 249.125 183.699 249.483C183.315 249.828 182.884 250.099 182.407 250.298C181.942 250.497 181.452 250.597 180.935 250.597C180.391 250.597 179.894 250.477 179.443 250.239C179.005 250 178.634 249.695 178.329 249.324C178.024 248.939 177.786 248.515 177.613 248.051C177.454 247.573 177.375 247.096 177.375 246.619C177.375 245.956 177.494 245.313 177.733 244.69C177.984 244.053 178.316 243.49 178.727 242.999C179.151 242.495 179.642 242.091 180.199 241.786C180.769 241.481 181.372 241.328 182.009 241.328ZM179.443 245.604C179.363 245.909 179.324 246.248 179.324 246.619C179.324 246.99 179.377 247.341 179.483 247.673C179.589 247.991 179.761 248.263 180 248.488C180.252 248.714 180.583 248.827 180.994 248.827C181.392 248.827 181.744 248.714 182.049 248.488C182.367 248.25 182.632 247.965 182.844 247.633C183.07 247.288 183.242 246.924 183.361 246.539C183.481 246.141 183.54 245.783 183.54 245.465C183.54 245.173 183.507 244.888 183.441 244.61C183.375 244.318 183.268 244.06 183.123 243.834C182.99 243.609 182.824 243.43 182.625 243.297C182.426 243.151 182.201 243.078 181.949 243.078C181.631 243.078 181.333 243.165 181.054 243.337C180.776 243.496 180.524 243.702 180.298 243.954C180.086 244.192 179.907 244.464 179.761 244.769C179.615 245.061 179.509 245.339 179.443 245.604ZM195.181 248.528C195.354 248.767 195.44 248.986 195.44 249.185C195.44 249.423 195.347 249.622 195.162 249.781C194.989 249.927 194.777 250 194.525 250C194.22 250 193.955 249.887 193.729 249.662C193.517 249.436 193.338 249.171 193.192 248.866C192.861 249.171 192.47 249.436 192.019 249.662C191.568 249.887 191.111 250 190.647 250C190.289 250 189.931 249.94 189.573 249.821C189.228 249.688 188.903 249.516 188.598 249.304C188.306 249.078 188.048 248.82 187.822 248.528C187.61 248.236 187.444 247.925 187.325 247.593C187.219 247.249 187.146 246.871 187.106 246.46C187.08 246.049 187.067 245.618 187.067 245.167C187.067 244.875 187.067 244.59 187.067 244.312C187.067 244.033 187.073 243.761 187.086 243.496C187.1 243.271 187.106 243.052 187.106 242.84C187.12 242.628 187.126 242.429 187.126 242.243C187.192 241.951 187.312 241.739 187.484 241.607C187.67 241.474 187.882 241.408 188.121 241.408C188.32 241.408 188.512 241.474 188.697 241.607C188.896 241.726 189.029 241.918 189.095 242.183C189.095 242.488 189.095 242.787 189.095 243.078C189.095 243.37 189.089 243.662 189.075 243.954C189.062 244.259 189.049 244.557 189.036 244.849C189.036 245.14 189.036 245.452 189.036 245.783C189.036 246.499 189.175 247.083 189.453 247.534C189.732 247.985 190.11 248.21 190.587 248.21C190.971 248.21 191.329 248.064 191.661 247.772C191.992 247.467 192.311 247.123 192.616 246.738C192.536 246.102 192.496 245.452 192.496 244.789C192.496 244.404 192.496 244.013 192.496 243.615C192.51 243.218 192.549 242.86 192.616 242.541C192.695 242.21 192.808 241.945 192.954 241.746C193.113 241.534 193.345 241.428 193.65 241.428C193.889 241.428 194.101 241.507 194.286 241.666C194.485 241.825 194.585 242.064 194.585 242.382C194.585 242.661 194.565 242.979 194.525 243.337C194.499 243.562 194.479 243.801 194.465 244.053C194.452 244.305 194.446 244.564 194.446 244.829C194.446 245.187 194.452 245.551 194.465 245.923C194.492 246.281 194.532 246.625 194.585 246.957C194.651 247.288 194.731 247.593 194.823 247.872C194.916 248.137 195.036 248.356 195.181 248.528ZM211.564 248.528C211.737 248.767 211.823 248.986 211.823 249.185C211.823 249.423 211.73 249.622 211.544 249.781C211.372 249.927 211.16 250 210.908 250C210.603 250 210.338 249.887 210.112 249.662C209.9 249.436 209.721 249.171 209.575 248.866C209.244 249.171 208.853 249.436 208.402 249.662C207.951 249.887 207.494 250 207.029 250C206.671 250 206.313 249.94 205.955 249.821C205.611 249.688 205.286 249.516 204.981 249.304C204.689 249.078 204.431 248.82 204.205 248.528C203.993 248.236 203.827 247.925 203.708 247.593C203.602 247.249 203.529 246.871 203.489 246.46C203.463 246.049 203.449 245.618 203.449 245.167C203.449 244.875 203.449 244.59 203.449 244.312C203.449 244.033 203.456 243.761 203.469 243.496C203.482 243.271 203.489 243.052 203.489 242.84C203.502 242.628 203.509 242.429 203.509 242.243C203.575 241.951 203.695 241.739 203.867 241.607C204.053 241.474 204.265 241.408 204.503 241.408C204.702 241.408 204.895 241.474 205.08 241.607C205.279 241.726 205.412 241.918 205.478 242.183C205.478 242.488 205.478 242.787 205.478 243.078C205.478 243.37 205.471 243.662 205.458 243.954C205.445 244.259 205.432 244.557 205.418 244.849C205.418 245.14 205.418 245.452 205.418 245.783C205.418 246.499 205.558 247.083 205.836 247.534C206.115 247.985 206.492 248.21 206.97 248.21C207.354 248.21 207.712 248.064 208.044 247.772C208.375 247.467 208.694 247.123 208.998 246.738C208.919 246.102 208.879 245.452 208.879 244.789C208.879 244.404 208.879 244.013 208.879 243.615C208.892 243.218 208.932 242.86 208.998 242.541C209.078 242.21 209.191 241.945 209.337 241.746C209.496 241.534 209.728 241.428 210.033 241.428C210.271 241.428 210.484 241.507 210.669 241.666C210.868 241.825 210.968 242.064 210.968 242.382C210.968 242.661 210.948 242.979 210.908 243.337C210.881 243.562 210.861 243.801 210.848 244.053C210.835 244.305 210.828 244.564 210.828 244.829C210.828 245.187 210.835 245.551 210.848 245.923C210.875 246.281 210.915 246.625 210.968 246.957C211.034 247.288 211.113 247.593 211.206 247.872C211.299 248.137 211.418 248.356 211.564 248.528ZM213.111 248.528C212.925 248.144 212.919 247.825 213.091 247.573C213.277 247.308 213.542 247.176 213.887 247.176C214.112 247.176 214.357 247.262 214.622 247.434C214.901 247.806 215.232 248.117 215.617 248.369C216.001 248.621 216.406 248.707 216.83 248.628C217.029 248.588 217.201 248.515 217.347 248.409C217.506 248.29 217.619 248.157 217.685 248.011C217.765 247.865 217.805 247.706 217.805 247.534C217.805 247.361 217.758 247.202 217.666 247.056C217.546 246.871 217.414 246.725 217.268 246.619C217.135 246.513 216.989 246.433 216.83 246.38C216.684 246.327 216.538 246.287 216.393 246.261C216.26 246.234 216.134 246.201 216.015 246.161C215.816 246.108 215.617 246.055 215.418 246.002C215.219 245.936 215.027 245.856 214.841 245.764C214.656 245.671 214.477 245.558 214.304 245.425C214.132 245.28 213.966 245.101 213.807 244.888C213.661 244.69 213.548 244.477 213.469 244.252C213.389 244.013 213.35 243.794 213.35 243.596C213.35 243.317 213.403 243.032 213.509 242.74C213.615 242.449 213.754 242.183 213.926 241.945C214.112 241.693 214.324 241.481 214.563 241.308C214.815 241.123 215.08 240.997 215.358 240.93C215.915 240.785 216.492 240.765 217.089 240.871C217.699 240.977 218.242 241.162 218.72 241.428C218.905 241.56 219.045 241.699 219.137 241.845C219.23 241.991 219.277 242.13 219.277 242.263C219.277 242.422 219.23 242.568 219.137 242.701C219.058 242.82 218.945 242.919 218.799 242.999C218.667 243.078 218.508 243.118 218.322 243.118C218.15 243.118 217.964 243.065 217.765 242.959C217.606 242.88 217.38 242.807 217.089 242.74C216.81 242.661 216.532 242.634 216.253 242.661C215.975 242.674 215.743 242.76 215.557 242.919C215.372 243.078 215.299 243.344 215.338 243.715C215.418 243.861 215.511 243.987 215.617 244.093C215.736 244.186 215.862 244.265 215.995 244.331C216.141 244.398 216.293 244.457 216.452 244.51C216.611 244.55 216.764 244.59 216.91 244.63C217.321 244.749 217.699 244.888 218.043 245.048C218.388 245.193 218.687 245.379 218.938 245.604C219.19 245.83 219.383 246.102 219.515 246.42C219.661 246.738 219.734 247.123 219.734 247.573C219.734 247.931 219.654 248.283 219.495 248.628C219.336 248.959 219.124 249.257 218.859 249.523C218.607 249.788 218.315 250 217.984 250.159C217.652 250.318 217.321 250.398 216.989 250.398C216.247 250.398 215.524 250.232 214.821 249.901C214.119 249.569 213.555 249.112 213.131 248.528H213.111ZM228.063 247.554C228.275 247.474 228.467 247.441 228.64 247.454C228.825 247.467 228.978 247.514 229.097 247.593C229.23 247.673 229.329 247.779 229.395 247.912C229.475 248.031 229.515 248.164 229.515 248.309C229.515 248.455 229.468 248.601 229.375 248.747C229.283 248.88 229.137 249.006 228.938 249.125C228.381 249.456 227.778 249.741 227.128 249.98C226.492 250.206 225.848 250.318 225.199 250.318C224.814 250.318 224.423 250.259 224.025 250.139C223.627 250.033 223.256 249.861 222.911 249.622C222.355 249.211 221.917 248.674 221.599 248.011C221.294 247.335 221.141 246.645 221.141 245.943C221.141 245.253 221.274 244.59 221.539 243.954C221.817 243.317 222.255 242.8 222.852 242.402C223.329 242.071 223.846 241.806 224.403 241.607C224.96 241.408 225.537 241.308 226.134 241.308C226.452 241.308 226.763 241.341 227.068 241.408C227.36 241.474 227.632 241.593 227.884 241.766C228.136 241.925 228.355 242.124 228.54 242.362C228.726 242.588 228.872 242.84 228.978 243.118C229.084 243.397 229.137 243.675 229.137 243.954C229.137 244.139 229.117 244.318 229.077 244.491C229.037 244.663 228.964 244.829 228.858 244.988C228.659 245.306 228.388 245.585 228.043 245.823C227.698 246.049 227.32 246.248 226.909 246.42C226.498 246.592 226.074 246.738 225.636 246.857C225.199 246.977 224.788 247.083 224.403 247.176C223.992 247.282 223.727 247.348 223.608 247.375C223.501 247.401 223.435 247.414 223.409 247.414C223.594 247.799 223.859 248.104 224.204 248.329C224.549 248.555 224.973 248.648 225.477 248.608C225.901 248.581 226.339 248.462 226.79 248.25C227.254 248.024 227.678 247.792 228.063 247.554ZM224.403 243.556C223.966 243.781 223.641 244.086 223.429 244.471C223.216 244.842 223.097 245.26 223.071 245.724C223.071 245.724 223.077 245.724 223.09 245.724C223.117 245.71 223.177 245.691 223.269 245.664C223.375 245.638 223.528 245.598 223.727 245.545C223.926 245.478 224.211 245.392 224.582 245.286C224.715 245.246 224.914 245.193 225.179 245.127C225.444 245.048 225.709 244.961 225.974 244.869C226.253 244.762 226.505 244.643 226.73 244.51C226.969 244.378 227.128 244.232 227.208 244.073C227.234 243.688 227.148 243.423 226.949 243.277C226.75 243.131 226.511 243.059 226.233 243.059C225.928 243.059 225.603 243.118 225.258 243.238C224.914 243.344 224.629 243.45 224.403 243.556Z" fill="black"/>
<path d="M97.5134 282.052C97.6195 281.522 97.6636 280.894 97.646 280.169C97.6283 279.444 97.5045 278.746 97.2747 278.074C97.0625 277.402 96.7266 276.836 96.267 276.377C95.825 275.917 95.215 275.687 94.4371 275.687C93.5885 275.687 92.9078 275.961 92.3951 276.509C91.8824 277.057 91.4935 277.729 91.2283 278.525C90.9808 279.303 90.8305 280.116 90.7775 280.965C90.7244 281.796 90.7421 282.503 90.8305 283.086C90.8835 283.475 90.9719 283.882 91.0957 284.306C91.2371 284.73 91.4139 285.119 91.6261 285.473C91.8382 285.827 92.1034 286.109 92.4217 286.322C92.7576 286.534 93.1554 286.631 93.615 286.613C94.2515 286.578 94.7819 286.436 95.2062 286.189C95.6482 285.924 96.0195 285.597 96.32 285.208C96.6206 284.801 96.8592 284.341 97.036 283.829C97.2305 283.298 97.3808 282.75 97.4869 282.185L97.5134 282.052ZM100.563 282.582C100.333 283.873 99.8913 285.11 99.2371 286.295C98.583 287.462 97.6725 288.408 96.5056 289.133C95.9222 289.415 95.3034 289.601 94.6493 289.69C93.9951 289.778 93.3498 289.769 92.7134 289.663C92.0769 289.557 91.4758 289.336 90.9101 289C90.3443 288.682 89.8581 288.249 89.4515 287.701C88.5675 286.498 87.9929 285.252 87.7277 283.961C87.4802 282.671 87.4714 281.309 87.7012 279.877C87.8603 278.87 88.1344 277.871 88.5233 276.881C88.9299 275.891 89.4957 275.024 90.2206 274.282C90.804 273.681 91.4493 273.23 92.1565 272.929C92.8636 272.611 93.5797 272.443 94.3045 272.425C95.0471 272.408 95.7719 272.54 96.4791 272.823C97.204 273.106 97.867 273.53 98.4681 274.096C99.0692 274.662 99.5377 275.29 99.8736 275.979C100.227 276.651 100.475 277.349 100.616 278.074C100.758 278.799 100.819 279.55 100.802 280.328C100.784 281.088 100.705 281.84 100.563 282.582ZM107.15 287.541C107.15 287.983 107.044 288.364 106.832 288.682C106.638 288.982 106.39 289.212 106.089 289.371C105.789 289.53 105.453 289.61 105.082 289.61C104.728 289.628 104.392 289.566 104.074 289.424C103.756 289.301 103.482 289.097 103.252 288.814C103.04 288.531 102.916 288.169 102.881 287.727C102.845 287.267 102.925 286.887 103.119 286.587C103.331 286.269 103.597 286.03 103.915 285.871C104.233 285.712 104.578 285.632 104.949 285.632C105.32 285.614 105.665 285.676 105.983 285.818C106.319 285.941 106.593 286.154 106.805 286.454C107.035 286.737 107.15 287.099 107.15 287.541ZM119.128 286.454C119.482 286.56 119.791 286.764 120.057 287.064C120.322 287.365 120.499 287.683 120.587 288.019C120.693 288.337 120.675 288.646 120.534 288.947C120.41 289.23 120.127 289.407 119.685 289.477C118.837 289.619 117.961 289.681 117.06 289.663C116.158 289.663 115.31 289.654 114.514 289.636C113.966 289.636 113.586 289.469 113.374 289.133C113.179 288.797 113.117 288.434 113.188 288.045C113.276 287.639 113.497 287.276 113.851 286.958C114.205 286.622 114.655 286.454 115.203 286.454V276.801C114.974 276.854 114.744 276.845 114.514 276.775C114.284 276.686 114.081 276.562 113.904 276.403C113.727 276.244 113.586 276.059 113.48 275.846C113.391 275.617 113.365 275.387 113.4 275.157C113.453 274.768 113.648 274.37 113.984 273.964C114.337 273.557 114.744 273.221 115.203 272.956C115.663 272.691 116.132 272.531 116.609 272.478C117.104 272.425 117.528 272.549 117.882 272.85C118.023 272.956 118.147 273.106 118.253 273.301C118.377 273.495 118.439 273.672 118.439 273.831C118.457 275.952 118.457 278.065 118.439 280.169C118.439 282.255 118.439 284.35 118.439 286.454H119.128ZM145.721 273.804C145.827 273.451 145.995 273.159 146.224 272.929C146.472 272.699 146.737 272.549 147.02 272.478C147.303 272.408 147.586 272.425 147.869 272.531C148.169 272.638 148.425 272.85 148.638 273.168C148.708 273.256 148.77 273.362 148.823 273.486C148.894 273.61 148.929 273.725 148.929 273.831C148.929 274.025 148.921 274.352 148.903 274.812C148.885 275.272 148.867 275.74 148.85 276.218C148.85 276.695 148.841 277.119 148.823 277.491C148.806 277.862 148.797 278.056 148.797 278.074C148.761 279.029 148.7 279.983 148.611 280.938C148.523 281.875 148.399 282.821 148.24 283.776C148.098 284.518 147.93 285.208 147.736 285.844C147.541 286.463 147.276 287.02 146.94 287.515C146.604 287.992 146.18 288.408 145.667 288.761C145.155 289.115 144.518 289.398 143.758 289.61C143.458 289.698 143.139 289.76 142.803 289.796C142.485 289.831 142.176 289.849 141.875 289.849C140.991 289.849 140.09 289.681 139.17 289.345C138.127 288.938 137.34 288.266 136.81 287.329C136.28 286.392 135.908 285.349 135.696 284.2C135.484 283.033 135.378 281.857 135.378 280.673C135.396 279.488 135.404 278.445 135.404 277.544C135.404 277.172 135.404 276.801 135.404 276.43C135.422 276.041 135.44 275.661 135.458 275.29C135.458 275.024 135.466 274.75 135.484 274.467C135.502 274.167 135.555 273.884 135.643 273.619C135.732 273.354 135.864 273.124 136.041 272.929C136.235 272.735 136.501 272.602 136.837 272.531C137.031 272.496 137.234 272.514 137.446 272.585C137.676 272.655 137.88 272.761 138.056 272.903C138.233 273.027 138.383 273.186 138.507 273.38C138.631 273.557 138.693 273.751 138.693 273.964C138.693 274.246 138.693 274.476 138.693 274.653C138.693 274.812 138.693 274.962 138.693 275.104C138.693 275.228 138.684 275.36 138.666 275.502C138.666 275.643 138.666 275.829 138.666 276.059C138.631 277.225 138.613 278.392 138.613 279.559C138.613 280.708 138.684 281.857 138.825 283.007C138.879 283.484 138.958 283.979 139.064 284.492C139.17 285.004 139.382 285.446 139.701 285.818C139.983 286.154 140.346 286.392 140.788 286.534C141.248 286.657 141.707 286.693 142.167 286.64C142.644 286.587 143.086 286.454 143.493 286.242C143.917 286.03 144.244 285.747 144.474 285.393C144.704 285.04 144.881 284.624 145.004 284.147C145.128 283.67 145.217 283.175 145.27 282.662C145.34 282.149 145.385 281.645 145.402 281.15C145.438 280.638 145.464 280.169 145.482 279.745C145.517 279.25 145.544 278.825 145.561 278.472C145.579 278.118 145.597 277.694 145.614 277.199C145.632 276.828 145.641 276.456 145.641 276.085C145.641 275.714 145.65 275.343 145.667 274.971L145.721 273.804ZM151.558 287.144C151.434 286.808 151.39 286.472 151.425 286.136C151.478 285.8 151.593 285.517 151.77 285.287C151.964 285.04 152.212 284.872 152.513 284.783C152.813 284.677 153.149 284.704 153.52 284.863C153.856 285.004 154.139 285.217 154.369 285.499C154.616 285.765 154.908 285.977 155.244 286.136C155.704 286.366 156.172 286.534 156.65 286.64C156.985 286.728 157.321 286.79 157.657 286.825C157.993 286.843 158.338 286.852 158.692 286.852C158.957 286.781 159.187 286.71 159.381 286.64C159.576 286.569 159.788 286.419 160.018 286.189C160.283 285.959 160.451 285.685 160.521 285.367C160.61 285.049 160.61 284.739 160.521 284.439C160.451 284.12 160.3 283.838 160.071 283.59C159.858 283.325 159.593 283.148 159.275 283.06C158.656 282.848 158.037 282.688 157.419 282.582C156.8 282.459 156.199 282.317 155.615 282.158C155.032 281.999 154.475 281.778 153.945 281.495C153.432 281.194 152.955 280.77 152.513 280.222C152.265 279.922 152.106 279.656 152.035 279.427C151.964 279.197 151.885 278.905 151.797 278.551C151.637 277.703 151.699 276.987 151.982 276.403C152.283 275.82 152.654 275.29 153.096 274.812C153.662 274.193 154.298 273.725 155.005 273.407C155.73 273.071 156.482 272.859 157.26 272.77C158.055 272.664 158.851 272.682 159.646 272.823C160.46 272.947 161.229 273.168 161.953 273.486C162.378 273.663 162.643 273.937 162.749 274.308C162.873 274.68 162.882 275.042 162.776 275.396C162.669 275.749 162.466 276.041 162.166 276.271C161.865 276.501 161.511 276.58 161.105 276.509C160.681 276.421 160.283 276.333 159.911 276.244C159.54 276.138 159.169 276.05 158.798 275.979C158.515 275.926 158.205 275.917 157.869 275.952C157.551 275.988 157.242 276.05 156.941 276.138C156.658 276.209 156.393 276.297 156.146 276.403C155.898 276.492 155.713 276.589 155.589 276.695C155.447 276.819 155.306 276.978 155.164 277.172C155.041 277.367 154.97 277.588 154.952 277.835C154.917 278.136 155.032 278.383 155.297 278.578C155.562 278.772 155.845 278.914 156.146 279.002C156.729 279.126 157.33 279.25 157.949 279.373C158.568 279.48 159.178 279.639 159.779 279.851C160.38 280.045 160.937 280.302 161.45 280.62C161.98 280.938 162.431 281.362 162.802 281.893C163.209 282.352 163.5 282.874 163.677 283.457C163.854 284.041 163.916 284.624 163.863 285.208C163.827 285.791 163.695 286.357 163.465 286.905C163.235 287.435 162.917 287.904 162.51 288.31C162.227 288.593 161.927 288.832 161.609 289.027C161.308 289.239 160.981 289.442 160.627 289.636C159.92 290.008 159.16 290.193 158.347 290.193C157.534 290.193 156.72 290.07 155.907 289.822C155.094 289.592 154.325 289.265 153.6 288.841C152.875 288.399 152.256 287.922 151.744 287.409L151.558 287.144ZM168.195 290.008C167.736 289.919 167.338 289.707 167.002 289.371C166.684 289.035 166.525 288.62 166.525 288.125V276.96C166.206 277.013 165.897 276.978 165.596 276.854C165.296 276.713 165.057 276.536 164.88 276.324C164.704 276.094 164.606 275.838 164.589 275.555C164.553 275.254 164.642 274.971 164.854 274.706C165.084 274.406 165.358 274.158 165.676 273.964C165.994 273.751 166.33 273.583 166.684 273.46C167.037 273.318 167.4 273.203 167.771 273.115C168.16 273.027 168.531 272.947 168.885 272.876C169.875 272.717 170.865 272.682 171.855 272.77C172.845 272.841 173.782 273.053 174.666 273.407C175.55 273.76 176.354 274.255 177.079 274.892C177.822 275.528 178.423 276.324 178.883 277.278C179.165 277.862 179.369 278.472 179.492 279.108C179.616 279.727 179.687 280.355 179.705 280.991C179.722 281.822 179.625 282.627 179.413 283.404C179.201 284.182 178.883 284.916 178.458 285.606C178.034 286.277 177.521 286.878 176.92 287.409C176.319 287.939 175.647 288.381 174.905 288.735C174.251 289.035 173.552 289.256 172.81 289.398C172.085 289.539 171.369 289.663 170.662 289.769C170.308 289.822 169.928 289.875 169.521 289.928C169.132 289.999 168.752 290.034 168.381 290.034L168.195 290.008ZM171.059 275.926C170.83 275.926 170.609 275.935 170.396 275.952C170.202 275.97 169.99 275.997 169.76 276.032V286.666C169.866 286.666 169.954 286.657 170.025 286.64C170.096 286.622 170.167 286.613 170.237 286.613C170.308 286.613 170.37 286.604 170.423 286.587C170.67 286.551 170.874 286.525 171.033 286.507C171.192 286.49 171.342 286.472 171.484 286.454C171.625 286.419 171.767 286.383 171.908 286.348C172.067 286.313 172.244 286.269 172.438 286.215C173.464 285.95 174.268 285.535 174.852 284.969C175.453 284.386 175.904 283.59 176.204 282.582C176.399 281.999 176.487 281.407 176.469 280.806C176.452 280.204 176.337 279.63 176.125 279.082C175.93 278.534 175.638 278.039 175.249 277.597C174.86 277.137 174.383 276.775 173.817 276.509C173.358 276.297 172.898 276.156 172.438 276.085C171.996 276.014 171.537 275.961 171.059 275.926ZM200.082 270.569C200.294 270.215 200.559 269.977 200.878 269.853C201.196 269.729 201.514 269.703 201.832 269.773C202.151 269.827 202.425 269.977 202.654 270.224C202.902 270.472 203.043 270.799 203.079 271.206C203.096 271.418 203.061 271.665 202.973 271.948C202.884 272.213 202.778 272.487 202.654 272.77C202.548 273.035 202.433 273.283 202.31 273.513C202.186 273.743 202.106 273.902 202.071 273.99C201.806 274.609 201.541 275.228 201.275 275.846C201.01 276.448 200.745 277.057 200.48 277.676C199.543 279.851 198.606 282.017 197.669 284.173C196.75 286.313 195.813 288.452 194.858 290.591C194.716 290.909 194.487 291.13 194.168 291.254C193.868 291.396 193.55 291.431 193.214 291.36C192.895 291.29 192.604 291.13 192.338 290.883C192.091 290.653 191.95 290.326 191.914 289.902C191.879 289.424 191.958 288.991 192.153 288.602C192.365 288.213 192.568 287.789 192.763 287.329C193.028 286.71 193.293 286.101 193.558 285.499C193.824 284.881 194.089 284.262 194.354 283.643C194.425 283.484 194.531 283.236 194.672 282.901C194.831 282.565 194.999 282.193 195.176 281.787C195.353 281.38 195.53 280.965 195.706 280.54C195.901 280.098 196.078 279.701 196.237 279.347C196.396 278.993 196.52 278.702 196.608 278.472C196.714 278.224 196.767 278.101 196.767 278.101C197.315 276.863 197.854 275.634 198.385 274.414C198.915 273.177 199.446 271.948 199.976 270.728L200.082 270.569ZM215.003 287.223C214.897 286.923 214.853 286.631 214.871 286.348C214.888 286.048 214.959 285.782 215.083 285.552C215.224 285.305 215.419 285.119 215.666 284.996C215.914 284.854 216.214 284.801 216.568 284.836C216.762 284.854 216.939 284.907 217.098 284.996C217.257 285.084 217.399 285.19 217.523 285.314C217.664 285.438 217.797 285.57 217.92 285.712C218.062 285.853 218.203 285.977 218.345 286.083C218.645 286.313 218.963 286.481 219.299 286.587C219.635 286.693 219.989 286.772 220.36 286.825C220.608 286.825 220.802 286.764 220.944 286.64C221.103 286.516 221.209 286.366 221.262 286.189C221.315 286.012 221.324 285.827 221.288 285.632C221.271 285.42 221.209 285.252 221.103 285.128C220.802 284.828 220.431 284.633 219.989 284.545C219.565 284.456 219.167 284.35 218.796 284.227C218.265 284.05 217.744 283.829 217.231 283.564C216.718 283.281 216.303 282.901 215.984 282.423C215.649 281.928 215.445 281.407 215.375 280.859C215.321 280.293 215.366 279.745 215.507 279.214C215.666 278.684 215.923 278.198 216.276 277.756C216.63 277.314 217.054 276.951 217.549 276.669C217.92 276.456 218.327 276.324 218.769 276.271C219.211 276.2 219.653 276.182 220.095 276.218C220.555 276.253 221.005 276.341 221.447 276.483C221.889 276.607 222.296 276.748 222.667 276.907C223.092 277.102 223.41 277.376 223.622 277.729C223.834 278.083 223.931 278.445 223.914 278.817C223.914 279.17 223.79 279.48 223.542 279.745C223.313 280.01 222.968 280.143 222.508 280.143C222.225 280.143 221.969 280.098 221.739 280.01C221.509 279.904 221.271 279.807 221.023 279.718C220.705 279.594 220.36 279.515 219.989 279.48C219.618 279.427 219.317 279.444 219.087 279.533C219.017 279.55 218.937 279.612 218.849 279.718C218.76 279.807 218.689 279.922 218.636 280.063C218.601 280.204 218.592 280.346 218.61 280.487C218.645 280.629 218.742 280.744 218.902 280.832C219.326 281.062 219.777 281.239 220.254 281.362C220.731 281.486 221.2 281.628 221.66 281.787C222.119 281.946 222.544 282.149 222.933 282.397C223.339 282.644 223.675 282.998 223.94 283.457C224.329 284.129 224.524 284.836 224.524 285.579C224.541 286.304 224.4 286.985 224.099 287.621C223.799 288.257 223.357 288.797 222.773 289.239C222.19 289.698 221.509 289.972 220.731 290.061C220.183 290.114 219.644 290.078 219.114 289.955C218.583 289.849 218.071 289.663 217.576 289.398C217.081 289.15 216.621 288.85 216.197 288.496C215.772 288.143 215.401 287.771 215.083 287.382L215.003 287.223ZM236.088 285.446C236.513 285.34 236.884 285.34 237.202 285.446C237.538 285.535 237.794 285.694 237.971 285.924C238.148 286.154 238.227 286.436 238.21 286.772C238.192 287.108 238.042 287.462 237.759 287.833C237.529 288.134 237.211 288.39 236.804 288.602C236.398 288.814 236.017 288.982 235.664 289.106C234.798 289.424 233.975 289.645 233.198 289.769C232.42 289.893 231.686 289.893 230.996 289.769C230.325 289.645 229.688 289.389 229.087 289C228.504 288.611 227.956 288.063 227.443 287.356C227.089 286.878 226.824 286.339 226.647 285.738C226.488 285.119 226.4 284.492 226.382 283.855C226.364 283.219 226.417 282.591 226.541 281.972C226.665 281.354 226.842 280.797 227.072 280.302C227.372 279.683 227.85 279.117 228.504 278.604C229.158 278.092 229.883 277.685 230.678 277.385C231.474 277.084 232.287 276.916 233.118 276.881C233.949 276.828 234.683 276.951 235.319 277.252C235.85 277.499 236.3 277.862 236.672 278.339C237.061 278.799 237.326 279.303 237.467 279.851C237.609 280.399 237.617 280.956 237.494 281.522C237.388 282.07 237.105 282.573 236.645 283.033C236.203 283.475 235.717 283.838 235.187 284.12C234.656 284.386 234.108 284.624 233.542 284.836C232.977 285.031 232.393 285.199 231.792 285.34C231.209 285.482 230.643 285.641 230.095 285.818C230.466 286.242 230.89 286.516 231.368 286.64C231.845 286.746 232.34 286.764 232.853 286.693C233.383 286.622 233.914 286.481 234.444 286.269C234.974 286.039 235.469 285.791 235.929 285.526L236.088 285.446ZM230.731 280.885C230.325 281.115 230.024 281.407 229.83 281.76C229.635 282.096 229.494 282.573 229.405 283.192C229.865 283.051 230.378 282.901 230.943 282.741C231.527 282.582 232.075 282.414 232.588 282.238C233.1 282.061 233.534 281.866 233.887 281.654C234.241 281.442 234.417 281.212 234.417 280.965C234.417 280.823 234.391 280.691 234.338 280.567C234.303 280.425 234.214 280.328 234.073 280.275C233.578 280.098 233.065 280.063 232.535 280.169C232.004 280.275 231.562 280.425 231.209 280.62L230.731 280.885ZM247.248 285.685C247.69 285.402 248.106 285.278 248.495 285.314C248.901 285.349 249.228 285.491 249.476 285.738C249.741 285.968 249.883 286.286 249.9 286.693C249.936 287.082 249.803 287.497 249.502 287.939C249.308 288.24 249.025 288.514 248.654 288.761C248.3 289.009 247.956 289.203 247.62 289.345C246.842 289.698 246.055 289.857 245.259 289.822C244.464 289.787 243.721 289.592 243.032 289.239C242.36 288.885 241.777 288.399 241.281 287.78C240.786 287.144 240.451 286.41 240.274 285.579C239.92 283.988 239.991 282.459 240.486 280.991C240.68 280.461 240.91 279.948 241.175 279.453C241.458 278.958 241.794 278.507 242.183 278.101C242.572 277.694 243.005 277.34 243.483 277.04C243.96 276.722 244.481 276.509 245.047 276.403C245.436 276.333 245.931 276.341 246.532 276.43C247.133 276.501 247.717 276.651 248.283 276.881C248.866 277.11 249.37 277.411 249.794 277.782C250.236 278.154 250.484 278.596 250.537 279.108C250.572 279.391 250.537 279.656 250.431 279.904C250.325 280.134 250.174 280.328 249.98 280.487C249.785 280.646 249.556 280.761 249.29 280.832C249.043 280.885 248.786 280.876 248.521 280.806C248.203 280.717 247.947 280.602 247.752 280.461C247.575 280.302 247.337 280.098 247.036 279.851C246.895 279.815 246.762 279.762 246.638 279.692C246.515 279.603 246.382 279.568 246.241 279.586L245.525 279.665C245.401 279.736 245.286 279.798 245.18 279.851C245.074 279.904 244.968 279.957 244.862 280.01C244.26 280.611 243.819 281.283 243.536 282.025C243.253 282.75 243.182 283.537 243.323 284.386C243.412 284.934 243.58 285.385 243.827 285.738C244.093 286.092 244.393 286.339 244.729 286.481C245.083 286.604 245.463 286.613 245.869 286.507C246.294 286.401 246.709 286.162 247.116 285.791L247.248 285.685Z" fill="black"/>
<circle cx="169.353" cy="355" r="38" fill="#FAF8E7" stroke="black" stroke-width="4"/>
<path d="M166.613 354.594H175.657L161.42 379L165.312 360.695H157.353L159.468 347.136H168.2L166.613 354.594Z" fill="#030303"/>
<path d="M181.081 345.779H159.685L160.742 339H185.149L181.081 345.779Z" fill="#030303"/>
<path d="M130.002 408.126C130.267 408.219 130.466 408.351 130.598 408.524C130.744 408.696 130.811 408.869 130.797 409.041C130.784 409.24 130.698 409.419 130.539 409.578C130.393 409.724 130.168 409.83 129.863 409.896L126.939 409.916C126.939 411.494 126.939 413.078 126.939 414.67C126.952 416.248 126.959 417.825 126.959 419.403C126.945 419.748 126.833 420 126.621 420.159C126.422 420.318 126.203 420.398 125.964 420.398C125.739 420.398 125.527 420.318 125.328 420.159C125.142 420.013 125.029 419.788 124.99 419.483L124.97 409.916H122.006C121.675 409.85 121.429 409.73 121.27 409.558C121.124 409.386 121.058 409.193 121.071 408.981C121.085 408.769 121.177 408.577 121.35 408.404C121.522 408.232 121.794 408.146 122.165 408.146C123.558 408.146 124.724 408.146 125.666 408.146C126.607 408.146 127.376 408.146 127.973 408.146C128.57 408.133 129.021 408.126 129.326 408.126C129.644 408.126 129.869 408.126 130.002 408.126ZM138.368 419.065C138.448 419.264 138.461 419.456 138.408 419.642C138.368 419.814 138.275 419.954 138.129 420.06C137.997 420.179 137.824 420.245 137.612 420.259C137.4 420.285 137.175 420.239 136.936 420.119C136.83 420.013 136.724 419.907 136.618 419.801C136.525 419.682 136.445 419.569 136.379 419.463C135.902 419.821 135.451 420.046 135.027 420.139C134.616 420.245 134.165 420.298 133.674 420.298C133.316 420.298 132.965 420.259 132.62 420.179C132.288 420.113 131.95 419.967 131.606 419.741C131.102 419.383 130.744 418.959 130.532 418.469C130.319 417.978 130.213 417.461 130.213 416.917C130.213 416.36 130.293 415.836 130.452 415.346C130.624 414.842 130.856 414.378 131.148 413.954C131.44 413.516 131.771 413.118 132.143 412.76C132.527 412.402 132.938 412.084 133.376 411.806C133.469 411.752 133.595 411.693 133.754 411.627C133.926 411.56 134.118 411.501 134.33 411.448C134.543 411.381 134.761 411.335 134.987 411.308C135.212 411.269 135.431 411.249 135.643 411.249C136.054 411.249 136.419 411.302 136.737 411.408C137.069 411.501 137.307 411.739 137.453 412.124C137.453 412.522 137.453 412.853 137.453 413.118C137.453 413.383 137.446 413.609 137.433 413.794C137.433 413.967 137.433 414.113 137.433 414.232C137.433 414.351 137.433 414.464 137.433 414.57C137.433 415.034 137.446 415.518 137.473 416.022C137.5 416.513 137.546 416.997 137.612 417.474C137.639 417.62 137.698 417.792 137.791 417.991C137.897 418.19 138.003 418.369 138.109 418.528H138.09C138.182 418.674 138.255 418.793 138.308 418.886C138.375 418.979 138.395 419.039 138.368 419.065ZM135.683 417.653C135.577 417.189 135.511 416.712 135.484 416.221C135.458 415.717 135.444 415.22 135.444 414.729C135.444 414.385 135.451 414.073 135.464 413.794C135.477 413.516 135.484 413.244 135.484 412.979C135.259 413.006 135.027 413.065 134.788 413.158C134.563 413.251 134.403 413.317 134.311 413.357C133.953 413.516 133.628 413.741 133.336 414.033C133.058 414.325 132.826 414.65 132.64 415.008C132.454 415.366 132.315 415.744 132.222 416.141C132.143 416.526 132.136 416.904 132.202 417.275C132.242 417.567 132.342 417.812 132.501 418.011C132.673 418.197 132.872 418.343 133.097 418.449C133.323 418.541 133.561 418.588 133.813 418.588C134.079 418.588 134.33 418.548 134.569 418.469C134.861 418.296 135.232 418.024 135.683 417.653ZM140.12 412.004C140.186 411.726 140.306 411.52 140.478 411.388C140.664 411.242 140.869 411.169 141.095 411.169C141.293 411.169 141.486 411.229 141.671 411.348C141.857 411.467 141.99 411.64 142.069 411.865C142.361 411.68 142.679 411.54 143.024 411.448C143.369 411.355 143.713 411.308 144.058 411.308C144.589 411.308 145.079 411.421 145.53 411.646C145.994 411.872 146.392 412.177 146.723 412.561C147.068 412.946 147.333 413.397 147.519 413.914C147.718 414.431 147.817 414.975 147.817 415.545C147.817 416.181 147.711 416.765 147.499 417.295C147.3 417.825 146.995 418.283 146.584 418.667C146.173 419.052 145.669 419.357 145.072 419.582C144.476 419.794 143.78 419.901 142.984 419.901C142.825 419.901 142.672 419.901 142.527 419.901C142.381 419.901 142.235 419.887 142.089 419.861V423.878C142.076 424.21 141.963 424.455 141.751 424.614C141.552 424.773 141.333 424.853 141.095 424.853C140.869 424.853 140.657 424.78 140.458 424.634C140.272 424.488 140.16 424.263 140.12 423.958V412.004ZM142.089 414.431V418.091C142.394 418.157 142.692 418.19 142.984 418.19C143.819 418.19 144.516 417.965 145.072 417.514C145.629 417.063 145.908 416.44 145.908 415.644C145.908 415.339 145.861 415.034 145.769 414.729C145.689 414.411 145.57 414.126 145.411 413.874C145.251 413.622 145.059 413.417 144.834 413.257C144.622 413.098 144.39 413.019 144.138 413.019C143.727 413.019 143.362 413.158 143.044 413.436C142.726 413.702 142.454 413.98 142.228 414.272L142.089 414.431ZM157.716 413.118C157.385 413.065 157.133 412.959 156.96 412.8C156.801 412.641 156.722 412.455 156.722 412.243C156.722 412.031 156.808 411.832 156.98 411.646C157.166 411.461 157.438 411.368 157.796 411.368H158.711V408.325C158.777 408.046 158.896 407.841 159.069 407.708C159.254 407.562 159.46 407.49 159.685 407.49C159.897 407.49 160.096 407.556 160.282 407.688C160.467 407.808 160.593 408 160.66 408.265V411.368H162.41C162.702 411.448 162.914 411.567 163.046 411.726C163.192 411.885 163.265 412.057 163.265 412.243C163.265 412.667 162.96 412.959 162.35 413.118H160.66V416.778C160.66 417.189 160.66 417.6 160.66 418.011C160.673 418.422 160.68 418.833 160.68 419.244C160.68 419.576 160.574 419.821 160.361 419.98C160.149 420.139 159.93 420.219 159.705 420.219C159.48 420.219 159.267 420.146 159.069 420C158.883 419.854 158.77 419.629 158.73 419.324C158.73 418.82 158.724 418.303 158.711 417.772C158.711 417.229 158.711 416.692 158.711 416.161V413.118H157.716ZM167.956 411.328C168.513 411.328 169.004 411.448 169.428 411.686C169.865 411.925 170.23 412.243 170.522 412.641C170.827 413.025 171.052 413.47 171.198 413.973C171.357 414.464 171.437 414.968 171.437 415.485C171.437 415.71 171.423 415.923 171.397 416.122C171.37 416.307 171.337 416.499 171.297 416.698C171.152 417.242 170.933 417.752 170.641 418.23C170.363 418.707 170.031 419.125 169.647 419.483C169.262 419.828 168.831 420.099 168.354 420.298C167.89 420.497 167.399 420.597 166.882 420.597C166.338 420.597 165.841 420.477 165.39 420.239C164.953 420 164.581 419.695 164.276 419.324C163.972 418.939 163.733 418.515 163.56 418.051C163.401 417.573 163.322 417.096 163.322 416.619C163.322 415.956 163.441 415.313 163.68 414.69C163.932 414.053 164.263 413.49 164.674 412.999C165.099 412.495 165.589 412.091 166.146 411.786C166.716 411.481 167.32 411.328 167.956 411.328ZM165.39 415.604C165.311 415.909 165.271 416.248 165.271 416.619C165.271 416.99 165.324 417.341 165.43 417.673C165.536 417.991 165.709 418.263 165.947 418.488C166.199 418.714 166.531 418.827 166.942 418.827C167.339 418.827 167.691 418.714 167.996 418.488C168.314 418.25 168.579 417.965 168.791 417.633C169.017 417.288 169.189 416.924 169.309 416.539C169.428 416.141 169.488 415.783 169.488 415.465C169.488 415.173 169.454 414.888 169.388 414.61C169.322 414.318 169.216 414.06 169.07 413.834C168.937 413.609 168.772 413.43 168.573 413.297C168.374 413.151 168.148 413.078 167.896 413.078C167.578 413.078 167.28 413.165 167.001 413.337C166.723 413.496 166.471 413.702 166.246 413.954C166.033 414.192 165.854 414.464 165.709 414.769C165.563 415.061 165.457 415.339 165.39 415.604ZM178.966 418.528C178.781 418.144 178.774 417.825 178.946 417.573C179.132 417.308 179.397 417.176 179.742 417.176C179.967 417.176 180.213 417.262 180.478 417.434C180.756 417.806 181.088 418.117 181.472 418.369C181.857 418.621 182.261 418.707 182.686 418.628C182.885 418.588 183.057 418.515 183.203 418.409C183.362 418.29 183.475 418.157 183.541 418.011C183.62 417.865 183.66 417.706 183.66 417.534C183.66 417.361 183.614 417.202 183.521 417.056C183.402 416.871 183.269 416.725 183.123 416.619C182.991 416.513 182.845 416.433 182.686 416.38C182.54 416.327 182.394 416.287 182.248 416.261C182.115 416.234 181.99 416.201 181.87 416.161C181.671 416.108 181.472 416.055 181.273 416.002C181.075 415.936 180.882 415.856 180.697 415.764C180.511 415.671 180.332 415.558 180.16 415.425C179.987 415.28 179.822 415.101 179.662 414.888C179.517 414.69 179.404 414.477 179.324 414.252C179.245 414.013 179.205 413.794 179.205 413.596C179.205 413.317 179.258 413.032 179.364 412.74C179.47 412.449 179.609 412.183 179.782 411.945C179.967 411.693 180.18 411.481 180.418 411.308C180.67 411.123 180.935 410.997 181.214 410.93C181.771 410.785 182.348 410.765 182.944 410.871C183.554 410.977 184.098 411.162 184.575 411.428C184.761 411.56 184.9 411.699 184.993 411.845C185.086 411.991 185.132 412.13 185.132 412.263C185.132 412.422 185.086 412.568 184.993 412.701C184.913 412.82 184.801 412.919 184.655 412.999C184.522 413.078 184.363 413.118 184.177 413.118C184.005 413.118 183.819 413.065 183.62 412.959C183.461 412.88 183.236 412.807 182.944 412.74C182.666 412.661 182.387 412.634 182.109 412.661C181.83 412.674 181.598 412.76 181.413 412.919C181.227 413.078 181.154 413.344 181.194 413.715C181.273 413.861 181.366 413.987 181.472 414.093C181.592 414.186 181.718 414.265 181.85 414.331C181.996 414.398 182.149 414.457 182.308 414.51C182.467 414.55 182.619 414.59 182.765 414.63C183.176 414.749 183.554 414.888 183.899 415.048C184.244 415.193 184.542 415.379 184.794 415.604C185.046 415.83 185.238 416.102 185.371 416.42C185.517 416.738 185.59 417.123 185.59 417.573C185.59 417.931 185.51 418.283 185.351 418.628C185.192 418.959 184.98 419.257 184.714 419.523C184.462 419.788 184.171 420 183.839 420.159C183.508 420.318 183.176 420.398 182.845 420.398C182.102 420.398 181.38 420.232 180.677 419.901C179.974 419.569 179.411 419.112 178.986 418.528H178.966ZM187.687 413.118C187.355 413.065 187.103 412.959 186.931 412.8C186.772 412.641 186.692 412.455 186.692 412.243C186.692 412.031 186.778 411.832 186.951 411.646C187.136 411.461 187.408 411.368 187.766 411.368H188.681V408.325C188.748 408.046 188.867 407.841 189.039 407.708C189.225 407.562 189.43 407.49 189.656 407.49C189.868 407.49 190.067 407.556 190.253 407.688C190.438 407.808 190.564 408 190.63 408.265V411.368H192.381C192.672 411.448 192.885 411.567 193.017 411.726C193.163 411.885 193.236 412.057 193.236 412.243C193.236 412.667 192.931 412.959 192.321 413.118H190.63V416.778C190.63 417.189 190.63 417.6 190.63 418.011C190.644 418.422 190.65 418.833 190.65 419.244C190.65 419.576 190.544 419.821 190.332 419.98C190.12 420.139 189.901 420.219 189.676 420.219C189.45 420.219 189.238 420.146 189.039 420C188.854 419.854 188.741 419.629 188.701 419.324C188.701 418.82 188.695 418.303 188.681 417.772C188.681 417.229 188.681 416.692 188.681 416.161V413.118H187.687ZM201.192 419.065C201.272 419.264 201.285 419.456 201.232 419.642C201.192 419.814 201.099 419.954 200.954 420.06C200.821 420.179 200.649 420.245 200.436 420.259C200.224 420.285 199.999 420.239 199.76 420.119C199.654 420.013 199.548 419.907 199.442 419.801C199.349 419.682 199.27 419.569 199.203 419.463C198.726 419.821 198.275 420.046 197.851 420.139C197.44 420.245 196.989 420.298 196.498 420.298C196.14 420.298 195.789 420.259 195.444 420.179C195.113 420.113 194.775 419.967 194.43 419.741C193.926 419.383 193.568 418.959 193.356 418.469C193.144 417.978 193.038 417.461 193.038 416.917C193.038 416.36 193.117 415.836 193.276 415.346C193.449 414.842 193.681 414.378 193.972 413.954C194.264 413.516 194.596 413.118 194.967 412.76C195.351 412.402 195.762 412.084 196.2 411.806C196.293 411.752 196.419 411.693 196.578 411.627C196.75 411.56 196.943 411.501 197.155 411.448C197.367 411.381 197.586 411.335 197.811 411.308C198.036 411.269 198.255 411.249 198.467 411.249C198.878 411.249 199.243 411.302 199.561 411.408C199.893 411.501 200.131 411.739 200.277 412.124C200.277 412.522 200.277 412.853 200.277 413.118C200.277 413.383 200.271 413.609 200.257 413.794C200.257 413.967 200.257 414.113 200.257 414.232C200.257 414.351 200.257 414.464 200.257 414.57C200.257 415.034 200.271 415.518 200.297 416.022C200.324 416.513 200.37 416.997 200.436 417.474C200.463 417.62 200.523 417.792 200.615 417.991C200.722 418.19 200.828 418.369 200.934 418.528H200.914C201.007 418.674 201.08 418.793 201.133 418.886C201.199 418.979 201.219 419.039 201.192 419.065ZM198.507 417.653C198.401 417.189 198.335 416.712 198.308 416.221C198.282 415.717 198.269 415.22 198.269 414.729C198.269 414.385 198.275 414.073 198.288 413.794C198.302 413.516 198.308 413.244 198.308 412.979C198.083 413.006 197.851 413.065 197.612 413.158C197.387 413.251 197.228 413.317 197.135 413.357C196.777 413.516 196.452 413.741 196.16 414.033C195.882 414.325 195.65 414.65 195.464 415.008C195.278 415.366 195.139 415.744 195.046 416.141C194.967 416.526 194.96 416.904 195.027 417.275C195.066 417.567 195.166 417.812 195.325 418.011C195.497 418.197 195.696 418.343 195.922 418.449C196.147 418.541 196.386 418.588 196.638 418.588C196.903 418.588 197.155 418.548 197.393 418.469C197.685 418.296 198.056 418.024 198.507 417.653ZM203.021 413.198C202.769 413.052 202.59 412.913 202.484 412.78C202.391 412.634 202.345 412.482 202.345 412.323C202.345 412.097 202.431 411.905 202.603 411.746C202.789 411.587 203.028 411.507 203.319 411.507C203.518 411.507 203.744 411.56 203.996 411.666C204.261 411.772 204.48 411.898 204.652 412.044C205.063 411.713 205.474 411.448 205.885 411.249C206.309 411.05 206.754 410.95 207.218 410.95C207.35 410.95 207.549 410.983 207.814 411.05C208.093 411.116 208.358 411.222 208.61 411.368C208.875 411.501 209.107 411.68 209.306 411.905C209.505 412.117 209.604 412.369 209.604 412.661C209.604 412.899 209.512 413.098 209.326 413.257C209.154 413.403 208.941 413.476 208.689 413.476C208.504 413.476 208.351 413.436 208.232 413.357C208.113 413.277 207.993 413.185 207.874 413.078C207.781 412.986 207.668 412.899 207.536 412.82C207.417 412.727 207.304 412.681 207.198 412.681C207.052 412.681 206.88 412.734 206.681 412.84C206.482 412.946 206.283 413.072 206.084 413.218C205.885 413.364 205.686 413.529 205.487 413.715C205.302 413.887 205.143 414.04 205.01 414.172V419.383C204.997 419.715 204.884 419.96 204.672 420.119C204.473 420.278 204.261 420.358 204.035 420.358C203.797 420.358 203.585 420.278 203.399 420.119C203.213 419.973 203.101 419.748 203.061 419.443V413.218L203.021 413.198ZM211.769 413.118C211.437 413.065 211.185 412.959 211.013 412.8C210.854 412.641 210.774 412.455 210.774 412.243C210.774 412.031 210.861 411.832 211.033 411.646C211.219 411.461 211.49 411.368 211.848 411.368H212.763V408.325C212.83 408.046 212.949 407.841 213.121 407.708C213.307 407.562 213.512 407.49 213.738 407.49C213.95 407.49 214.149 407.556 214.335 407.688C214.52 407.808 214.646 408 214.712 408.265V411.368H216.463C216.754 411.448 216.967 411.567 217.099 411.726C217.245 411.885 217.318 412.057 217.318 412.243C217.318 412.667 217.013 412.959 216.403 413.118H214.712V416.778C214.712 417.189 214.712 417.6 214.712 418.011C214.726 418.422 214.732 418.833 214.732 419.244C214.732 419.576 214.626 419.821 214.414 419.98C214.202 420.139 213.983 420.219 213.758 420.219C213.532 420.219 213.32 420.146 213.121 420C212.936 419.854 212.823 419.629 212.783 419.324C212.783 418.82 212.777 418.303 212.763 417.772C212.763 417.229 212.763 416.692 212.763 416.161V413.118H211.769Z" fill="black"/>
<rect x="197.674" y="401.917" width="34.7725" height="59.4459" rx="6" transform="rotate(-26 197.674 401.917)" fill="black" stroke="black" stroke-width="4"/>
<rect x="207.581" y="398.649" width="2" height="2" rx="1" transform="rotate(-26 207.581 398.649)" fill="white"/>
<rect x="211.176" y="396.896" width="12" height="2" rx="1" transform="rotate(-26 211.176 396.896)" fill="white"/>
<rect x="201.258" y="405.787" width="31.7229" height="52.8716" rx="4" transform="rotate(-26 201.258 405.787)" fill="white"/>
<path d="M409.501 382.442C494.277 382.443 563.001 451.167 563.001 535.942C563.001 620.718 494.277 689.442 409.501 689.442C324.725 689.442 256 620.718 256 535.942C256 451.167 324.725 382.442 409.501 382.442Z" fill="white" stroke="black" stroke-width="6"/>
<path d="M223.81 438.844C243.444 399.479 308.452 472.317 308.452 472.317L279.93 496.57C279.93 496.57 204.176 478.209 223.81 438.844Z" fill="white"/>
<path d="M308.452 472.317C308.452 472.317 243.444 399.479 223.81 438.844C204.176 478.209 279.93 496.57 279.93 496.57" stroke="black" stroke-width="6" stroke-linecap="round"/>
<path d="M410.204 433.455C387.591 430.179 383.302 401.49 383.302 401.49C383.302 401.49 371.996 413.185 348.604 413.185C315.075 413.185 304.444 397.3 309.226 382.779C315.388 364.068 346.654 369.135 346.654 369.135C346.654 369.135 352.245 354.903 359.91 350.034C369.067 344.217 387.591 347.695 387.591 347.695C387.591 347.695 405.525 301.948 444.902 312.612C473.363 320.319 463.616 355.102 463.616 355.102C463.616 355.102 523.274 369.915 508.452 404.999C489.348 450.217 449.971 410.846 449.971 410.846C449.971 410.846 444.902 438.482 410.204 433.455Z" fill="black" stroke="black" stroke-width="6"/>
<path d="M320.549 394.231C320.549 383.835 330.052 376.026 340.224 376.888" stroke="white" stroke-width="6" stroke-linecap="round"/>
<path d="M355.831 373.653C355.831 362.748 370.826 353.153 381.887 354.651" stroke="white" stroke-width="6" stroke-linecap="round"/>
<path d="M398.083 352.951C398.083 338.995 412.259 323.956 426.484 323.887" stroke="white" stroke-width="6" stroke-linecap="round"/>
</g>
<rect x="3" y="3" width="494" height="544" rx="5" stroke="black" stroke-width="6"/>
<defs>
<clipPath id="clip0_428_555">
<rect width="500" height="550" rx="8" fill="white"/>
</clipPath>
</defs>
</svg>
