<svg width="500" height="550" viewBox="0 0 500 550" fill="none" xmlns="http://www.w3.org/2000/svg">
<g clip-path="url(#clip0_409_1062)">
<rect width="500" height="550" rx="8" fill="#A2A19E"/>
<rect x="122" y="37" width="255.488" height="492" rx="12" fill="white" stroke="black" stroke-width="8"/>
<path d="M188.901 180.074C189.06 179.53 189.385 179.259 189.875 179.259C189.981 179.259 190.054 179.265 190.094 179.278C190.598 179.053 191.122 178.874 191.665 178.741C192.209 178.596 192.766 178.523 193.336 178.523C193.721 178.523 194.092 178.562 194.45 178.642C194.808 178.708 195.159 178.841 195.504 179.04V179.02C195.875 179.205 196.207 179.444 196.499 179.736C196.79 180.028 197.042 180.352 197.254 180.71C197.467 181.068 197.626 181.446 197.732 181.844C197.851 182.242 197.911 182.64 197.911 183.038C197.911 183.82 197.699 184.536 197.274 185.186C196.837 185.862 196.293 186.405 195.643 186.817C195.007 187.214 194.258 187.446 193.396 187.513C193.237 187.526 193.071 187.539 192.899 187.552C192.739 187.552 192.587 187.552 192.441 187.552C192.163 187.552 191.891 187.546 191.626 187.533C191.36 187.506 191.109 187.48 190.87 187.453C190.87 187.957 190.87 188.507 190.87 189.104C190.87 189.701 190.876 190.238 190.89 190.715C190.876 191.06 190.764 191.312 190.552 191.471C190.353 191.63 190.134 191.709 189.895 191.709C189.67 191.709 189.458 191.63 189.259 191.471C189.073 191.325 188.96 191.099 188.921 190.794V187.015L188.881 186.996C188.443 186.744 188.225 186.445 188.225 186.101C188.225 185.941 188.278 185.789 188.384 185.643C188.49 185.497 188.662 185.391 188.901 185.325V180.074ZM194.569 180.591C194.185 180.379 193.767 180.273 193.316 180.273C192.892 180.273 192.468 180.339 192.043 180.472C191.632 180.591 191.241 180.744 190.87 180.929V185.683C191.374 185.789 191.871 185.842 192.362 185.842C192.879 185.842 193.389 185.769 193.893 185.623C194.41 185.464 194.834 185.212 195.166 184.867C195.431 184.602 195.617 184.304 195.723 183.972C195.842 183.641 195.902 183.303 195.902 182.958C195.902 182.454 195.789 181.997 195.564 181.586C195.352 181.161 195.02 180.83 194.569 180.591ZM206.085 190.158C206.165 190.357 206.178 190.549 206.125 190.735C206.085 190.907 205.992 191.046 205.846 191.152C205.714 191.272 205.541 191.338 205.329 191.351C205.117 191.378 204.892 191.331 204.653 191.212C204.547 191.106 204.441 191 204.335 190.894C204.242 190.775 204.162 190.662 204.096 190.556C203.619 190.914 203.168 191.139 202.744 191.232C202.333 191.338 201.882 191.391 201.391 191.391C201.033 191.391 200.682 191.351 200.337 191.272C200.006 191.205 199.667 191.06 199.323 190.834C198.819 190.476 198.461 190.052 198.249 189.561C198.036 189.071 197.93 188.554 197.93 188.01C197.93 187.453 198.01 186.929 198.169 186.439C198.341 185.935 198.574 185.471 198.865 185.046C199.157 184.609 199.488 184.211 199.86 183.853C200.244 183.495 200.655 183.177 201.093 182.898C201.186 182.845 201.312 182.786 201.471 182.719C201.643 182.653 201.835 182.593 202.048 182.54C202.26 182.474 202.478 182.428 202.704 182.401C202.929 182.361 203.148 182.341 203.36 182.341C203.771 182.341 204.136 182.394 204.454 182.501C204.786 182.593 205.024 182.832 205.17 183.217C205.17 183.614 205.17 183.946 205.17 184.211C205.17 184.476 205.164 184.702 205.15 184.887C205.15 185.06 205.15 185.205 205.15 185.325C205.15 185.444 205.15 185.557 205.15 185.663C205.15 186.127 205.164 186.611 205.19 187.115C205.217 187.605 205.263 188.089 205.329 188.567C205.356 188.713 205.415 188.885 205.508 189.084C205.614 189.283 205.72 189.462 205.827 189.621H205.807C205.899 189.767 205.972 189.886 206.025 189.979C206.092 190.072 206.112 190.131 206.085 190.158ZM203.4 188.746C203.294 188.282 203.228 187.804 203.201 187.314C203.175 186.81 203.161 186.313 203.161 185.822C203.161 185.477 203.168 185.166 203.181 184.887C203.194 184.609 203.201 184.337 203.201 184.072C202.976 184.098 202.744 184.158 202.505 184.251C202.28 184.344 202.12 184.41 202.028 184.45C201.67 184.609 201.345 184.834 201.053 185.126C200.775 185.418 200.543 185.742 200.357 186.101C200.171 186.459 200.032 186.836 199.939 187.234C199.86 187.619 199.853 187.997 199.919 188.368C199.959 188.66 200.059 188.905 200.218 189.104C200.39 189.289 200.589 189.435 200.814 189.541C201.04 189.634 201.278 189.681 201.53 189.681C201.796 189.681 202.048 189.641 202.286 189.561C202.578 189.389 202.949 189.117 203.4 188.746ZM214.102 182.62C214.301 182.249 214.606 182.063 215.017 182.063C215.282 182.063 215.501 182.156 215.674 182.341C215.859 182.527 215.952 182.786 215.952 183.117C215.74 183.939 215.475 184.755 215.156 185.563C214.851 186.359 214.507 187.148 214.122 187.93C213.751 188.699 213.353 189.462 212.929 190.218C212.518 190.973 212.1 191.723 211.676 192.465C211.464 192.836 211.251 193.201 211.039 193.559C210.84 193.917 210.635 194.288 210.423 194.673C210.277 194.859 210.118 194.991 209.945 195.071C209.786 195.15 209.634 195.19 209.488 195.19C209.236 195.19 209.024 195.117 208.851 194.971C208.679 194.825 208.593 194.6 208.593 194.295C208.593 194.255 208.593 194.209 208.593 194.156C208.593 194.116 208.599 194.07 208.613 194.017C208.838 193.592 209.07 193.175 209.309 192.763C209.561 192.352 209.799 191.941 210.025 191.53L211.238 189.362C210.708 188.938 210.237 188.507 209.826 188.07C209.415 187.632 209.044 187.175 208.712 186.697C208.394 186.207 208.109 185.683 207.857 185.126C207.618 184.556 207.406 183.939 207.22 183.276C207.22 182.52 207.532 182.142 208.155 182.142C208.367 182.142 208.56 182.202 208.732 182.322C208.918 182.441 209.05 182.633 209.13 182.898C209.395 183.946 209.78 184.847 210.283 185.603C210.787 186.359 211.397 187.055 212.113 187.692C212.538 186.87 212.909 186.061 213.227 185.265C213.545 184.456 213.83 183.575 214.082 182.62H214.102ZM232.277 190.158C232.356 190.357 232.369 190.549 232.316 190.735C232.277 190.907 232.184 191.046 232.038 191.152C231.905 191.272 231.733 191.338 231.521 191.351C231.309 191.378 231.083 191.331 230.844 191.212C230.738 191.106 230.632 191 230.526 190.894C230.433 190.775 230.354 190.662 230.288 190.556C229.81 190.914 229.359 191.139 228.935 191.232C228.524 191.338 228.073 191.391 227.583 191.391C227.225 191.391 226.873 191.351 226.528 191.272C226.197 191.205 225.859 191.06 225.514 190.834C225.01 190.476 224.652 190.052 224.44 189.561C224.228 189.071 224.122 188.554 224.122 188.01C224.122 187.453 224.201 186.929 224.36 186.439C224.533 185.935 224.765 185.471 225.057 185.046C225.348 184.609 225.68 184.211 226.051 183.853C226.436 183.495 226.847 183.177 227.284 182.898C227.377 182.845 227.503 182.786 227.662 182.719C227.835 182.653 228.027 182.593 228.239 182.54C228.451 182.474 228.67 182.428 228.895 182.401C229.121 182.361 229.339 182.341 229.552 182.341C229.963 182.341 230.327 182.394 230.646 182.501C230.977 182.593 231.216 182.832 231.362 183.217C231.362 183.614 231.362 183.946 231.362 184.211C231.362 184.476 231.355 184.702 231.342 184.887C231.342 185.06 231.342 185.205 231.342 185.325C231.342 185.444 231.342 185.557 231.342 185.663C231.342 186.127 231.355 186.611 231.381 187.115C231.408 187.605 231.454 188.089 231.521 188.567C231.547 188.713 231.607 188.885 231.7 189.084C231.806 189.283 231.912 189.462 232.018 189.621H231.998C232.091 189.767 232.164 189.886 232.217 189.979C232.283 190.072 232.303 190.131 232.277 190.158ZM229.591 188.746C229.485 188.282 229.419 187.804 229.393 187.314C229.366 186.81 229.353 186.313 229.353 185.822C229.353 185.477 229.359 185.166 229.373 184.887C229.386 184.609 229.393 184.337 229.393 184.072C229.167 184.098 228.935 184.158 228.696 184.251C228.471 184.344 228.312 184.41 228.219 184.45C227.861 184.609 227.536 184.834 227.244 185.126C226.966 185.418 226.734 185.742 226.548 186.101C226.363 186.459 226.223 186.836 226.131 187.234C226.051 187.619 226.044 187.997 226.111 188.368C226.151 188.66 226.25 188.905 226.409 189.104C226.581 189.289 226.78 189.435 227.006 189.541C227.231 189.634 227.47 189.681 227.722 189.681C227.987 189.681 228.239 189.641 228.478 189.561C228.769 189.389 229.141 189.117 229.591 188.746ZM233.605 189.621C233.42 189.236 233.413 188.918 233.585 188.666C233.771 188.401 234.036 188.268 234.381 188.268C234.606 188.268 234.852 188.355 235.117 188.527C235.395 188.898 235.727 189.21 236.111 189.462C236.496 189.714 236.9 189.8 237.325 189.72C237.523 189.681 237.696 189.608 237.842 189.502C238.001 189.382 238.114 189.25 238.18 189.104C238.259 188.958 238.299 188.799 238.299 188.626C238.299 188.454 238.253 188.295 238.16 188.149C238.041 187.963 237.908 187.818 237.762 187.712C237.63 187.605 237.484 187.526 237.325 187.473C237.179 187.42 237.033 187.38 236.887 187.354C236.754 187.327 236.628 187.294 236.509 187.254C236.31 187.201 236.111 187.148 235.912 187.095C235.714 187.029 235.521 186.949 235.336 186.856C235.15 186.763 234.971 186.651 234.799 186.518C234.626 186.372 234.46 186.193 234.301 185.981C234.156 185.782 234.043 185.57 233.963 185.345C233.884 185.106 233.844 184.887 233.844 184.688C233.844 184.41 233.897 184.125 234.003 183.833C234.109 183.541 234.248 183.276 234.421 183.038C234.606 182.786 234.818 182.573 235.057 182.401C235.309 182.215 235.574 182.089 235.853 182.023C236.41 181.877 236.986 181.857 237.583 181.963C238.193 182.07 238.737 182.255 239.214 182.52C239.4 182.653 239.539 182.792 239.632 182.938C239.725 183.084 239.771 183.223 239.771 183.356C239.771 183.515 239.725 183.661 239.632 183.793C239.552 183.913 239.439 184.012 239.294 184.092C239.161 184.171 239.002 184.211 238.816 184.211C238.644 184.211 238.458 184.158 238.259 184.052C238.1 183.972 237.875 183.899 237.583 183.833C237.305 183.754 237.026 183.727 236.748 183.754C236.469 183.767 236.237 183.853 236.052 184.012C235.866 184.171 235.793 184.436 235.833 184.808C235.912 184.954 236.005 185.08 236.111 185.186C236.231 185.278 236.357 185.358 236.489 185.424C236.635 185.491 236.788 185.55 236.947 185.603C237.106 185.643 237.258 185.683 237.404 185.723C237.815 185.842 238.193 185.981 238.538 186.14C238.883 186.286 239.181 186.472 239.433 186.697C239.685 186.923 239.877 187.194 240.01 187.513C240.156 187.831 240.228 188.215 240.228 188.666C240.228 189.024 240.149 189.376 239.99 189.72C239.831 190.052 239.618 190.35 239.353 190.615C239.101 190.881 238.81 191.093 238.478 191.252C238.147 191.411 237.815 191.491 237.484 191.491C236.741 191.491 236.018 191.325 235.316 190.993C234.613 190.662 234.049 190.204 233.625 189.621H233.605ZM255.112 182.62C255.311 182.249 255.616 182.063 256.027 182.063C256.292 182.063 256.511 182.156 256.683 182.341C256.869 182.527 256.962 182.786 256.962 183.117C256.75 183.939 256.484 184.755 256.166 185.563C255.861 186.359 255.516 187.148 255.132 187.93C254.761 188.699 254.363 189.462 253.939 190.218C253.527 190.973 253.11 191.723 252.685 192.465C252.473 192.836 252.261 193.201 252.049 193.559C251.85 193.917 251.645 194.288 251.432 194.673C251.287 194.859 251.127 194.991 250.955 195.071C250.796 195.15 250.643 195.19 250.498 195.19C250.246 195.19 250.034 195.117 249.861 194.971C249.689 194.825 249.603 194.6 249.603 194.295C249.603 194.255 249.603 194.209 249.603 194.156C249.603 194.116 249.609 194.07 249.623 194.017C249.848 193.592 250.08 193.175 250.319 192.763C250.571 192.352 250.809 191.941 251.035 191.53L252.248 189.362C251.718 188.938 251.247 188.507 250.836 188.07C250.425 187.632 250.053 187.175 249.722 186.697C249.404 186.207 249.119 185.683 248.867 185.126C248.628 184.556 248.416 183.939 248.23 183.276C248.23 182.52 248.542 182.142 249.165 182.142C249.377 182.142 249.569 182.202 249.742 182.322C249.927 182.441 250.06 182.633 250.14 182.898C250.405 183.946 250.789 184.847 251.293 185.603C251.797 186.359 252.407 187.055 253.123 187.692C253.547 186.87 253.919 186.061 254.237 185.265C254.555 184.456 254.84 183.575 255.092 182.62H255.112ZM262.023 182.421C262.58 182.421 263.07 182.54 263.495 182.779C263.932 183.018 264.297 183.336 264.588 183.734C264.893 184.118 265.119 184.562 265.265 185.066C265.424 185.557 265.503 186.061 265.503 186.578C265.503 186.803 265.49 187.015 265.464 187.214C265.437 187.4 265.404 187.592 265.364 187.791C265.218 188.335 264.999 188.845 264.708 189.323C264.429 189.8 264.098 190.218 263.713 190.576C263.329 190.92 262.898 191.192 262.42 191.391C261.956 191.59 261.466 191.689 260.949 191.689C260.405 191.689 259.908 191.57 259.457 191.331C259.019 191.093 258.648 190.788 258.343 190.417C258.038 190.032 257.799 189.608 257.627 189.144C257.468 188.666 257.388 188.189 257.388 187.712C257.388 187.049 257.508 186.405 257.746 185.782C257.998 185.146 258.33 184.582 258.741 184.092C259.165 183.588 259.656 183.183 260.213 182.878C260.783 182.573 261.386 182.421 262.023 182.421ZM259.457 186.697C259.377 187.002 259.338 187.34 259.338 187.712C259.338 188.083 259.391 188.434 259.497 188.766C259.603 189.084 259.775 189.356 260.014 189.581C260.266 189.807 260.597 189.919 261.008 189.919C261.406 189.919 261.758 189.807 262.062 189.581C262.381 189.342 262.646 189.057 262.858 188.726C263.083 188.381 263.256 188.017 263.375 187.632C263.495 187.234 263.554 186.876 263.554 186.558C263.554 186.266 263.521 185.981 263.455 185.703C263.388 185.411 263.282 185.152 263.137 184.927C263.004 184.702 262.838 184.523 262.639 184.39C262.44 184.244 262.215 184.171 261.963 184.171C261.645 184.171 261.346 184.257 261.068 184.43C260.79 184.589 260.538 184.794 260.312 185.046C260.1 185.285 259.921 185.557 259.775 185.862C259.629 186.154 259.523 186.432 259.457 186.697ZM275.195 189.621C275.368 189.86 275.454 190.078 275.454 190.277C275.454 190.516 275.361 190.715 275.175 190.874C275.003 191.02 274.791 191.093 274.539 191.093C274.234 191.093 273.969 190.98 273.743 190.755C273.531 190.529 273.352 190.264 273.206 189.959C272.875 190.264 272.484 190.529 272.033 190.755C271.582 190.98 271.125 191.093 270.661 191.093C270.303 191.093 269.945 191.033 269.587 190.914C269.242 190.781 268.917 190.609 268.612 190.397C268.32 190.171 268.062 189.913 267.836 189.621C267.624 189.329 267.458 189.018 267.339 188.686C267.233 188.341 267.16 187.963 267.12 187.552C267.094 187.141 267.08 186.71 267.08 186.26C267.08 185.968 267.08 185.683 267.08 185.404C267.08 185.126 267.087 184.854 267.1 184.589C267.114 184.363 267.12 184.145 267.12 183.933C267.133 183.72 267.14 183.522 267.14 183.336C267.206 183.044 267.326 182.832 267.498 182.699C267.684 182.567 267.896 182.501 268.135 182.501C268.333 182.501 268.526 182.567 268.711 182.699C268.91 182.819 269.043 183.011 269.109 183.276C269.109 183.581 269.109 183.88 269.109 184.171C269.109 184.463 269.103 184.755 269.089 185.046C269.076 185.351 269.063 185.65 269.049 185.941C269.049 186.233 269.049 186.545 269.049 186.876C269.049 187.592 269.189 188.176 269.467 188.626C269.746 189.077 270.124 189.303 270.601 189.303C270.985 189.303 271.343 189.157 271.675 188.865C272.006 188.56 272.325 188.215 272.63 187.831C272.55 187.194 272.51 186.545 272.51 185.882C272.51 185.497 272.51 185.106 272.51 184.708C272.524 184.31 272.563 183.952 272.63 183.634C272.709 183.303 272.822 183.038 272.968 182.839C273.127 182.626 273.359 182.52 273.664 182.52C273.903 182.52 274.115 182.6 274.3 182.759C274.499 182.918 274.599 183.157 274.599 183.475C274.599 183.754 274.579 184.072 274.539 184.43C274.512 184.655 274.493 184.894 274.479 185.146C274.466 185.398 274.459 185.656 274.459 185.922C274.459 186.28 274.466 186.644 274.479 187.015C274.506 187.373 274.546 187.718 274.599 188.05C274.665 188.381 274.745 188.686 274.837 188.965C274.93 189.23 275.049 189.449 275.195 189.621ZM291.578 189.621C291.751 189.86 291.837 190.078 291.837 190.277C291.837 190.516 291.744 190.715 291.558 190.874C291.386 191.02 291.174 191.093 290.922 191.093C290.617 191.093 290.352 190.98 290.126 190.755C289.914 190.529 289.735 190.264 289.589 189.959C289.258 190.264 288.867 190.529 288.416 190.755C287.965 190.98 287.507 191.093 287.043 191.093C286.685 191.093 286.327 191.033 285.969 190.914C285.625 190.781 285.3 190.609 284.995 190.397C284.703 190.171 284.444 189.913 284.219 189.621C284.007 189.329 283.841 189.018 283.722 188.686C283.616 188.341 283.543 187.963 283.503 187.552C283.477 187.141 283.463 186.71 283.463 186.26C283.463 185.968 283.463 185.683 283.463 185.404C283.463 185.126 283.47 184.854 283.483 184.589C283.496 184.363 283.503 184.145 283.503 183.933C283.516 183.72 283.523 183.522 283.523 183.336C283.589 183.044 283.709 182.832 283.881 182.699C284.067 182.567 284.279 182.501 284.517 182.501C284.716 182.501 284.909 182.567 285.094 182.699C285.293 182.819 285.426 183.011 285.492 183.276C285.492 183.581 285.492 183.88 285.492 184.171C285.492 184.463 285.485 184.755 285.472 185.046C285.459 185.351 285.446 185.65 285.432 185.941C285.432 186.233 285.432 186.545 285.432 186.876C285.432 187.592 285.572 188.176 285.85 188.626C286.128 189.077 286.506 189.303 286.984 189.303C287.368 189.303 287.726 189.157 288.058 188.865C288.389 188.56 288.707 188.215 289.012 187.831C288.933 187.194 288.893 186.545 288.893 185.882C288.893 185.497 288.893 185.106 288.893 184.708C288.906 184.31 288.946 183.952 289.012 183.634C289.092 183.303 289.205 183.038 289.351 182.839C289.51 182.626 289.742 182.52 290.047 182.52C290.285 182.52 290.498 182.6 290.683 182.759C290.882 182.918 290.981 183.157 290.981 183.475C290.981 183.754 290.962 184.072 290.922 184.43C290.895 184.655 290.875 184.894 290.862 185.146C290.849 185.398 290.842 185.656 290.842 185.922C290.842 186.28 290.849 186.644 290.862 187.015C290.889 187.373 290.928 187.718 290.981 188.05C291.048 188.381 291.127 188.686 291.22 188.965C291.313 189.23 291.432 189.449 291.578 189.621ZM293.125 189.621C292.939 189.236 292.933 188.918 293.105 188.666C293.291 188.401 293.556 188.268 293.9 188.268C294.126 188.268 294.371 188.355 294.636 188.527C294.915 188.898 295.246 189.21 295.631 189.462C296.015 189.714 296.42 189.8 296.844 189.72C297.043 189.681 297.215 189.608 297.361 189.502C297.52 189.382 297.633 189.25 297.699 189.104C297.779 188.958 297.819 188.799 297.819 188.626C297.819 188.454 297.772 188.295 297.679 188.149C297.56 187.963 297.428 187.818 297.282 187.712C297.149 187.605 297.003 187.526 296.844 187.473C296.698 187.42 296.552 187.38 296.407 187.354C296.274 187.327 296.148 187.294 296.029 187.254C295.83 187.201 295.631 187.148 295.432 187.095C295.233 187.029 295.041 186.949 294.855 186.856C294.67 186.763 294.491 186.651 294.318 186.518C294.146 186.372 293.98 186.193 293.821 185.981C293.675 185.782 293.562 185.57 293.483 185.345C293.403 185.106 293.363 184.887 293.363 184.688C293.363 184.41 293.416 184.125 293.523 183.833C293.629 183.541 293.768 183.276 293.94 183.038C294.126 182.786 294.338 182.573 294.577 182.401C294.829 182.215 295.094 182.089 295.372 182.023C295.929 181.877 296.506 181.857 297.103 181.963C297.713 182.07 298.256 182.255 298.734 182.52C298.919 182.653 299.058 182.792 299.151 182.938C299.244 183.084 299.291 183.223 299.291 183.356C299.291 183.515 299.244 183.661 299.151 183.793C299.072 183.913 298.959 184.012 298.813 184.092C298.681 184.171 298.521 184.211 298.336 184.211C298.163 184.211 297.978 184.158 297.779 184.052C297.62 183.972 297.394 183.899 297.103 183.833C296.824 183.754 296.546 183.727 296.267 183.754C295.989 183.767 295.757 183.853 295.571 184.012C295.386 184.171 295.313 184.436 295.352 184.808C295.432 184.954 295.525 185.08 295.631 185.186C295.75 185.278 295.876 185.358 296.009 185.424C296.155 185.491 296.307 185.55 296.466 185.603C296.625 185.643 296.778 185.683 296.924 185.723C297.335 185.842 297.713 185.981 298.057 186.14C298.402 186.286 298.7 186.472 298.952 186.697C299.204 186.923 299.397 187.194 299.529 187.513C299.675 187.831 299.748 188.215 299.748 188.666C299.748 189.024 299.668 189.376 299.509 189.72C299.35 190.052 299.138 190.35 298.873 190.615C298.621 190.881 298.329 191.093 297.998 191.252C297.666 191.411 297.335 191.491 297.003 191.491C296.261 191.491 295.538 191.325 294.835 190.993C294.133 190.662 293.569 190.204 293.145 189.621H293.125ZM308.077 188.646C308.289 188.567 308.481 188.534 308.654 188.547C308.839 188.56 308.992 188.607 309.111 188.686C309.244 188.766 309.343 188.872 309.409 189.004C309.489 189.124 309.529 189.256 309.529 189.402C309.529 189.548 309.482 189.694 309.389 189.84C309.297 189.972 309.151 190.098 308.952 190.218C308.395 190.549 307.792 190.834 307.142 191.073C306.505 191.298 305.862 191.411 305.213 191.411C304.828 191.411 304.437 191.351 304.039 191.232C303.641 191.126 303.27 190.954 302.925 190.715C302.368 190.304 301.931 189.767 301.613 189.104C301.308 188.428 301.155 187.738 301.155 187.035C301.155 186.346 301.288 185.683 301.553 185.046C301.831 184.41 302.269 183.893 302.866 183.495C303.343 183.163 303.86 182.898 304.417 182.699C304.974 182.501 305.551 182.401 306.147 182.401C306.466 182.401 306.777 182.434 307.082 182.501C307.374 182.567 307.646 182.686 307.898 182.859C308.15 183.018 308.368 183.217 308.554 183.455C308.74 183.681 308.886 183.933 308.992 184.211C309.098 184.489 309.151 184.768 309.151 185.046C309.151 185.232 309.131 185.411 309.091 185.583C309.051 185.756 308.978 185.922 308.872 186.081C308.673 186.399 308.402 186.677 308.057 186.916C307.712 187.141 307.334 187.34 306.923 187.513C306.512 187.685 306.088 187.831 305.65 187.95C305.213 188.07 304.802 188.176 304.417 188.268C304.006 188.375 303.741 188.441 303.621 188.467C303.515 188.494 303.449 188.507 303.423 188.507C303.608 188.892 303.873 189.197 304.218 189.422C304.563 189.647 304.987 189.74 305.491 189.701C305.915 189.674 306.353 189.555 306.804 189.342C307.268 189.117 307.692 188.885 308.077 188.646ZM304.417 184.649C303.979 184.874 303.655 185.179 303.442 185.563C303.23 185.935 303.111 186.352 303.084 186.817C303.084 186.817 303.091 186.817 303.104 186.817C303.131 186.803 303.191 186.783 303.283 186.757C303.389 186.73 303.542 186.691 303.741 186.638C303.94 186.571 304.225 186.485 304.596 186.379C304.729 186.339 304.928 186.286 305.193 186.22C305.458 186.14 305.723 186.054 305.988 185.961C306.267 185.855 306.519 185.736 306.744 185.603C306.983 185.471 307.142 185.325 307.221 185.166C307.248 184.781 307.162 184.516 306.963 184.37C306.764 184.224 306.525 184.151 306.247 184.151C305.942 184.151 305.617 184.211 305.272 184.33C304.928 184.436 304.642 184.542 304.417 184.649Z" fill="black"/>
<path d="M179.527 223.145C179.633 222.614 179.678 221.987 179.66 221.262C179.642 220.537 179.518 219.839 179.289 219.167C179.076 218.495 178.741 217.929 178.281 217.47C177.839 217.01 177.229 216.78 176.451 216.78C175.602 216.78 174.922 217.054 174.409 217.602C173.896 218.15 173.507 218.822 173.242 219.618C172.995 220.396 172.844 221.209 172.791 222.057C172.738 222.888 172.756 223.596 172.844 224.179C172.897 224.568 172.986 224.975 173.11 225.399C173.251 225.823 173.428 226.212 173.64 226.566C173.852 226.919 174.117 227.202 174.436 227.414C174.772 227.626 175.169 227.724 175.629 227.706C176.265 227.671 176.796 227.529 177.22 227.282C177.662 227.017 178.033 226.689 178.334 226.301C178.634 225.894 178.873 225.434 179.05 224.922C179.244 224.391 179.395 223.843 179.501 223.277L179.527 223.145ZM182.577 223.675C182.347 224.966 181.905 226.203 181.251 227.388C180.597 228.555 179.686 229.501 178.52 230.225C177.936 230.508 177.317 230.694 176.663 230.782C176.009 230.871 175.364 230.862 174.727 230.756C174.091 230.65 173.49 230.429 172.924 230.093C172.358 229.775 171.872 229.341 171.465 228.793C170.581 227.591 170.007 226.345 169.742 225.054C169.494 223.763 169.485 222.402 169.715 220.97C169.874 219.962 170.148 218.963 170.537 217.973C170.944 216.983 171.51 216.117 172.234 215.375C172.818 214.773 173.463 214.323 174.17 214.022C174.878 213.704 175.594 213.536 176.318 213.518C177.061 213.501 177.786 213.633 178.493 213.916C179.218 214.199 179.881 214.623 180.482 215.189C181.083 215.755 181.552 216.382 181.888 217.072C182.241 217.744 182.489 218.442 182.63 219.167C182.772 219.892 182.833 220.643 182.816 221.421C182.798 222.181 182.718 222.933 182.577 223.675ZM189.164 228.634C189.164 229.076 189.058 229.456 188.846 229.775C188.651 230.075 188.404 230.305 188.103 230.464C187.803 230.623 187.467 230.703 187.096 230.703C186.742 230.72 186.406 230.659 186.088 230.517C185.77 230.393 185.496 230.19 185.266 229.907C185.054 229.624 184.93 229.262 184.895 228.82C184.859 228.36 184.939 227.98 185.133 227.68C185.345 227.361 185.611 227.123 185.929 226.963C186.247 226.804 186.592 226.725 186.963 226.725C187.334 226.707 187.679 226.769 187.997 226.91C188.333 227.034 188.607 227.246 188.819 227.547C189.049 227.83 189.164 228.192 189.164 228.634ZM201.142 227.547C201.496 227.653 201.805 227.856 202.07 228.157C202.336 228.457 202.512 228.776 202.601 229.112C202.707 229.43 202.689 229.739 202.548 230.04C202.424 230.323 202.141 230.499 201.699 230.57C200.851 230.712 199.975 230.773 199.074 230.756C198.172 230.756 197.323 230.747 196.528 230.729C195.98 230.729 195.6 230.561 195.388 230.225C195.193 229.889 195.131 229.527 195.202 229.138C195.29 228.731 195.511 228.369 195.865 228.051C196.219 227.715 196.669 227.547 197.217 227.547V217.894C196.988 217.947 196.758 217.938 196.528 217.867C196.298 217.779 196.095 217.655 195.918 217.496C195.741 217.337 195.6 217.151 195.494 216.939C195.405 216.709 195.379 216.48 195.414 216.25C195.467 215.861 195.662 215.463 195.998 215.056C196.351 214.65 196.758 214.314 197.217 214.049C197.677 213.783 198.146 213.624 198.623 213.571C199.118 213.518 199.542 213.642 199.896 213.942C200.037 214.049 200.161 214.199 200.267 214.393C200.391 214.588 200.453 214.765 200.453 214.924C200.47 217.045 200.47 219.158 200.453 221.262C200.453 223.348 200.453 225.443 200.453 227.547H201.142ZM226.753 225.425C227.036 225.142 227.354 224.983 227.708 224.948C228.079 224.895 228.415 224.939 228.716 225.081C229.016 225.222 229.246 225.452 229.405 225.77C229.582 226.071 229.626 226.433 229.538 226.857C229.432 227.282 229.228 227.68 228.928 228.051C228.627 228.404 228.327 228.731 228.026 229.032C227.337 229.757 226.568 230.287 225.719 230.623C224.888 230.977 224.039 231.145 223.173 231.127C222.324 231.109 221.485 230.906 220.654 230.517C219.841 230.128 219.107 229.545 218.453 228.767C218.064 228.307 217.737 227.821 217.471 227.308C217.206 226.796 217.003 226.256 216.862 225.691C216.649 224.86 216.552 223.993 216.57 223.092C216.587 222.19 216.729 221.315 216.994 220.466C217.259 219.618 217.631 218.822 218.108 218.08C218.603 217.319 219.204 216.674 219.911 216.144C220.424 215.755 220.937 215.419 221.449 215.136C221.98 214.853 222.537 214.588 223.12 214.34C223.456 214.199 223.801 214.066 224.154 213.942C224.508 213.801 224.87 213.695 225.242 213.624C225.613 213.554 225.984 213.527 226.355 213.545C226.727 213.562 227.089 213.642 227.443 213.783C227.69 213.889 227.938 214.04 228.185 214.234C228.433 214.411 228.663 214.623 228.875 214.871C229.087 215.101 229.273 215.348 229.432 215.613C229.591 215.878 229.706 216.135 229.776 216.382C229.829 216.612 229.838 216.851 229.803 217.098C229.785 217.328 229.715 217.54 229.591 217.735C229.485 217.929 229.334 218.097 229.14 218.239C228.945 218.362 228.724 218.442 228.477 218.477C228.07 218.53 227.752 218.486 227.522 218.345C227.31 218.203 227.133 218.026 226.992 217.814C226.868 217.602 226.744 217.399 226.621 217.204C226.497 216.992 226.32 216.842 226.09 216.754C225.949 216.754 225.843 216.762 225.772 216.78C225.171 216.939 224.561 217.16 223.942 217.443C223.341 217.708 222.775 218.035 222.245 218.424C221.732 218.813 221.281 219.264 220.892 219.777C220.503 220.289 220.221 220.864 220.044 221.501C219.832 222.261 219.752 223.03 219.805 223.808C219.858 224.586 220.07 225.319 220.442 226.009C220.654 226.415 220.937 226.769 221.29 227.07C221.644 227.37 222.033 227.6 222.457 227.759C222.881 227.901 223.315 227.954 223.757 227.918C224.199 227.865 224.623 227.706 225.029 227.441C225.383 227.193 225.701 226.893 225.984 226.539C226.267 226.168 226.523 225.797 226.753 225.425ZM234.486 229.138C234.433 229.527 234.283 229.863 234.035 230.146C233.788 230.446 233.505 230.65 233.187 230.756C232.869 230.862 232.55 230.862 232.232 230.756C231.914 230.65 231.666 230.393 231.49 229.987C231.401 229.792 231.339 229.447 231.304 228.952C231.269 228.44 231.242 227.909 231.224 227.361C231.207 226.813 231.198 226.309 231.198 225.85C231.216 225.372 231.224 225.081 231.224 224.975V219.432C231.224 219.379 231.216 219.114 231.198 218.636C231.198 218.159 231.198 217.638 231.198 217.072C231.216 216.488 231.242 215.931 231.277 215.401C231.33 214.853 231.419 214.482 231.543 214.287C231.702 214.022 231.896 213.836 232.126 213.73C232.356 213.607 232.586 213.554 232.816 213.571C233.063 213.589 233.302 213.66 233.532 213.783C233.779 213.907 233.982 214.093 234.142 214.34C234.212 214.429 234.274 214.535 234.327 214.659C234.398 214.782 234.433 214.897 234.433 215.003C234.451 215.852 234.451 216.692 234.433 217.523C234.416 218.336 234.407 219.167 234.407 220.015C235.043 219.644 235.627 219.229 236.157 218.769C236.705 218.292 237.235 217.752 237.748 217.151C237.872 216.992 238.049 216.754 238.279 216.435C238.508 216.117 238.756 215.79 239.021 215.454C239.286 215.118 239.551 214.809 239.817 214.526C240.082 214.225 240.312 214.031 240.506 213.942C240.895 213.748 241.266 213.677 241.62 213.73C241.974 213.783 242.265 213.925 242.495 214.155C242.725 214.367 242.866 214.65 242.919 215.003C242.99 215.339 242.928 215.693 242.734 216.064C242.663 216.223 242.584 216.356 242.495 216.462C242.424 216.568 242.345 216.665 242.256 216.754C242.186 216.842 242.106 216.939 242.018 217.045C241.929 217.151 241.841 217.275 241.753 217.417C241.523 217.788 241.249 218.168 240.93 218.557C240.612 218.928 240.276 219.299 239.923 219.671C239.569 220.024 239.207 220.369 238.835 220.705C238.464 221.041 238.111 221.359 237.775 221.66C238.217 222.137 238.659 222.614 239.101 223.092C239.543 223.569 239.993 224.046 240.453 224.524C240.559 224.63 240.789 224.86 241.143 225.213C241.496 225.549 241.867 225.929 242.256 226.354C242.663 226.76 243.025 227.167 243.344 227.573C243.68 227.98 243.874 228.298 243.927 228.528C244.016 228.882 243.998 229.218 243.874 229.536C243.75 229.836 243.556 230.084 243.291 230.278C243.043 230.473 242.751 230.579 242.416 230.597C242.097 230.614 241.779 230.508 241.461 230.278C241.319 230.172 241.169 230.049 241.01 229.907C240.869 229.748 240.727 229.589 240.586 229.43C240.462 229.271 240.338 229.12 240.214 228.979C240.091 228.82 239.985 228.696 239.896 228.608C239.065 227.706 238.243 226.822 237.43 225.956C236.617 225.089 235.795 224.214 234.964 223.33C234.875 223.366 234.778 223.41 234.672 223.463C234.566 223.498 234.469 223.534 234.38 223.569C234.38 224.471 234.389 225.372 234.407 226.274C234.424 227.158 234.451 228.051 234.486 228.952V229.138ZM248.404 230.729C247.644 230.641 247.176 230.393 246.999 229.987C246.84 229.562 246.84 229.103 246.999 228.608V217.841C246.716 217.841 246.46 217.77 246.23 217.629C246.018 217.47 245.841 217.275 245.7 217.045C245.576 216.815 245.514 216.568 245.514 216.303C245.514 216.02 245.593 215.763 245.753 215.534C246.106 215.003 246.557 214.588 247.105 214.287C247.671 213.987 248.254 213.739 248.855 213.545C249.792 213.244 250.729 213.076 251.666 213.041C252.621 213.005 253.558 213.2 254.477 213.624C255.308 214.013 255.963 214.517 256.44 215.136C256.917 215.755 257.218 216.418 257.342 217.125C257.465 217.814 257.403 218.53 257.156 219.273C256.908 219.998 256.466 220.678 255.83 221.315C256.661 221.845 257.253 222.482 257.607 223.224C257.96 223.949 258.102 224.701 258.031 225.478C257.978 226.256 257.73 227.008 257.288 227.733C256.864 228.457 256.281 229.085 255.538 229.615C255.096 229.934 254.575 230.172 253.974 230.331C253.39 230.508 252.78 230.632 252.144 230.703C251.525 230.773 250.906 230.809 250.287 230.809C249.669 230.809 249.103 230.791 248.59 230.756L248.404 230.729ZM254.053 223.993C253.735 223.781 253.425 223.622 253.125 223.516C252.824 223.41 252.515 223.339 252.197 223.304C251.896 223.268 251.587 223.26 251.269 223.277C250.95 223.295 250.606 223.313 250.234 223.33V227.573C250.623 227.573 251.039 227.565 251.481 227.547C251.923 227.512 252.347 227.441 252.754 227.335C253.16 227.211 253.54 227.043 253.894 226.831C254.248 226.619 254.53 226.327 254.743 225.956C254.796 225.531 254.787 225.169 254.716 224.868C254.645 224.55 254.424 224.259 254.053 223.993ZM250.234 219.909C250.553 219.909 250.871 219.909 251.189 219.909C251.507 219.909 251.817 219.883 252.117 219.83C252.435 219.759 252.736 219.653 253.019 219.512C253.319 219.37 253.585 219.167 253.814 218.902C254.15 218.53 254.265 218.141 254.159 217.735C254.071 217.31 253.823 216.975 253.417 216.727C252.957 216.426 252.435 216.276 251.852 216.276C251.269 216.259 250.729 216.32 250.234 216.462V219.909ZM278.698 211.662C278.91 211.308 279.175 211.07 279.493 210.946C279.811 210.822 280.13 210.796 280.448 210.866C280.766 210.919 281.04 211.07 281.27 211.317C281.517 211.565 281.659 211.892 281.694 212.298C281.712 212.51 281.677 212.758 281.588 213.041C281.5 213.306 281.394 213.58 281.27 213.863C281.164 214.128 281.049 214.376 280.925 214.605C280.801 214.835 280.722 214.994 280.687 215.083C280.421 215.702 280.156 216.32 279.891 216.939C279.626 217.54 279.361 218.15 279.095 218.769C278.158 220.944 277.221 223.109 276.284 225.266C275.365 227.405 274.428 229.545 273.473 231.684C273.332 232.002 273.102 232.223 272.784 232.347C272.483 232.488 272.165 232.524 271.829 232.453C271.511 232.382 271.219 232.223 270.954 231.976C270.706 231.746 270.565 231.419 270.53 230.994C270.494 230.517 270.574 230.084 270.768 229.695C270.98 229.306 271.184 228.882 271.378 228.422C271.643 227.803 271.909 227.193 272.174 226.592C272.439 225.973 272.704 225.355 272.969 224.736C273.04 224.577 273.146 224.329 273.288 223.993C273.447 223.657 273.615 223.286 273.792 222.88C273.968 222.473 274.145 222.057 274.322 221.633C274.516 221.191 274.693 220.793 274.852 220.44C275.011 220.086 275.135 219.794 275.224 219.565C275.33 219.317 275.383 219.193 275.383 219.193C275.931 217.956 276.47 216.727 277 215.507C277.531 214.27 278.061 213.041 278.592 211.821L278.698 211.662ZM293.619 228.316C293.513 228.015 293.468 227.724 293.486 227.441C293.504 227.14 293.575 226.875 293.698 226.645C293.84 226.398 294.034 226.212 294.282 226.088C294.529 225.947 294.83 225.894 295.183 225.929C295.378 225.947 295.555 226 295.714 226.088C295.873 226.177 296.014 226.283 296.138 226.407C296.28 226.53 296.412 226.663 296.536 226.804C296.677 226.946 296.819 227.07 296.96 227.176C297.261 227.405 297.579 227.573 297.915 227.68C298.251 227.786 298.604 227.865 298.976 227.918C299.223 227.918 299.418 227.856 299.559 227.733C299.718 227.609 299.824 227.459 299.877 227.282C299.93 227.105 299.939 226.919 299.904 226.725C299.886 226.513 299.824 226.345 299.718 226.221C299.418 225.92 299.046 225.726 298.604 225.638C298.18 225.549 297.782 225.443 297.411 225.319C296.881 225.142 296.359 224.922 295.846 224.656C295.334 224.373 294.918 223.993 294.6 223.516C294.264 223.021 294.061 222.499 293.99 221.951C293.937 221.386 293.981 220.838 294.123 220.307C294.282 219.777 294.538 219.291 294.892 218.849C295.245 218.407 295.67 218.044 296.165 217.761C296.536 217.549 296.943 217.417 297.384 217.363C297.826 217.293 298.268 217.275 298.71 217.31C299.17 217.346 299.621 217.434 300.063 217.576C300.505 217.699 300.912 217.841 301.283 218C301.707 218.194 302.025 218.468 302.238 218.822C302.45 219.176 302.547 219.538 302.529 219.909C302.529 220.263 302.405 220.572 302.158 220.838C301.928 221.103 301.583 221.235 301.124 221.235C300.841 221.235 300.584 221.191 300.355 221.103C300.125 220.997 299.886 220.899 299.639 220.811C299.32 220.687 298.976 220.608 298.604 220.572C298.233 220.519 297.933 220.537 297.703 220.625C297.632 220.643 297.552 220.705 297.464 220.811C297.376 220.899 297.305 221.014 297.252 221.156C297.217 221.297 297.208 221.439 297.225 221.58C297.261 221.722 297.358 221.836 297.517 221.925C297.941 222.155 298.392 222.331 298.87 222.455C299.347 222.579 299.815 222.72 300.275 222.88C300.735 223.039 301.159 223.242 301.548 223.489C301.955 223.737 302.291 224.091 302.556 224.55C302.945 225.222 303.139 225.929 303.139 226.672C303.157 227.397 303.015 228.077 302.715 228.714C302.414 229.35 301.972 229.889 301.389 230.331C300.805 230.791 300.125 231.065 299.347 231.154C298.799 231.207 298.26 231.171 297.729 231.047C297.199 230.941 296.686 230.756 296.191 230.491C295.696 230.243 295.236 229.942 294.812 229.589C294.388 229.235 294.017 228.864 293.698 228.475L293.619 228.316ZM314.704 226.539C315.128 226.433 315.499 226.433 315.818 226.539C316.153 226.628 316.41 226.787 316.587 227.017C316.763 227.246 316.843 227.529 316.825 227.865C316.808 228.201 316.657 228.555 316.374 228.926C316.145 229.226 315.826 229.483 315.42 229.695C315.013 229.907 314.633 230.075 314.279 230.199C313.413 230.517 312.591 230.738 311.813 230.862C311.035 230.986 310.301 230.986 309.612 230.862C308.94 230.738 308.304 230.482 307.703 230.093C307.119 229.704 306.571 229.156 306.058 228.449C305.705 227.971 305.44 227.432 305.263 226.831C305.104 226.212 305.015 225.584 304.998 224.948C304.98 224.312 305.033 223.684 305.157 223.065C305.28 222.446 305.457 221.889 305.687 221.394C305.988 220.776 306.465 220.21 307.119 219.697C307.773 219.184 308.498 218.778 309.294 218.477C310.089 218.177 310.903 218.009 311.734 217.973C312.564 217.92 313.298 218.044 313.935 218.345C314.465 218.592 314.916 218.955 315.287 219.432C315.676 219.892 315.941 220.396 316.083 220.944C316.224 221.492 316.233 222.049 316.109 222.614C316.003 223.162 315.72 223.666 315.261 224.126C314.819 224.568 314.332 224.93 313.802 225.213C313.272 225.478 312.724 225.717 312.158 225.929C311.592 226.124 311.009 226.292 310.408 226.433C309.824 226.575 309.258 226.734 308.71 226.91C309.082 227.335 309.506 227.609 309.983 227.733C310.461 227.839 310.956 227.856 311.468 227.786C311.999 227.715 312.529 227.573 313.059 227.361C313.59 227.131 314.085 226.884 314.545 226.619L314.704 226.539ZM309.347 221.978C308.94 222.208 308.64 222.499 308.445 222.853C308.251 223.189 308.109 223.666 308.021 224.285C308.48 224.144 308.993 223.993 309.559 223.834C310.142 223.675 310.69 223.507 311.203 223.33C311.716 223.154 312.149 222.959 312.503 222.747C312.856 222.535 313.033 222.305 313.033 222.057C313.033 221.916 313.006 221.783 312.953 221.66C312.918 221.518 312.83 221.421 312.688 221.368C312.193 221.191 311.68 221.156 311.15 221.262C310.62 221.368 310.178 221.518 309.824 221.713L309.347 221.978ZM325.864 226.778C326.306 226.495 326.721 226.371 327.11 226.407C327.517 226.442 327.844 226.583 328.091 226.831C328.357 227.061 328.498 227.379 328.516 227.786C328.551 228.175 328.419 228.59 328.118 229.032C327.923 229.333 327.641 229.607 327.269 229.854C326.916 230.102 326.571 230.296 326.235 230.438C325.457 230.791 324.67 230.95 323.875 230.915C323.079 230.88 322.337 230.685 321.647 230.331C320.975 229.978 320.392 229.492 319.897 228.873C319.402 228.236 319.066 227.503 318.889 226.672C318.536 225.081 318.606 223.551 319.101 222.084C319.296 221.554 319.526 221.041 319.791 220.546C320.074 220.051 320.41 219.6 320.799 219.193C321.188 218.787 321.621 218.433 322.098 218.133C322.575 217.814 323.097 217.602 323.663 217.496C324.052 217.425 324.547 217.434 325.148 217.523C325.749 217.593 326.332 217.744 326.898 217.973C327.482 218.203 327.985 218.504 328.41 218.875C328.852 219.246 329.099 219.688 329.152 220.201C329.188 220.484 329.152 220.749 329.046 220.997C328.94 221.226 328.79 221.421 328.595 221.58C328.401 221.739 328.171 221.854 327.906 221.925C327.658 221.978 327.402 221.969 327.137 221.898C326.819 221.81 326.562 221.695 326.368 221.554C326.191 221.394 325.952 221.191 325.652 220.944C325.51 220.908 325.378 220.855 325.254 220.784C325.13 220.696 324.998 220.661 324.856 220.678L324.14 220.758C324.016 220.829 323.901 220.891 323.795 220.944C323.689 220.997 323.583 221.05 323.477 221.103C322.876 221.704 322.434 222.376 322.151 223.118C321.868 223.843 321.798 224.63 321.939 225.478C322.027 226.026 322.195 226.477 322.443 226.831C322.708 227.184 323.009 227.432 323.344 227.573C323.698 227.697 324.078 227.706 324.485 227.6C324.909 227.494 325.325 227.255 325.731 226.884L325.864 226.778Z" fill="black"/>
<circle cx="249.5" cy="340.021" r="38" fill="#FDE64B" stroke="black" stroke-width="4"/>
<path d="M246.761 339.614H255.805L241.567 364.021L245.459 345.716H237.5L239.615 332.156H248.348L246.761 339.614Z" fill="#030303"/>
<path d="M261.229 330.8H239.832L240.89 324.021H265.297L261.229 330.8Z" fill="#030303"/>
<path d="M210.149 393.146C210.414 393.239 210.613 393.372 210.746 393.544C210.892 393.717 210.958 393.889 210.945 394.061C210.931 394.26 210.845 394.439 210.686 394.598C210.54 394.744 210.315 394.85 210.01 394.917L207.086 394.937C207.086 396.514 207.086 398.099 207.086 399.69C207.099 401.268 207.106 402.846 207.106 404.424C207.093 404.769 206.98 405.021 206.768 405.18C206.569 405.339 206.35 405.418 206.112 405.418C205.886 405.418 205.674 405.339 205.475 405.18C205.29 405.034 205.177 404.808 205.137 404.503L205.117 394.937H202.154C201.822 394.87 201.577 394.751 201.418 394.579C201.272 394.406 201.206 394.214 201.219 394.002C201.232 393.79 201.325 393.597 201.497 393.425C201.67 393.253 201.941 393.166 202.313 393.166C203.705 393.166 204.872 393.166 205.813 393.166C206.755 393.166 207.524 393.166 208.12 393.166C208.717 393.153 209.168 393.146 209.473 393.146C209.791 393.146 210.017 393.146 210.149 393.146ZM218.515 404.086C218.595 404.285 218.608 404.477 218.555 404.662C218.515 404.835 218.423 404.974 218.277 405.08C218.144 405.2 217.972 405.266 217.76 405.279C217.547 405.306 217.322 405.259 217.083 405.14C216.977 405.034 216.871 404.928 216.765 404.822C216.672 404.702 216.593 404.59 216.526 404.483C216.049 404.842 215.598 405.067 215.174 405.16C214.763 405.266 214.312 405.319 213.822 405.319C213.464 405.319 213.112 405.279 212.767 405.2C212.436 405.133 212.098 404.987 211.753 404.762C211.249 404.404 210.891 403.98 210.679 403.489C210.467 402.998 210.361 402.481 210.361 401.938C210.361 401.381 210.44 400.857 210.599 400.366C210.772 399.862 211.004 399.398 211.296 398.974C211.587 398.537 211.919 398.139 212.29 397.781C212.675 397.423 213.086 397.104 213.523 396.826C213.616 396.773 213.742 396.713 213.901 396.647C214.073 396.581 214.266 396.521 214.478 396.468C214.69 396.402 214.909 396.355 215.134 396.329C215.36 396.289 215.578 396.269 215.791 396.269C216.202 396.269 216.566 396.322 216.885 396.428C217.216 396.521 217.455 396.76 217.601 397.144C217.601 397.542 217.601 397.874 217.601 398.139C217.601 398.404 217.594 398.629 217.581 398.815C217.581 398.987 217.581 399.133 217.581 399.253C217.581 399.372 217.581 399.485 217.581 399.591C217.581 400.055 217.594 400.539 217.62 401.043C217.647 401.533 217.693 402.017 217.76 402.495C217.786 402.64 217.846 402.813 217.939 403.012C218.045 403.211 218.151 403.39 218.257 403.549H218.237C218.33 403.695 218.403 403.814 218.456 403.907C218.522 404 218.542 404.059 218.515 404.086ZM215.83 402.674C215.724 402.209 215.658 401.732 215.631 401.242C215.605 400.738 215.592 400.24 215.592 399.75C215.592 399.405 215.598 399.093 215.612 398.815C215.625 398.537 215.631 398.265 215.631 398C215.406 398.026 215.174 398.086 214.935 398.179C214.71 398.271 214.551 398.338 214.458 398.377C214.1 398.537 213.775 398.762 213.483 399.054C213.205 399.345 212.973 399.67 212.787 400.028C212.602 400.386 212.462 400.764 212.37 401.162C212.29 401.546 212.283 401.924 212.35 402.296C212.389 402.587 212.489 402.833 212.648 403.032C212.82 403.217 213.019 403.363 213.245 403.469C213.47 403.562 213.709 403.608 213.961 403.608C214.226 403.608 214.478 403.569 214.717 403.489C215.008 403.317 215.38 403.045 215.83 402.674ZM220.267 397.025C220.334 396.746 220.453 396.541 220.625 396.408C220.811 396.262 221.017 396.19 221.242 396.19C221.441 396.19 221.633 396.249 221.819 396.369C222.004 396.488 222.137 396.66 222.217 396.886C222.508 396.7 222.827 396.561 223.171 396.468C223.516 396.375 223.861 396.329 224.206 396.329C224.736 396.329 225.227 396.442 225.677 396.667C226.141 396.892 226.539 397.197 226.871 397.582C227.215 397.966 227.481 398.417 227.666 398.934C227.865 399.451 227.965 399.995 227.965 400.565C227.965 401.202 227.859 401.785 227.646 402.316C227.448 402.846 227.143 403.303 226.731 403.688C226.32 404.072 225.817 404.377 225.22 404.603C224.623 404.815 223.927 404.921 223.131 404.921C222.972 404.921 222.82 404.921 222.674 404.921C222.528 404.921 222.382 404.908 222.236 404.881V408.899C222.223 409.23 222.11 409.476 221.898 409.635C221.699 409.794 221.481 409.874 221.242 409.874C221.017 409.874 220.804 409.801 220.606 409.655C220.42 409.509 220.307 409.283 220.267 408.979V397.025ZM222.236 399.451V403.111C222.541 403.177 222.84 403.211 223.131 403.211C223.967 403.211 224.663 402.985 225.22 402.534C225.777 402.083 226.055 401.46 226.055 400.665C226.055 400.36 226.009 400.055 225.916 399.75C225.836 399.432 225.717 399.146 225.558 398.895C225.399 398.643 225.207 398.437 224.981 398.278C224.769 398.119 224.537 398.039 224.285 398.039C223.874 398.039 223.509 398.179 223.191 398.457C222.873 398.722 222.601 399.001 222.376 399.292L222.236 399.451ZM237.863 398.139C237.532 398.086 237.28 397.98 237.108 397.821C236.949 397.661 236.869 397.476 236.869 397.264C236.869 397.051 236.955 396.853 237.128 396.667C237.313 396.481 237.585 396.388 237.943 396.388H238.858V393.345C238.924 393.067 239.044 392.861 239.216 392.729C239.402 392.583 239.607 392.51 239.833 392.51C240.045 392.51 240.244 392.576 240.429 392.709C240.615 392.828 240.741 393.021 240.807 393.286V396.388H242.557C242.849 396.468 243.061 396.587 243.194 396.746C243.34 396.906 243.413 397.078 243.413 397.264C243.413 397.688 243.108 397.98 242.498 398.139H240.807V401.798C240.807 402.209 240.807 402.621 240.807 403.032C240.82 403.443 240.827 403.854 240.827 404.265C240.827 404.596 240.721 404.842 240.509 405.001C240.297 405.16 240.078 405.239 239.852 405.239C239.627 405.239 239.415 405.166 239.216 405.021C239.03 404.875 238.918 404.649 238.878 404.344C238.878 403.84 238.871 403.323 238.858 402.793C238.858 402.249 238.858 401.712 238.858 401.182V398.139H237.863ZM248.103 396.349C248.66 396.349 249.151 396.468 249.575 396.707C250.013 396.945 250.377 397.264 250.669 397.661C250.974 398.046 251.2 398.49 251.345 398.994C251.505 399.485 251.584 399.988 251.584 400.506C251.584 400.731 251.571 400.943 251.544 401.142C251.518 401.328 251.485 401.52 251.445 401.719C251.299 402.262 251.08 402.773 250.789 403.25C250.51 403.728 250.179 404.145 249.794 404.503C249.41 404.848 248.979 405.12 248.501 405.319C248.037 405.518 247.547 405.617 247.029 405.617C246.486 405.617 245.989 405.498 245.538 405.259C245.1 405.021 244.729 404.716 244.424 404.344C244.119 403.96 243.88 403.535 243.708 403.071C243.549 402.594 243.469 402.117 243.469 401.639C243.469 400.976 243.589 400.333 243.827 399.71C244.079 399.074 244.411 398.51 244.822 398.019C245.246 397.516 245.737 397.111 246.293 396.806C246.864 396.501 247.467 396.349 248.103 396.349ZM245.538 400.625C245.458 400.93 245.418 401.268 245.418 401.639C245.418 402.011 245.471 402.362 245.577 402.693C245.684 403.012 245.856 403.283 246.095 403.509C246.347 403.734 246.678 403.847 247.089 403.847C247.487 403.847 247.838 403.734 248.143 403.509C248.461 403.27 248.727 402.985 248.939 402.654C249.164 402.309 249.337 401.944 249.456 401.56C249.575 401.162 249.635 400.804 249.635 400.486C249.635 400.194 249.602 399.909 249.535 399.63C249.469 399.339 249.363 399.08 249.217 398.855C249.085 398.629 248.919 398.45 248.72 398.318C248.521 398.172 248.296 398.099 248.044 398.099C247.726 398.099 247.427 398.185 247.149 398.358C246.87 398.517 246.618 398.722 246.393 398.974C246.181 399.213 246.002 399.485 245.856 399.79C245.71 400.081 245.604 400.36 245.538 400.625ZM259.114 403.549C258.928 403.164 258.921 402.846 259.094 402.594C259.279 402.329 259.545 402.196 259.889 402.196C260.115 402.196 260.36 402.282 260.625 402.455C260.904 402.826 261.235 403.138 261.62 403.39C262.004 403.642 262.409 403.728 262.833 403.648C263.032 403.608 263.204 403.535 263.35 403.429C263.509 403.31 263.622 403.177 263.688 403.032C263.768 402.886 263.808 402.727 263.808 402.554C263.808 402.382 263.761 402.223 263.668 402.077C263.549 401.891 263.416 401.745 263.271 401.639C263.138 401.533 262.992 401.454 262.833 401.401C262.687 401.348 262.541 401.308 262.395 401.281C262.263 401.255 262.137 401.222 262.018 401.182C261.819 401.129 261.62 401.076 261.421 401.023C261.222 400.956 261.03 400.877 260.844 400.784C260.658 400.691 260.479 400.579 260.307 400.446C260.135 400.3 259.969 400.121 259.81 399.909C259.664 399.71 259.551 399.498 259.472 399.272C259.392 399.034 259.352 398.815 259.352 398.616C259.352 398.338 259.405 398.053 259.511 397.761C259.618 397.469 259.757 397.204 259.929 396.965C260.115 396.713 260.327 396.501 260.566 396.329C260.818 396.143 261.083 396.017 261.361 395.951C261.918 395.805 262.495 395.785 263.092 395.891C263.702 395.997 264.245 396.183 264.723 396.448C264.908 396.581 265.047 396.72 265.14 396.866C265.233 397.012 265.279 397.151 265.279 397.283C265.279 397.443 265.233 397.588 265.14 397.721C265.061 397.84 264.948 397.94 264.802 398.019C264.67 398.099 264.51 398.139 264.325 398.139C264.152 398.139 263.967 398.086 263.768 397.98C263.609 397.9 263.383 397.827 263.092 397.761C262.813 397.681 262.535 397.655 262.256 397.681C261.978 397.695 261.746 397.781 261.56 397.94C261.374 398.099 261.302 398.364 261.341 398.735C261.421 398.881 261.514 399.007 261.62 399.113C261.739 399.206 261.865 399.286 261.998 399.352C262.144 399.418 262.296 399.478 262.455 399.531C262.614 399.571 262.767 399.611 262.913 399.65C263.324 399.77 263.702 399.909 264.046 400.068C264.391 400.214 264.689 400.4 264.941 400.625C265.193 400.85 265.386 401.122 265.518 401.44C265.664 401.759 265.737 402.143 265.737 402.594C265.737 402.952 265.657 403.303 265.498 403.648C265.339 403.98 265.127 404.278 264.862 404.543C264.61 404.808 264.318 405.021 263.987 405.18C263.655 405.339 263.324 405.418 262.992 405.418C262.25 405.418 261.527 405.253 260.824 404.921C260.121 404.59 259.558 404.132 259.134 403.549H259.114ZM267.834 398.139C267.503 398.086 267.251 397.98 267.078 397.821C266.919 397.661 266.84 397.476 266.84 397.264C266.84 397.051 266.926 396.853 267.098 396.667C267.284 396.481 267.556 396.388 267.914 396.388H268.829V393.345C268.895 393.067 269.014 392.861 269.187 392.729C269.372 392.583 269.578 392.51 269.803 392.51C270.015 392.51 270.214 392.576 270.4 392.709C270.586 392.828 270.712 393.021 270.778 393.286V396.388H272.528C272.82 396.468 273.032 396.587 273.165 396.746C273.31 396.906 273.383 397.078 273.383 397.264C273.383 397.688 273.078 397.98 272.468 398.139H270.778V401.798C270.778 402.209 270.778 402.621 270.778 403.032C270.791 403.443 270.798 403.854 270.798 404.265C270.798 404.596 270.692 404.842 270.479 405.001C270.267 405.16 270.049 405.239 269.823 405.239C269.598 405.239 269.386 405.166 269.187 405.021C269.001 404.875 268.888 404.649 268.849 404.344C268.849 403.84 268.842 403.323 268.829 402.793C268.829 402.249 268.829 401.712 268.829 401.182V398.139H267.834ZM281.34 404.086C281.419 404.285 281.432 404.477 281.379 404.662C281.34 404.835 281.247 404.974 281.101 405.08C280.968 405.2 280.796 405.266 280.584 405.279C280.372 405.306 280.146 405.259 279.908 405.14C279.802 405.034 279.695 404.928 279.589 404.822C279.497 404.702 279.417 404.59 279.351 404.483C278.873 404.842 278.423 405.067 277.998 405.16C277.587 405.266 277.136 405.319 276.646 405.319C276.288 405.319 275.936 405.279 275.592 405.2C275.26 405.133 274.922 404.987 274.577 404.762C274.073 404.404 273.715 403.98 273.503 403.489C273.291 402.998 273.185 402.481 273.185 401.938C273.185 401.381 273.265 400.857 273.424 400.366C273.596 399.862 273.828 399.398 274.12 398.974C274.411 398.537 274.743 398.139 275.114 397.781C275.499 397.423 275.91 397.104 276.347 396.826C276.44 396.773 276.566 396.713 276.725 396.647C276.898 396.581 277.09 396.521 277.302 396.468C277.514 396.402 277.733 396.355 277.958 396.329C278.184 396.289 278.403 396.269 278.615 396.269C279.026 396.269 279.39 396.322 279.709 396.428C280.04 396.521 280.279 396.76 280.425 397.144C280.425 397.542 280.425 397.874 280.425 398.139C280.425 398.404 280.418 398.629 280.405 398.815C280.405 398.987 280.405 399.133 280.405 399.253C280.405 399.372 280.405 399.485 280.405 399.591C280.405 400.055 280.418 400.539 280.445 401.043C280.471 401.533 280.518 402.017 280.584 402.495C280.61 402.64 280.67 402.813 280.763 403.012C280.869 403.211 280.975 403.39 281.081 403.549H281.061C281.154 403.695 281.227 403.814 281.28 403.907C281.346 404 281.366 404.059 281.34 404.086ZM278.655 402.674C278.549 402.209 278.482 401.732 278.456 401.242C278.429 400.738 278.416 400.24 278.416 399.75C278.416 399.405 278.423 399.093 278.436 398.815C278.449 398.537 278.456 398.265 278.456 398C278.23 398.026 277.998 398.086 277.76 398.179C277.534 398.271 277.375 398.338 277.282 398.377C276.924 398.537 276.599 398.762 276.308 399.054C276.029 399.345 275.797 399.67 275.611 400.028C275.426 400.386 275.287 400.764 275.194 401.162C275.114 401.546 275.108 401.924 275.174 402.296C275.214 402.587 275.313 402.833 275.472 403.032C275.645 403.217 275.844 403.363 276.069 403.469C276.294 403.562 276.533 403.608 276.785 403.608C277.05 403.608 277.302 403.569 277.541 403.489C277.832 403.317 278.204 403.045 278.655 402.674ZM283.168 398.218C282.916 398.072 282.737 397.933 282.631 397.801C282.539 397.655 282.492 397.502 282.492 397.343C282.492 397.118 282.578 396.925 282.751 396.766C282.936 396.607 283.175 396.528 283.467 396.528C283.666 396.528 283.891 396.581 284.143 396.687C284.408 396.793 284.627 396.919 284.799 397.065C285.21 396.733 285.621 396.468 286.032 396.269C286.457 396.07 286.901 395.971 287.365 395.971C287.498 395.971 287.697 396.004 287.962 396.07C288.24 396.137 288.505 396.243 288.757 396.388C289.023 396.521 289.255 396.7 289.453 396.925C289.652 397.138 289.752 397.39 289.752 397.681C289.752 397.92 289.659 398.119 289.473 398.278C289.301 398.424 289.089 398.497 288.837 398.497C288.651 398.497 288.499 398.457 288.379 398.377C288.26 398.298 288.141 398.205 288.021 398.099C287.929 398.006 287.816 397.92 287.683 397.84C287.564 397.748 287.451 397.701 287.345 397.701C287.199 397.701 287.027 397.754 286.828 397.86C286.629 397.966 286.43 398.092 286.231 398.238C286.032 398.384 285.834 398.55 285.635 398.735C285.449 398.908 285.29 399.06 285.157 399.193V404.404C285.144 404.735 285.031 404.981 284.819 405.14C284.62 405.299 284.408 405.379 284.183 405.379C283.944 405.379 283.732 405.299 283.546 405.14C283.361 404.994 283.248 404.769 283.208 404.464V398.238L283.168 398.218ZM291.916 398.139C291.585 398.086 291.333 397.98 291.16 397.821C291.001 397.661 290.922 397.476 290.922 397.264C290.922 397.051 291.008 396.853 291.18 396.667C291.366 396.481 291.638 396.388 291.996 396.388H292.911V393.345C292.977 393.067 293.096 392.861 293.269 392.729C293.454 392.583 293.66 392.51 293.885 392.51C294.097 392.51 294.296 392.576 294.482 392.709C294.668 392.828 294.794 393.021 294.86 393.286V396.388H296.61C296.902 396.468 297.114 396.587 297.247 396.746C297.392 396.906 297.465 397.078 297.465 397.264C297.465 397.688 297.16 397.98 296.55 398.139H294.86V401.798C294.86 402.209 294.86 402.621 294.86 403.032C294.873 403.443 294.88 403.854 294.88 404.265C294.88 404.596 294.774 404.842 294.562 405.001C294.349 405.16 294.131 405.239 293.905 405.239C293.68 405.239 293.468 405.166 293.269 405.021C293.083 404.875 292.97 404.649 292.931 404.344C292.931 403.84 292.924 403.323 292.911 402.793C292.911 402.249 292.911 401.712 292.911 401.182V398.139H291.916Z" fill="black"/>
<rect x="244.674" y="369.917" width="34.7725" height="59.4459" rx="6" transform="rotate(-26 244.674 369.917)" fill="black" stroke="black" stroke-width="4"/>
<rect x="254.581" y="366.649" width="2" height="2" rx="1" transform="rotate(-26 254.581 366.649)" fill="white"/>
<rect x="258.176" y="364.896" width="12" height="2" rx="1" transform="rotate(-26 258.176 364.896)" fill="white"/>
<rect x="248.258" y="373.788" width="31.7229" height="52.8716" rx="4" transform="rotate(-26 248.258 373.788)" fill="white"/>
<path d="M459.501 382.442C544.277 382.443 613.001 451.167 613.001 535.942C613.001 620.718 544.277 689.442 459.501 689.442C374.725 689.442 306 620.718 306 535.942C306 451.167 374.725 382.442 459.501 382.442Z" fill="white" stroke="black" stroke-width="6"/>
<path d="M273.81 411.844C293.444 372.479 358.452 445.318 358.452 445.318L329.93 469.571C329.93 469.571 254.176 451.209 273.81 411.844Z" fill="white"/>
<path d="M358.452 445.318C358.452 445.318 293.444 372.479 273.81 411.844C254.176 451.209 329.93 469.571 329.93 469.571" stroke="black" stroke-width="6" stroke-linecap="round"/>
<path d="M460.204 433.455C437.591 430.179 433.302 401.49 433.302 401.49C433.302 401.49 421.996 413.185 398.604 413.185C365.075 413.185 354.444 397.3 359.226 382.779C365.388 364.068 396.654 369.135 396.654 369.135C396.654 369.135 402.245 354.903 409.91 350.034C419.067 344.217 437.591 347.695 437.591 347.695C437.591 347.695 455.525 301.948 494.902 312.612C523.363 320.319 513.616 355.102 513.616 355.102C513.616 355.102 573.274 369.915 558.452 404.999C539.348 450.217 499.971 410.846 499.971 410.846C499.971 410.846 494.902 438.482 460.204 433.455Z" fill="black" stroke="black" stroke-width="6"/>
<path d="M370.548 394.231C370.548 383.835 380.052 376.026 390.224 376.888" stroke="white" stroke-width="6" stroke-linecap="round"/>
<path d="M405.831 373.653C405.831 362.748 420.826 353.153 431.887 354.651" stroke="white" stroke-width="6" stroke-linecap="round"/>
<path d="M448.083 352.95C448.083 338.994 462.259 323.955 476.484 323.886" stroke="white" stroke-width="6" stroke-linecap="round"/>
</g>
<rect x="3" y="3" width="494" height="544" rx="5" stroke="black" stroke-width="6"/>
<defs>
<clipPath id="clip0_409_1062">
<rect width="500" height="550" rx="8" fill="white"/>
</clipPath>
</defs>
</svg>
