<svg width="1044" height="562" viewBox="0 0 1044 562" fill="none" xmlns="http://www.w3.org/2000/svg">
<g clip-path="url(#clip0_413_1560)">
<rect x="6" y="6" width="1032" height="550" rx="8" fill="#FDE64B"/>
<rect x="6" y="484" width="1032" height="72" fill="#030303"/>
<path d="M310.705 44.1392C310.811 43.7503 310.988 43.379 311.235 43.0254C311.483 42.6365 311.766 42.3006 312.084 42.0177C312.438 41.7348 312.809 41.5403 313.198 41.4343C313.622 41.2928 314.046 41.2928 314.471 41.4343C315.779 40.9039 317.105 40.4619 318.449 40.1083C319.828 39.7547 321.189 39.5602 322.533 39.5249C323.912 39.4541 325.255 39.5779 326.564 39.8961C327.907 40.179 329.198 40.7271 330.435 41.5403C331.425 42.1768 332.292 42.9724 333.034 43.9271C333.812 44.8818 334.449 45.8895 334.944 46.9503C335.792 48.8597 336.181 50.7691 336.11 52.6785C336.04 54.5525 335.598 56.3028 334.785 57.9293C333.971 59.5558 332.822 60.9878 331.337 62.2254C329.887 63.463 328.172 64.3646 326.192 64.9304C324.707 65.3547 323.187 65.5669 321.631 65.5669C320.11 65.5315 318.608 65.4254 317.123 65.2486V70.3934C317.123 70.7823 317.14 71.189 317.176 71.6133C317.211 72.0376 317.211 72.4619 317.176 72.8862C317.176 73.3105 317.123 73.7171 317.017 74.1061C316.946 74.5304 316.787 74.9193 316.539 75.2729C316.115 75.9801 315.567 76.4044 314.895 76.5459C314.223 76.7227 313.569 76.6873 312.933 76.4398C312.331 76.2276 311.801 75.8387 311.341 75.2729C310.917 74.7425 310.705 74.0884 310.705 73.3105V63.7635C310.033 63.4099 309.538 62.968 309.22 62.4376C308.902 61.9072 308.76 61.3768 308.796 60.8464C308.831 60.2807 309.008 59.7503 309.326 59.2552C309.644 58.7602 310.086 58.3536 310.652 58.0354V44.4575L310.705 44.1392ZM326.139 46.4729C324.654 45.8718 323.134 45.695 321.578 45.9425C320.057 46.1901 318.572 46.6497 317.123 47.3215V58.884C318.785 59.1669 320.482 59.2376 322.214 59.0961C323.947 58.9547 325.538 58.4243 326.988 57.505C328.013 56.8331 328.72 55.9845 329.109 54.9591C329.498 53.9337 329.64 52.8906 329.534 51.8298C329.428 50.7691 329.074 49.7613 328.473 48.8066C327.872 47.8166 327.094 47.0387 326.139 46.4729ZM337.141 61.3238C337.389 60.2983 337.725 59.2906 338.149 58.3006C338.609 57.3105 339.157 56.3735 339.793 55.4895C340.43 54.5702 341.137 53.7392 341.915 52.9967C342.728 52.2541 343.594 51.653 344.514 51.1934C346.14 50.3448 347.767 49.9204 349.393 49.9204C351.055 49.8851 352.593 50.2033 354.008 50.8751C355.422 51.547 356.624 52.5547 357.614 53.8983C358.604 55.2066 359.258 56.7801 359.577 58.6188C359.753 59.821 359.842 60.9702 359.842 62.0663C359.877 63.1271 359.771 64.2409 359.524 65.4077C359.17 67.0696 358.445 68.7315 357.349 70.3934C356.288 72.0199 354.998 73.3812 353.477 74.4773C351.992 75.6088 350.348 76.3514 348.545 76.705C346.777 77.0586 344.991 76.7757 343.188 75.8564C342.374 75.4674 341.632 75.0077 340.96 74.4773C340.324 73.9823 339.74 73.3812 339.21 72.674C338.609 71.8961 338.131 71.0829 337.778 70.2343C337.46 69.3856 337.194 68.5017 336.982 67.5823C336.735 66.5923 336.646 65.6022 336.717 64.6122C336.788 63.5867 336.911 62.5967 337.088 61.642L337.141 61.3238ZM343.506 62.4376C343.4 63.0033 343.311 63.5691 343.241 64.1348C343.17 64.6652 343.17 65.2133 343.241 65.779C343.347 66.5923 343.559 67.3348 343.877 68.0066C344.231 68.6785 344.673 69.2088 345.203 69.5978C345.769 69.9867 346.405 70.1989 347.113 70.2343C347.82 70.2343 348.58 70.0044 349.393 69.5448C350.419 68.9436 351.303 68.0243 352.045 66.7867C352.788 65.5138 353.247 64.2055 353.424 62.8619C353.601 61.4829 353.46 60.1923 353 58.9901C352.54 57.7525 351.639 56.8685 350.295 56.3381C349.411 56.3381 348.598 56.5149 347.855 56.8685C347.113 57.1867 346.458 57.6287 345.893 58.1945C345.362 58.7249 344.885 59.3613 344.461 60.1039C344.072 60.8464 343.753 61.6243 343.506 62.4376ZM390.945 51.0873C391.476 50.3801 392.077 49.9028 392.749 49.6552C393.456 49.3724 394.11 49.3193 394.711 49.4961C395.312 49.6376 395.825 49.9912 396.249 50.5569C396.674 51.1227 396.904 51.8829 396.939 52.8376C396.974 53.368 396.744 54.3227 396.249 55.7017C395.79 57.0807 395.224 58.884 394.552 61.1116C394.517 61.253 394.446 61.4298 394.34 61.642C394.269 61.8541 394.145 62.2077 393.969 62.7028C393.827 63.1978 393.597 63.8873 393.279 64.7713C392.996 65.6552 392.59 66.8398 392.059 68.3249C391.812 69.0674 391.494 69.9514 391.105 70.9768C390.751 72.0022 390.291 72.9215 389.726 73.7348C389.16 74.5127 388.488 75.0431 387.71 75.326C386.932 75.6442 385.995 75.432 384.899 74.6895C384.545 74.442 384.157 73.947 383.732 73.2044C383.308 72.4265 382.901 71.5956 382.512 70.7116C382.123 69.8276 381.77 68.9967 381.452 68.2188C381.169 67.4055 380.974 66.8751 380.868 66.6276C380.621 66.0619 380.338 65.4431 380.02 64.7713C379.701 64.0641 379.401 63.3569 379.118 62.6497L378.8 63.4453C378.34 64.6122 377.88 65.779 377.421 66.9459C376.961 68.1127 376.501 69.2619 376.042 70.3934C375.794 70.9945 375.564 71.6486 375.352 72.3558C375.14 73.063 374.839 73.6818 374.45 74.2122C374.132 74.6718 373.726 74.9901 373.231 75.1669C372.771 75.379 372.294 75.4674 371.799 75.432C371.304 75.3967 370.826 75.2552 370.366 75.0077C369.942 74.7956 369.571 74.4773 369.253 74.053C368.758 73.3459 368.369 72.5326 368.086 71.6133C367.803 70.6939 367.52 69.8453 367.237 69.0674C366.848 67.9713 366.495 66.8575 366.176 65.726C365.858 64.5591 365.522 63.4453 365.169 62.3845C364.992 61.8188 364.762 61.0762 364.479 60.1569C364.196 59.2376 363.913 58.3006 363.631 57.3459C363.383 56.3558 363.171 55.4011 362.994 54.4818C362.853 53.5624 362.8 52.8022 362.835 52.2011C362.87 51.6 363.065 51.0696 363.418 50.6099C363.807 50.1149 364.267 49.7613 364.797 49.5492C365.328 49.3017 365.876 49.2133 366.442 49.284C367.043 49.3547 367.573 49.6199 368.033 50.0796C368.705 50.7867 369.111 51.547 369.253 52.3602C369.394 53.1381 369.553 53.9867 369.73 54.9061C370.013 56.3204 370.331 57.7171 370.685 59.0961C371.074 60.4751 371.48 61.8541 371.905 63.2331C372.046 62.9149 372.205 62.526 372.382 62.0663C372.559 61.6066 372.842 60.9171 373.231 59.9978C373.549 59.2199 373.849 58.4597 374.132 57.7171C374.45 56.9746 374.751 56.232 375.034 55.4895C375.246 54.9591 375.458 54.4464 375.67 53.9514C375.883 53.421 376.095 52.9083 376.307 52.4133C376.554 51.8829 376.908 51.4586 377.368 51.1403C377.863 50.7867 378.393 50.5746 378.959 50.5039C379.524 50.3978 380.073 50.4508 380.603 50.663C381.133 50.8398 381.558 51.1934 381.876 51.7238C382.336 52.4309 382.689 53.2265 382.937 54.1105C383.184 54.9591 383.449 55.7724 383.732 56.5503C384.227 57.8232 384.705 59.1138 385.164 60.4221C385.659 61.695 386.172 62.9503 386.702 64.1878C387.48 62.0663 388.17 59.9448 388.771 57.8232C389.372 55.6663 390.026 53.5271 390.733 51.4055L390.945 51.0873ZM418.456 66.8928C419.304 66.6807 420.047 66.6807 420.683 66.8928C421.355 67.0696 421.868 67.3878 422.221 67.8475C422.575 68.3072 422.734 68.8729 422.699 69.5448C422.663 70.2166 422.363 70.9238 421.797 71.6663C421.337 72.2674 420.701 72.7801 419.888 73.2044C419.074 73.6287 418.314 73.9646 417.607 74.2122C415.874 74.8486 414.23 75.2906 412.674 75.5381C411.119 75.7856 409.651 75.7856 408.272 75.5381C406.929 75.2906 405.656 74.7779 404.453 74C403.287 73.2221 402.19 72.126 401.165 70.7116C400.458 69.7569 399.927 68.6785 399.574 67.4762C399.256 66.2387 399.079 64.9834 399.043 63.7105C399.008 62.4376 399.114 61.1823 399.362 59.9448C399.609 58.7072 399.963 57.5934 400.422 56.6033C401.024 55.3657 401.978 54.2343 403.287 53.2088C404.595 52.1834 406.045 51.3702 407.636 50.7691C409.227 50.168 410.853 49.832 412.515 49.7613C414.177 49.6553 415.645 49.9028 416.917 50.5039C417.978 50.9989 418.88 51.7238 419.622 52.6785C420.4 53.5978 420.931 54.6055 421.214 55.7017C421.496 56.7978 421.514 57.9116 421.267 59.0431C421.054 60.1392 420.489 61.147 419.569 62.0663C418.685 62.9503 417.713 63.6751 416.652 64.2409C415.591 64.7713 414.495 65.2486 413.364 65.6729C412.232 66.0619 411.066 66.3978 409.863 66.6807C408.696 66.9635 407.565 67.2818 406.469 67.6354C407.211 68.484 408.06 69.032 409.015 69.2796C409.969 69.4917 410.959 69.5271 411.985 69.3856C413.046 69.2442 414.106 68.9613 415.167 68.537C416.228 68.0773 417.218 67.5823 418.137 67.0519L418.456 66.8928ZM407.742 57.7702C406.929 58.2298 406.327 58.8133 405.938 59.5204C405.549 60.1923 405.267 61.147 405.09 62.3845C406.009 62.1017 407.035 61.8011 408.166 61.4829C409.333 61.1646 410.429 60.8287 411.454 60.4751C412.48 60.1215 413.346 59.7326 414.053 59.3083C414.761 58.884 415.114 58.4243 415.114 57.9293C415.114 57.6464 415.061 57.3812 414.955 57.1337C414.884 56.8508 414.708 56.6564 414.425 56.5503C413.435 56.1967 412.409 56.126 411.348 56.3381C410.288 56.5503 409.404 56.8508 408.696 57.2398L407.742 57.7702ZM428.116 57.7702C428.116 57.9116 428.133 57.8762 428.169 57.6641C428.204 57.4166 428.186 56.9923 428.116 56.3912C427.55 56.0729 427.108 55.6663 426.79 55.1713C426.471 54.6762 426.277 54.1459 426.206 53.5801C426.171 53.0144 426.277 52.484 426.524 51.989C426.807 51.4586 427.249 51.0166 427.85 50.663C428.664 50.2033 429.548 50.1149 430.502 50.3978C431.492 50.6807 432.341 51.105 433.048 51.6707C433.932 50.9989 434.852 50.4332 435.806 49.9735C436.761 49.5138 437.733 49.2133 438.723 49.0718C439.713 48.895 440.721 48.9127 441.747 49.1249C442.772 49.337 443.78 49.779 444.77 50.4508C445.265 50.7691 445.724 51.1757 446.149 51.6707C446.573 52.1304 446.838 52.6608 446.944 53.2619C447.121 54.1459 447.05 54.9238 446.732 55.5956C446.414 56.232 445.972 56.7094 445.406 57.0276C444.841 57.3105 444.204 57.3989 443.497 57.2928C442.79 57.1514 442.118 56.7624 441.481 56.126C441.269 55.9845 441.11 55.8785 441.004 55.8077C440.933 55.7017 440.757 55.5779 440.474 55.4365C439.908 55.295 439.342 55.3304 438.776 55.5425C438.246 55.7547 437.716 56.0552 437.185 56.4442C436.69 56.7978 436.213 57.2044 435.753 57.6641C435.329 58.0884 434.94 58.4773 434.586 58.8309V72.3558C434.586 72.8862 434.48 73.3989 434.268 73.8939C433.95 74.7072 433.437 75.2729 432.73 75.5912C432.058 75.9094 431.369 75.9978 430.662 75.8564C429.99 75.7149 429.389 75.3613 428.858 74.7956C428.363 74.2298 428.116 73.505 428.116 72.621V57.7702ZM473.357 75.2729C471.837 75.0961 470.9 74.6011 470.546 73.7878C470.228 72.9392 470.228 72.0199 470.546 71.0298V49.4961C469.98 49.4961 469.468 49.3547 469.008 49.0718C468.584 48.7536 468.23 48.3646 467.947 47.905C467.7 47.4453 467.576 46.9503 467.576 46.4199C467.576 45.8541 467.735 45.3414 468.053 44.8818C468.76 43.821 469.662 42.9901 470.758 42.389C471.89 41.7878 473.057 41.2928 474.259 40.9039C476.133 40.3028 478.007 39.9669 479.881 39.8961C481.79 39.8254 483.664 40.2144 485.503 41.063C487.165 41.8409 488.473 42.8486 489.428 44.0862C490.383 45.3238 490.984 46.6497 491.231 48.0641C491.479 49.4431 491.355 50.8751 490.86 52.3602C490.365 53.8099 489.481 55.1713 488.208 56.4442C489.87 57.505 491.054 58.7779 491.762 60.263C492.469 61.7127 492.752 63.2155 492.61 64.7713C492.504 66.3271 492.009 67.8298 491.125 69.2796C490.277 70.7293 489.11 71.9845 487.625 73.0453C486.741 73.6818 485.698 74.1591 484.495 74.4773C483.328 74.8309 482.109 75.0785 480.836 75.2199C479.598 75.3613 478.36 75.432 477.123 75.432C475.885 75.432 474.754 75.3967 473.728 75.326L473.357 75.2729ZM484.654 61.8011C484.018 61.3768 483.399 61.0586 482.798 60.8464C482.197 60.6343 481.578 60.4928 480.942 60.4221C480.341 60.3514 479.722 60.3337 479.085 60.3691C478.449 60.4044 477.759 60.4398 477.017 60.4751V68.9613C477.795 68.9613 478.626 68.9436 479.51 68.9083C480.394 68.8376 481.242 68.6961 482.056 68.484C482.869 68.2365 483.629 67.9006 484.336 67.4762C485.043 67.0519 485.609 66.4685 486.033 65.726C486.14 64.8773 486.122 64.1525 485.98 63.5514C485.839 62.9149 485.397 62.3315 484.654 61.8011ZM477.017 53.6332C477.653 53.6332 478.29 53.6332 478.926 53.6332C479.563 53.6332 480.181 53.5801 480.783 53.474C481.419 53.3326 482.02 53.1204 482.586 52.8376C483.187 52.5547 483.717 52.1481 484.177 51.6177C484.849 50.8751 485.079 50.0972 484.867 49.284C484.69 48.4354 484.195 47.7635 483.381 47.2685C482.462 46.6674 481.419 46.3669 480.252 46.3669C479.085 46.3315 478.007 46.4552 477.017 46.7381V53.6332ZM520.115 71.6663C520.398 72.6917 520.345 73.5403 519.956 74.2122C519.567 74.884 519.019 75.326 518.311 75.5381C517.64 75.7856 516.897 75.768 516.084 75.4851C515.271 75.2022 514.563 74.6365 513.962 73.7878C512.972 74.5304 512 75.0431 511.045 75.326C510.126 75.6442 509.065 75.821 507.863 75.8564C506.06 75.9271 504.451 75.7149 503.036 75.2199C501.622 74.7602 500.42 74.053 499.43 73.0983C498.475 72.1436 497.768 70.9591 497.308 69.5448C496.849 68.095 496.689 66.4331 496.831 64.5591C496.902 63.7812 497.025 63.021 497.202 62.2785C497.414 61.5359 497.644 60.8111 497.892 60.1039C498.174 59.326 498.563 58.495 499.058 57.6111C499.589 56.7271 500.119 55.9669 500.65 55.3304C502.559 52.9967 504.946 51.3171 507.81 50.2917C508.305 50.1149 508.977 49.9558 509.825 49.8144C510.674 49.6729 511.523 49.6199 512.371 49.6552C513.255 49.6552 514.086 49.7613 514.864 49.9735C515.677 50.1856 516.278 50.5569 516.667 51.0873C516.986 51.5116 517.215 51.8829 517.357 52.2011C517.498 52.5193 517.569 52.8552 517.569 53.2088C517.604 53.5624 517.604 53.9514 517.569 54.3757C517.569 54.7646 517.569 55.2597 517.569 55.8608C517.569 56.8508 517.551 57.8232 517.516 58.7779C517.516 59.6972 517.534 60.6343 517.569 61.589C517.569 61.9072 517.569 62.3315 517.569 62.8619C517.569 63.3569 517.587 63.8873 517.622 64.453C517.657 65.0188 517.693 65.5669 517.728 66.0972C517.799 66.5923 517.887 66.9989 517.993 67.3171L520.115 71.6663ZM508.871 69.2796C509.26 69.032 509.702 68.7669 510.197 68.484C510.692 68.1657 511.134 67.8122 511.523 67.4232C511.204 65.5492 511.01 63.6751 510.939 61.8011C510.904 59.9271 510.921 58.0354 510.992 56.126C509.401 56.4088 507.969 57.0983 506.696 58.1945C505.423 59.2906 504.539 60.5812 504.044 62.0663C503.832 62.6674 503.655 63.2862 503.514 63.9227C503.372 64.5591 503.319 65.1779 503.355 65.779C503.39 66.5923 503.602 67.2818 503.991 67.8475C504.38 68.3779 504.84 68.7845 505.37 69.0674C505.936 69.3503 506.519 69.5094 507.12 69.5448C507.757 69.5801 508.34 69.4917 508.871 69.2796ZM544.971 72.621C544.865 73.505 544.529 74.2298 543.963 74.7956C543.433 75.3613 542.814 75.7149 542.107 75.8564C541.435 75.9978 540.781 75.9094 540.145 75.5912C539.508 75.2729 539.048 74.6541 538.766 73.7348C538.447 72.7448 538.324 71.7193 538.394 70.6586C538.465 69.5624 538.5 68.5547 538.5 67.6354C538.5 65.726 538.5 63.8343 538.5 61.9602C538.536 60.0508 538.465 58.1414 538.288 56.232C538.253 56.1613 538.217 56.1083 538.182 56.0729C538.147 56.0022 538.076 55.9138 537.97 55.8077C537.157 55.5956 536.29 55.6486 535.371 55.9669C534.452 56.2851 533.674 56.6917 533.037 57.1867C532.472 57.6464 531.906 58.2829 531.34 59.0961C530.81 59.874 530.545 60.6343 530.545 61.3768V68.6961C530.545 69.2619 530.562 69.8807 530.598 70.5525C530.633 71.2243 530.598 71.8785 530.491 72.5149C530.421 73.1514 530.226 73.7348 529.908 74.2652C529.59 74.7956 529.077 75.1845 528.37 75.432C527.981 75.5735 527.61 75.6265 527.256 75.5912C526.938 75.5558 526.584 75.4674 526.195 75.326C525.559 75.1138 525.099 74.7425 524.816 74.2122C524.533 73.7171 524.339 73.1867 524.233 72.621C524.127 72.0199 524.074 71.4541 524.074 70.9238C524.109 70.358 524.127 69.916 524.127 69.5978C524.127 68.7845 524.109 67.6177 524.074 66.0972C524.074 64.5414 524.074 62.9149 524.074 61.2177C524.074 59.5204 524.074 57.9116 524.074 56.3912C524.074 54.8354 524.074 53.6508 524.074 52.8376C524.074 52.0597 524.304 51.4232 524.763 50.9282C525.223 50.3978 525.753 50.0619 526.354 49.9204C526.991 49.7436 527.645 49.779 528.317 50.0265C529.024 50.2387 529.608 50.6983 530.067 51.4055C531.482 50.4862 533.037 49.8674 534.735 49.5492C536.432 49.2309 538.023 49.284 539.508 49.7083C541.029 50.1326 542.284 50.9282 543.274 52.095C544.299 53.2619 544.83 54.8707 544.865 56.9215C544.865 56.9923 544.883 57.2044 544.918 57.558C544.953 57.9116 544.971 58.4066 544.971 59.0431V72.621ZM556.41 72.3028C556.197 73.4696 555.738 74.3006 555.031 74.7956C554.323 75.326 553.581 75.5735 552.803 75.5381C552.06 75.5028 551.389 75.1845 550.788 74.5834C550.222 74.0177 549.939 73.2221 549.939 72.1967V41.9646C549.939 41.4343 550.08 40.9569 550.363 40.5326C550.681 40.0729 551.07 39.7017 551.53 39.4188C551.99 39.1359 552.485 38.9591 553.015 38.8884C553.581 38.7823 554.094 38.8 554.553 38.9414C555.013 39.0475 555.402 39.3127 555.72 39.737C556.074 40.126 556.268 40.674 556.304 41.3812C556.41 44.1392 556.463 46.6144 556.463 48.8066C556.463 50.9989 556.445 53.2088 556.41 55.4365C557.223 54.8354 557.983 54.2166 558.69 53.5801C559.433 52.9083 560.158 52.2188 560.865 51.5116C561.501 50.8398 562.12 50.0972 562.721 49.284C563.322 48.4354 564.083 47.8519 565.002 47.5337C565.674 47.3215 566.293 47.2862 566.858 47.4276C567.459 47.5691 567.954 47.8519 568.343 48.2762C568.768 48.6652 569.051 49.1602 569.192 49.7613C569.333 50.3271 569.298 50.9459 569.086 51.6177C568.909 52.1127 568.502 52.7315 567.866 53.474C567.265 54.2166 566.575 54.9768 565.797 55.7547C565.055 56.5326 564.312 57.2575 563.57 57.9293C562.827 58.5657 562.226 59.0608 561.767 59.4144C563.004 60.758 564.224 62.1193 565.426 63.4983C566.628 64.8773 567.848 66.2564 569.086 67.6354C569.616 68.2365 570.111 68.7845 570.571 69.2796C571.066 69.7392 571.49 70.305 571.844 70.9768C572.127 71.5425 572.215 72.126 572.109 72.7271C572.003 73.3282 571.755 73.8409 571.367 74.2652C571.013 74.7249 570.553 75.0608 569.988 75.2729C569.457 75.4851 568.874 75.5028 568.237 75.326C567.636 75.1492 567.053 74.8133 566.487 74.3182C565.921 73.8586 565.373 73.3459 564.843 72.7801C564.348 72.2144 563.87 71.6309 563.411 71.0298C562.951 70.4287 562.527 69.916 562.138 69.4917C561.183 68.3956 560.228 67.3171 559.274 66.2564C558.354 65.1602 557.4 64.0994 556.41 63.074V72.3028ZM602.569 72.674C602.463 73.558 602.092 74.2829 601.455 74.8486C600.819 75.4144 600.129 75.768 599.387 75.9094C598.644 76.0862 597.955 76.0155 597.318 75.6972C596.717 75.379 596.399 74.7425 596.364 73.7878C596.187 69.7215 596.098 65.5138 596.098 61.1646C596.098 56.7801 596.098 52.4309 596.098 48.1171C595.533 47.905 595.108 47.5867 594.826 47.1624C594.543 46.7381 594.366 46.2785 594.295 45.7834C594.26 45.253 594.331 44.7227 594.507 44.1923C594.684 43.6619 594.949 43.2022 595.303 42.8133C595.692 42.389 596.222 42 596.894 41.6464C597.566 41.2928 598.291 40.9746 599.069 40.6917C599.882 40.3735 600.677 40.1083 601.455 39.8961C602.233 39.684 602.887 39.5249 603.418 39.4188C605.645 38.9591 607.891 38.9768 610.154 39.4718C612.417 39.9315 614.397 40.7801 616.094 42.0177C617.827 43.2552 619.117 44.8641 619.966 46.8442C620.814 48.8243 620.903 51.0873 620.231 53.6332C620.019 54.3403 619.754 55.0475 619.435 55.7547C619.117 56.4619 618.746 57.116 618.322 57.7171C617.721 58.6365 617.013 59.4497 616.2 60.1569C615.387 60.8641 614.503 61.5182 613.548 62.1193C614.22 62.8265 614.856 63.5691 615.458 64.347C616.059 65.1249 616.731 65.832 617.473 66.4685C617.756 66.716 618.163 67.105 618.693 67.6354C619.259 68.1657 619.789 68.7315 620.284 69.3326C620.814 69.9337 621.274 70.5348 621.663 71.1359C622.052 71.7017 622.229 72.179 622.193 72.568C622.158 73.2398 621.964 73.8409 621.61 74.3713C621.292 74.937 620.885 75.3613 620.39 75.6442C619.931 75.9624 619.418 76.1215 618.852 76.1215C618.286 76.1215 617.721 75.9271 617.155 75.5381C616.518 75.0431 615.917 74.4597 615.352 73.7878C614.786 73.116 614.238 72.4972 613.707 71.9315C612.54 70.6586 611.391 69.3856 610.26 68.1127C609.164 66.8044 608.032 65.5315 606.865 64.2939C606.158 64.4354 605.433 64.5414 604.691 64.6122C603.984 64.6475 603.276 64.7006 602.569 64.7713V72.3028V72.674ZM612.063 47.0033C610.649 46.1547 609.093 45.6773 607.396 45.5713C605.734 45.4652 604.125 45.695 602.569 46.2608V58.2475C604.16 58.1414 605.716 57.947 607.237 57.6641C608.792 57.3459 610.224 56.674 611.533 55.6486C612.24 55.0829 612.806 54.4287 613.23 53.6862C613.69 52.9083 613.955 52.1304 614.026 51.3525C614.132 50.5392 614.026 49.7613 613.707 49.0188C613.424 48.2409 612.876 47.5691 612.063 47.0033ZM645.799 66.8928C646.648 66.6807 647.39 66.6807 648.027 66.8928C648.699 67.0696 649.211 67.3878 649.565 67.8475C649.919 68.3072 650.078 68.8729 650.042 69.5448C650.007 70.2166 649.707 70.9238 649.141 71.6663C648.681 72.2674 648.045 72.7801 647.231 73.2044C646.418 73.6287 645.658 73.9646 644.951 74.2122C643.218 74.8486 641.574 75.2906 640.018 75.5381C638.462 75.7856 636.995 75.7856 635.616 75.5381C634.272 75.2906 632.999 74.7779 631.797 74C630.63 73.2221 629.534 72.126 628.509 70.7116C627.802 69.7569 627.271 68.6785 626.918 67.4762C626.599 66.2387 626.423 64.9834 626.387 63.7105C626.352 62.4376 626.458 61.1823 626.705 59.9448C626.953 58.7072 627.307 57.5934 627.766 56.6033C628.367 55.3657 629.322 54.2343 630.63 53.2088C631.939 52.1834 633.388 51.3702 634.979 50.7691C636.571 50.168 638.197 49.832 639.859 49.7613C641.521 49.6553 642.988 49.9028 644.261 50.5039C645.322 50.9989 646.224 51.7238 646.966 52.6785C647.744 53.5978 648.274 54.6055 648.557 55.7017C648.84 56.7978 648.858 57.9116 648.61 59.0431C648.398 60.1392 647.832 61.147 646.913 62.0663C646.029 62.9503 645.057 63.6751 643.996 64.2409C642.935 64.7713 641.839 65.2486 640.708 65.6729C639.576 66.0619 638.409 66.3978 637.207 66.6807C636.04 66.9635 634.909 67.2818 633.813 67.6354C634.555 68.484 635.404 69.032 636.358 69.2796C637.313 69.4917 638.303 69.5271 639.329 69.3856C640.389 69.2442 641.45 68.9613 642.511 68.537C643.572 68.0773 644.562 67.5823 645.481 67.0519L645.799 66.8928ZM635.086 57.7702C634.272 58.2298 633.671 58.8133 633.282 59.5204C632.893 60.1923 632.61 61.147 632.434 62.3845C633.353 62.1017 634.378 61.8011 635.51 61.4829C636.677 61.1646 637.773 60.8287 638.798 60.4751C639.824 60.1215 640.69 59.7326 641.397 59.3083C642.104 58.884 642.458 58.4243 642.458 57.9293C642.458 57.6464 642.405 57.3812 642.299 57.1337C642.228 56.8508 642.051 56.6564 641.768 56.5503C640.778 56.1967 639.753 56.126 638.692 56.3381C637.631 56.5503 636.747 56.8508 636.04 57.2398L635.086 57.7702ZM674.112 72.621C674.006 73.505 673.67 74.2298 673.104 74.7956C672.574 75.3613 671.955 75.7149 671.248 75.8564C670.576 75.9978 669.922 75.9094 669.285 75.5912C668.649 75.2729 668.189 74.6541 667.906 73.7348C667.588 72.7448 667.464 71.7193 667.535 70.6586C667.606 69.5624 667.641 68.5547 667.641 67.6354C667.641 65.726 667.641 63.8343 667.641 61.9602C667.676 60.0508 667.606 58.1414 667.429 56.232C667.393 56.1613 667.358 56.1083 667.323 56.0729C667.287 56.0022 667.217 55.9138 667.111 55.8077C666.297 55.5956 665.431 55.6486 664.512 55.9669C663.592 56.2851 662.814 56.6917 662.178 57.1867C661.612 57.6464 661.046 58.2829 660.481 59.0961C659.95 59.874 659.685 60.6343 659.685 61.3768V68.6961C659.685 69.2619 659.703 69.8807 659.738 70.5525C659.774 71.2243 659.738 71.8785 659.632 72.5149C659.561 73.1514 659.367 73.7348 659.049 74.2652C658.73 74.7956 658.218 75.1845 657.511 75.432C657.122 75.5735 656.75 75.6265 656.397 75.5912C656.079 75.5558 655.725 75.4674 655.336 75.326C654.7 75.1138 654.24 74.7425 653.957 74.2122C653.674 73.7171 653.48 73.1867 653.374 72.621C653.267 72.0199 653.214 71.4541 653.214 70.9238C653.25 70.358 653.267 69.916 653.267 69.5978C653.267 68.7845 653.25 67.6177 653.214 66.0972C653.214 64.5414 653.214 62.9149 653.214 61.2177C653.214 59.5204 653.214 57.9116 653.214 56.3912C653.214 54.8354 653.214 53.6508 653.214 52.8376C653.214 52.0597 653.444 51.4232 653.904 50.9282C654.364 50.3978 654.894 50.0619 655.495 49.9204C656.132 49.7436 656.786 49.779 657.458 50.0265C658.165 50.2387 658.748 50.6983 659.208 51.4055C660.622 50.4862 662.178 49.8674 663.875 49.5492C665.572 49.2309 667.164 49.284 668.649 49.7083C670.169 50.1326 671.424 50.9282 672.414 52.095C673.44 53.2619 673.97 54.8707 674.006 56.9215C674.006 56.9923 674.023 57.2044 674.059 57.558C674.094 57.9116 674.112 58.4066 674.112 59.0431V72.621ZM680.693 56.3381C679.986 56.1613 679.367 55.8608 678.836 55.4365C678.341 55.0122 677.988 54.5171 677.776 53.9514C677.599 53.3856 677.599 52.8022 677.776 52.2011C677.988 51.6 678.43 51.0519 679.102 50.5569C679.667 50.1326 680.304 49.9204 681.011 49.9204C681.718 49.9204 682.408 49.9204 683.08 49.9204C683.08 49.6729 683.062 49.1425 683.026 48.3293C682.991 47.4807 682.973 46.5613 682.973 45.5713C683.009 44.5812 683.08 43.6442 683.186 42.7602C683.292 41.8409 683.486 41.2044 683.769 40.8508C684.476 39.8608 685.342 39.4011 686.368 39.4718C687.429 39.5072 688.295 40.0022 688.967 40.9569C689.108 41.1337 689.232 41.3459 689.338 41.5934C689.48 41.8409 689.55 42.0707 689.55 42.2829C689.586 43.5558 689.586 44.8287 689.55 46.1017C689.55 47.3746 689.55 48.6475 689.55 49.9204H693.74C694.377 49.9204 694.925 50.1326 695.384 50.5569C695.844 50.9812 696.162 51.4762 696.339 52.042C696.551 52.6077 696.604 53.1912 696.498 53.7923C696.428 54.3934 696.162 54.8884 695.703 55.2773C694.889 55.9492 693.935 56.3028 692.839 56.3381C691.778 56.3735 690.682 56.3912 689.55 56.3912C689.55 58.3359 689.533 60.2807 689.497 62.2254C689.497 64.1702 689.515 66.1149 689.55 68.0597C689.55 68.9083 689.586 69.7746 689.656 70.6586C689.762 71.5425 689.709 72.3912 689.497 73.2044C689.32 73.8409 689.02 74.3359 688.596 74.6895C688.171 75.0785 687.694 75.3083 687.163 75.379C686.633 75.4851 686.085 75.4497 685.519 75.2729C684.954 75.1315 684.423 74.8486 683.928 74.4243C683.681 74.1768 683.486 73.7525 683.345 73.1514C683.239 72.5503 683.168 71.9138 683.133 71.242C683.097 70.4641 683.097 69.6331 683.133 68.7492C683.133 68.042 683.133 67.1227 683.133 65.9912C683.133 64.8597 683.115 63.6928 683.08 62.4906C683.08 61.253 683.08 60.0862 683.08 58.9901C683.08 57.8939 683.08 57.0276 683.08 56.3912L680.693 56.3381ZM719.005 71.6663C719.288 72.6917 719.235 73.5403 718.846 74.2122C718.457 74.884 717.909 75.326 717.202 75.5381C716.53 75.7856 715.788 75.768 714.974 75.4851C714.161 75.2022 713.454 74.6365 712.853 73.7878C711.863 74.5304 710.891 75.0431 709.936 75.326C709.016 75.6442 707.956 75.821 706.754 75.8564C704.95 75.9271 703.341 75.7149 701.927 75.2199C700.513 74.7602 699.31 74.053 698.32 73.0983C697.366 72.1436 696.658 70.9591 696.199 69.5448C695.739 68.095 695.58 66.4331 695.721 64.5591C695.792 63.7812 695.916 63.021 696.093 62.2785C696.305 61.5359 696.535 60.8111 696.782 60.1039C697.065 59.326 697.454 58.495 697.949 57.6111C698.479 56.7271 699.01 55.9669 699.54 55.3304C701.45 52.9967 703.836 51.3171 706.7 50.2917C707.195 50.1149 707.867 49.9558 708.716 49.8144C709.565 49.6729 710.413 49.6199 711.262 49.6552C712.146 49.6552 712.977 49.7613 713.755 49.9735C714.568 50.1856 715.169 50.5569 715.558 51.0873C715.876 51.5116 716.106 51.8829 716.247 52.2011C716.389 52.5193 716.46 52.8552 716.46 53.2088C716.495 53.5624 716.495 53.9514 716.46 54.3757C716.46 54.7646 716.46 55.2597 716.46 55.8608C716.46 56.8508 716.442 57.8232 716.407 58.7779C716.407 59.6972 716.424 60.6343 716.46 61.589C716.46 61.9072 716.46 62.3315 716.46 62.8619C716.46 63.3569 716.477 63.8873 716.513 64.453C716.548 65.0188 716.583 65.5669 716.619 66.0972C716.689 66.5923 716.778 66.9989 716.884 67.3171L719.005 71.6663ZM707.761 69.2796C708.15 69.032 708.592 68.7669 709.087 68.484C709.582 68.1657 710.024 67.8122 710.413 67.4232C710.095 65.5492 709.9 63.6751 709.83 61.8011C709.794 59.9271 709.812 58.0354 709.883 56.126C708.292 56.4088 706.86 57.0983 705.587 58.1945C704.314 59.2906 703.43 60.5812 702.935 62.0663C702.723 62.6674 702.546 63.2862 702.404 63.9227C702.263 64.5591 702.21 65.1779 702.245 65.779C702.281 66.5923 702.493 67.2818 702.882 67.8475C703.271 68.3779 703.73 68.7845 704.261 69.0674C704.826 69.3503 705.41 69.5094 706.011 69.5448C706.647 69.5801 707.231 69.4917 707.761 69.2796ZM730.174 70.7116C730.563 71.0652 730.881 71.5249 731.129 72.0906C731.412 72.621 731.553 73.1691 731.553 73.7348C731.588 74.2652 731.465 74.7602 731.182 75.2199C730.934 75.7149 730.475 76.0862 729.803 76.3337C729.272 76.5105 728.689 76.5459 728.052 76.4398C727.416 76.3337 726.779 76.1215 726.143 75.8033C725.542 75.4851 724.994 75.0961 724.499 74.6365C724.039 74.2122 723.703 73.7348 723.491 73.2044C723.42 73.0276 723.367 72.8331 723.332 72.621C723.297 72.3735 723.279 72.1613 723.279 71.9845V42.5481C723.279 41.7348 723.579 41.0453 724.181 40.4796C724.817 39.9138 725.507 39.5779 726.249 39.4718C726.603 39.4365 726.974 39.4895 727.363 39.6309C727.787 39.7724 728.176 39.9845 728.53 40.2674C728.883 40.5149 729.166 40.8155 729.378 41.1691C729.626 41.5227 729.75 41.8939 729.75 42.2829C729.75 43.2022 729.75 44.4221 729.75 45.9425C729.75 47.463 729.75 49.1249 729.75 50.9282C729.785 52.7315 729.803 54.6055 729.803 56.5503C729.803 58.4597 729.785 60.2983 729.75 62.0663C729.75 63.8343 729.75 65.4608 729.75 66.9459C729.75 68.3956 729.732 69.5624 729.697 70.4464L730.174 70.7116Z" fill="black"/>
<path d="M367 139H677C684.18 139 690 144.82 690 152V487H354V152C354 144.82 359.82 139 367 139Z" fill="white" stroke="black" stroke-width="6"/>
<circle cx="406" cy="178" r="6" fill="#70FF6E" stroke="black" stroke-width="4"/>
<rect x="420" y="170" width="88" height="16" rx="8" fill="#FDE64B" stroke="black" stroke-width="4"/>
<circle cx="542" cy="178" r="6" fill="#70FF6E" stroke="black" stroke-width="4"/>
<rect x="556" y="170" width="88" height="16" rx="8" fill="#FDE64B" stroke="black" stroke-width="4"/>
<circle cx="406" cy="218" r="6" fill="#70FF6E" stroke="black" stroke-width="4"/>
<rect x="420" y="210" width="88" height="16" rx="8" fill="#FDE64B" stroke="black" stroke-width="4"/>
<circle cx="542" cy="218" r="6" fill="#70FF6E" stroke="black" stroke-width="4"/>
<rect x="556" y="210" width="88" height="16" rx="8" fill="#FDE64B" stroke="black" stroke-width="4"/>
<circle cx="406" cy="258" r="6" fill="#70FF6E" stroke="black" stroke-width="4"/>
<rect x="420" y="250" width="88" height="16" rx="8" fill="#FDE64B" stroke="black" stroke-width="4"/>
<circle cx="542" cy="258" r="6" fill="#70FF6E" stroke="black" stroke-width="4"/>
<rect x="556" y="250" width="88" height="16" rx="8" fill="#FDE64B" stroke="black" stroke-width="4"/>
<circle cx="406" cy="298" r="6" fill="#70FF6E" stroke="black" stroke-width="4"/>
<rect x="420" y="290" width="88" height="16" rx="8" fill="#FDE64B" stroke="black" stroke-width="4"/>
<circle cx="542" cy="298" r="6" fill="#70FF6E" stroke="black" stroke-width="4"/>
<rect x="556" y="290" width="88" height="16" rx="8" fill="#FDE64B" stroke="black" stroke-width="4"/>
<circle cx="406" cy="338" r="6" fill="#70FF6E" stroke="black" stroke-width="4"/>
<rect x="420" y="330" width="88" height="16" rx="8" fill="#FDE64B" stroke="black" stroke-width="4"/>
<circle cx="542" cy="338" r="6" fill="#70FF6E" stroke="black" stroke-width="4"/>
<rect x="556" y="330" width="88" height="16" rx="8" fill="#FDE64B" stroke="black" stroke-width="4"/>
<circle cx="423" cy="412" r="38" fill="#FAF8E7" stroke="black" stroke-width="4"/>
<path d="M421.261 410.594H430.305L416.067 435L419.959 416.695H412L414.115 403.136H422.848L421.261 410.594Z" fill="#030303"/>
<path d="M435.729 401.779H414.332L415.39 395H439.797L435.729 401.779Z" fill="#030303"/>
<path d="M480.149 391.757C480.326 391.153 480.687 390.851 481.232 390.851C481.35 390.851 481.431 390.858 481.475 390.873C482.035 390.622 482.617 390.424 483.221 390.276C483.825 390.114 484.444 390.033 485.077 390.033C485.505 390.033 485.917 390.077 486.315 390.166C486.713 390.239 487.103 390.387 487.486 390.608V390.586C487.899 390.792 488.267 391.057 488.591 391.381C488.915 391.705 489.195 392.066 489.431 392.464C489.667 392.862 489.843 393.282 489.961 393.724C490.094 394.166 490.16 394.608 490.16 395.05C490.16 395.919 489.924 396.715 489.453 397.436C488.967 398.188 488.363 398.792 487.641 399.249C486.934 399.691 486.101 399.948 485.144 400.022C484.967 400.037 484.783 400.052 484.591 400.066C484.414 400.066 484.245 400.066 484.083 400.066C483.773 400.066 483.471 400.059 483.177 400.044C482.882 400.015 482.602 399.985 482.337 399.956C482.337 400.516 482.337 401.127 482.337 401.79C482.337 402.453 482.344 403.05 482.359 403.58C482.344 403.963 482.219 404.243 481.983 404.42C481.762 404.597 481.519 404.685 481.254 404.685C481.004 404.685 480.768 404.597 480.547 404.42C480.341 404.258 480.215 404.007 480.171 403.669V399.47L480.127 399.448C479.641 399.168 479.398 398.836 479.398 398.453C479.398 398.276 479.457 398.107 479.575 397.945C479.692 397.783 479.884 397.665 480.149 397.591V391.757ZM486.448 392.331C486.02 392.096 485.556 391.978 485.055 391.978C484.584 391.978 484.112 392.052 483.641 392.199C483.184 392.331 482.75 392.501 482.337 392.707V397.989C482.897 398.107 483.449 398.166 483.994 398.166C484.569 398.166 485.136 398.085 485.696 397.923C486.271 397.746 486.742 397.466 487.11 397.083C487.405 396.788 487.611 396.457 487.729 396.088C487.862 395.72 487.928 395.344 487.928 394.961C487.928 394.401 487.803 393.893 487.552 393.436C487.317 392.965 486.948 392.597 486.448 392.331ZM499.243 402.961C499.331 403.182 499.346 403.396 499.287 403.602C499.243 403.794 499.14 403.948 498.978 404.066C498.83 404.199 498.639 404.273 498.403 404.287C498.167 404.317 497.917 404.265 497.652 404.133C497.534 404.015 497.416 403.897 497.298 403.779C497.195 403.646 497.107 403.521 497.033 403.403C496.503 403.801 496.002 404.052 495.53 404.155C495.073 404.273 494.573 404.331 494.027 404.331C493.63 404.331 493.239 404.287 492.856 404.199C492.488 404.125 492.112 403.963 491.729 403.713C491.169 403.315 490.771 402.843 490.536 402.298C490.3 401.753 490.182 401.179 490.182 400.575C490.182 399.956 490.27 399.374 490.447 398.829C490.639 398.269 490.897 397.753 491.221 397.282C491.545 396.796 491.913 396.354 492.326 395.956C492.753 395.558 493.21 395.204 493.696 394.895C493.799 394.836 493.939 394.77 494.116 394.696C494.307 394.622 494.521 394.556 494.757 394.497C494.992 394.424 495.235 394.372 495.486 394.343C495.736 394.298 495.98 394.276 496.215 394.276C496.672 394.276 497.077 394.335 497.431 394.453C497.799 394.556 498.064 394.821 498.226 395.249C498.226 395.691 498.226 396.059 498.226 396.354C498.226 396.648 498.219 396.899 498.204 397.105C498.204 397.297 498.204 397.459 498.204 397.591C498.204 397.724 498.204 397.849 498.204 397.967C498.204 398.483 498.219 399.02 498.248 399.58C498.278 400.125 498.329 400.663 498.403 401.193C498.433 401.355 498.499 401.547 498.602 401.768C498.72 401.989 498.838 402.188 498.956 402.365H498.933C499.037 402.527 499.118 402.659 499.177 402.762C499.25 402.866 499.272 402.932 499.243 402.961ZM496.259 401.392C496.142 400.877 496.068 400.346 496.038 399.801C496.009 399.241 495.994 398.689 495.994 398.144C495.994 397.761 496.002 397.414 496.016 397.105C496.031 396.796 496.038 396.494 496.038 396.199C495.788 396.228 495.53 396.295 495.265 396.398C495.014 396.501 494.838 396.575 494.735 396.619C494.337 396.796 493.976 397.046 493.652 397.37C493.342 397.694 493.084 398.055 492.878 398.453C492.672 398.851 492.517 399.271 492.414 399.713C492.326 400.14 492.318 400.56 492.392 400.972C492.436 401.297 492.547 401.569 492.724 401.79C492.915 401.996 493.136 402.158 493.387 402.276C493.637 402.379 493.902 402.431 494.182 402.431C494.477 402.431 494.757 402.387 495.022 402.298C495.346 402.107 495.759 401.805 496.259 401.392ZM508.151 394.586C508.372 394.173 508.711 393.967 509.167 393.967C509.462 393.967 509.705 394.07 509.897 394.276C510.103 394.483 510.206 394.77 510.206 395.138C509.97 396.052 509.676 396.958 509.322 397.856C508.983 398.74 508.6 399.617 508.173 400.486C507.76 401.341 507.318 402.188 506.847 403.028C506.39 403.867 505.926 404.7 505.455 405.525C505.219 405.937 504.983 406.343 504.747 406.74C504.526 407.138 504.298 407.551 504.062 407.978C503.9 408.184 503.724 408.331 503.532 408.42C503.355 408.508 503.186 408.552 503.024 408.552C502.744 408.552 502.508 408.471 502.317 408.309C502.125 408.147 502.029 407.897 502.029 407.558C502.029 407.514 502.029 407.462 502.029 407.403C502.029 407.359 502.037 407.308 502.051 407.249C502.302 406.777 502.56 406.313 502.825 405.856C503.105 405.4 503.37 404.943 503.62 404.486L504.968 402.077C504.379 401.606 503.856 401.127 503.399 400.641C502.943 400.155 502.53 399.646 502.162 399.116C501.808 398.571 501.491 397.989 501.212 397.37C500.946 396.737 500.711 396.052 500.504 395.315C500.504 394.475 500.851 394.055 501.543 394.055C501.779 394.055 501.992 394.122 502.184 394.254C502.39 394.387 502.538 394.6 502.626 394.895C502.921 396.059 503.348 397.061 503.908 397.901C504.468 398.74 505.145 399.514 505.941 400.221C506.412 399.308 506.825 398.409 507.178 397.525C507.532 396.626 507.849 395.646 508.129 394.586H508.151ZM528.344 402.961C528.433 403.182 528.448 403.396 528.389 403.602C528.344 403.794 528.241 403.948 528.079 404.066C527.932 404.199 527.74 404.273 527.505 404.287C527.269 404.317 527.018 404.265 526.753 404.133C526.635 404.015 526.518 403.897 526.4 403.779C526.297 403.646 526.208 403.521 526.134 403.403C525.604 403.801 525.103 404.052 524.632 404.155C524.175 404.273 523.674 404.331 523.129 404.331C522.731 404.331 522.341 404.287 521.958 404.199C521.589 404.125 521.214 403.963 520.831 403.713C520.271 403.315 519.873 402.843 519.637 402.298C519.402 401.753 519.284 401.179 519.284 400.575C519.284 399.956 519.372 399.374 519.549 398.829C519.74 398.269 519.998 397.753 520.322 397.282C520.646 396.796 521.015 396.354 521.427 395.956C521.855 395.558 522.311 395.204 522.797 394.895C522.901 394.836 523.041 394.77 523.217 394.696C523.409 394.622 523.623 394.556 523.858 394.497C524.094 394.424 524.337 394.372 524.588 394.343C524.838 394.298 525.081 394.276 525.317 394.276C525.774 394.276 526.179 394.335 526.532 394.453C526.901 394.556 527.166 394.821 527.328 395.249C527.328 395.691 527.328 396.059 527.328 396.354C527.328 396.648 527.32 396.899 527.306 397.105C527.306 397.297 527.306 397.459 527.306 397.591C527.306 397.724 527.306 397.849 527.306 397.967C527.306 398.483 527.32 399.02 527.35 399.58C527.379 400.125 527.431 400.663 527.505 401.193C527.534 401.355 527.6 401.547 527.704 401.768C527.821 401.989 527.939 402.188 528.057 402.365H528.035C528.138 402.527 528.219 402.659 528.278 402.762C528.352 402.866 528.374 402.932 528.344 402.961ZM525.361 401.392C525.243 400.877 525.169 400.346 525.14 399.801C525.111 399.241 525.096 398.689 525.096 398.144C525.096 397.761 525.103 397.414 525.118 397.105C525.133 396.796 525.14 396.494 525.14 396.199C524.89 396.228 524.632 396.295 524.367 396.398C524.116 396.501 523.939 396.575 523.836 396.619C523.438 396.796 523.077 397.046 522.753 397.37C522.444 397.694 522.186 398.055 521.98 398.453C521.774 398.851 521.619 399.271 521.516 399.713C521.427 400.14 521.42 400.56 521.494 400.972C521.538 401.297 521.648 401.569 521.825 401.79C522.017 401.996 522.238 402.158 522.488 402.276C522.739 402.379 523.004 402.431 523.284 402.431C523.578 402.431 523.858 402.387 524.123 402.298C524.448 402.107 524.86 401.805 525.361 401.392ZM529.821 402.365C529.615 401.937 529.607 401.584 529.799 401.304C530.005 401.009 530.3 400.862 530.683 400.862C530.933 400.862 531.206 400.958 531.5 401.149C531.81 401.562 532.178 401.908 532.605 402.188C533.033 402.468 533.482 402.564 533.953 402.475C534.174 402.431 534.366 402.35 534.528 402.232C534.705 402.099 534.83 401.952 534.904 401.79C534.992 401.628 535.036 401.451 535.036 401.26C535.036 401.068 534.985 400.891 534.882 400.729C534.749 400.523 534.602 400.361 534.44 400.243C534.292 400.125 534.13 400.037 533.953 399.978C533.791 399.919 533.629 399.875 533.467 399.845C533.32 399.816 533.18 399.779 533.047 399.735C532.826 399.676 532.605 399.617 532.384 399.558C532.163 399.484 531.95 399.396 531.743 399.293C531.537 399.19 531.338 399.064 531.147 398.917C530.955 398.755 530.771 398.556 530.594 398.32C530.432 398.099 530.307 397.864 530.219 397.613C530.13 397.348 530.086 397.105 530.086 396.884C530.086 396.575 530.145 396.258 530.263 395.934C530.381 395.61 530.535 395.315 530.727 395.05C530.933 394.77 531.169 394.534 531.434 394.343C531.714 394.136 532.009 393.996 532.318 393.923C532.937 393.761 533.578 393.738 534.241 393.856C534.918 393.974 535.522 394.18 536.053 394.475C536.259 394.622 536.414 394.777 536.517 394.939C536.62 395.101 536.672 395.256 536.672 395.403C536.672 395.58 536.62 395.742 536.517 395.89C536.429 396.022 536.303 396.133 536.141 396.221C535.994 396.309 535.817 396.354 535.611 396.354C535.419 396.354 535.213 396.295 534.992 396.177C534.815 396.088 534.565 396.007 534.241 395.934C533.931 395.845 533.622 395.816 533.312 395.845C533.003 395.86 532.745 395.956 532.539 396.133C532.333 396.309 532.252 396.604 532.296 397.017C532.384 397.179 532.487 397.319 532.605 397.436C532.738 397.54 532.878 397.628 533.025 397.702C533.187 397.775 533.357 397.842 533.533 397.901C533.71 397.945 533.88 397.989 534.042 398.033C534.499 398.166 534.918 398.32 535.301 398.497C535.685 398.659 536.016 398.866 536.296 399.116C536.576 399.366 536.789 399.669 536.937 400.022C537.099 400.376 537.18 400.803 537.18 401.304C537.18 401.702 537.092 402.092 536.915 402.475C536.738 402.843 536.502 403.175 536.208 403.47C535.928 403.764 535.603 404 535.235 404.177C534.867 404.354 534.499 404.442 534.13 404.442C533.305 404.442 532.502 404.258 531.721 403.89C530.94 403.521 530.314 403.013 529.843 402.365H529.821ZM553.717 394.586C553.938 394.173 554.277 393.967 554.734 393.967C555.028 393.967 555.272 394.07 555.463 394.276C555.669 394.483 555.772 394.77 555.772 395.138C555.537 396.052 555.242 396.958 554.888 397.856C554.55 398.74 554.167 399.617 553.739 400.486C553.327 401.341 552.885 402.188 552.413 403.028C551.957 403.867 551.493 404.7 551.021 405.525C550.785 405.937 550.55 406.343 550.314 406.74C550.093 407.138 549.865 407.551 549.629 407.978C549.467 408.184 549.29 408.331 549.098 408.42C548.922 408.508 548.752 408.552 548.59 408.552C548.31 408.552 548.074 408.471 547.883 408.309C547.691 408.147 547.596 407.897 547.596 407.558C547.596 407.514 547.596 407.462 547.596 407.403C547.596 407.359 547.603 407.308 547.618 407.249C547.868 406.777 548.126 406.313 548.391 405.856C548.671 405.4 548.936 404.943 549.187 404.486L550.535 402.077C549.946 401.606 549.423 401.127 548.966 400.641C548.509 400.155 548.097 399.646 547.728 399.116C547.375 398.571 547.058 397.989 546.778 397.37C546.513 396.737 546.277 396.052 546.071 395.315C546.071 394.475 546.417 394.055 547.109 394.055C547.345 394.055 547.559 394.122 547.75 394.254C547.957 394.387 548.104 394.6 548.192 394.895C548.487 396.059 548.914 397.061 549.474 397.901C550.034 398.74 550.712 399.514 551.507 400.221C551.979 399.308 552.391 398.409 552.745 397.525C553.098 396.626 553.415 395.646 553.695 394.586H553.717ZM561.396 394.365C562.015 394.365 562.56 394.497 563.031 394.762C563.517 395.028 563.922 395.381 564.247 395.823C564.585 396.25 564.836 396.744 564.998 397.304C565.175 397.849 565.263 398.409 565.263 398.983C565.263 399.234 565.248 399.47 565.219 399.691C565.189 399.897 565.153 400.11 565.108 400.331C564.946 400.936 564.703 401.503 564.379 402.033C564.07 402.564 563.701 403.028 563.274 403.425C562.847 403.808 562.368 404.11 561.838 404.331C561.322 404.552 560.777 404.663 560.202 404.663C559.598 404.663 559.046 404.53 558.545 404.265C558.059 404 557.646 403.661 557.307 403.249C556.968 402.821 556.703 402.35 556.512 401.834C556.335 401.304 556.247 400.773 556.247 400.243C556.247 399.506 556.379 398.792 556.644 398.099C556.924 397.392 557.293 396.766 557.749 396.221C558.221 395.661 558.766 395.212 559.385 394.873C560.018 394.534 560.689 394.365 561.396 394.365ZM558.545 399.116C558.457 399.455 558.412 399.831 558.412 400.243C558.412 400.656 558.471 401.046 558.589 401.414C558.707 401.768 558.899 402.07 559.164 402.32C559.444 402.571 559.812 402.696 560.269 402.696C560.711 402.696 561.101 402.571 561.44 402.32C561.794 402.055 562.088 401.738 562.324 401.37C562.574 400.987 562.766 400.582 562.899 400.155C563.031 399.713 563.097 399.315 563.097 398.961C563.097 398.637 563.061 398.32 562.987 398.011C562.913 397.687 562.795 397.4 562.633 397.149C562.486 396.899 562.302 396.7 562.081 396.552C561.86 396.39 561.609 396.309 561.329 396.309C560.976 396.309 560.644 396.405 560.335 396.597C560.026 396.773 559.746 397.002 559.495 397.282C559.259 397.547 559.061 397.849 558.899 398.188C558.736 398.512 558.619 398.821 558.545 399.116ZM576.032 402.365C576.224 402.63 576.319 402.873 576.319 403.094C576.319 403.359 576.216 403.58 576.01 403.757C575.818 403.919 575.583 404 575.303 404C574.964 404 574.669 403.875 574.419 403.624C574.183 403.374 573.984 403.079 573.822 402.74C573.454 403.079 573.019 403.374 572.518 403.624C572.017 403.875 571.509 404 570.993 404C570.596 404 570.198 403.934 569.8 403.801C569.417 403.654 569.056 403.462 568.717 403.227C568.393 402.976 568.106 402.689 567.855 402.365C567.62 402.041 567.435 401.694 567.303 401.326C567.185 400.943 567.104 400.523 567.06 400.066C567.03 399.61 567.015 399.131 567.015 398.63C567.015 398.306 567.015 397.989 567.015 397.68C567.015 397.37 567.023 397.068 567.038 396.773C567.052 396.523 567.06 396.28 567.06 396.044C567.074 395.808 567.082 395.587 567.082 395.381C567.155 395.057 567.288 394.821 567.48 394.674C567.686 394.527 567.922 394.453 568.187 394.453C568.408 394.453 568.621 394.527 568.828 394.674C569.049 394.807 569.196 395.02 569.27 395.315C569.27 395.654 569.27 395.985 569.27 396.309C569.27 396.634 569.262 396.958 569.247 397.282C569.233 397.621 569.218 397.952 569.203 398.276C569.203 398.6 569.203 398.947 569.203 399.315C569.203 400.11 569.358 400.759 569.667 401.26C569.977 401.761 570.397 402.011 570.927 402.011C571.354 402.011 571.752 401.849 572.12 401.525C572.489 401.186 572.842 400.803 573.181 400.376C573.093 399.669 573.049 398.947 573.049 398.21C573.049 397.783 573.049 397.348 573.049 396.906C573.063 396.464 573.108 396.066 573.181 395.713C573.27 395.344 573.395 395.05 573.557 394.829C573.734 394.593 573.992 394.475 574.33 394.475C574.596 394.475 574.831 394.564 575.038 394.74C575.259 394.917 575.369 395.182 575.369 395.536C575.369 395.845 575.347 396.199 575.303 396.597C575.273 396.847 575.251 397.112 575.236 397.392C575.222 397.672 575.214 397.959 575.214 398.254C575.214 398.652 575.222 399.057 575.236 399.47C575.266 399.867 575.31 400.25 575.369 400.619C575.443 400.987 575.531 401.326 575.634 401.635C575.737 401.93 575.87 402.173 576.032 402.365ZM594.235 402.365C594.427 402.63 594.522 402.873 594.522 403.094C594.522 403.359 594.419 403.58 594.213 403.757C594.022 403.919 593.786 404 593.506 404C593.167 404 592.872 403.875 592.622 403.624C592.386 403.374 592.187 403.079 592.025 402.74C591.657 403.079 591.222 403.374 590.721 403.624C590.22 403.875 589.712 404 589.196 404C588.799 404 588.401 403.934 588.003 403.801C587.62 403.654 587.259 403.462 586.92 403.227C586.596 402.976 586.309 402.689 586.058 402.365C585.823 402.041 585.638 401.694 585.506 401.326C585.388 400.943 585.307 400.523 585.263 400.066C585.233 399.61 585.219 399.131 585.219 398.63C585.219 398.306 585.219 397.989 585.219 397.68C585.219 397.37 585.226 397.068 585.241 396.773C585.255 396.523 585.263 396.28 585.263 396.044C585.278 395.808 585.285 395.587 585.285 395.381C585.359 395.057 585.491 394.821 585.683 394.674C585.889 394.527 586.125 394.453 586.39 394.453C586.611 394.453 586.824 394.527 587.031 394.674C587.252 394.807 587.399 395.02 587.473 395.315C587.473 395.654 587.473 395.985 587.473 396.309C587.473 396.634 587.465 396.958 587.451 397.282C587.436 397.621 587.421 397.952 587.406 398.276C587.406 398.6 587.406 398.947 587.406 399.315C587.406 400.11 587.561 400.759 587.871 401.26C588.18 401.761 588.6 402.011 589.13 402.011C589.557 402.011 589.955 401.849 590.324 401.525C590.692 401.186 591.045 400.803 591.384 400.376C591.296 399.669 591.252 398.947 591.252 398.21C591.252 397.783 591.252 397.348 591.252 396.906C591.266 396.464 591.311 396.066 591.384 395.713C591.473 395.344 591.598 395.05 591.76 394.829C591.937 394.593 592.195 394.475 592.533 394.475C592.799 394.475 593.034 394.564 593.241 394.74C593.462 394.917 593.572 395.182 593.572 395.536C593.572 395.845 593.55 396.199 593.506 396.597C593.476 396.847 593.454 397.112 593.44 397.392C593.425 397.672 593.417 397.959 593.417 398.254C593.417 398.652 593.425 399.057 593.44 399.47C593.469 399.867 593.513 400.25 593.572 400.619C593.646 400.987 593.734 401.326 593.837 401.635C593.94 401.93 594.073 402.173 594.235 402.365ZM595.954 402.365C595.747 401.937 595.74 401.584 595.932 401.304C596.138 401.009 596.432 400.862 596.815 400.862C597.066 400.862 597.338 400.958 597.633 401.149C597.943 401.562 598.311 401.908 598.738 402.188C599.165 402.468 599.615 402.564 600.086 402.475C600.307 402.431 600.499 402.35 600.661 402.232C600.838 402.099 600.963 401.952 601.036 401.79C601.125 401.628 601.169 401.451 601.169 401.26C601.169 401.068 601.118 400.891 601.014 400.729C600.882 400.523 600.734 400.361 600.572 400.243C600.425 400.125 600.263 400.037 600.086 399.978C599.924 399.919 599.762 399.875 599.6 399.845C599.453 399.816 599.313 399.779 599.18 399.735C598.959 399.676 598.738 399.617 598.517 399.558C598.296 399.484 598.083 399.396 597.876 399.293C597.67 399.19 597.471 399.064 597.28 398.917C597.088 398.755 596.904 398.556 596.727 398.32C596.565 398.099 596.44 397.864 596.351 397.613C596.263 397.348 596.219 397.105 596.219 396.884C596.219 396.575 596.278 396.258 596.396 395.934C596.513 395.61 596.668 395.315 596.86 395.05C597.066 394.77 597.302 394.534 597.567 394.343C597.847 394.136 598.141 393.996 598.451 393.923C599.07 393.761 599.711 393.738 600.373 393.856C601.051 393.974 601.655 394.18 602.186 394.475C602.392 394.622 602.547 394.777 602.65 394.939C602.753 395.101 602.804 395.256 602.804 395.403C602.804 395.58 602.753 395.742 602.65 395.89C602.561 396.022 602.436 396.133 602.274 396.221C602.127 396.309 601.95 396.354 601.744 396.354C601.552 396.354 601.346 396.295 601.125 396.177C600.948 396.088 600.698 396.007 600.373 395.934C600.064 395.845 599.755 395.816 599.445 395.845C599.136 395.86 598.878 395.956 598.672 396.133C598.466 396.309 598.385 396.604 598.429 397.017C598.517 397.179 598.62 397.319 598.738 397.436C598.871 397.54 599.011 397.628 599.158 397.702C599.32 397.775 599.49 397.842 599.666 397.901C599.843 397.945 600.013 397.989 600.175 398.033C600.631 398.166 601.051 398.32 601.434 398.497C601.817 398.659 602.149 398.866 602.429 399.116C602.709 399.366 602.922 399.669 603.07 400.022C603.232 400.376 603.313 400.803 603.313 401.304C603.313 401.702 603.224 402.092 603.048 402.475C602.871 402.843 602.635 403.175 602.34 403.47C602.06 403.764 601.736 404 601.368 404.177C601 404.354 600.631 404.442 600.263 404.442C599.438 404.442 598.635 404.258 597.854 403.89C597.073 403.521 596.447 403.013 595.976 402.365H595.954ZM612.567 401.282C612.803 401.193 613.016 401.157 613.208 401.171C613.414 401.186 613.583 401.238 613.716 401.326C613.863 401.414 613.974 401.532 614.048 401.68C614.136 401.812 614.18 401.959 614.18 402.122C614.18 402.284 614.129 402.446 614.025 402.608C613.922 402.755 613.76 402.895 613.539 403.028C612.92 403.396 612.25 403.713 611.528 403.978C610.821 404.228 610.106 404.354 609.385 404.354C608.957 404.354 608.523 404.287 608.081 404.155C607.639 404.037 607.226 403.845 606.843 403.58C606.224 403.123 605.738 402.527 605.385 401.79C605.046 401.039 604.876 400.273 604.876 399.492C604.876 398.726 605.024 397.989 605.318 397.282C605.628 396.575 606.114 396 606.777 395.558C607.307 395.19 607.882 394.895 608.501 394.674C609.119 394.453 609.76 394.343 610.423 394.343C610.777 394.343 611.123 394.379 611.462 394.453C611.786 394.527 612.088 394.659 612.368 394.851C612.648 395.028 612.891 395.249 613.097 395.514C613.304 395.764 613.466 396.044 613.583 396.354C613.701 396.663 613.76 396.972 613.76 397.282C613.76 397.488 613.738 397.687 613.694 397.878C613.65 398.07 613.569 398.254 613.451 398.431C613.23 398.785 612.928 399.094 612.545 399.359C612.162 399.61 611.742 399.831 611.285 400.022C610.828 400.214 610.357 400.376 609.871 400.508C609.385 400.641 608.928 400.759 608.501 400.862C608.044 400.98 607.749 401.053 607.617 401.083C607.499 401.112 607.425 401.127 607.396 401.127C607.602 401.554 607.897 401.893 608.28 402.144C608.663 402.394 609.134 402.497 609.694 402.453C610.165 402.424 610.652 402.291 611.153 402.055C611.668 401.805 612.14 401.547 612.567 401.282ZM608.501 396.84C608.014 397.09 607.653 397.429 607.418 397.856C607.182 398.269 607.049 398.733 607.02 399.249C607.02 399.249 607.027 399.249 607.042 399.249C607.071 399.234 607.138 399.212 607.241 399.182C607.359 399.153 607.528 399.109 607.749 399.05C607.97 398.976 608.287 398.88 608.699 398.762C608.847 398.718 609.068 398.659 609.362 398.586C609.657 398.497 609.952 398.401 610.246 398.298C610.556 398.18 610.836 398.048 611.086 397.901C611.351 397.753 611.528 397.591 611.617 397.414C611.646 396.987 611.55 396.692 611.329 396.53C611.108 396.368 610.843 396.287 610.534 396.287C610.195 396.287 609.834 396.354 609.451 396.486C609.068 396.604 608.751 396.722 608.501 396.84Z" fill="black"/>
<path d="M489.661 429.052C489.767 428.522 489.811 427.894 489.793 427.169C489.776 426.444 489.652 425.746 489.422 425.074C489.21 424.402 488.874 423.836 488.414 423.377C487.972 422.917 487.362 422.687 486.585 422.687C485.736 422.687 485.055 422.961 484.543 423.509C484.03 424.057 483.641 424.729 483.376 425.525C483.128 426.303 482.978 427.116 482.925 427.965C482.872 428.796 482.89 429.503 482.978 430.086C483.031 430.475 483.119 430.882 483.243 431.306C483.385 431.73 483.561 432.119 483.773 432.473C483.986 432.827 484.251 433.109 484.569 433.322C484.905 433.534 485.303 433.631 485.762 433.613C486.399 433.578 486.929 433.436 487.354 433.189C487.796 432.924 488.167 432.597 488.467 432.208C488.768 431.801 489.007 431.341 489.183 430.829C489.378 430.298 489.528 429.75 489.634 429.185L489.661 429.052ZM492.71 429.582C492.481 430.873 492.039 432.11 491.385 433.295C490.73 434.462 489.82 435.408 488.653 436.133C488.07 436.415 487.451 436.601 486.797 436.69C486.143 436.778 485.497 436.769 484.861 436.663C484.224 436.557 483.623 436.336 483.057 436C482.492 435.682 482.006 435.249 481.599 434.701C480.715 433.498 480.14 432.252 479.875 430.961C479.628 429.671 479.619 428.309 479.849 426.877C480.008 425.87 480.282 424.871 480.671 423.881C481.077 422.891 481.643 422.024 482.368 421.282C482.951 420.681 483.597 420.23 484.304 419.929C485.011 419.611 485.727 419.443 486.452 419.425C487.194 419.408 487.919 419.54 488.627 419.823C489.351 420.106 490.014 420.53 490.615 421.096C491.217 421.662 491.685 422.29 492.021 422.979C492.375 423.651 492.622 424.349 492.764 425.074C492.905 425.799 492.967 426.55 492.949 427.328C492.931 428.088 492.852 428.84 492.71 429.582ZM499.298 434.541C499.298 434.983 499.192 435.364 498.979 435.682C498.785 435.982 498.537 436.212 498.237 436.371C497.936 436.53 497.6 436.61 497.229 436.61C496.876 436.628 496.54 436.566 496.221 436.424C495.903 436.301 495.629 436.097 495.399 435.814C495.187 435.531 495.063 435.169 495.028 434.727C494.993 434.267 495.072 433.887 495.267 433.587C495.479 433.269 495.744 433.03 496.062 432.871C496.38 432.712 496.725 432.632 497.097 432.632C497.468 432.614 497.813 432.676 498.131 432.818C498.467 432.941 498.741 433.154 498.953 433.454C499.183 433.737 499.298 434.099 499.298 434.541ZM511.276 433.454C511.629 433.56 511.939 433.764 512.204 434.064C512.469 434.365 512.646 434.683 512.734 435.019C512.84 435.337 512.823 435.646 512.681 435.947C512.558 436.23 512.275 436.407 511.833 436.477C510.984 436.619 510.109 436.681 509.207 436.663C508.306 436.663 507.457 436.654 506.661 436.636C506.113 436.636 505.733 436.469 505.521 436.133C505.327 435.797 505.265 435.434 505.335 435.045C505.424 434.639 505.645 434.276 505.998 433.958C506.352 433.622 506.803 433.454 507.351 433.454V423.801C507.121 423.854 506.891 423.845 506.661 423.775C506.432 423.686 506.228 423.562 506.051 423.403C505.875 423.244 505.733 423.059 505.627 422.846C505.539 422.617 505.512 422.387 505.548 422.157C505.601 421.768 505.795 421.37 506.131 420.964C506.485 420.557 506.891 420.221 507.351 419.956C507.811 419.691 508.279 419.531 508.756 419.478C509.251 419.425 509.676 419.549 510.029 419.85C510.171 419.956 510.295 420.106 510.401 420.301C510.524 420.495 510.586 420.672 510.586 420.831C510.604 422.952 510.604 425.065 510.586 427.169C510.586 429.255 510.586 431.35 510.586 433.454H511.276ZM527.393 434.144C527.269 433.808 527.225 433.472 527.26 433.136C527.313 432.8 527.428 432.517 527.605 432.287C527.799 432.04 528.047 431.872 528.347 431.783C528.648 431.677 528.984 431.704 529.355 431.863C529.691 432.004 529.974 432.217 530.204 432.499C530.451 432.765 530.743 432.977 531.079 433.136C531.539 433.366 532.007 433.534 532.484 433.64C532.82 433.728 533.156 433.79 533.492 433.825C533.828 433.843 534.173 433.852 534.526 433.852C534.792 433.781 535.021 433.71 535.216 433.64C535.41 433.569 535.623 433.419 535.852 433.189C536.118 432.959 536.286 432.685 536.356 432.367C536.445 432.049 536.445 431.739 536.356 431.439C536.286 431.12 536.135 430.838 535.905 430.59C535.693 430.325 535.428 430.148 535.11 430.06C534.491 429.848 533.872 429.688 533.254 429.582C532.635 429.459 532.034 429.317 531.45 429.158C530.867 428.999 530.31 428.778 529.78 428.495C529.267 428.194 528.789 427.77 528.347 427.222C528.1 426.922 527.941 426.656 527.87 426.427C527.799 426.197 527.72 425.905 527.631 425.551C527.472 424.703 527.534 423.987 527.817 423.403C528.118 422.82 528.489 422.29 528.931 421.812C529.497 421.193 530.133 420.725 530.84 420.407C531.565 420.071 532.317 419.859 533.094 419.77C533.89 419.664 534.686 419.682 535.481 419.823C536.294 419.947 537.063 420.168 537.788 420.486C538.213 420.663 538.478 420.937 538.584 421.308C538.708 421.68 538.717 422.042 538.61 422.396C538.504 422.749 538.301 423.041 538.001 423.271C537.7 423.501 537.346 423.58 536.94 423.509C536.515 423.421 536.118 423.333 535.746 423.244C535.375 423.138 535.004 423.05 534.633 422.979C534.35 422.926 534.04 422.917 533.704 422.952C533.386 422.988 533.077 423.05 532.776 423.138C532.493 423.209 532.228 423.297 531.981 423.403C531.733 423.492 531.547 423.589 531.424 423.695C531.282 423.819 531.141 423.978 530.999 424.172C530.876 424.367 530.805 424.588 530.787 424.835C530.752 425.136 530.867 425.383 531.132 425.578C531.397 425.772 531.68 425.914 531.981 426.002C532.564 426.126 533.165 426.25 533.784 426.373C534.403 426.48 535.013 426.639 535.614 426.851C536.215 427.045 536.772 427.302 537.284 427.62C537.815 427.938 538.266 428.362 538.637 428.893C539.044 429.352 539.335 429.874 539.512 430.457C539.689 431.041 539.751 431.624 539.698 432.208C539.662 432.791 539.53 433.357 539.3 433.905C539.07 434.435 538.752 434.904 538.345 435.31C538.062 435.593 537.762 435.832 537.444 436.027C537.143 436.239 536.816 436.442 536.462 436.636C535.755 437.008 534.995 437.193 534.182 437.193C533.368 437.193 532.555 437.07 531.742 436.822C530.929 436.592 530.16 436.265 529.435 435.841C528.71 435.399 528.091 434.922 527.578 434.409L527.393 434.144ZM552.516 420.804C552.622 420.451 552.79 420.159 553.02 419.929C553.268 419.699 553.533 419.549 553.816 419.478C554.099 419.408 554.382 419.425 554.664 419.531C554.965 419.638 555.221 419.85 555.433 420.168C555.504 420.256 555.566 420.362 555.619 420.486C555.69 420.61 555.725 420.725 555.725 420.831C555.725 421.025 555.716 421.352 555.699 421.812C555.681 422.272 555.663 422.74 555.646 423.218C555.646 423.695 555.637 424.119 555.619 424.491C555.601 424.862 555.593 425.056 555.593 425.074C555.557 426.029 555.495 426.983 555.407 427.938C555.319 428.875 555.195 429.821 555.036 430.776C554.894 431.518 554.726 432.208 554.532 432.844C554.337 433.463 554.072 434.02 553.736 434.515C553.4 434.992 552.976 435.408 552.463 435.761C551.951 436.115 551.314 436.398 550.554 436.61C550.253 436.698 549.935 436.76 549.599 436.796C549.281 436.831 548.972 436.849 548.671 436.849C547.787 436.849 546.885 436.681 545.966 436.345C544.923 435.938 544.136 435.266 543.606 434.329C543.075 433.392 542.704 432.349 542.492 431.2C542.28 430.033 542.174 428.857 542.174 427.673C542.191 426.488 542.2 425.445 542.2 424.544C542.2 424.172 542.2 423.801 542.2 423.43C542.218 423.041 542.236 422.661 542.253 422.29C542.253 422.024 542.262 421.75 542.28 421.467C542.298 421.167 542.351 420.884 542.439 420.619C542.527 420.354 542.66 420.124 542.837 419.929C543.031 419.735 543.296 419.602 543.632 419.531C543.827 419.496 544.03 419.514 544.242 419.585C544.472 419.655 544.675 419.761 544.852 419.903C545.029 420.027 545.179 420.186 545.303 420.38C545.427 420.557 545.489 420.751 545.489 420.964C545.489 421.246 545.489 421.476 545.489 421.653C545.489 421.812 545.489 421.962 545.489 422.104C545.489 422.228 545.48 422.36 545.462 422.502C545.462 422.643 545.462 422.829 545.462 423.059C545.427 424.225 545.409 425.392 545.409 426.559C545.409 427.708 545.48 428.857 545.621 430.007C545.674 430.484 545.754 430.979 545.86 431.492C545.966 432.004 546.178 432.446 546.496 432.818C546.779 433.154 547.142 433.392 547.584 433.534C548.043 433.657 548.503 433.693 548.963 433.64C549.44 433.587 549.882 433.454 550.289 433.242C550.713 433.03 551.04 432.747 551.27 432.393C551.5 432.04 551.677 431.624 551.8 431.147C551.924 430.67 552.012 430.175 552.066 429.662C552.136 429.149 552.18 428.645 552.198 428.15C552.233 427.638 552.26 427.169 552.278 426.745C552.313 426.25 552.34 425.825 552.357 425.472C552.375 425.118 552.393 424.694 552.41 424.199C552.428 423.828 552.437 423.456 552.437 423.085C552.437 422.714 552.446 422.343 552.463 421.971L552.516 420.804ZM561.022 437.008C560.563 436.919 560.165 436.707 559.829 436.371C559.511 436.035 559.352 435.62 559.352 435.125V423.96C559.033 424.013 558.724 423.978 558.423 423.854C558.123 423.713 557.884 423.536 557.707 423.324C557.531 423.094 557.433 422.838 557.416 422.555C557.38 422.254 557.469 421.971 557.681 421.706C557.911 421.406 558.185 421.158 558.503 420.964C558.821 420.751 559.157 420.583 559.511 420.46C559.864 420.318 560.227 420.203 560.598 420.115C560.987 420.027 561.358 419.947 561.712 419.876C562.702 419.717 563.692 419.682 564.682 419.77C565.672 419.841 566.609 420.053 567.493 420.407C568.377 420.76 569.181 421.255 569.906 421.892C570.649 422.528 571.25 423.324 571.71 424.278C571.993 424.862 572.196 425.472 572.32 426.108C572.443 426.727 572.514 427.355 572.532 427.991C572.549 428.822 572.452 429.627 572.24 430.404C572.028 431.182 571.71 431.916 571.285 432.606C570.861 433.277 570.348 433.878 569.747 434.409C569.146 434.939 568.474 435.381 567.732 435.735C567.078 436.035 566.379 436.256 565.637 436.398C564.912 436.539 564.196 436.663 563.489 436.769C563.135 436.822 562.755 436.875 562.348 436.928C561.959 436.999 561.579 437.034 561.208 437.034L561.022 437.008ZM563.886 422.926C563.657 422.926 563.436 422.935 563.223 422.952C563.029 422.97 562.817 422.997 562.587 423.032V433.666C562.693 433.666 562.781 433.657 562.852 433.64C562.923 433.622 562.994 433.613 563.064 433.613C563.135 433.613 563.197 433.604 563.25 433.587C563.497 433.551 563.701 433.525 563.86 433.507C564.019 433.49 564.169 433.472 564.311 433.454C564.452 433.419 564.594 433.383 564.735 433.348C564.894 433.313 565.071 433.269 565.265 433.215C566.291 432.95 567.095 432.535 567.679 431.969C568.28 431.386 568.731 430.59 569.031 429.582C569.226 428.999 569.314 428.407 569.296 427.806C569.279 427.204 569.164 426.63 568.952 426.082C568.757 425.534 568.465 425.039 568.076 424.597C567.688 424.137 567.21 423.775 566.644 423.509C566.185 423.297 565.725 423.156 565.265 423.085C564.823 423.014 564.364 422.961 563.886 422.926ZM585.995 419.691C586.331 419.832 586.605 420.062 586.817 420.38C587.047 420.681 587.179 420.999 587.215 421.335C587.268 421.653 587.206 421.945 587.029 422.21C586.87 422.475 586.578 422.652 586.154 422.74C585.341 422.882 584.572 422.944 583.847 422.926C583.14 422.908 582.521 422.899 581.99 422.899C581.99 425.021 581.999 427.107 582.017 429.158C582.035 431.209 582.026 433.375 581.99 435.655C581.99 436.15 581.823 436.504 581.487 436.716C581.151 436.946 580.779 437.043 580.373 437.008C579.984 436.972 579.621 436.813 579.286 436.53C578.95 436.248 578.782 435.859 578.782 435.364C578.764 433.277 578.755 431.2 578.755 429.131C578.755 427.063 578.755 424.986 578.755 422.899C578.596 422.899 578.322 422.908 577.933 422.926C577.562 422.944 577.146 422.952 576.687 422.952C576.245 422.935 575.785 422.899 575.308 422.846C574.83 422.776 574.415 422.652 574.061 422.475C573.778 422.334 573.593 422.13 573.504 421.865C573.416 421.582 573.407 421.299 573.478 421.017C573.566 420.734 573.716 420.469 573.929 420.221C574.141 419.973 574.406 419.806 574.724 419.717C576.209 419.629 577.641 419.602 579.02 419.638C580.417 419.655 581.831 419.664 583.263 419.664C583.688 419.664 584.112 419.664 584.536 419.664C584.961 419.646 585.394 419.638 585.836 419.638L585.995 419.691ZM607.089 417.569C607.301 417.215 607.566 416.977 607.884 416.853C608.203 416.729 608.521 416.703 608.839 416.773C609.157 416.827 609.431 416.977 609.661 417.224C609.909 417.472 610.05 417.799 610.086 418.206C610.103 418.418 610.068 418.665 609.979 418.948C609.891 419.213 609.785 419.487 609.661 419.77C609.555 420.035 609.44 420.283 609.317 420.513C609.193 420.743 609.113 420.902 609.078 420.99C608.813 421.609 608.547 422.228 608.282 422.846C608.017 423.448 607.752 424.057 607.487 424.676C606.55 426.851 605.613 429.017 604.676 431.173C603.756 433.313 602.819 435.452 601.865 437.591C601.723 437.909 601.493 438.13 601.175 438.254C600.875 438.396 600.556 438.431 600.22 438.36C599.902 438.29 599.61 438.13 599.345 437.883C599.098 437.653 598.956 437.326 598.921 436.902C598.886 436.424 598.965 435.991 599.16 435.602C599.372 435.213 599.575 434.789 599.77 434.329C600.035 433.71 600.3 433.101 600.565 432.499C600.83 431.881 601.096 431.262 601.361 430.643C601.431 430.484 601.538 430.236 601.679 429.901C601.838 429.565 602.006 429.193 602.183 428.787C602.36 428.38 602.536 427.965 602.713 427.54C602.908 427.098 603.084 426.701 603.244 426.347C603.403 425.993 603.526 425.702 603.615 425.472C603.721 425.224 603.774 425.101 603.774 425.101C604.322 423.863 604.861 422.634 605.392 421.414C605.922 420.177 606.452 418.948 606.983 417.728L607.089 417.569ZM622.01 434.223C621.904 433.923 621.86 433.631 621.877 433.348C621.895 433.048 621.966 432.782 622.09 432.552C622.231 432.305 622.426 432.119 622.673 431.996C622.921 431.854 623.221 431.801 623.575 431.836C623.769 431.854 623.946 431.907 624.105 431.996C624.264 432.084 624.406 432.19 624.529 432.314C624.671 432.438 624.803 432.57 624.927 432.712C625.069 432.853 625.21 432.977 625.351 433.083C625.652 433.313 625.97 433.481 626.306 433.587C626.642 433.693 626.996 433.772 627.367 433.825C627.614 433.825 627.809 433.764 627.95 433.64C628.109 433.516 628.216 433.366 628.269 433.189C628.322 433.012 628.33 432.827 628.295 432.632C628.277 432.42 628.216 432.252 628.109 432.128C627.809 431.828 627.438 431.633 626.996 431.545C626.571 431.456 626.174 431.35 625.802 431.227C625.272 431.05 624.75 430.829 624.238 430.564C623.725 430.281 623.309 429.901 622.991 429.423C622.655 428.928 622.452 428.407 622.381 427.859C622.328 427.293 622.372 426.745 622.514 426.214C622.673 425.684 622.929 425.198 623.283 424.756C623.637 424.314 624.061 423.951 624.556 423.669C624.927 423.456 625.334 423.324 625.776 423.271C626.218 423.2 626.66 423.182 627.102 423.218C627.561 423.253 628.012 423.341 628.454 423.483C628.896 423.607 629.303 423.748 629.674 423.907C630.098 424.102 630.417 424.376 630.629 424.729C630.841 425.083 630.938 425.445 630.921 425.817C630.921 426.17 630.797 426.48 630.549 426.745C630.319 427.01 629.975 427.143 629.515 427.143C629.232 427.143 628.976 427.098 628.746 427.01C628.516 426.904 628.277 426.807 628.03 426.718C627.712 426.594 627.367 426.515 626.996 426.48C626.624 426.427 626.324 426.444 626.094 426.533C626.023 426.55 625.944 426.612 625.855 426.718C625.767 426.807 625.696 426.922 625.643 427.063C625.608 427.204 625.599 427.346 625.617 427.487C625.652 427.629 625.749 427.744 625.908 427.832C626.333 428.062 626.784 428.239 627.261 428.362C627.738 428.486 628.207 428.628 628.666 428.787C629.126 428.946 629.55 429.149 629.939 429.397C630.346 429.644 630.682 429.998 630.947 430.457C631.336 431.129 631.53 431.836 631.53 432.579C631.548 433.304 631.407 433.985 631.106 434.621C630.806 435.257 630.364 435.797 629.78 436.239C629.197 436.698 628.516 436.972 627.738 437.061C627.19 437.114 626.651 437.078 626.121 436.955C625.59 436.849 625.077 436.663 624.582 436.398C624.087 436.15 623.628 435.85 623.203 435.496C622.779 435.143 622.408 434.771 622.09 434.382L622.01 434.223ZM643.095 432.446C643.519 432.34 643.891 432.34 644.209 432.446C644.545 432.535 644.801 432.694 644.978 432.924C645.155 433.154 645.234 433.436 645.217 433.772C645.199 434.108 645.049 434.462 644.766 434.833C644.536 435.134 644.218 435.39 643.811 435.602C643.404 435.814 643.024 435.982 642.671 436.106C641.804 436.424 640.982 436.645 640.204 436.769C639.426 436.893 638.693 436.893 638.003 436.769C637.331 436.645 636.695 436.389 636.094 436C635.51 435.611 634.962 435.063 634.45 434.356C634.096 433.878 633.831 433.339 633.654 432.738C633.495 432.119 633.407 431.492 633.389 430.855C633.371 430.219 633.424 429.591 633.548 428.972C633.672 428.354 633.849 427.797 634.078 427.302C634.379 426.683 634.856 426.117 635.51 425.604C636.165 425.092 636.889 424.685 637.685 424.385C638.481 424.084 639.294 423.916 640.125 423.881C640.956 423.828 641.689 423.951 642.326 424.252C642.856 424.499 643.307 424.862 643.678 425.339C644.067 425.799 644.333 426.303 644.474 426.851C644.615 427.399 644.624 427.956 644.501 428.522C644.394 429.07 644.112 429.573 643.652 430.033C643.21 430.475 642.724 430.838 642.193 431.12C641.663 431.386 641.115 431.624 640.549 431.836C639.983 432.031 639.4 432.199 638.799 432.34C638.215 432.482 637.65 432.641 637.102 432.818C637.473 433.242 637.897 433.516 638.375 433.64C638.852 433.746 639.347 433.764 639.86 433.693C640.39 433.622 640.92 433.481 641.451 433.269C641.981 433.039 642.476 432.791 642.936 432.526L643.095 432.446ZM637.738 427.885C637.331 428.115 637.031 428.407 636.836 428.76C636.642 429.096 636.501 429.573 636.412 430.192C636.872 430.051 637.384 429.901 637.95 429.741C638.534 429.582 639.082 429.414 639.594 429.238C640.107 429.061 640.54 428.866 640.894 428.654C641.247 428.442 641.424 428.212 641.424 427.965C641.424 427.823 641.398 427.691 641.345 427.567C641.309 427.425 641.221 427.328 641.08 427.275C640.584 427.098 640.072 427.063 639.541 427.169C639.011 427.275 638.569 427.425 638.215 427.62L637.738 427.885ZM654.255 432.685C654.697 432.402 655.113 432.278 655.502 432.314C655.908 432.349 656.235 432.491 656.483 432.738C656.748 432.968 656.889 433.286 656.907 433.693C656.942 434.082 656.81 434.497 656.509 434.939C656.315 435.24 656.032 435.514 655.661 435.761C655.307 436.009 654.962 436.203 654.626 436.345C653.848 436.698 653.062 436.857 652.266 436.822C651.471 436.787 650.728 436.592 650.039 436.239C649.367 435.885 648.783 435.399 648.288 434.78C647.793 434.144 647.457 433.41 647.281 432.579C646.927 430.988 646.998 429.459 647.493 427.991C647.687 427.461 647.917 426.948 648.182 426.453C648.465 425.958 648.801 425.507 649.19 425.101C649.579 424.694 650.012 424.34 650.489 424.04C650.967 423.722 651.488 423.509 652.054 423.403C652.443 423.333 652.938 423.341 653.539 423.43C654.14 423.501 654.724 423.651 655.289 423.881C655.873 424.11 656.377 424.411 656.801 424.782C657.243 425.154 657.49 425.596 657.544 426.108C657.579 426.391 657.544 426.656 657.437 426.904C657.331 427.134 657.181 427.328 656.987 427.487C656.792 427.646 656.562 427.761 656.297 427.832C656.05 427.885 655.793 427.876 655.528 427.806C655.21 427.717 654.953 427.602 654.759 427.461C654.582 427.302 654.344 427.098 654.043 426.851C653.902 426.815 653.769 426.762 653.645 426.692C653.521 426.603 653.389 426.568 653.247 426.586L652.531 426.665C652.408 426.736 652.293 426.798 652.187 426.851C652.081 426.904 651.974 426.957 651.868 427.01C651.267 427.611 650.825 428.283 650.542 429.025C650.26 429.75 650.189 430.537 650.33 431.386C650.419 431.934 650.587 432.385 650.834 432.738C651.099 433.092 651.4 433.339 651.736 433.481C652.089 433.604 652.469 433.613 652.876 433.507C653.3 433.401 653.716 433.162 654.123 432.791L654.255 432.685Z" fill="black"/>
<path d="M747.501 415.442C832.277 415.443 901.001 484.167 901.001 568.942C901.001 653.718 832.277 722.442 747.501 722.442C662.725 722.442 594 653.718 594 568.942C594 484.167 662.725 415.442 747.501 415.442Z" fill="white" stroke="black" stroke-width="6"/>
<path d="M748.203 466.455C725.591 463.179 721.302 434.49 721.302 434.49C721.302 434.49 709.996 446.185 686.604 446.185C653.074 446.185 642.444 430.3 647.226 415.779C653.388 397.068 684.654 402.135 684.654 402.135C684.654 402.135 690.245 387.903 697.91 383.034C707.067 377.217 725.591 380.695 725.591 380.695C725.591 380.695 743.525 334.948 782.902 345.612C811.363 353.319 801.616 388.102 801.616 388.102C801.616 388.102 861.274 402.915 846.452 437.999C827.348 483.217 787.971 443.846 787.971 443.846C787.971 443.846 782.902 471.482 748.203 466.455Z" fill="black" stroke="black" stroke-width="6"/>
<path d="M658.548 427.231C658.548 416.835 668.052 409.026 678.224 409.888" stroke="white" stroke-width="6" stroke-linecap="round"/>
<path d="M693.831 406.653C693.831 395.748 708.826 386.153 719.887 387.651" stroke="white" stroke-width="6" stroke-linecap="round"/>
<path d="M736.083 385.951C736.083 371.995 750.259 356.956 764.484 356.887" stroke="white" stroke-width="6" stroke-linecap="round"/>
</g>
<rect x="3" y="3" width="1038" height="556" rx="11" stroke="black" stroke-width="6"/>
<defs>
<clipPath id="clip0_413_1560">
<rect x="6" y="6" width="1032" height="550" rx="8" fill="white"/>
</clipPath>
</defs>
</svg>
