<svg width="500" height="550" viewBox="0 0 500 550" fill="none" xmlns="http://www.w3.org/2000/svg">
<g clip-path="url(#clip0_416_1867)">
<rect width="500" height="550" rx="8" fill="#FDE64B"/>
<rect y="468" width="500" height="82" fill="#030303"/>
<path d="M95 123H405C412.18 123 418 128.82 418 136V471H82V136C82 128.82 87.8203 123 95 123Z" fill="white" stroke="black" stroke-width="6"/>
<circle cx="134" cy="162" r="6" fill="#70FF6E" stroke="black" stroke-width="4"/>
<rect x="148" y="154" width="88" height="16" rx="8" fill="#FDE64B" stroke="black" stroke-width="4"/>
<circle cx="270" cy="162" r="6" fill="#70FF6E" stroke="black" stroke-width="4"/>
<rect x="284" y="154" width="88" height="16" rx="8" fill="#FDE64B" stroke="black" stroke-width="4"/>
<circle cx="134" cy="202" r="6" fill="#70FF6E" stroke="black" stroke-width="4"/>
<rect x="148" y="194" width="88" height="16" rx="8" fill="#FDE64B" stroke="black" stroke-width="4"/>
<circle cx="270" cy="202" r="6" fill="#70FF6E" stroke="black" stroke-width="4"/>
<rect x="284" y="194" width="88" height="16" rx="8" fill="#FDE64B" stroke="black" stroke-width="4"/>
<circle cx="134" cy="242" r="6" fill="#70FF6E" stroke="black" stroke-width="4"/>
<rect x="148" y="234" width="88" height="16" rx="8" fill="#FDE64B" stroke="black" stroke-width="4"/>
<circle cx="270" cy="242" r="6" fill="#70FF6E" stroke="black" stroke-width="4"/>
<rect x="284" y="234" width="88" height="16" rx="8" fill="#FDE64B" stroke="black" stroke-width="4"/>
<circle cx="134" cy="282" r="6" fill="#70FF6E" stroke="black" stroke-width="4"/>
<rect x="148" y="274" width="88" height="16" rx="8" fill="#FDE64B" stroke="black" stroke-width="4"/>
<circle cx="270" cy="282" r="6" fill="#70FF6E" stroke="black" stroke-width="4"/>
<rect x="284" y="274" width="88" height="16" rx="8" fill="#FDE64B" stroke="black" stroke-width="4"/>
<circle cx="134" cy="322" r="6" fill="#70FF6E" stroke="black" stroke-width="4"/>
<rect x="148" y="314" width="88" height="16" rx="8" fill="#FDE64B" stroke="black" stroke-width="4"/>
<circle cx="270" cy="322" r="6" fill="#70FF6E" stroke="black" stroke-width="4"/>
<rect x="284" y="314" width="88" height="16" rx="8" fill="#FDE64B" stroke="black" stroke-width="4"/>
<circle cx="151" cy="396" r="38" fill="#FDE64B" stroke="black" stroke-width="4"/>
<path d="M149.261 394.594H158.305L144.067 419L147.959 400.695H140L142.115 387.136H150.848L149.261 394.594Z" fill="#030303"/>
<path d="M163.729 385.779H142.332L143.39 379H167.797L163.729 385.779Z" fill="#030303"/>
<path d="M208.149 375.757C208.326 375.153 208.687 374.851 209.232 374.851C209.35 374.851 209.431 374.858 209.475 374.873C210.035 374.622 210.617 374.424 211.221 374.276C211.825 374.114 212.444 374.033 213.077 374.033C213.505 374.033 213.917 374.077 214.315 374.166C214.713 374.239 215.103 374.387 215.486 374.608V374.586C215.899 374.792 216.267 375.057 216.591 375.381C216.915 375.705 217.195 376.066 217.431 376.464C217.667 376.862 217.843 377.282 217.961 377.724C218.094 378.166 218.16 378.608 218.16 379.05C218.16 379.919 217.924 380.715 217.453 381.436C216.967 382.188 216.363 382.792 215.641 383.249C214.934 383.691 214.101 383.948 213.144 384.022C212.967 384.037 212.783 384.052 212.591 384.066C212.414 384.066 212.245 384.066 212.083 384.066C211.773 384.066 211.471 384.059 211.177 384.044C210.882 384.015 210.602 383.985 210.337 383.956C210.337 384.516 210.337 385.127 210.337 385.79C210.337 386.453 210.344 387.05 210.359 387.58C210.344 387.963 210.219 388.243 209.983 388.42C209.762 388.597 209.519 388.685 209.254 388.685C209.004 388.685 208.768 388.597 208.547 388.42C208.341 388.258 208.215 388.007 208.171 387.669V383.47L208.127 383.448C207.641 383.168 207.398 382.836 207.398 382.453C207.398 382.276 207.457 382.107 207.575 381.945C207.692 381.783 207.884 381.665 208.149 381.591V375.757ZM214.448 376.331C214.02 376.096 213.556 375.978 213.055 375.978C212.584 375.978 212.112 376.052 211.641 376.199C211.184 376.331 210.75 376.501 210.337 376.707V381.989C210.897 382.107 211.449 382.166 211.994 382.166C212.569 382.166 213.136 382.085 213.696 381.923C214.271 381.746 214.742 381.466 215.11 381.083C215.405 380.788 215.611 380.457 215.729 380.088C215.862 379.72 215.928 379.344 215.928 378.961C215.928 378.401 215.803 377.893 215.552 377.436C215.317 376.965 214.948 376.597 214.448 376.331ZM227.243 386.961C227.331 387.182 227.346 387.396 227.287 387.602C227.243 387.794 227.14 387.948 226.978 388.066C226.83 388.199 226.639 388.273 226.403 388.287C226.167 388.317 225.917 388.265 225.652 388.133C225.534 388.015 225.416 387.897 225.298 387.779C225.195 387.646 225.107 387.521 225.033 387.403C224.503 387.801 224.002 388.052 223.53 388.155C223.073 388.273 222.573 388.331 222.027 388.331C221.63 388.331 221.239 388.287 220.856 388.199C220.488 388.125 220.112 387.963 219.729 387.713C219.169 387.315 218.771 386.843 218.536 386.298C218.3 385.753 218.182 385.179 218.182 384.575C218.182 383.956 218.27 383.374 218.447 382.829C218.639 382.269 218.897 381.753 219.221 381.282C219.545 380.796 219.913 380.354 220.326 379.956C220.753 379.558 221.21 379.204 221.696 378.895C221.799 378.836 221.939 378.77 222.116 378.696C222.307 378.622 222.521 378.556 222.757 378.497C222.992 378.424 223.235 378.372 223.486 378.343C223.736 378.298 223.98 378.276 224.215 378.276C224.672 378.276 225.077 378.335 225.431 378.453C225.799 378.556 226.064 378.821 226.226 379.249C226.226 379.691 226.226 380.059 226.226 380.354C226.226 380.648 226.219 380.899 226.204 381.105C226.204 381.297 226.204 381.459 226.204 381.591C226.204 381.724 226.204 381.849 226.204 381.967C226.204 382.483 226.219 383.02 226.248 383.58C226.278 384.125 226.329 384.663 226.403 385.193C226.433 385.355 226.499 385.547 226.602 385.768C226.72 385.989 226.838 386.188 226.956 386.365H226.933C227.037 386.527 227.118 386.659 227.177 386.762C227.25 386.866 227.272 386.932 227.243 386.961ZM224.259 385.392C224.142 384.877 224.068 384.346 224.038 383.801C224.009 383.241 223.994 382.689 223.994 382.144C223.994 381.761 224.002 381.414 224.016 381.105C224.031 380.796 224.038 380.494 224.038 380.199C223.788 380.228 223.53 380.295 223.265 380.398C223.014 380.501 222.838 380.575 222.735 380.619C222.337 380.796 221.976 381.046 221.652 381.37C221.342 381.694 221.084 382.055 220.878 382.453C220.672 382.851 220.517 383.271 220.414 383.713C220.326 384.14 220.318 384.56 220.392 384.972C220.436 385.297 220.547 385.569 220.724 385.79C220.915 385.996 221.136 386.158 221.387 386.276C221.637 386.379 221.902 386.431 222.182 386.431C222.477 386.431 222.757 386.387 223.022 386.298C223.346 386.107 223.759 385.805 224.259 385.392ZM236.151 378.586C236.372 378.173 236.711 377.967 237.167 377.967C237.462 377.967 237.705 378.07 237.897 378.276C238.103 378.483 238.206 378.77 238.206 379.138C237.97 380.052 237.676 380.958 237.322 381.856C236.983 382.74 236.6 383.617 236.173 384.486C235.76 385.341 235.318 386.188 234.847 387.028C234.39 387.867 233.926 388.7 233.455 389.525C233.219 389.937 232.983 390.343 232.747 390.74C232.526 391.138 232.298 391.551 232.062 391.978C231.9 392.184 231.724 392.331 231.532 392.42C231.355 392.508 231.186 392.552 231.024 392.552C230.744 392.552 230.508 392.471 230.317 392.309C230.125 392.147 230.029 391.897 230.029 391.558C230.029 391.514 230.029 391.462 230.029 391.403C230.029 391.359 230.037 391.308 230.051 391.249C230.302 390.777 230.56 390.313 230.825 389.856C231.105 389.4 231.37 388.943 231.62 388.486L232.968 386.077C232.379 385.606 231.856 385.127 231.399 384.641C230.943 384.155 230.53 383.646 230.162 383.116C229.808 382.571 229.491 381.989 229.212 381.37C228.946 380.737 228.711 380.052 228.504 379.315C228.504 378.475 228.851 378.055 229.543 378.055C229.779 378.055 229.992 378.122 230.184 378.254C230.39 378.387 230.538 378.6 230.626 378.895C230.921 380.059 231.348 381.061 231.908 381.901C232.468 382.74 233.145 383.514 233.941 384.221C234.412 383.308 234.825 382.409 235.178 381.525C235.532 380.626 235.849 379.646 236.129 378.586H236.151ZM256.344 386.961C256.433 387.182 256.448 387.396 256.389 387.602C256.344 387.794 256.241 387.948 256.079 388.066C255.932 388.199 255.74 388.273 255.505 388.287C255.269 388.317 255.018 388.265 254.753 388.133C254.635 388.015 254.518 387.897 254.4 387.779C254.297 387.646 254.208 387.521 254.134 387.403C253.604 387.801 253.103 388.052 252.632 388.155C252.175 388.273 251.674 388.331 251.129 388.331C250.731 388.331 250.341 388.287 249.958 388.199C249.589 388.125 249.214 387.963 248.831 387.713C248.271 387.315 247.873 386.843 247.637 386.298C247.402 385.753 247.284 385.179 247.284 384.575C247.284 383.956 247.372 383.374 247.549 382.829C247.74 382.269 247.998 381.753 248.322 381.282C248.646 380.796 249.015 380.354 249.427 379.956C249.855 379.558 250.311 379.204 250.797 378.895C250.901 378.836 251.041 378.77 251.217 378.696C251.409 378.622 251.623 378.556 251.858 378.497C252.094 378.424 252.337 378.372 252.588 378.343C252.838 378.298 253.081 378.276 253.317 378.276C253.774 378.276 254.179 378.335 254.532 378.453C254.901 378.556 255.166 378.821 255.328 379.249C255.328 379.691 255.328 380.059 255.328 380.354C255.328 380.648 255.32 380.899 255.306 381.105C255.306 381.297 255.306 381.459 255.306 381.591C255.306 381.724 255.306 381.849 255.306 381.967C255.306 382.483 255.32 383.02 255.35 383.58C255.379 384.125 255.431 384.663 255.505 385.193C255.534 385.355 255.6 385.547 255.704 385.768C255.821 385.989 255.939 386.188 256.057 386.365H256.035C256.138 386.527 256.219 386.659 256.278 386.762C256.352 386.866 256.374 386.932 256.344 386.961ZM253.361 385.392C253.243 384.877 253.169 384.346 253.14 383.801C253.111 383.241 253.096 382.689 253.096 382.144C253.096 381.761 253.103 381.414 253.118 381.105C253.133 380.796 253.14 380.494 253.14 380.199C252.89 380.228 252.632 380.295 252.367 380.398C252.116 380.501 251.939 380.575 251.836 380.619C251.438 380.796 251.077 381.046 250.753 381.37C250.444 381.694 250.186 382.055 249.98 382.453C249.774 382.851 249.619 383.271 249.516 383.713C249.427 384.14 249.42 384.56 249.494 384.972C249.538 385.297 249.648 385.569 249.825 385.79C250.017 385.996 250.238 386.158 250.488 386.276C250.739 386.379 251.004 386.431 251.284 386.431C251.578 386.431 251.858 386.387 252.123 386.298C252.448 386.107 252.86 385.805 253.361 385.392ZM257.821 386.365C257.615 385.937 257.607 385.584 257.799 385.304C258.005 385.009 258.3 384.862 258.683 384.862C258.933 384.862 259.206 384.958 259.5 385.149C259.81 385.562 260.178 385.908 260.605 386.188C261.033 386.468 261.482 386.564 261.953 386.475C262.174 386.431 262.366 386.35 262.528 386.232C262.705 386.099 262.83 385.952 262.904 385.79C262.992 385.628 263.036 385.451 263.036 385.26C263.036 385.068 262.985 384.891 262.882 384.729C262.749 384.523 262.602 384.361 262.44 384.243C262.292 384.125 262.13 384.037 261.953 383.978C261.791 383.919 261.629 383.875 261.467 383.845C261.32 383.816 261.18 383.779 261.047 383.735C260.826 383.676 260.605 383.617 260.384 383.558C260.163 383.484 259.95 383.396 259.743 383.293C259.537 383.19 259.338 383.064 259.147 382.917C258.955 382.755 258.771 382.556 258.594 382.32C258.432 382.099 258.307 381.864 258.219 381.613C258.13 381.348 258.086 381.105 258.086 380.884C258.086 380.575 258.145 380.258 258.263 379.934C258.381 379.61 258.535 379.315 258.727 379.05C258.933 378.77 259.169 378.534 259.434 378.343C259.714 378.136 260.009 377.996 260.318 377.923C260.937 377.761 261.578 377.738 262.241 377.856C262.918 377.974 263.522 378.18 264.053 378.475C264.259 378.622 264.414 378.777 264.517 378.939C264.62 379.101 264.672 379.256 264.672 379.403C264.672 379.58 264.62 379.742 264.517 379.89C264.429 380.022 264.303 380.133 264.141 380.221C263.994 380.309 263.817 380.354 263.611 380.354C263.419 380.354 263.213 380.295 262.992 380.177C262.815 380.088 262.565 380.007 262.241 379.934C261.931 379.845 261.622 379.816 261.312 379.845C261.003 379.86 260.745 379.956 260.539 380.133C260.333 380.309 260.252 380.604 260.296 381.017C260.384 381.179 260.487 381.319 260.605 381.436C260.738 381.54 260.878 381.628 261.025 381.702C261.187 381.775 261.357 381.842 261.533 381.901C261.71 381.945 261.88 381.989 262.042 382.033C262.499 382.166 262.918 382.32 263.301 382.497C263.685 382.659 264.016 382.866 264.296 383.116C264.576 383.366 264.789 383.669 264.937 384.022C265.099 384.376 265.18 384.803 265.18 385.304C265.18 385.702 265.092 386.092 264.915 386.475C264.738 386.843 264.502 387.175 264.208 387.47C263.928 387.764 263.603 388 263.235 388.177C262.867 388.354 262.499 388.442 262.13 388.442C261.305 388.442 260.502 388.258 259.721 387.89C258.94 387.521 258.314 387.013 257.843 386.365H257.821ZM281.717 378.586C281.938 378.173 282.277 377.967 282.734 377.967C283.028 377.967 283.272 378.07 283.463 378.276C283.669 378.483 283.772 378.77 283.772 379.138C283.537 380.052 283.242 380.958 282.888 381.856C282.55 382.74 282.167 383.617 281.739 384.486C281.327 385.341 280.885 386.188 280.413 387.028C279.957 387.867 279.493 388.7 279.021 389.525C278.785 389.937 278.55 390.343 278.314 390.74C278.093 391.138 277.865 391.551 277.629 391.978C277.467 392.184 277.29 392.331 277.098 392.42C276.922 392.508 276.752 392.552 276.59 392.552C276.31 392.552 276.074 392.471 275.883 392.309C275.691 392.147 275.596 391.897 275.596 391.558C275.596 391.514 275.596 391.462 275.596 391.403C275.596 391.359 275.603 391.308 275.618 391.249C275.868 390.777 276.126 390.313 276.391 389.856C276.671 389.4 276.936 388.943 277.187 388.486L278.535 386.077C277.946 385.606 277.423 385.127 276.966 384.641C276.509 384.155 276.097 383.646 275.728 383.116C275.375 382.571 275.058 381.989 274.778 381.37C274.513 380.737 274.277 380.052 274.071 379.315C274.071 378.475 274.417 378.055 275.109 378.055C275.345 378.055 275.559 378.122 275.75 378.254C275.957 378.387 276.104 378.6 276.192 378.895C276.487 380.059 276.914 381.061 277.474 381.901C278.034 382.74 278.712 383.514 279.507 384.221C279.979 383.308 280.391 382.409 280.745 381.525C281.098 380.626 281.415 379.646 281.695 378.586H281.717ZM289.396 378.365C290.015 378.365 290.56 378.497 291.031 378.762C291.517 379.028 291.922 379.381 292.247 379.823C292.585 380.25 292.836 380.744 292.998 381.304C293.175 381.849 293.263 382.409 293.263 382.983C293.263 383.234 293.248 383.47 293.219 383.691C293.189 383.897 293.153 384.11 293.108 384.331C292.946 384.936 292.703 385.503 292.379 386.033C292.07 386.564 291.701 387.028 291.274 387.425C290.847 387.808 290.368 388.11 289.838 388.331C289.322 388.552 288.777 388.663 288.202 388.663C287.598 388.663 287.046 388.53 286.545 388.265C286.059 388 285.646 387.661 285.307 387.249C284.968 386.821 284.703 386.35 284.512 385.834C284.335 385.304 284.247 384.773 284.247 384.243C284.247 383.506 284.379 382.792 284.644 382.099C284.924 381.392 285.293 380.766 285.749 380.221C286.221 379.661 286.766 379.212 287.385 378.873C288.018 378.534 288.689 378.365 289.396 378.365ZM286.545 383.116C286.457 383.455 286.412 383.831 286.412 384.243C286.412 384.656 286.471 385.046 286.589 385.414C286.707 385.768 286.899 386.07 287.164 386.32C287.444 386.571 287.812 386.696 288.269 386.696C288.711 386.696 289.101 386.571 289.44 386.32C289.794 386.055 290.088 385.738 290.324 385.37C290.574 384.987 290.766 384.582 290.899 384.155C291.031 383.713 291.097 383.315 291.097 382.961C291.097 382.637 291.061 382.32 290.987 382.011C290.913 381.687 290.795 381.4 290.633 381.149C290.486 380.899 290.302 380.7 290.081 380.552C289.86 380.39 289.609 380.309 289.329 380.309C288.976 380.309 288.644 380.405 288.335 380.597C288.026 380.773 287.746 381.002 287.495 381.282C287.259 381.547 287.061 381.849 286.899 382.188C286.736 382.512 286.619 382.821 286.545 383.116ZM304.032 386.365C304.224 386.63 304.319 386.873 304.319 387.094C304.319 387.359 304.216 387.58 304.01 387.757C303.818 387.919 303.583 388 303.303 388C302.964 388 302.669 387.875 302.419 387.624C302.183 387.374 301.984 387.079 301.822 386.74C301.454 387.079 301.019 387.374 300.518 387.624C300.017 387.875 299.509 388 298.993 388C298.596 388 298.198 387.934 297.8 387.801C297.417 387.654 297.056 387.462 296.717 387.227C296.393 386.976 296.106 386.689 295.855 386.365C295.62 386.041 295.435 385.694 295.303 385.326C295.185 384.943 295.104 384.523 295.06 384.066C295.03 383.61 295.015 383.131 295.015 382.63C295.015 382.306 295.015 381.989 295.015 381.68C295.015 381.37 295.023 381.068 295.038 380.773C295.052 380.523 295.06 380.28 295.06 380.044C295.074 379.808 295.082 379.587 295.082 379.381C295.155 379.057 295.288 378.821 295.48 378.674C295.686 378.527 295.922 378.453 296.187 378.453C296.408 378.453 296.621 378.527 296.828 378.674C297.049 378.807 297.196 379.02 297.27 379.315C297.27 379.654 297.27 379.985 297.27 380.309C297.27 380.634 297.262 380.958 297.247 381.282C297.233 381.621 297.218 381.952 297.203 382.276C297.203 382.6 297.203 382.947 297.203 383.315C297.203 384.11 297.358 384.759 297.667 385.26C297.977 385.761 298.397 386.011 298.927 386.011C299.354 386.011 299.752 385.849 300.12 385.525C300.489 385.186 300.842 384.803 301.181 384.376C301.093 383.669 301.049 382.947 301.049 382.21C301.049 381.783 301.049 381.348 301.049 380.906C301.063 380.464 301.108 380.066 301.181 379.713C301.27 379.344 301.395 379.05 301.557 378.829C301.734 378.593 301.992 378.475 302.33 378.475C302.596 378.475 302.831 378.564 303.038 378.74C303.259 378.917 303.369 379.182 303.369 379.536C303.369 379.845 303.347 380.199 303.303 380.597C303.273 380.847 303.251 381.112 303.236 381.392C303.222 381.672 303.214 381.959 303.214 382.254C303.214 382.652 303.222 383.057 303.236 383.47C303.266 383.867 303.31 384.25 303.369 384.619C303.443 384.987 303.531 385.326 303.634 385.635C303.737 385.93 303.87 386.173 304.032 386.365ZM322.235 386.365C322.427 386.63 322.522 386.873 322.522 387.094C322.522 387.359 322.419 387.58 322.213 387.757C322.022 387.919 321.786 388 321.506 388C321.167 388 320.872 387.875 320.622 387.624C320.386 387.374 320.187 387.079 320.025 386.74C319.657 387.079 319.222 387.374 318.721 387.624C318.22 387.875 317.712 388 317.196 388C316.799 388 316.401 387.934 316.003 387.801C315.62 387.654 315.259 387.462 314.92 387.227C314.596 386.976 314.309 386.689 314.058 386.365C313.823 386.041 313.638 385.694 313.506 385.326C313.388 384.943 313.307 384.523 313.263 384.066C313.233 383.61 313.219 383.131 313.219 382.63C313.219 382.306 313.219 381.989 313.219 381.68C313.219 381.37 313.226 381.068 313.241 380.773C313.255 380.523 313.263 380.28 313.263 380.044C313.278 379.808 313.285 379.587 313.285 379.381C313.359 379.057 313.491 378.821 313.683 378.674C313.889 378.527 314.125 378.453 314.39 378.453C314.611 378.453 314.824 378.527 315.031 378.674C315.252 378.807 315.399 379.02 315.473 379.315C315.473 379.654 315.473 379.985 315.473 380.309C315.473 380.634 315.465 380.958 315.451 381.282C315.436 381.621 315.421 381.952 315.406 382.276C315.406 382.6 315.406 382.947 315.406 383.315C315.406 384.11 315.561 384.759 315.871 385.26C316.18 385.761 316.6 386.011 317.13 386.011C317.557 386.011 317.955 385.849 318.324 385.525C318.692 385.186 319.045 384.803 319.384 384.376C319.296 383.669 319.252 382.947 319.252 382.21C319.252 381.783 319.252 381.348 319.252 380.906C319.266 380.464 319.311 380.066 319.384 379.713C319.473 379.344 319.598 379.05 319.76 378.829C319.937 378.593 320.195 378.475 320.533 378.475C320.799 378.475 321.034 378.564 321.241 378.74C321.462 378.917 321.572 379.182 321.572 379.536C321.572 379.845 321.55 380.199 321.506 380.597C321.476 380.847 321.454 381.112 321.44 381.392C321.425 381.672 321.417 381.959 321.417 382.254C321.417 382.652 321.425 383.057 321.44 383.47C321.469 383.867 321.513 384.25 321.572 384.619C321.646 384.987 321.734 385.326 321.837 385.635C321.94 385.93 322.073 386.173 322.235 386.365ZM323.954 386.365C323.747 385.937 323.74 385.584 323.932 385.304C324.138 385.009 324.432 384.862 324.815 384.862C325.066 384.862 325.338 384.958 325.633 385.149C325.943 385.562 326.311 385.908 326.738 386.188C327.165 386.468 327.615 386.564 328.086 386.475C328.307 386.431 328.499 386.35 328.661 386.232C328.838 386.099 328.963 385.952 329.036 385.79C329.125 385.628 329.169 385.451 329.169 385.26C329.169 385.068 329.118 384.891 329.014 384.729C328.882 384.523 328.734 384.361 328.572 384.243C328.425 384.125 328.263 384.037 328.086 383.978C327.924 383.919 327.762 383.875 327.6 383.845C327.453 383.816 327.313 383.779 327.18 383.735C326.959 383.676 326.738 383.617 326.517 383.558C326.296 383.484 326.083 383.396 325.876 383.293C325.67 383.19 325.471 383.064 325.28 382.917C325.088 382.755 324.904 382.556 324.727 382.32C324.565 382.099 324.44 381.864 324.351 381.613C324.263 381.348 324.219 381.105 324.219 380.884C324.219 380.575 324.278 380.258 324.396 379.934C324.513 379.61 324.668 379.315 324.86 379.05C325.066 378.77 325.302 378.534 325.567 378.343C325.847 378.136 326.141 377.996 326.451 377.923C327.07 377.761 327.711 377.738 328.373 377.856C329.051 377.974 329.655 378.18 330.186 378.475C330.392 378.622 330.547 378.777 330.65 378.939C330.753 379.101 330.804 379.256 330.804 379.403C330.804 379.58 330.753 379.742 330.65 379.89C330.561 380.022 330.436 380.133 330.274 380.221C330.127 380.309 329.95 380.354 329.744 380.354C329.552 380.354 329.346 380.295 329.125 380.177C328.948 380.088 328.698 380.007 328.373 379.934C328.064 379.845 327.755 379.816 327.445 379.845C327.136 379.86 326.878 379.956 326.672 380.133C326.466 380.309 326.385 380.604 326.429 381.017C326.517 381.179 326.62 381.319 326.738 381.436C326.871 381.54 327.011 381.628 327.158 381.702C327.32 381.775 327.49 381.842 327.666 381.901C327.843 381.945 328.013 381.989 328.175 382.033C328.631 382.166 329.051 382.32 329.434 382.497C329.817 382.659 330.149 382.866 330.429 383.116C330.709 383.366 330.922 383.669 331.07 384.022C331.232 384.376 331.313 384.803 331.313 385.304C331.313 385.702 331.224 386.092 331.048 386.475C330.871 386.843 330.635 387.175 330.34 387.47C330.06 387.764 329.736 388 329.368 388.177C329 388.354 328.631 388.442 328.263 388.442C327.438 388.442 326.635 388.258 325.854 387.89C325.073 387.521 324.447 387.013 323.976 386.365H323.954ZM340.567 385.282C340.803 385.193 341.016 385.157 341.208 385.171C341.414 385.186 341.583 385.238 341.716 385.326C341.863 385.414 341.974 385.532 342.048 385.68C342.136 385.812 342.18 385.959 342.18 386.122C342.18 386.284 342.129 386.446 342.025 386.608C341.922 386.755 341.76 386.895 341.539 387.028C340.92 387.396 340.25 387.713 339.528 387.978C338.821 388.228 338.106 388.354 337.385 388.354C336.957 388.354 336.523 388.287 336.081 388.155C335.639 388.037 335.226 387.845 334.843 387.58C334.224 387.123 333.738 386.527 333.385 385.79C333.046 385.039 332.876 384.273 332.876 383.492C332.876 382.726 333.024 381.989 333.318 381.282C333.628 380.575 334.114 380 334.777 379.558C335.307 379.19 335.882 378.895 336.501 378.674C337.119 378.453 337.76 378.343 338.423 378.343C338.777 378.343 339.123 378.379 339.462 378.453C339.786 378.527 340.088 378.659 340.368 378.851C340.648 379.028 340.891 379.249 341.097 379.514C341.304 379.764 341.466 380.044 341.583 380.354C341.701 380.663 341.76 380.972 341.76 381.282C341.76 381.488 341.738 381.687 341.694 381.878C341.65 382.07 341.569 382.254 341.451 382.431C341.23 382.785 340.928 383.094 340.545 383.359C340.162 383.61 339.742 383.831 339.285 384.022C338.828 384.214 338.357 384.376 337.871 384.508C337.385 384.641 336.928 384.759 336.501 384.862C336.044 384.98 335.749 385.053 335.617 385.083C335.499 385.112 335.425 385.127 335.396 385.127C335.602 385.554 335.897 385.893 336.28 386.144C336.663 386.394 337.134 386.497 337.694 386.453C338.165 386.424 338.652 386.291 339.153 386.055C339.668 385.805 340.14 385.547 340.567 385.282ZM336.501 380.84C336.014 381.09 335.653 381.429 335.418 381.856C335.182 382.269 335.049 382.733 335.02 383.249C335.02 383.249 335.027 383.249 335.042 383.249C335.071 383.234 335.138 383.212 335.241 383.182C335.359 383.153 335.528 383.109 335.749 383.05C335.97 382.976 336.287 382.88 336.699 382.762C336.847 382.718 337.068 382.659 337.362 382.586C337.657 382.497 337.952 382.401 338.246 382.298C338.556 382.18 338.836 382.048 339.086 381.901C339.351 381.753 339.528 381.591 339.617 381.414C339.646 380.987 339.55 380.692 339.329 380.53C339.108 380.368 338.843 380.287 338.534 380.287C338.195 380.287 337.834 380.354 337.451 380.486C337.068 380.604 336.751 380.722 336.501 380.84Z" fill="black"/>
<path d="M217.661 413.052C217.767 412.522 217.811 411.894 217.793 411.169C217.776 410.444 217.652 409.746 217.422 409.074C217.21 408.402 216.874 407.836 216.414 407.377C215.972 406.917 215.362 406.687 214.585 406.687C213.736 406.687 213.055 406.961 212.543 407.509C212.03 408.057 211.641 408.729 211.376 409.525C211.128 410.303 210.978 411.116 210.925 411.965C210.872 412.796 210.89 413.503 210.978 414.086C211.031 414.475 211.119 414.882 211.243 415.306C211.385 415.73 211.561 416.119 211.773 416.473C211.986 416.827 212.251 417.109 212.569 417.322C212.905 417.534 213.303 417.631 213.762 417.613C214.399 417.578 214.929 417.436 215.354 417.189C215.796 416.924 216.167 416.597 216.467 416.208C216.768 415.801 217.007 415.341 217.183 414.829C217.378 414.298 217.528 413.75 217.634 413.185L217.661 413.052ZM220.71 413.582C220.481 414.873 220.039 416.11 219.385 417.295C218.73 418.462 217.82 419.408 216.653 420.133C216.07 420.415 215.451 420.601 214.797 420.69C214.143 420.778 213.497 420.769 212.861 420.663C212.224 420.557 211.623 420.336 211.057 420C210.492 419.682 210.006 419.249 209.599 418.701C208.715 417.498 208.14 416.252 207.875 414.961C207.628 413.671 207.619 412.309 207.849 410.877C208.008 409.87 208.282 408.871 208.671 407.881C209.077 406.891 209.643 406.024 210.368 405.282C210.951 404.681 211.597 404.23 212.304 403.929C213.011 403.611 213.727 403.443 214.452 403.425C215.194 403.408 215.919 403.54 216.627 403.823C217.351 404.106 218.014 404.53 218.615 405.096C219.217 405.662 219.685 406.29 220.021 406.979C220.375 407.651 220.622 408.349 220.764 409.074C220.905 409.799 220.967 410.55 220.949 411.328C220.931 412.088 220.852 412.84 220.71 413.582ZM227.298 418.541C227.298 418.983 227.192 419.364 226.979 419.682C226.785 419.982 226.537 420.212 226.237 420.371C225.936 420.53 225.6 420.61 225.229 420.61C224.876 420.628 224.54 420.566 224.221 420.424C223.903 420.301 223.629 420.097 223.399 419.814C223.187 419.531 223.063 419.169 223.028 418.727C222.993 418.267 223.072 417.887 223.267 417.587C223.479 417.269 223.744 417.03 224.062 416.871C224.38 416.712 224.725 416.632 225.097 416.632C225.468 416.614 225.813 416.676 226.131 416.818C226.467 416.941 226.741 417.154 226.953 417.454C227.183 417.737 227.298 418.099 227.298 418.541ZM239.276 417.454C239.629 417.56 239.939 417.764 240.204 418.064C240.469 418.365 240.646 418.683 240.734 419.019C240.84 419.337 240.823 419.646 240.681 419.947C240.558 420.23 240.275 420.407 239.833 420.477C238.984 420.619 238.109 420.681 237.207 420.663C236.306 420.663 235.457 420.654 234.661 420.636C234.113 420.636 233.733 420.469 233.521 420.133C233.327 419.797 233.265 419.434 233.335 419.045C233.424 418.639 233.645 418.276 233.998 417.958C234.352 417.622 234.803 417.454 235.351 417.454V407.801C235.121 407.854 234.891 407.845 234.661 407.775C234.432 407.686 234.228 407.562 234.051 407.403C233.875 407.244 233.733 407.059 233.627 406.846C233.539 406.617 233.512 406.387 233.548 406.157C233.601 405.768 233.795 405.37 234.131 404.964C234.485 404.557 234.891 404.221 235.351 403.956C235.811 403.691 236.279 403.531 236.756 403.478C237.251 403.425 237.676 403.549 238.029 403.85C238.171 403.956 238.295 404.106 238.401 404.301C238.524 404.495 238.586 404.672 238.586 404.831C238.604 406.952 238.604 409.065 238.586 411.169C238.586 413.255 238.586 415.35 238.586 417.454H239.276ZM255.393 418.144C255.269 417.808 255.225 417.472 255.26 417.136C255.313 416.8 255.428 416.517 255.605 416.287C255.799 416.04 256.047 415.872 256.347 415.783C256.648 415.677 256.984 415.704 257.355 415.863C257.691 416.004 257.974 416.217 258.204 416.499C258.451 416.765 258.743 416.977 259.079 417.136C259.539 417.366 260.007 417.534 260.484 417.64C260.82 417.728 261.156 417.79 261.492 417.825C261.828 417.843 262.173 417.852 262.526 417.852C262.792 417.781 263.021 417.71 263.216 417.64C263.41 417.569 263.623 417.419 263.852 417.189C264.118 416.959 264.286 416.685 264.356 416.367C264.445 416.049 264.445 415.739 264.356 415.439C264.286 415.12 264.135 414.838 263.905 414.59C263.693 414.325 263.428 414.148 263.11 414.06C262.491 413.848 261.872 413.688 261.254 413.582C260.635 413.459 260.034 413.317 259.45 413.158C258.867 412.999 258.31 412.778 257.78 412.495C257.267 412.194 256.789 411.77 256.347 411.222C256.1 410.922 255.941 410.656 255.87 410.427C255.799 410.197 255.72 409.905 255.631 409.551C255.472 408.703 255.534 407.987 255.817 407.403C256.118 406.82 256.489 406.29 256.931 405.812C257.497 405.193 258.133 404.725 258.84 404.407C259.565 404.071 260.317 403.859 261.094 403.77C261.89 403.664 262.686 403.682 263.481 403.823C264.294 403.947 265.063 404.168 265.788 404.486C266.213 404.663 266.478 404.937 266.584 405.308C266.708 405.68 266.717 406.042 266.61 406.396C266.504 406.749 266.301 407.041 266.001 407.271C265.7 407.501 265.346 407.58 264.94 407.509C264.515 407.421 264.118 407.333 263.746 407.244C263.375 407.138 263.004 407.05 262.633 406.979C262.35 406.926 262.04 406.917 261.704 406.952C261.386 406.988 261.077 407.05 260.776 407.138C260.493 407.209 260.228 407.297 259.981 407.403C259.733 407.492 259.547 407.589 259.424 407.695C259.282 407.819 259.141 407.978 258.999 408.172C258.876 408.367 258.805 408.588 258.787 408.835C258.752 409.136 258.867 409.383 259.132 409.578C259.397 409.772 259.68 409.914 259.981 410.002C260.564 410.126 261.165 410.25 261.784 410.373C262.403 410.48 263.013 410.639 263.614 410.851C264.215 411.045 264.772 411.302 265.284 411.62C265.815 411.938 266.266 412.362 266.637 412.893C267.044 413.352 267.335 413.874 267.512 414.457C267.689 415.041 267.751 415.624 267.698 416.208C267.662 416.791 267.53 417.357 267.3 417.905C267.07 418.435 266.752 418.904 266.345 419.31C266.062 419.593 265.762 419.832 265.444 420.027C265.143 420.239 264.816 420.442 264.462 420.636C263.755 421.008 262.995 421.193 262.182 421.193C261.368 421.193 260.555 421.07 259.742 420.822C258.929 420.592 258.16 420.265 257.435 419.841C256.71 419.399 256.091 418.922 255.578 418.409L255.393 418.144ZM280.516 404.804C280.622 404.451 280.79 404.159 281.02 403.929C281.268 403.699 281.533 403.549 281.816 403.478C282.099 403.408 282.382 403.425 282.664 403.531C282.965 403.638 283.221 403.85 283.433 404.168C283.504 404.256 283.566 404.362 283.619 404.486C283.69 404.61 283.725 404.725 283.725 404.831C283.725 405.025 283.716 405.352 283.699 405.812C283.681 406.272 283.663 406.74 283.646 407.218C283.646 407.695 283.637 408.119 283.619 408.491C283.601 408.862 283.593 409.056 283.593 409.074C283.557 410.029 283.495 410.983 283.407 411.938C283.319 412.875 283.195 413.821 283.036 414.776C282.894 415.518 282.726 416.208 282.532 416.844C282.337 417.463 282.072 418.02 281.736 418.515C281.4 418.992 280.976 419.408 280.463 419.761C279.951 420.115 279.314 420.398 278.554 420.61C278.253 420.698 277.935 420.76 277.599 420.796C277.281 420.831 276.972 420.849 276.671 420.849C275.787 420.849 274.885 420.681 273.966 420.345C272.923 419.938 272.136 419.266 271.606 418.329C271.075 417.392 270.704 416.349 270.492 415.2C270.28 414.033 270.174 412.857 270.174 411.673C270.191 410.488 270.2 409.445 270.2 408.544C270.2 408.172 270.2 407.801 270.2 407.43C270.218 407.041 270.236 406.661 270.253 406.29C270.253 406.024 270.262 405.75 270.28 405.467C270.298 405.167 270.351 404.884 270.439 404.619C270.527 404.354 270.66 404.124 270.837 403.929C271.031 403.735 271.296 403.602 271.632 403.531C271.827 403.496 272.03 403.514 272.242 403.585C272.472 403.655 272.675 403.761 272.852 403.903C273.029 404.027 273.179 404.186 273.303 404.38C273.427 404.557 273.489 404.751 273.489 404.964C273.489 405.246 273.489 405.476 273.489 405.653C273.489 405.812 273.489 405.962 273.489 406.104C273.489 406.228 273.48 406.36 273.462 406.502C273.462 406.643 273.462 406.829 273.462 407.059C273.427 408.225 273.409 409.392 273.409 410.559C273.409 411.708 273.48 412.857 273.621 414.007C273.674 414.484 273.754 414.979 273.86 415.492C273.966 416.004 274.178 416.446 274.496 416.818C274.779 417.154 275.142 417.392 275.584 417.534C276.043 417.657 276.503 417.693 276.963 417.64C277.44 417.587 277.882 417.454 278.289 417.242C278.713 417.03 279.04 416.747 279.27 416.393C279.5 416.04 279.677 415.624 279.8 415.147C279.924 414.67 280.012 414.175 280.066 413.662C280.136 413.149 280.18 412.645 280.198 412.15C280.233 411.638 280.26 411.169 280.278 410.745C280.313 410.25 280.34 409.825 280.357 409.472C280.375 409.118 280.393 408.694 280.41 408.199C280.428 407.828 280.437 407.456 280.437 407.085C280.437 406.714 280.446 406.343 280.463 405.971L280.516 404.804ZM289.022 421.008C288.563 420.919 288.165 420.707 287.829 420.371C287.511 420.035 287.352 419.62 287.352 419.125V407.96C287.033 408.013 286.724 407.978 286.423 407.854C286.123 407.713 285.884 407.536 285.707 407.324C285.531 407.094 285.433 406.838 285.416 406.555C285.38 406.254 285.469 405.971 285.681 405.706C285.911 405.406 286.185 405.158 286.503 404.964C286.821 404.751 287.157 404.583 287.511 404.46C287.864 404.318 288.227 404.203 288.598 404.115C288.987 404.027 289.358 403.947 289.712 403.876C290.702 403.717 291.692 403.682 292.682 403.77C293.672 403.841 294.609 404.053 295.493 404.407C296.377 404.76 297.181 405.255 297.906 405.892C298.649 406.528 299.25 407.324 299.71 408.278C299.993 408.862 300.196 409.472 300.32 410.108C300.443 410.727 300.514 411.355 300.532 411.991C300.549 412.822 300.452 413.627 300.24 414.404C300.028 415.182 299.71 415.916 299.285 416.606C298.861 417.277 298.348 417.878 297.747 418.409C297.146 418.939 296.474 419.381 295.732 419.735C295.078 420.035 294.379 420.256 293.637 420.398C292.912 420.539 292.196 420.663 291.489 420.769C291.135 420.822 290.755 420.875 290.348 420.928C289.959 420.999 289.579 421.034 289.208 421.034L289.022 421.008ZM291.886 406.926C291.657 406.926 291.436 406.935 291.223 406.952C291.029 406.97 290.817 406.997 290.587 407.032V417.666C290.693 417.666 290.781 417.657 290.852 417.64C290.923 417.622 290.994 417.613 291.064 417.613C291.135 417.613 291.197 417.604 291.25 417.587C291.497 417.551 291.701 417.525 291.86 417.507C292.019 417.49 292.169 417.472 292.311 417.454C292.452 417.419 292.594 417.383 292.735 417.348C292.894 417.313 293.071 417.269 293.265 417.215C294.291 416.95 295.095 416.535 295.679 415.969C296.28 415.386 296.731 414.59 297.031 413.582C297.226 412.999 297.314 412.407 297.296 411.806C297.279 411.204 297.164 410.63 296.952 410.082C296.757 409.534 296.465 409.039 296.076 408.597C295.688 408.137 295.21 407.775 294.644 407.509C294.185 407.297 293.725 407.156 293.265 407.085C292.823 407.014 292.364 406.961 291.886 406.926ZM313.995 403.691C314.331 403.832 314.605 404.062 314.817 404.38C315.047 404.681 315.179 404.999 315.215 405.335C315.268 405.653 315.206 405.945 315.029 406.21C314.87 406.475 314.578 406.652 314.154 406.74C313.341 406.882 312.572 406.944 311.847 406.926C311.14 406.908 310.521 406.899 309.99 406.899C309.99 409.021 309.999 411.107 310.017 413.158C310.035 415.209 310.026 417.375 309.99 419.655C309.99 420.15 309.823 420.504 309.487 420.716C309.151 420.946 308.779 421.043 308.373 421.008C307.984 420.972 307.621 420.813 307.286 420.53C306.95 420.248 306.782 419.859 306.782 419.364C306.764 417.277 306.755 415.2 306.755 413.131C306.755 411.063 306.755 408.986 306.755 406.899C306.596 406.899 306.322 406.908 305.933 406.926C305.562 406.944 305.146 406.952 304.687 406.952C304.245 406.935 303.785 406.899 303.308 406.846C302.83 406.776 302.415 406.652 302.061 406.475C301.778 406.334 301.593 406.13 301.504 405.865C301.416 405.582 301.407 405.299 301.478 405.017C301.566 404.734 301.716 404.469 301.929 404.221C302.141 403.973 302.406 403.806 302.724 403.717C304.209 403.629 305.641 403.602 307.02 403.638C308.417 403.655 309.831 403.664 311.263 403.664C311.688 403.664 312.112 403.664 312.536 403.664C312.961 403.646 313.394 403.638 313.836 403.638L313.995 403.691ZM335.089 401.569C335.301 401.215 335.566 400.977 335.884 400.853C336.203 400.729 336.521 400.703 336.839 400.773C337.157 400.827 337.431 400.977 337.661 401.224C337.909 401.472 338.05 401.799 338.086 402.206C338.103 402.418 338.068 402.665 337.979 402.948C337.891 403.213 337.785 403.487 337.661 403.77C337.555 404.035 337.44 404.283 337.317 404.513C337.193 404.743 337.113 404.902 337.078 404.99C336.813 405.609 336.547 406.228 336.282 406.846C336.017 407.448 335.752 408.057 335.487 408.676C334.55 410.851 333.613 413.017 332.676 415.173C331.756 417.313 330.819 419.452 329.865 421.591C329.723 421.909 329.493 422.13 329.175 422.254C328.875 422.396 328.556 422.431 328.22 422.36C327.902 422.29 327.61 422.13 327.345 421.883C327.098 421.653 326.956 421.326 326.921 420.902C326.886 420.424 326.965 419.991 327.16 419.602C327.372 419.213 327.575 418.789 327.77 418.329C328.035 417.71 328.3 417.101 328.565 416.499C328.83 415.881 329.096 415.262 329.361 414.643C329.431 414.484 329.538 414.236 329.679 413.901C329.838 413.565 330.006 413.193 330.183 412.787C330.36 412.38 330.536 411.965 330.713 411.54C330.908 411.098 331.084 410.701 331.244 410.347C331.403 409.993 331.526 409.702 331.615 409.472C331.721 409.224 331.774 409.101 331.774 409.101C332.322 407.863 332.861 406.634 333.392 405.414C333.922 404.177 334.452 402.948 334.983 401.728L335.089 401.569ZM350.01 418.223C349.904 417.923 349.86 417.631 349.877 417.348C349.895 417.048 349.966 416.782 350.09 416.552C350.231 416.305 350.426 416.119 350.673 415.996C350.921 415.854 351.221 415.801 351.575 415.836C351.769 415.854 351.946 415.907 352.105 415.996C352.264 416.084 352.406 416.19 352.529 416.314C352.671 416.438 352.803 416.57 352.927 416.712C353.069 416.853 353.21 416.977 353.351 417.083C353.652 417.313 353.97 417.481 354.306 417.587C354.642 417.693 354.996 417.772 355.367 417.825C355.614 417.825 355.809 417.764 355.95 417.64C356.109 417.516 356.216 417.366 356.269 417.189C356.322 417.012 356.33 416.827 356.295 416.632C356.277 416.42 356.216 416.252 356.109 416.128C355.809 415.828 355.438 415.633 354.996 415.545C354.571 415.456 354.174 415.35 353.802 415.227C353.272 415.05 352.75 414.829 352.238 414.564C351.725 414.281 351.309 413.901 350.991 413.423C350.655 412.928 350.452 412.407 350.381 411.859C350.328 411.293 350.372 410.745 350.514 410.214C350.673 409.684 350.929 409.198 351.283 408.756C351.637 408.314 352.061 407.951 352.556 407.669C352.927 407.456 353.334 407.324 353.776 407.271C354.218 407.2 354.66 407.182 355.102 407.218C355.561 407.253 356.012 407.341 356.454 407.483C356.896 407.607 357.303 407.748 357.674 407.907C358.098 408.102 358.417 408.376 358.629 408.729C358.841 409.083 358.938 409.445 358.921 409.817C358.921 410.17 358.797 410.48 358.549 410.745C358.319 411.01 357.975 411.143 357.515 411.143C357.232 411.143 356.976 411.098 356.746 411.01C356.516 410.904 356.277 410.807 356.03 410.718C355.712 410.594 355.367 410.515 354.996 410.48C354.624 410.427 354.324 410.444 354.094 410.533C354.023 410.55 353.944 410.612 353.855 410.718C353.767 410.807 353.696 410.922 353.643 411.063C353.608 411.204 353.599 411.346 353.617 411.487C353.652 411.629 353.749 411.744 353.908 411.832C354.333 412.062 354.784 412.239 355.261 412.362C355.738 412.486 356.207 412.628 356.666 412.787C357.126 412.946 357.55 413.149 357.939 413.397C358.346 413.644 358.682 413.998 358.947 414.457C359.336 415.129 359.53 415.836 359.53 416.579C359.548 417.304 359.407 417.985 359.106 418.621C358.806 419.257 358.364 419.797 357.78 420.239C357.197 420.698 356.516 420.972 355.738 421.061C355.19 421.114 354.651 421.078 354.121 420.955C353.59 420.849 353.077 420.663 352.582 420.398C352.087 420.15 351.628 419.85 351.203 419.496C350.779 419.143 350.408 418.771 350.09 418.382L350.01 418.223ZM371.095 416.446C371.519 416.34 371.891 416.34 372.209 416.446C372.545 416.535 372.801 416.694 372.978 416.924C373.155 417.154 373.234 417.436 373.217 417.772C373.199 418.108 373.049 418.462 372.766 418.833C372.536 419.134 372.218 419.39 371.811 419.602C371.404 419.814 371.024 419.982 370.671 420.106C369.804 420.424 368.982 420.645 368.204 420.769C367.426 420.893 366.693 420.893 366.003 420.769C365.331 420.645 364.695 420.389 364.094 420C363.51 419.611 362.962 419.063 362.45 418.356C362.096 417.878 361.831 417.339 361.654 416.738C361.495 416.119 361.407 415.492 361.389 414.855C361.371 414.219 361.424 413.591 361.548 412.972C361.672 412.354 361.849 411.797 362.078 411.302C362.379 410.683 362.856 410.117 363.51 409.604C364.165 409.092 364.889 408.685 365.685 408.385C366.481 408.084 367.294 407.916 368.125 407.881C368.956 407.828 369.689 407.951 370.326 408.252C370.856 408.499 371.307 408.862 371.678 409.339C372.067 409.799 372.333 410.303 372.474 410.851C372.615 411.399 372.624 411.956 372.501 412.522C372.394 413.07 372.112 413.573 371.652 414.033C371.21 414.475 370.724 414.838 370.193 415.12C369.663 415.386 369.115 415.624 368.549 415.836C367.983 416.031 367.4 416.199 366.799 416.34C366.215 416.482 365.65 416.641 365.102 416.818C365.473 417.242 365.897 417.516 366.375 417.64C366.852 417.746 367.347 417.764 367.86 417.693C368.39 417.622 368.92 417.481 369.451 417.269C369.981 417.039 370.476 416.791 370.936 416.526L371.095 416.446ZM365.738 411.885C365.331 412.115 365.031 412.407 364.836 412.76C364.642 413.096 364.501 413.573 364.412 414.192C364.872 414.051 365.384 413.901 365.95 413.741C366.534 413.582 367.082 413.414 367.594 413.238C368.107 413.061 368.54 412.866 368.894 412.654C369.247 412.442 369.424 412.212 369.424 411.965C369.424 411.823 369.398 411.691 369.345 411.567C369.309 411.425 369.221 411.328 369.08 411.275C368.584 411.098 368.072 411.063 367.541 411.169C367.011 411.275 366.569 411.425 366.215 411.62L365.738 411.885ZM382.255 416.685C382.697 416.402 383.113 416.278 383.502 416.314C383.908 416.349 384.235 416.491 384.483 416.738C384.748 416.968 384.889 417.286 384.907 417.693C384.942 418.082 384.81 418.497 384.509 418.939C384.315 419.24 384.032 419.514 383.661 419.761C383.307 420.009 382.962 420.203 382.626 420.345C381.848 420.698 381.062 420.857 380.266 420.822C379.471 420.787 378.728 420.592 378.039 420.239C377.367 419.885 376.783 419.399 376.288 418.78C375.793 418.144 375.457 417.41 375.281 416.579C374.927 414.988 374.998 413.459 375.493 411.991C375.687 411.461 375.917 410.948 376.182 410.453C376.465 409.958 376.801 409.507 377.19 409.101C377.579 408.694 378.012 408.34 378.489 408.04C378.967 407.722 379.488 407.509 380.054 407.403C380.443 407.333 380.938 407.341 381.539 407.43C382.14 407.501 382.724 407.651 383.289 407.881C383.873 408.11 384.377 408.411 384.801 408.782C385.243 409.154 385.49 409.596 385.544 410.108C385.579 410.391 385.544 410.656 385.437 410.904C385.331 411.134 385.181 411.328 384.987 411.487C384.792 411.646 384.562 411.761 384.297 411.832C384.05 411.885 383.793 411.876 383.528 411.806C383.21 411.717 382.953 411.602 382.759 411.461C382.582 411.302 382.344 411.098 382.043 410.851C381.902 410.815 381.769 410.762 381.645 410.692C381.521 410.603 381.389 410.568 381.247 410.586L380.531 410.665C380.408 410.736 380.293 410.798 380.187 410.851C380.081 410.904 379.974 410.957 379.868 411.01C379.267 411.611 378.825 412.283 378.542 413.025C378.26 413.75 378.189 414.537 378.33 415.386C378.419 415.934 378.587 416.385 378.834 416.738C379.099 417.092 379.4 417.339 379.736 417.481C380.089 417.604 380.469 417.613 380.876 417.507C381.3 417.401 381.716 417.162 382.123 416.791L382.255 416.685Z" fill="black"/>
<rect x="144.674" y="419.918" width="34.7725" height="59.4459" rx="6" transform="rotate(-26 144.674 419.918)" fill="black" stroke="black" stroke-width="4"/>
<rect x="154.581" y="416.65" width="2" height="2" rx="1" transform="rotate(-26 154.581 416.65)" fill="white"/>
<rect x="158.176" y="414.896" width="12" height="2" rx="1" transform="rotate(-26 158.176 414.896)" fill="white"/>
<rect x="148.258" y="423.788" width="31.7229" height="52.8716" rx="4" transform="rotate(-26 148.258 423.788)" fill="white"/>
<path d="M359.501 412.442C444.277 412.443 513.001 481.167 513.001 565.942C513.001 650.718 444.277 719.442 359.501 719.442C274.725 719.442 206 650.718 206 565.942C206 481.167 274.725 412.442 359.501 412.442Z" fill="white" stroke="black" stroke-width="6"/>
<path d="M173.81 441.845C193.444 402.48 258.452 475.318 258.452 475.318L229.93 499.571C229.93 499.571 154.176 481.21 173.81 441.845Z" fill="white"/>
<path d="M258.452 475.318C258.452 475.318 193.444 402.48 173.81 441.845C154.176 481.21 229.93 499.571 229.93 499.571" stroke="black" stroke-width="6" stroke-linecap="round"/>
<path d="M360.204 463.455C337.591 460.179 333.302 431.49 333.302 431.49C333.302 431.49 321.996 443.185 298.604 443.185C265.075 443.185 254.444 427.3 259.226 412.779C265.388 394.068 296.654 399.135 296.654 399.135C296.654 399.135 302.245 384.903 309.91 380.034C319.067 374.217 337.591 377.695 337.591 377.695C337.591 377.695 355.525 331.948 394.902 342.612C423.363 350.319 413.616 385.102 413.616 385.102C413.616 385.102 473.274 399.915 458.452 434.999C439.348 480.217 399.971 440.846 399.971 440.846C399.971 440.846 394.902 468.482 360.204 463.455Z" fill="black" stroke="black" stroke-width="6"/>
<path d="M270.548 424.231C270.548 413.835 280.052 406.026 290.224 406.888" stroke="white" stroke-width="6" stroke-linecap="round"/>
<path d="M305.831 403.653C305.831 392.748 320.826 383.153 331.887 384.651" stroke="white" stroke-width="6" stroke-linecap="round"/>
<path d="M348.083 382.951C348.083 368.995 362.259 353.956 376.484 353.887" stroke="white" stroke-width="6" stroke-linecap="round"/>
</g>
<rect x="3" y="3" width="494" height="544" rx="5" stroke="black" stroke-width="6"/>
<defs>
<clipPath id="clip0_416_1867">
<rect width="500" height="550" rx="8" fill="white"/>
</clipPath>
</defs>
</svg>
