<svg width="500" height="550" viewBox="0 0 500 550" fill="none" xmlns="http://www.w3.org/2000/svg">
<rect x="3" y="3" width="494" height="544" rx="5" fill="white"/>
<rect x="3" y="3" width="494" height="544" rx="5" stroke="black" stroke-width="6"/>
<rect x="402" y="5" width="6" height="495" fill="black"/>
<mask id="path-3-inside-1_409_1041" fill="white">
<path d="M0 498H500V546H0V498Z"/>
</mask>
<path d="M0 498H500V546H0V498Z" fill="#FDE64B"/>
<path d="M0 498V504H500V498V492H0V498Z" fill="black" mask="url(#path-3-inside-1_409_1041)"/>
<rect x="85" y="88" width="287" height="375" fill="#D9D9D9" stroke="black" stroke-width="6"/>
<path d="M103.5 89V427.5M103.5 427.5L87 464.5M103.5 427.5H354.5M374 464.5L354.5 427.5M354.5 427.5V89" stroke="black" stroke-width="6" stroke-linecap="round"/>
<rect x="153" y="216.5" width="160" height="220.364" rx="5" fill="#FDE64B" stroke="black" stroke-width="6"/>
<rect x="183.955" y="266.318" width="11.3182" height="120.727" rx="5.65909" fill="black"/>
<rect x="227.341" y="266.318" width="11.3182" height="120.727" rx="5.65909" fill="black"/>
<rect x="270.727" y="266.318" width="11.3182" height="120.727" rx="5.65909" fill="black"/>
<circle cx="193.386" cy="445.523" r="10.2045" fill="white" stroke="black" stroke-width="6"/>
<circle cx="270.727" cy="445.523" r="10.2045" fill="white" stroke="black" stroke-width="6"/>
<path d="M205.045 175H260.955C262.611 175 263.955 176.343 263.955 178V215.046H202.045V178C202.045 176.343 203.389 175 205.045 175Z" stroke="black" stroke-width="6"/>
<rect x="202.045" y="175" width="61.9091" height="16.6364" rx="8.31818" fill="#FDE64B" stroke="black" stroke-width="6"/>
<path fill-rule="evenodd" clip-rule="evenodd" d="M372 463.358V87.1743L481.753 46V522L372 463.358Z" fill="white"/>
<path fill-rule="evenodd" clip-rule="evenodd" d="M481.753 522V46H496V522H481.753Z" fill="white"/>
<path d="M481.753 522H496V46H481.753L372 87.1743V463.358L481.753 522ZM481.753 46V522" stroke="black" stroke-width="6" stroke-linecap="round"/>
<path d="M450 241.9C450 235.519 455.897 230.77 462.132 232.13C466.725 233.132 470 237.199 470 241.9V284.1C470 290.481 464.103 295.23 457.868 293.87C453.275 292.868 450 288.801 450 284.1V241.9Z" fill="#A2A19E" stroke="black" stroke-width="4"/>
<rect x="48" y="5" width="6" height="495" fill="black"/>
<rect x="194.5" y="26" width="69" height="40" stroke="black" stroke-width="4"/>
<path d="M225.384 48.2099C225.472 47.768 225.509 47.2449 225.494 46.6409C225.48 46.0368 225.377 45.4549 225.185 44.895C225.008 44.3352 224.728 43.8637 224.345 43.4807C223.977 43.0976 223.469 42.9061 222.82 42.9061C222.113 42.9061 221.546 43.1344 221.119 43.5912C220.692 44.0479 220.367 44.6077 220.146 45.2707C219.94 45.919 219.815 46.5967 219.771 47.3039C219.727 47.9963 219.741 48.5856 219.815 49.0718C219.859 49.3959 219.933 49.7348 220.036 50.0884C220.154 50.442 220.301 50.7661 220.478 51.0608C220.655 51.3554 220.876 51.5912 221.141 51.768C221.421 51.9448 221.752 52.0258 222.135 52.011C222.666 51.9816 223.108 51.8637 223.461 51.6575C223.83 51.4365 224.139 51.1639 224.39 50.8398C224.64 50.5009 224.839 50.1179 224.986 49.6906C225.148 49.2486 225.273 48.7919 225.362 48.3204L225.384 48.2099ZM227.925 48.6519C227.734 49.7274 227.366 50.7587 226.82 51.7459C226.275 52.7182 225.517 53.5064 224.544 54.1105C224.058 54.3462 223.542 54.5009 222.997 54.5746C222.452 54.6483 221.914 54.6409 221.384 54.5525C220.854 54.4641 220.353 54.2799 219.881 54C219.41 53.7348 219.005 53.3738 218.666 52.9171C217.929 51.9153 217.45 50.8766 217.229 49.8011C217.023 48.7256 217.016 47.5912 217.207 46.3978C217.34 45.558 217.568 44.7256 217.892 43.9006C218.231 43.0755 218.703 42.3536 219.307 41.7348C219.793 41.2339 220.331 40.8582 220.92 40.6077C221.509 40.3425 222.106 40.2026 222.71 40.1878C223.329 40.1731 223.933 40.2836 224.522 40.5193C225.126 40.7551 225.679 41.1087 226.18 41.5801C226.68 42.0516 227.071 42.5746 227.351 43.1492C227.645 43.709 227.852 44.291 227.97 44.895C228.087 45.4991 228.139 46.1252 228.124 46.7735C228.11 47.407 228.043 48.0331 227.925 48.6519ZM236.677 42.0221C236.088 42.5525 235.565 43.1271 235.108 43.7459C234.666 44.3499 234.254 44.9982 233.871 45.6906C234.165 45.5727 234.467 45.4843 234.777 45.4254C235.086 45.3665 235.41 45.3444 235.749 45.3591C236.221 45.3886 236.648 45.4549 237.031 45.558C237.414 45.6611 237.819 45.8232 238.246 46.0442C238.806 46.3536 239.226 46.7808 239.506 47.326C239.801 47.8564 239.977 48.4309 240.036 49.0497C240.095 49.6685 240.051 50.2873 239.904 50.9061C239.756 51.5249 239.535 52.07 239.241 52.5414C238.843 53.175 238.298 53.6317 237.605 53.9116C236.913 54.1915 236.213 54.3389 235.506 54.3536C234.769 54.3831 234.055 54.2431 233.362 53.9337C232.567 53.5948 231.911 53.0497 231.395 52.2983C230.85 51.5175 230.519 50.6924 230.401 49.8232C230.298 48.9392 230.335 48.0626 230.511 47.1934C230.688 46.3241 230.983 45.477 231.395 44.6519C231.808 43.8122 232.272 43.0387 232.788 42.3315C233.082 41.919 233.407 41.4991 233.76 41.0718C234.128 40.6298 234.526 40.2615 234.953 39.9669C235.307 39.7164 235.653 39.628 235.992 39.7017C236.331 39.7606 236.604 39.9153 236.81 40.1657C237.016 40.4015 237.119 40.6961 237.119 41.0497C237.134 41.3886 236.987 41.7127 236.677 42.0221ZM233.252 49.4254C233.222 49.4843 233.163 49.558 233.075 49.6464C233.09 49.6906 233.112 49.7569 233.141 49.8453C233.171 49.9337 233.2 50.0147 233.23 50.0884C233.259 50.1621 233.274 50.2136 233.274 50.2431C233.289 50.2726 233.274 50.2505 233.23 50.1768C233.318 50.3683 233.451 50.5599 233.628 50.7514C233.804 50.9282 233.974 51.0755 234.136 51.1934C234.254 51.2818 234.379 51.3628 234.511 51.4365C234.659 51.5101 234.814 51.5617 234.976 51.5912C235.27 51.6354 235.565 51.6427 235.86 51.6133C236.154 51.5838 236.434 51.4733 236.699 51.2818C236.906 51.1492 237.06 50.9576 237.163 50.7072C237.281 50.442 237.348 50.1694 237.362 49.8895C237.377 49.5948 237.34 49.3149 237.252 49.0497C237.163 48.7698 237.023 48.5562 236.832 48.4088C236.626 48.2468 236.397 48.1436 236.147 48.0994C235.911 48.0552 235.668 48.0479 235.418 48.0773C235.02 48.1215 234.674 48.2394 234.379 48.4309C234.158 48.5488 233.952 48.6961 233.76 48.8729C233.583 49.0497 233.414 49.2339 233.252 49.4254Z" fill="black"/>
</svg>
