<svg width="24" height="24" viewBox="0 0 24 24" fill="none" xmlns="http://www.w3.org/2000/svg">
<path d="M22 16C22 18.2091 20.2091 20 18 20C15.7909 20 14 18.2091 14 16C14 13.7909 15.7909 12 18 12C18.7288 12 19.4116 12.1956 20 12.5361V4.17968L10 5.84667V18C10 20.2091 8.20914 22 6 22C3.79086 22 2 20.2091 2 18C2 15.7909 3.79086 14 6 14C6.72875 14 7.41155 14.1956 8 14.5361V4.99999C8 4.51115 8.35375 4.09403 8.83594 4.01366L20.8359 2.01366C21.1258 1.96545 21.4223 2.04736 21.6465 2.2373C21.8706 2.4273 22 2.70614 22 2.99999V16Z" fill="black"/>
</svg>
