<svg width="24" height="24" viewBox="0 0 24 24" fill="none" xmlns="http://www.w3.org/2000/svg">
<path d="M10 12.8282V18.0001C9.99988 20.2091 8.20906 22.0001 6 22.0001C3.79094 22.0001 2.00012 20.2091 2 18.0001C2 15.791 3.79086 14.0001 6 14.0001C6.72875 14.0001 7.41155 14.1957 8 14.5362V10.8282L10 12.8282ZM2.29297 2.29306C2.68349 1.90254 3.31651 1.90254 3.70703 2.29306L21.707 20.2931C22.0975 20.6836 22.0975 21.3166 21.707 21.7071C21.3165 22.0976 20.6835 22.0976 20.293 21.7071L2.29297 3.70712C1.90246 3.31661 1.90248 2.68359 2.29297 2.29306ZM20.8359 2.01376C21.1258 1.96555 21.4223 2.04746 21.6465 2.2374C21.8706 2.42739 22 2.70629 22 3.00009V16.0001C22 16.8934 21.7068 17.7182 21.2119 18.3839L15.6152 12.7872C16.281 12.2922 17.1066 12.0001 18 12.0001C18.7288 12.0001 19.4116 12.1957 20 12.5362V4.17978L10 5.84677V7.17197L8 5.17197V5.00009C8 4.51126 8.35377 4.09414 8.83594 4.01376L20.8359 2.01376Z" fill="black"/>
</svg>
